<svg xmlns="http://www.w3.org/2000/svg" xmlns:xlink="http://www.w3.org/1999/xlink" width="1000" zoomAndPan="magnify" viewBox="0 0 750 749.999995" height="1000" preserveAspectRatio="xMidYMid meet" version="1.0"><defs><clipPath id="541f903886"><path d="M 325 230.261719 L 750 230.261719 L 750 519.761719 L 325 519.761719 Z M 325 230.261719 " clip-rule="nonzero"/></clipPath><clipPath id="5b777193de"><path d="M 0 230.261719 L 425 230.261719 L 425 519.761719 L 0 519.761719 Z M 0 230.261719 " clip-rule="nonzero"/></clipPath></defs><g clip-path="url(#541f903886)"><path fill="#18995d" d="M 749.988281 375.011719 C 749.988281 454.957031 655.027344 519.761719 537.878906 519.761719 C 420.738281 519.761719 325.773438 454.957031 325.773438 375.011719 C 325.773438 295.066406 420.738281 230.261719 537.878906 230.261719 C 655.027344 230.261719 749.988281 295.066406 749.988281 375.011719 Z M 749.988281 375.011719 " fill-opacity="1" fill-rule="nonzero"/></g><g clip-path="url(#5b777193de)"><path fill="#18995d" d="M 424.226562 375.011719 C 424.226562 454.957031 329.265625 519.761719 212.121094 519.761719 C 94.972656 519.761719 0.0117188 454.957031 0.0117188 375.011719 C 0.0117188 295.066406 94.972656 230.261719 212.121094 230.261719 C 329.265625 230.261719 424.226562 295.066406 424.226562 375.011719 Z M 424.226562 375.011719 " fill-opacity="1" fill-rule="nonzero"/></g><path fill="#ffffff" d="M 107.832031 358.644531 C 95.230469 355.195312 87.582031 352.632812 87.582031 346.085938 C 87.582031 340.652344 92.949219 337.144531 101.253906 337.144531 C 109.542969 337.144531 117.925781 340.3125 124.847656 346.066406 L 125.039062 346.222656 L 125.855469 330.164062 L 125.859375 330.085938 L 125.789062 330.050781 C 119.148438 326.34375 112.492188 323.875 101.597656 323.875 C 93.714844 323.875 86.535156 325.917969 81.386719 329.636719 C 75.730469 333.71875 72.742188 339.566406 72.742188 346.554688 C 72.742188 360.363281 84.105469 366.253906 93.632812 368.765625 C 106.367188 372.222656 115.382812 375.289062 115.382812 383.292969 C 115.382812 390.03125 109.484375 394.21875 99.988281 394.21875 C 90.46875 394.21875 80.78125 390.078125 73.410156 382.859375 L 73.226562 382.679688 L 71.710938 399.792969 L 71.703125 399.863281 L 71.765625 399.90625 C 79.332031 405.09375 88.890625 407.835938 99.414062 407.835938 C 108.296875 407.835938 115.90625 405.636719 121.410156 401.472656 C 127.324219 397 130.449219 390.433594 130.449219 382.480469 C 130.449219 370.328125 123.050781 362.535156 107.832031 358.644531 Z M 107.832031 358.644531 " fill-opacity="1" fill-rule="nonzero"/><path fill="#ffffff" d="M 186.863281 375.027344 C 186.863281 363.0625 179.722656 355.128906 169.539062 355.128906 C 163.449219 355.128906 157.59375 357.855469 153.382812 364.128906 L 153.382812 386.75 C 157.59375 392.199219 163.332031 394.921875 169.65625 394.921875 C 179.722656 394.921875 186.863281 386.988281 186.863281 375.027344 Z M 201.496094 375.027344 C 201.496094 396.460938 187.800781 407.710938 171.761719 407.710938 C 164.035156 407.710938 157.945312 404.871094 153.382812 400.84375 L 153.382812 425.871094 L 138.867188 425.871094 L 138.867188 343.523438 L 153.382812 343.523438 L 153.382812 350.390625 C 158.179688 345.652344 164.738281 342.339844 172.8125 342.339844 C 188.503906 342.339844 201.496094 353.589844 201.496094 375.027344 Z M 201.496094 375.027344 " fill-opacity="1" fill-rule="nonzero"/><path fill="#ffffff" d="M 255.589844 367.921875 C 255.589844 360.21875 250.789062 354.296875 241.890625 354.296875 C 233.460938 354.296875 226.203125 360.101562 224.332031 369.695312 L 255.355469 369.695312 C 255.472656 369.101562 255.589844 368.628906 255.589844 367.921875 Z M 267.996094 379.761719 L 224.097656 379.761719 C 225.738281 389.59375 232.878906 394.921875 242.710938 394.921875 C 251.140625 394.921875 257.113281 392.910156 263.785156 389 L 264.601562 401.910156 C 258.75 405.226562 251.257812 407.710938 241.660156 407.710938 C 223.863281 407.710938 209.230469 396.460938 209.230469 375.261719 C 209.230469 355.601562 223.980469 342.339844 241.542969 342.339844 C 259.800781 342.339844 269.285156 353.46875 269.285156 369.695312 C 269.285156 373.015625 268.933594 376.210938 267.996094 379.761719 Z M 267.996094 379.761719 " fill-opacity="1" fill-rule="nonzero"/><path fill="#ffffff" d="M 337.429688 401.082031 L 338.953125 386.871094 C 344.808594 391.960938 353 394.921875 361.546875 394.921875 C 367.636719 394.921875 371.851562 392.316406 371.851562 387.933594 C 371.851562 376.210938 338.367188 382.246094 338.367188 361.167969 C 338.367188 348.496094 349.140625 342.339844 362.019531 342.339844 C 371.035156 342.339844 377.9375 344.585938 383.207031 347.902344 L 382.503906 361.046875 C 376.300781 356.785156 368.804688 354.652344 362.132812 354.652344 C 356.984375 354.652344 352.769531 356.667969 352.769531 360.695312 C 352.769531 370.527344 386.367188 365.789062 386.367188 387.460938 C 386.367188 400.84375 374.777344 407.710938 361.3125 407.710938 C 351.363281 407.710938 343.285156 405.105469 337.429688 401.082031 Z M 337.429688 401.082031 " fill-opacity="1" fill-rule="nonzero"/><path fill="#ffffff" d="M 435.074219 389.476562 L 435.074219 380 C 429.804688 378.34375 424.890625 377.277344 419.734375 377.277344 C 412.242188 377.277344 407.796875 381.183594 407.796875 386.871094 C 407.796875 392.671875 412.714844 396.347656 419.152344 396.347656 C 425.242188 396.347656 430.039062 394.210938 435.074219 389.476562 Z M 449.472656 367.445312 L 449.472656 406.527344 L 435.074219 406.527344 L 435.074219 400.132812 C 430.269531 404.75 423.835938 407.710938 416.339844 407.710938 C 402.410156 407.710938 393.867188 399.1875 393.867188 387.339844 C 393.867188 374.671875 403.582031 366.972656 418.097656 366.972656 C 423.601562 366.972656 428.867188 367.921875 435.074219 369.8125 L 435.074219 367.921875 C 435.074219 358.328125 427.933594 354.0625 419.035156 354.0625 C 412.363281 354.0625 404.753906 356.550781 399.367188 360.929688 L 398.785156 348.140625 C 403.464844 344.941406 412.128906 342.339844 421.609375 342.339844 C 437.765625 342.339844 449.472656 349.917969 449.472656 367.445312 Z M 449.472656 367.445312 " fill-opacity="1" fill-rule="nonzero"/><path fill="#ffffff" d="M 450.761719 343.523438 L 466.542969 343.523438 L 484.433594 383.3125 L 502.203125 343.523438 L 517.984375 343.523438 L 488.40625 406.527344 L 480.339844 406.527344 Z M 450.761719 343.523438 " fill-opacity="1" fill-rule="nonzero"/><path fill="#ffffff" d="M 562.371094 367.921875 C 562.371094 360.21875 557.570312 354.296875 548.675781 354.296875 C 540.246094 354.296875 532.988281 360.101562 531.117188 369.695312 L 562.140625 369.695312 C 562.253906 369.101562 562.371094 368.628906 562.371094 367.921875 Z M 574.78125 379.761719 L 530.882812 379.761719 C 532.523438 389.59375 539.664062 394.921875 549.496094 394.921875 C 557.921875 394.921875 563.894531 392.910156 570.566406 389 L 571.382812 401.910156 C 565.53125 405.226562 558.042969 407.710938 548.441406 407.710938 C 530.648438 407.710938 516.015625 396.460938 516.015625 375.261719 C 516.015625 355.601562 530.765625 342.339844 548.324219 342.339844 C 566.589844 342.339844 576.070312 353.46875 576.070312 369.695312 C 576.070312 373.015625 575.71875 376.210938 574.78125 379.761719 Z M 574.78125 379.761719 " fill-opacity="1" fill-rule="nonzero"/><path fill="#ffffff" d="M 629.359375 345.0625 L 627.367188 358.5625 C 623.851562 356.667969 620.578125 355.957031 616.949219 355.957031 C 610.511719 355.957031 604.65625 359.273438 600.441406 366.140625 L 600.441406 406.527344 L 585.925781 406.527344 L 585.925781 343.523438 L 600.441406 343.523438 L 600.441406 352.050781 C 604.539062 346.246094 610.511719 342.339844 618.707031 342.339844 C 622.6875 342.339844 626.078125 343.285156 629.359375 345.0625 Z M 629.359375 345.0625 " fill-opacity="1" fill-rule="nonzero"/><path fill="#ffffff" d="M 633.539062 401.082031 L 635.054688 386.871094 C 640.910156 391.960938 649.105469 394.921875 657.652344 394.921875 C 663.738281 394.921875 667.953125 392.316406 667.953125 387.933594 C 667.953125 376.210938 634.476562 382.246094 634.476562 361.167969 C 634.476562 348.496094 645.242188 342.339844 658.121094 342.339844 C 667.132812 342.339844 674.042969 344.585938 679.308594 347.902344 L 678.605469 361.046875 C 672.402344 356.785156 664.910156 354.652344 658.238281 354.652344 C 653.085938 354.652344 648.871094 356.667969 648.871094 360.695312 C 648.871094 370.527344 682.46875 365.789062 682.46875 387.460938 C 682.46875 400.84375 670.878906 407.710938 657.417969 407.710938 C 647.46875 407.710938 639.386719 405.105469 633.539062 401.082031 Z M 633.539062 401.082031 " fill-opacity="1" fill-rule="nonzero"/><path fill="#ffffff" d="M 326.808594 389.277344 C 321.792969 392.933594 316.699219 394.921875 310.734375 394.921875 C 300.667969 394.921875 291.886719 387.816406 291.886719 375.027344 C 291.886719 362.234375 300.667969 355.128906 310.734375 355.128906 C 316.703125 355.128906 321.796875 357.117188 326.816406 360.6875 C 327.449219 356.285156 328.40625 351.945312 329.601562 347.671875 C 324.410156 344.59375 318.113281 342.335938 309.214844 342.335938 C 291.417969 342.335938 277.019531 354.539062 277.019531 375.027344 C 277.019531 395.515625 291.417969 407.710938 309.214844 407.710938 C 318.164062 407.710938 324.410156 405.203125 329.503906 401.980469 C 328.351562 397.800781 327.421875 393.574219 326.808594 389.277344 Z M 326.808594 389.277344 " fill-opacity="1" fill-rule="nonzero"/></svg>