<svg xmlns="http://www.w3.org/2000/svg" xmlns:xlink="http://www.w3.org/1999/xlink" width="1000" zoomAndPan="magnify" viewBox="0 0 750 749.999995" height="1000" preserveAspectRatio="xMidYMid meet" version="1.0"><defs><clipPath id="3a449aad5f"><path d="M 0.773438 291.175781 L 158 291.175781 L 158 457 L 0.773438 457 Z M 0.773438 291.175781 " clip-rule="nonzero"/></clipPath></defs><path fill="#141414" d="M 228.964844 410.59375 L 228.964844 337.851562 L 248.425781 337.851562 L 273.085938 392.210938 L 297.378906 337.851562 L 316.023438 337.851562 L 316.023438 410.59375 L 299.972656 410.59375 L 299.972656 368.277344 L 281.457031 410.59375 L 264.351562 410.59375 L 245.597656 368.507812 L 245.597656 410.59375 Z M 228.964844 410.59375 " fill-opacity="1" fill-rule="evenodd"/><path fill="#141414" d="M 380.613281 382.429688 L 367.1875 351.597656 L 354.066406 382.429688 Z M 342.0625 410.59375 L 323.191406 410.59375 L 355.632812 337.851562 L 378.867188 337.851562 L 411.539062 410.59375 L 392.910156 410.59375 L 386.480469 396.101562 L 348.296875 396.101562 Z M 342.0625 410.59375 " fill-opacity="1" fill-rule="evenodd"/><path fill="#141414" d="M 419.070312 410.59375 L 419.070312 337.851562 L 488.898438 337.851562 L 488.898438 352.398438 L 435.9375 352.398438 L 435.9375 366.84375 L 481.347656 366.84375 L 481.347656 381.039062 L 435.9375 381.039062 L 435.9375 396.042969 L 489.027344 396.042969 L 489.027344 410.59375 Z M 419.070312 410.59375 " fill-opacity="1" fill-rule="evenodd"/><path fill="#141414" d="M 519.683594 371.253906 L 556.375 371.253906 L 556.375 352.398438 L 519.683594 352.398438 Z M 502.582031 410.59375 L 502.582031 337.851562 L 561.015625 337.851562 C 568.820312 337.851562 573.355469 342.34375 573.355469 350.050781 L 573.355469 374.488281 C 573.355469 380.109375 568.347656 385.191406 558.640625 385.191406 C 558.09375 385.21875 557.535156 385.191406 556.957031 385.191406 L 573.96875 410.59375 L 555.191406 410.59375 L 539.066406 385.722656 L 519.683594 385.722656 L 519.683594 410.59375 Z M 502.582031 410.59375 " fill-opacity="1" fill-rule="evenodd"/><path fill="#141414" d="M 604.144531 410.636719 L 598.355469 410.636719 C 590.796875 410.636719 587.15625 406.289062 587.15625 399.964844 L 587.15625 390.460938 L 604.144531 390.460938 L 604.144531 396.089844 L 640.242188 396.089844 L 640.242188 381.199219 C 640.242188 381.199219 605.441406 381.199219 598.835938 381.199219 C 592.226562 381.199219 587.464844 376.78125 587.464844 370.644531 L 587.464844 349.050781 C 587.464844 342.515625 592.648438 337.898438 598.953125 337.898438 C 605.253906 337.898438 646.285156 337.898438 646.285156 337.898438 C 652.675781 337.898438 657.105469 342.644531 657.105469 349.511719 C 657.105469 356.367188 657.105469 358.191406 657.105469 358.191406 L 640.242188 358.191406 L 640.242188 352.441406 L 604.144531 352.441406 L 604.144531 366.769531 L 645.429688 366.769531 C 651.519531 366.769531 657.105469 370.777344 657.105469 378.5 L 657.105469 399.261719 C 657.105469 406.332031 653.164062 410.636719 645.785156 410.636719 C 638.410156 410.636719 604.144531 410.636719 604.144531 410.636719 Z M 604.144531 410.636719 " fill-opacity="1" fill-rule="evenodd"/><path fill="#141414" d="M 673.390625 410.636719 L 673.390625 337.890625 L 690.726562 337.890625 L 690.726562 366.984375 L 723.75 337.890625 L 747.226562 337.890625 L 707.828125 371.679688 L 748.648438 410.636719 L 724.339844 410.636719 L 690.726562 377.546875 L 690.726562 410.636719 Z M 673.390625 410.636719 " fill-opacity="1" fill-rule="evenodd"/><g clip-path="url(#3a449aad5f)"><path fill="#42b0d5" d="M 19.675781 291.175781 L 139.058594 291.175781 C 149.515625 291.175781 157.992188 299.625 157.992188 310.042969 L 157.992188 437.65625 C 157.992188 448.074219 149.515625 456.523438 139.058594 456.523438 L 19.675781 456.523438 C 9.234375 456.523438 0.773438 448.089844 0.773438 437.6875 L 0.773438 310.074219 C 0.757812 305.070312 2.742188 300.261719 6.289062 296.714844 C 9.835938 293.167969 14.652344 291.175781 19.675781 291.175781 Z M 19.675781 291.175781 " fill-opacity="1" fill-rule="nonzero"/></g><path fill="#ffffff" d="M 104.421875 369.214844 L 135.457031 330.589844 L 135.367188 330.46875 L 90.519531 351.882812 L 79.453125 303.757812 L 79.273438 303.757812 L 68.207031 351.882812 L 23.359375 330.46875 L 23.269531 330.589844 L 54.304688 369.214844 L 9.457031 390.628906 L 9.519531 390.777344 L 59.273438 390.777344 L 48.207031 438.929688 L 48.328125 438.992188 L 79.363281 400.367188 L 110.398438 438.992188 L 110.550781 438.902344 L 99.453125 390.777344 L 149.238281 390.777344 L 149.269531 390.628906 Z M 104.421875 369.214844 " fill-opacity="1" fill-rule="nonzero"/></svg>