<svg xmlns="http://www.w3.org/2000/svg" xmlns:xlink="http://www.w3.org/1999/xlink" width="1000" zoomAndPan="magnify" viewBox="0 0 750 749.999995" height="1000" preserveAspectRatio="xMidYMid meet" version="1.0"><defs><clipPath id="0c29774ecd"><path d="M 0 325.78125 L 94 325.78125 L 94 424.03125 L 0 424.03125 Z M 0 325.78125 " clip-rule="nonzero"/></clipPath></defs><path fill="#000000" d="M 116.167969 348.058594 C 116.167969 344.796875 118.917969 342.222656 122.359375 342.222656 L 162.777344 342.222656 C 165.871094 342.222656 168.28125 344.625 168.28125 347.546875 C 168.28125 350.464844 165.871094 352.867188 162.777344 352.867188 L 128.378906 352.867188 L 128.378906 370.894531 L 158.304688 370.894531 C 161.398438 370.894531 163.808594 373.296875 163.808594 376.214844 C 163.808594 379.132812 161.398438 381.535156 158.304688 381.535156 L 128.378906 381.535156 L 128.378906 403.167969 C 128.378906 406.429688 125.625 408.832031 122.359375 408.832031 C 118.917969 408.832031 116.167969 406.257812 116.167969 403.167969 Z M 197.171875 348.058594 C 197.171875 344.796875 199.925781 342.222656 203.363281 342.222656 L 228.132812 342.222656 C 236.902344 342.222656 243.78125 344.625 248.253906 348.746094 C 251.867188 352.351562 253.929688 357.160156 253.929688 362.996094 L 253.929688 363.167969 C 253.929688 373.640625 247.566406 380.164062 238.105469 382.910156 L 251.351562 398.875 C 252.554688 400.25 253.414062 401.449219 253.414062 403.339844 C 253.414062 406.601562 250.488281 408.660156 247.566406 408.660156 C 244.8125 408.660156 242.921875 407.460938 241.546875 405.570312 L 224.691406 385.140625 L 209.386719 385.140625 L 209.386719 402.824219 C 209.386719 406.085938 206.632812 408.488281 203.363281 408.488281 C 199.925781 408.488281 197.171875 405.914062 197.171875 402.824219 Z M 227.273438 374.839844 C 236.042969 374.839844 241.546875 370.550781 241.546875 363.855469 L 241.546875 363.683594 C 241.546875 356.644531 236.214844 352.695312 227.101562 352.695312 L 209.386719 352.695312 L 209.386719 374.839844 Z M 284.886719 402.308594 L 284.886719 348.058594 C 284.886719 344.796875 287.640625 342.222656 291.078125 342.222656 L 331.496094 342.222656 C 334.421875 342.222656 337 344.625 337 347.375 C 337 350.292969 334.59375 352.523438 331.496094 352.523438 L 297.097656 352.523438 L 297.097656 369.691406 L 326.851562 369.691406 C 329.777344 369.691406 332.355469 372.09375 332.355469 375.011719 C 332.355469 377.757812 329.949219 380.164062 326.851562 380.164062 L 296.925781 380.164062 L 296.925781 397.847656 L 331.839844 397.847656 C 334.765625 397.847656 337.34375 400.25 337.34375 402.996094 C 337.34375 405.914062 334.9375 408.144531 331.839844 408.144531 L 290.90625 408.144531 C 287.46875 408.144531 284.886719 405.570312 284.886719 402.308594 Z M 367.269531 402.308594 L 367.269531 348.058594 C 367.269531 344.796875 370.023438 342.222656 373.460938 342.222656 L 413.878906 342.222656 C 416.804688 342.222656 419.382812 344.625 419.382812 347.375 C 419.382812 350.292969 416.972656 352.523438 413.878906 352.523438 L 379.480469 352.523438 L 379.480469 369.691406 L 409.40625 369.691406 C 412.328125 369.691406 414.910156 372.09375 414.910156 375.011719 C 414.910156 377.757812 412.503906 380.164062 409.40625 380.164062 L 379.480469 380.164062 L 379.480469 397.847656 L 414.394531 397.847656 C 417.316406 397.847656 419.898438 400.25 419.898438 402.996094 C 419.898438 405.914062 417.488281 408.144531 414.394531 408.144531 L 373.289062 408.144531 C 369.847656 408.144531 367.269531 405.570312 367.269531 402.308594 Z M 447.757812 400.765625 C 446.382812 399.90625 445.355469 398.1875 445.355469 396.300781 C 445.355469 393.210938 447.933594 390.980469 451.027344 390.980469 C 452.746094 390.980469 453.78125 391.492188 454.640625 392.007812 C 460.316406 396.300781 466.507812 398.703125 474.074219 398.703125 C 481.640625 398.703125 486.457031 395.269531 486.457031 390.464844 L 486.457031 390.292969 C 486.457031 385.65625 483.707031 383.082031 470.808594 380.164062 C 456.015625 376.730469 447.757812 372.609375 447.757812 360.421875 L 447.757812 360.25 C 447.757812 348.917969 457.734375 341.191406 471.496094 341.191406 C 480.265625 341.191406 487.320312 343.425781 493.511719 347.375 C 494.886719 348.058594 496.257812 349.777344 496.257812 352.007812 C 496.257812 355.097656 493.679688 357.332031 490.585938 357.332031 C 489.378906 357.332031 488.351562 356.988281 487.488281 356.472656 C 482.15625 353.210938 476.996094 351.492188 471.496094 351.492188 C 464.269531 351.492188 460.144531 354.925781 460.144531 359.390625 L 460.144531 359.5625 C 460.144531 364.710938 463.238281 366.945312 476.652344 369.863281 C 491.273438 373.296875 498.84375 378.273438 498.84375 389.089844 L 498.84375 389.261719 C 498.84375 401.621094 488.695312 409.003906 474.074219 409.003906 C 464.441406 409.003906 455.5 406.257812 447.757812 400.765625 Z M 544.589844 353.039062 L 527.738281 353.039062 C 524.640625 353.039062 522.058594 350.636719 522.058594 347.714844 C 522.058594 344.796875 524.464844 342.394531 527.738281 342.394531 L 573.828125 342.394531 C 576.925781 342.394531 579.332031 344.796875 579.332031 347.714844 C 579.332031 350.636719 576.925781 353.039062 573.828125 353.039062 L 556.800781 353.039062 L 556.800781 402.996094 C 556.800781 406.257812 554.046875 408.660156 550.609375 408.660156 C 547.167969 408.660156 544.417969 406.085938 544.417969 402.996094 L 544.417969 353.039062 Z M 595.84375 400.59375 L 621.640625 346 C 623.015625 343.082031 625.59375 341.363281 629.035156 341.363281 L 629.550781 341.363281 C 632.992188 341.363281 635.398438 343.082031 636.773438 346 L 662.574219 400.59375 C 663.089844 401.449219 663.257812 402.308594 663.257812 402.996094 C 663.257812 406.085938 660.855469 408.488281 657.585938 408.488281 C 654.664062 408.488281 652.769531 406.945312 651.566406 404.371094 L 645.890625 392.007812 L 612.179688 392.007812 L 606.332031 404.714844 C 605.300781 407.117188 603.234375 408.316406 600.65625 408.316406 C 597.5625 408.316406 594.984375 405.914062 594.984375 402.996094 C 595.152344 402.480469 595.328125 401.621094 595.84375 400.59375 Z M 641.25 382.050781 L 629.035156 355.441406 L 616.824219 382.050781 Z M 692.496094 348.058594 C 692.496094 344.796875 695.25 342.222656 698.691406 342.222656 L 723.457031 342.222656 C 732.226562 342.222656 739.105469 344.625 743.582031 348.746094 C 747.191406 352.351562 749.253906 357.160156 749.253906 362.996094 L 749.253906 363.167969 C 749.253906 373.640625 742.894531 380.164062 733.433594 382.910156 L 746.675781 398.875 C 747.882812 400.25 748.738281 401.449219 748.738281 403.339844 C 748.738281 406.601562 745.816406 408.660156 742.894531 408.660156 C 740.140625 408.660156 738.25 407.460938 736.871094 405.570312 L 720.019531 385.140625 L 704.710938 385.140625 L 704.710938 402.824219 C 704.710938 406.085938 701.960938 408.488281 698.691406 408.488281 C 695.25 408.488281 692.496094 405.914062 692.496094 402.824219 Z M 722.597656 374.839844 C 731.367188 374.839844 736.871094 370.550781 736.871094 363.855469 L 736.871094 363.683594 C 736.871094 356.644531 731.539062 352.695312 722.425781 352.695312 L 704.710938 352.695312 L 704.710938 374.839844 Z M 722.597656 374.839844 " fill-opacity="1" fill-rule="nonzero"/><g clip-path="url(#0c29774ecd)"><path fill="#00c389" d="M 92.457031 330.089844 C 90.835938 327.40625 87.945312 325.78125 84.773438 325.78125 L 9.761719 325.78125 C 5.8125 325.78125 2.429688 328.183594 1.230469 331.996094 C -0.0390625 335.742188 1.230469 339.695312 4.402344 342.097656 L 34.507812 364.488281 L 34.507812 414.992188 C 34.507812 419.226562 37.257812 422.761719 41.34375 423.75 C 42.050781 423.890625 42.824219 424.03125 43.53125 424.03125 C 46.84375 424.03125 49.875 422.195312 51.425781 419.15625 L 68.136719 386.949219 C 69.828125 383.699219 68.910156 379.746094 66.019531 377.625 L 51.214844 366.535156 L 74.128906 366.535156 C 76.875 366.535156 79.414062 364.980469 80.683594 362.511719 L 92.808594 339.058594 C 94.21875 336.164062 94.078125 332.84375 92.457031 330.089844 Z M 34.4375 353.964844 L 9.410156 335.316406 C 9.269531 335.246094 9.054688 335.035156 9.195312 334.609375 C 9.339844 334.1875 9.621094 334.1875 9.761719 334.1875 L 34.4375 334.1875 Z M 60.308594 383.769531 L 44.023438 415.203125 C 43.953125 415.34375 43.8125 415.625 43.320312 415.484375 C 42.824219 415.34375 42.824219 415.0625 42.824219 414.917969 L 42.824219 381.933594 L 34.4375 364.417969 L 42.824219 370.703125 Z M 85.265625 335.105469 L 73.421875 358.058594 L 42.824219 358.058594 L 42.824219 334.1875 L 84.703125 334.1875 C 84.773438 334.1875 85.054688 334.1875 85.195312 334.46875 C 85.476562 334.75 85.335938 335.035156 85.265625 335.105469 Z M 85.265625 335.105469 " fill-opacity="1" fill-rule="nonzero"/></g></svg>