<svg xmlns="http://www.w3.org/2000/svg" xmlns:xlink="http://www.w3.org/1999/xlink" width="1000" zoomAndPan="magnify" viewBox="0 0 750 749.999995" height="1000" preserveAspectRatio="xMidYMid meet" version="1.0"><defs><clipPath id="9a2abe0f14"><path d="M 573 331 L 649 331 L 649 443.464844 L 573 443.464844 Z M 573 331 " clip-rule="nonzero"/></clipPath><clipPath id="fd3fc25232"><path d="M 733 402 L 749.226562 402 L 749.226562 411 L 733 411 Z M 733 402 " clip-rule="nonzero"/></clipPath><clipPath id="469f627632"><path d="M 0.773438 326 L 88 326 L 88 414 L 0.773438 414 Z M 0.773438 326 " clip-rule="nonzero"/></clipPath><clipPath id="9a772e780d"><path d="M 34 293.089844 L 122 293.089844 L 122 380 L 34 380 Z M 34 293.089844 " clip-rule="nonzero"/></clipPath></defs><path fill="#000000" d="M 730.015625 361.425781 L 730.015625 410.449219 L 711.988281 410.449219 L 711.988281 364.664062 C 711.988281 353.511719 707.1875 347.285156 697.832031 347.285156 C 688.476562 347.285156 682.300781 353.824219 680.554688 364.789062 C 680.054688 367.40625 679.929688 371.453125 679.929688 379.988281 L 679.929688 410.386719 L 661.90625 410.386719 L 661.90625 332.519531 L 677.871094 332.519531 C 677.933594 333.207031 678.308594 340.183594 678.308594 340.617188 C 678.308594 341.179688 678.996094 341.488281 679.433594 341.117188 C 686.042969 335.882812 693.339844 331.023438 703.507812 331.023438 C 720.222656 331.023438 730.015625 342.300781 730.015625 361.425781 Z M 730.015625 361.425781 " fill-opacity="1" fill-rule="nonzero"/><g clip-path="url(#9a2abe0f14)"><path fill="#000000" d="M 632.839844 332.582031 L 632.28125 341.492188 C 632.21875 342.050781 631.53125 342.363281 631.15625 341.988281 C 628.972656 339.933594 620.925781 331.085938 607.269531 331.085938 C 587.683594 331.085938 573.277344 347.96875 573.277344 370.894531 C 573.277344 394.128906 587.558594 411.070312 607.269531 411.070312 C 620.429688 411.070312 628.476562 402.539062 629.972656 400.667969 C 630.410156 400.171875 631.21875 400.480469 631.21875 401.105469 C 631.03125 403.472656 630.71875 409.390625 628.726562 414.4375 C 626.230469 420.789062 620.613281 426.707031 609.324219 426.707031 C 600.03125 426.707031 591.800781 423.15625 584.003906 415.558594 L 574.585938 428.453125 C 583.128906 438.105469 596.601562 443.527344 611.257812 443.527344 C 634.835938 443.527344 648.996094 427.394531 648.996094 401.042969 L 648.996094 332.582031 Z M 611.136719 394.75 C 599.472656 394.75 591.238281 384.660156 591.238281 370.894531 C 591.238281 357.125 599.472656 347.285156 611.136719 347.285156 C 622.796875 347.285156 631.03125 357.0625 631.03125 370.894531 C 630.96875 384.722656 622.734375 394.75 611.136719 394.75 Z M 611.136719 394.75 " fill-opacity="1" fill-rule="nonzero"/></g><path fill="#000000" d="M 535.605469 387.339844 C 535.605469 402.101562 523.191406 412.007812 504.980469 412.007812 C 490.695312 412.007812 477.972656 406.460938 470.363281 398.550781 L 476.289062 384.472656 C 482.027344 389.644531 491.257812 397.054688 504.417969 397.054688 C 513.585938 397.054688 518.886719 393.007812 518.886719 387.898438 C 518.886719 381.980469 511.589844 380.421875 502.859375 378.742188 C 490.445312 376.125 473.980469 371.890625 473.980469 355.007812 C 473.980469 340.867188 485.457031 331.148438 502.421875 331.148438 C 515.457031 331.148438 526.683594 336.132812 534.417969 342.609375 L 525.5625 355.007812 C 518.078125 349.089844 510.21875 346.160156 502.421875 346.160156 C 494.625 346.160156 490.757812 349.402344 490.757812 354.074219 C 490.757812 360.613281 499.179688 362.296875 505.355469 363.542969 C 520.882812 366.53125 535.605469 371.203125 535.605469 387.339844 Z M 535.605469 387.339844 " fill-opacity="1" fill-rule="nonzero"/><path fill="#000000" d="M 272.023438 331.023438 C 250.003906 331.023438 234.164062 348.09375 234.164062 371.515625 C 234.164062 394.9375 250.003906 412.007812 272.023438 412.007812 C 294.039062 412.007812 309.945312 394.9375 309.945312 371.515625 C 309.945312 348.09375 294.101562 331.023438 272.023438 331.023438 Z M 272.023438 395.683594 C 260.359375 395.683594 252.125 385.78125 252.125 371.453125 C 252.125 357.1875 260.171875 347.222656 272.023438 347.222656 C 283.8125 347.222656 291.917969 357.125 291.917969 371.453125 C 291.917969 385.78125 283.6875 395.683594 272.023438 395.683594 Z M 272.023438 395.683594 " fill-opacity="1" fill-rule="nonzero"/><path fill="#000000" d="M 316.308594 371.515625 C 316.308594 348.40625 332.148438 331.023438 353.292969 331.023438 C 370.070312 331.023438 382.359375 339.433594 388.097656 355.257812 L 372.128906 361.300781 C 367.765625 351.519531 362.027344 347.347656 353.355469 347.347656 C 342.503906 347.347656 334.394531 357.5625 334.394531 371.578125 C 334.394531 385.53125 342.441406 395.808594 353.355469 395.808594 C 362.089844 395.808594 367.765625 391.636719 372.128906 381.855469 L 388.097656 387.898438 C 382.359375 403.722656 370.070312 412.132812 353.292969 412.132812 C 332.148438 412.007812 316.308594 394.625 316.308594 371.515625 Z M 316.308594 371.515625 " fill-opacity="1" fill-rule="nonzero"/><path fill="#000000" d="M 219.945312 296.390625 C 219.632812 296.390625 219.257812 296.453125 218.945312 296.640625 L 207.21875 302.867188 C 206.972656 302.992188 206.847656 303.242188 206.847656 303.492188 L 206.847656 340.554688 C 206.847656 341.179688 206.097656 341.429688 205.660156 341.054688 C 203.914062 339.558594 199.859375 335.757812 194.246094 333.144531 C 191.316406 331.773438 187.011719 331.023438 183.082031 331.023438 C 163.375 331.023438 149.089844 348.09375 149.089844 371.515625 C 149.089844 394.9375 163.375 412.007812 183.082031 412.007812 C 193.4375 412.007812 201.234375 406.585938 205.972656 401.726562 C 206.285156 401.417969 206.472656 401.230469 206.785156 400.917969 C 207.21875 400.480469 207.96875 400.730469 207.96875 401.355469 L 208.59375 410.449219 L 224.871094 410.449219 L 224.871094 296.886719 C 224.871094 296.640625 224.683594 296.390625 224.371094 296.390625 Z M 186.949219 395.683594 C 175.160156 395.683594 167.054688 385.78125 167.054688 371.453125 C 167.054688 357.125 175.347656 347.285156 186.949219 347.285156 C 198.613281 347.285156 206.847656 357.1875 206.847656 371.515625 C 206.847656 385.78125 198.800781 395.683594 186.949219 395.683594 Z M 186.949219 395.683594 " fill-opacity="1" fill-rule="nonzero"/><path fill="#000000" d="M 556.808594 332.832031 L 545.519531 338.8125 C 545.269531 338.9375 545.144531 339.183594 545.144531 339.433594 L 545.144531 410.449219 L 563.171875 410.449219 L 563.171875 333.019531 C 563.171875 332.769531 562.984375 332.519531 562.671875 332.519531 L 557.808594 332.519531 C 557.433594 332.582031 557.121094 332.644531 556.808594 332.832031 Z M 556.808594 332.832031 " fill-opacity="1" fill-rule="nonzero"/><path fill="#000000" d="M 554.128906 319.9375 C 560.113281 319.9375 564.980469 315.078125 564.980469 309.097656 C 564.980469 303.117188 560.113281 298.257812 554.128906 298.257812 C 548.140625 298.257812 543.273438 303.117188 543.273438 309.097656 C 543.273438 315.078125 548.140625 319.9375 554.128906 319.9375 Z M 554.128906 319.9375 " fill-opacity="1" fill-rule="nonzero"/><path fill="#000000" d="M 463.878906 332.519531 L 463.878906 374.816406 C 463.878906 406.898438 445.914062 411.945312 429.886719 411.945312 C 413.855469 411.945312 395.894531 406.835938 395.894531 374.816406 L 395.894531 332.519531 L 413.855469 332.519531 L 413.855469 379.300781 C 413.855469 383.851562 414.980469 395.683594 429.886719 395.683594 C 444.792969 395.683594 445.914062 383.910156 445.914062 379.300781 L 445.914062 332.519531 Z M 463.878906 332.519531 " fill-opacity="1" fill-rule="nonzero"/><g clip-path="url(#fd3fc25232)"><path fill="#000000" d="M 740.304688 402.476562 L 740.304688 403.597656 L 737.75 403.597656 L 737.75 410.386719 L 736.5 410.386719 L 736.5 403.597656 L 733.945312 403.597656 L 733.945312 402.476562 Z M 749.226562 410.386719 L 747.976562 410.386719 L 747.976562 404.15625 L 745.546875 408.828125 L 744.859375 408.828125 L 742.425781 404.21875 L 742.425781 410.386719 L 741.179688 410.386719 L 741.179688 402.476562 L 742.800781 402.476562 L 745.171875 407.023438 L 747.542969 402.476562 L 749.164062 402.476562 Z M 749.226562 410.386719 " fill-opacity="1" fill-rule="nonzero"/></g><g clip-path="url(#469f627632)"><path fill="#4c00ff" d="M 87.78125 379.988281 L 87.78125 410.824219 C 87.78125 412.441406 86.472656 413.75 84.851562 413.75 L 3.707031 413.75 C 2.085938 413.75 0.773438 412.441406 0.773438 410.824219 L 0.773438 329.839844 C 0.773438 328.222656 2.085938 326.914062 3.707031 326.914062 L 34.515625 326.914062 L 34.515625 377.058594 C 34.515625 378.679688 35.828125 379.988281 37.449219 379.988281 Z M 87.78125 379.988281 " fill-opacity="1" fill-rule="nonzero"/></g><g clip-path="url(#9a772e780d)"><path fill="#ff5252" d="M 121.589844 336.507812 C 121.589844 362.421875 106.433594 379.925781 87.785156 379.988281 L 87.785156 347.347656 C 87.785156 346.410156 87.410156 345.476562 86.722656 344.855469 L 69.757812 327.910156 C 69.074219 327.226562 68.199219 326.851562 67.265625 326.851562 L 34.582031 326.851562 L 34.582031 296.078125 C 34.582031 294.457031 35.890625 293.152344 37.511719 293.152344 L 83.230469 293.152344 C 104.9375 293.089844 121.589844 310.53125 121.589844 336.507812 Z M 121.589844 336.507812 " fill-opacity="1" fill-rule="nonzero"/></g><path fill="#000000" d="M 86.722656 344.792969 C 87.410156 345.476562 87.785156 346.347656 87.785156 347.285156 L 87.785156 379.925781 L 37.511719 379.925781 C 35.890625 379.925781 34.582031 378.617188 34.582031 376.996094 L 34.582031 326.851562 L 67.265625 326.851562 C 68.199219 326.851562 69.136719 327.226562 69.757812 327.910156 Z M 86.722656 344.792969 " fill-opacity="1" fill-rule="nonzero"/></svg>