<svg width="1252" height="332" viewBox="0 0 1252 332" fill="none" xmlns="http://www.w3.org/2000/svg">
<path d="M0 0H1251.51V331.814H0V0Z" fill="#0B52DC"/>
<mask id="mask0_1176_162" style="mask-type:alpha" maskUnits="userSpaceOnUse" x="0" y="0" width="1252" height="332">
<path d="M0 0H1251.51V331.814H0V0Z" fill="#4A3AFF"/>
</mask>
<g mask="url(#mask0_1176_162)">
<path opacity="0.2" d="M885.233 0.994872C885.233 12.7016 887.539 24.2938 892.019 35.1094C896.499 45.925 903.066 55.7523 911.344 64.0303C919.621 72.3082 929.449 78.8746 940.264 83.3546C951.08 87.8346 962.672 90.1404 974.379 90.1404C986.086 90.1404 997.678 87.8346 1008.49 83.3546C1019.31 78.8746 1029.14 72.3082 1037.41 64.0302C1045.69 55.7523 1052.26 45.925 1056.74 35.1094C1061.22 24.2937 1063.52 12.7016 1063.52 0.99484L974.379 0.994868L885.233 0.994872Z" fill="white"/>
<path opacity="0.1" d="M884.431 148.255C884.431 161.984 881.726 175.58 876.472 188.265C871.218 200.949 863.517 212.475 853.808 222.184C844.1 231.892 832.574 239.593 819.889 244.847C807.205 250.102 793.609 252.806 779.879 252.806C766.149 252.806 752.554 250.102 739.869 244.847C727.184 239.593 715.659 231.892 705.95 222.184C696.242 212.475 688.541 200.949 683.287 188.265C678.032 175.58 675.328 161.984 675.328 148.255L779.879 148.255H884.431Z" fill="white"/>
<rect opacity="0.1" x="1063.5" y="89.6575" width="178.927" height="178.929" transform="rotate(90 1063.5 89.6575)" fill="white"/>
<path opacity="0.07" d="M875.381 343.33L975.545 245.907L1063.4 155.315L1063.4 343.33L875.381 343.33Z" fill="white"/>
<circle opacity="0.07" cx="1157.31" cy="259.371" r="93.6736" transform="rotate(90 1157.31 259.371)" fill="white"/>
<path opacity="0.1" d="M1.00748 -1.44412e-05C22.7003 -1.2805e-05 44.1806 4.29875 64.2221 12.6508C84.2636 21.0029 102.474 33.2448 117.813 48.6774C133.152 64.1101 145.32 82.4313 153.621 102.595C161.923 122.759 166.195 144.37 166.195 166.195C166.195 188.02 161.923 209.632 153.621 229.795C145.32 249.959 133.152 268.28 117.813 283.713C102.474 299.146 84.2636 311.387 64.2221 319.739C44.1805 328.092 22.7002 332.39 1.0074 332.39L1.00746 166.195L1.00748 -1.44412e-05Z" fill="white"/>
<rect opacity="0.2" x="1251.51" y="-21.2297" width="188.016" height="188.018" transform="rotate(90 1251.51 -21.2297)" fill="white"/>
<path opacity="0.2" d="M1229.43 0L1141.04 85.9672L1063.52 165.907L1063.52 -7.25202e-06L1229.43 0Z" fill="white"/>
</g>
</svg>
