<svg width="72" height="72" viewBox="0 0 72 72" fill="none" xmlns="http://www.w3.org/2000/svg">
<rect width="72" height="72" rx="20" fill="url(#paint0_linear_690_3446)"/>
<g clip-path="url(#clip0_690_3446)">
<path d="M39.2681 38.8499C39.2878 38.8893 39.2981 38.9006 39.2963 38.909C39.0928 40.0021 39.7013 40.6002 40.6013 40.9968C41.8097 41.5302 43.0425 42.0102 44.2369 42.5718C45.5025 43.1671 46.6922 43.8918 47.6072 44.9859C48.5709 46.1381 48.6938 47.4637 48.3572 48.8559C48.2062 49.4821 47.7544 49.9284 47.2322 50.2902C46.2394 50.9784 45.1059 51.3046 43.9425 51.5418C41.5547 52.0293 39.1322 52.1137 36.705 52.1221C34.4081 52.1306 32.1113 52.1352 29.8284 51.8231C28.4344 51.6318 27.0534 51.374 25.7681 50.7693C24.6666 50.2509 23.7619 49.5299 23.5416 48.2474C23.3269 47.0006 23.6334 45.8821 24.5006 44.9371C25.2872 44.0802 26.2463 43.4446 27.2625 42.9102C28.5956 42.209 29.9644 41.5752 31.3172 40.9115C31.5684 40.7877 31.8309 40.679 32.0625 40.5243C32.8031 40.0302 33.0244 39.1912 32.6044 38.4009C32.4197 38.0531 32.1703 37.7362 31.9284 37.4212C30.645 35.7524 29.7225 33.9196 29.4244 31.8187C29.1731 30.044 29.2256 28.2881 30.0225 26.6352C31.035 24.5334 32.7469 23.3962 35.0428 23.1102C36.6656 22.9077 38.2275 23.099 39.6553 23.9484C41.3606 24.9618 42.2522 26.5293 42.6047 28.4324C43.0219 30.6852 42.615 32.8256 41.6644 34.8815C41.6147 34.9902 41.4863 35.1009 41.3719 35.1337C41.025 35.2349 40.6688 35.3099 40.3116 35.3699C40.2122 35.3868 40.0978 35.3146 39.99 35.2846C39.6234 35.1824 39.2616 35.0371 38.8875 34.9912C38.4722 34.9396 38.0447 34.9734 37.6238 34.9818C36.5213 35.0024 35.6681 35.8443 35.6606 36.9112C35.6531 37.9715 36.5091 38.8302 37.6069 38.8509C38.1581 38.8584 38.7075 38.8499 39.2681 38.8499Z" fill="white"/>
<path d="M24.8226 32.7309C24.8226 32.1815 24.8179 31.6312 24.8235 31.0818C24.831 30.4668 25.0888 29.985 25.5932 29.6221C25.6954 29.5481 25.7873 29.3915 25.7957 29.2659C26.1416 24.4293 29.9179 20.4515 34.7226 19.8731C40.2669 19.2056 45.3041 23.0231 46.1123 28.5075C46.1226 28.5768 46.1263 28.6471 46.131 28.7175C46.161 29.1684 46.2116 29.5734 46.6644 29.8715C47.0479 30.1237 47.167 30.5934 47.1698 31.0556C47.1763 32.1665 47.1866 33.2784 47.1688 34.3893C47.1482 35.6596 45.9069 36.4396 44.721 35.954C44.6048 35.9062 44.4173 35.8903 44.3235 35.9521C43.0391 36.7959 41.6094 37.1878 40.1029 37.3678C39.9716 37.3837 39.8526 37.4971 39.7251 37.5581C39.4598 37.6837 39.201 37.8731 38.9226 37.9124C38.4979 37.9725 38.0573 37.9359 37.6241 37.9265C37.0523 37.9134 36.6341 37.5121 36.6107 36.9693C36.5873 36.4181 36.9529 35.969 37.5266 35.924C38.0273 35.8856 38.5335 35.8996 39.036 35.9212C39.202 35.9287 39.4129 35.9878 39.516 36.1021C39.756 36.3693 40.0241 36.3618 40.3335 36.314C41.4773 36.1378 42.5695 35.8181 43.5651 35.2078C43.7488 35.0953 43.8004 34.9968 43.761 34.7643C43.6982 34.3875 43.7188 33.9956 43.7169 33.6103C43.7123 32.7796 43.7198 31.949 43.7141 31.1184C43.7104 30.4856 43.9588 29.9934 44.4773 29.6221C44.5654 29.5593 44.6329 29.3962 44.6263 29.2846C44.391 25.5271 41.3676 22.1606 37.6448 21.5015C32.9169 20.6634 28.5735 23.5359 27.5235 28.1971C27.4851 28.3678 27.4579 28.5412 27.4251 28.7137C27.3379 29.1665 27.2929 29.5631 27.7898 29.8809C28.1488 30.1096 28.2744 30.5568 28.2754 30.9993C28.2773 32.1459 28.2904 33.2924 28.2726 34.4381C28.2576 35.3849 27.5235 36.0843 26.5794 36.0956C25.6232 36.1068 24.861 35.4028 24.8282 34.4521C24.8085 33.8793 24.8244 33.3056 24.8244 32.7328C24.8235 32.7309 24.8226 32.7309 24.8226 32.7309Z" fill="white"/>
</g>
<defs>
<linearGradient id="paint0_linear_690_3446" x1="36" y1="0" x2="36" y2="72" gradientUnits="userSpaceOnUse">
<stop stop-color="#92A7FF"/>
<stop offset="1" stop-color="#5C7BFF"/>
</linearGradient>
<clipPath id="clip0_690_3446">
<rect width="36" height="36" fill="white" transform="translate(18 18)"/>
</clipPath>
</defs>
</svg>
