<svg width="72" height="72" viewBox="0 0 72 72" fill="none" xmlns="http://www.w3.org/2000/svg">
<rect width="72" height="72" rx="20" fill="url(#paint0_linear_690_3468)"/>
<g clip-path="url(#clip0_690_3468)">
<path d="M41.705 42.2737C38.0581 45.4659 32.9862 44.9549 30.02 41.9456C27.109 38.9924 26.7931 34.3574 29.2887 30.9656C31.6315 27.7828 36.7672 26.1824 41.0768 29.2574C41.149 28.6096 41.4284 28.0959 42.019 27.7949C43.1234 27.2315 44.435 28.0143 44.4575 29.264C44.4772 30.3281 44.4622 31.3931 44.4622 32.4571C44.4622 34.8787 44.4565 37.2993 44.4659 39.7209C44.4697 40.7812 45.1409 41.7065 46.1225 42.0599C47.1275 42.4218 48.2253 42.1462 48.8872 41.3296C49.0887 41.0812 49.2519 40.7803 49.355 40.4765C51.9725 32.7749 47.3478 24.3496 39.4475 22.4137C31.5359 20.4721 23.7547 25.4934 22.2312 33.5203C20.8156 40.9818 25.8593 48.374 33.3359 49.7962C36.8225 50.459 40.099 49.8881 43.1722 48.1227C44.0778 47.6024 45.0687 47.8059 45.5712 48.6149C46.0868 49.4446 45.815 50.4703 44.9262 50.9999C43.339 51.9468 41.644 52.6293 39.8365 53.0221C30.3622 55.0818 21.079 49.1128 19.009 39.6318C16.9315 30.1237 23.1059 20.7196 32.6562 18.8437C42.17 16.9762 51.3818 23.2256 53.15 32.7581C53.705 35.7477 53.5362 38.7018 52.5322 41.5781C51.6997 43.9612 49.9728 45.3421 47.465 45.5418C45.0237 45.7368 43.144 44.6784 41.8709 42.5737C41.8175 42.4846 41.7697 42.3918 41.705 42.2737ZM36.0331 30.9796C33.2309 30.9909 30.9828 33.2521 30.9856 36.0553C30.9884 38.8368 33.2759 41.0953 36.0809 41.0849C38.8297 41.0746 41.0965 38.7937 41.0937 36.0431C41.09 33.2409 38.8184 30.9684 36.0331 30.9796Z" fill="white"/>
</g>
<defs>
<linearGradient id="paint0_linear_690_3468" x1="36" y1="0" x2="36" y2="72" gradientUnits="userSpaceOnUse">
<stop stop-color="#92A7FF"/>
<stop offset="1" stop-color="#5C7BFF"/>
</linearGradient>
<clipPath id="clip0_690_3468">
<rect width="36" height="36" fill="white" transform="translate(18 18)"/>
</clipPath>
</defs>
</svg>
