<svg width="72" height="72" viewBox="0 0 72 72" fill="none" xmlns="http://www.w3.org/2000/svg">
<rect width="72" height="72" rx="20" fill="url(#paint0_linear_690_3457)"/>
<g clip-path="url(#clip0_690_3457)">
<path d="M35.7544 53.9999C35.46 53.7767 35.1412 53.5798 34.875 53.3277C31.4419 50.068 28.3997 46.4877 25.9894 42.3974C24.57 39.9898 23.4609 37.4567 22.875 34.7052C21.5015 28.2505 24.644 21.9523 30.6253 19.2158C36.0815 16.7192 42.8147 18.3805 46.5478 23.172C49.3762 26.802 50.0981 30.8877 49.0528 35.3211C48.3675 38.2311 47.0634 40.8748 45.4809 43.3873C43.1625 47.0689 40.3481 50.3417 37.1953 53.3295C36.929 53.5817 36.6094 53.7777 36.315 53.9999C36.1284 53.9999 35.9419 53.9999 35.7544 53.9999ZM43.5187 31.7727C43.7044 27.7245 40.455 24.2614 36.2822 24.0598C32.235 23.8649 28.7597 27.1105 28.5525 31.2786C28.35 35.3558 31.6228 38.8433 35.8228 39.028C39.869 39.2061 43.3265 35.9455 43.5187 31.7727Z" fill="white"/>
</g>
<defs>
<linearGradient id="paint0_linear_690_3457" x1="36" y1="0" x2="36" y2="72" gradientUnits="userSpaceOnUse">
<stop stop-color="#92A7FF"/>
<stop offset="1" stop-color="#5C7BFF"/>
</linearGradient>
<clipPath id="clip0_690_3457">
<rect width="36" height="36" fill="white" transform="translate(18 18)"/>
</clipPath>
</defs>
</svg>
