<svg width="579" height="349" viewBox="0 0 579 349" fill="none" xmlns="http://www.w3.org/2000/svg">
<path d="M526.898 323.298C524.144 315.746 515.974 311.544 511.635 310.191C515.972 304.056 515.853 295.122 509.65 289.657C513.183 284.197 515.592 275.965 511.11 265.433C508.363 258.979 503.462 255.733 498.891 254.11C499.268 252.763 499.477 251.345 499.477 249.877C499.477 243.516 495.691 238.05 490.255 235.577C492.575 230.329 494.375 223.173 493.646 214.1C493 206.056 489.369 199.967 485.256 195.556C486.631 193.226 487.433 190.518 487.433 187.617C487.433 179.844 481.765 173.41 474.34 172.181C474.652 162.854 472.407 150.734 461.205 141.948C440.386 125.619 419.26 146.596 419.26 146.596C419.26 146.596 419.26 141.03 411.095 133.478C402.931 125.926 387.418 127.043 387.418 127.043C387.418 127.043 382.458 100.37 362.516 97.6559C336.271 94.0839 326.542 119.7 326.542 119.7C326.542 119.7 321.16 123.983 313.857 128.922C311.216 119.655 302.706 112.862 292.591 112.862C282.153 112.862 273.425 120.098 271.094 129.822C263.705 119.51 249.847 120.798 249.847 120.798C249.847 120.798 241.989 85.1029 211.474 90.6139C181.508 96.0259 181.674 128.783 181.674 128.783C181.674 128.783 169.427 128.375 155.038 139.448C140.648 150.521 143.302 174.86 143.302 174.86C143.302 174.86 123.006 162.048 109.935 181.852C99.4018 197.811 111.732 214 111.732 214C111.732 214 100.235 214.612 93.8048 222.573C87.3758 230.533 89.8248 241.555 89.8248 241.555C89.8248 241.555 78.1908 232.676 67.1688 241.555C56.1468 250.434 58.2898 267.579 58.2898 267.579C58.2898 267.579 44.8188 274.927 44.9718 290.053C45.1248 305.179 53.7998 310.545 53.7998 310.545C53.7998 310.545 47.4728 314.015 46.0438 321.159C44.6148 328.303 49.2078 332.589 49.2078 332.589C49.2078 332.589 43.0848 333.507 41.7578 339.529C40.4308 345.55 44.8198 347.183 44.8198 347.183H499.171H510.295H525.807C525.807 347.179 530.869 334.187 526.898 323.298Z" fill="#CDDBF0"/>
<path d="M424.31 149.028V143.119C424.31 143.119 421.524 140.261 420.095 135.261C418.666 130.26 416.625 120.667 415.298 116.483C413.971 112.299 412.795 108.254 416.421 108.523C420.046 108.792 427.035 123.423 427.035 123.423C427.035 123.423 425.3 93.5209 427.035 90.4589C428.77 87.3969 431.73 87.6019 432.75 93.9289C433.771 100.256 434.485 113.115 434.485 113.115C434.485 113.115 436.016 89.2339 437.751 87.7029C439.486 86.1719 442.548 86.3759 442.956 90.1519C443.364 93.9279 442.956 115.462 442.956 115.462C442.956 115.462 446.159 94.7449 447.996 94.0299C449.833 93.3159 452.282 93.3159 451.976 99.5409C451.67 105.766 451.12 117.299 451.12 117.299C451.12 117.299 453.977 103.317 456.223 103.113C458.468 102.909 458.774 106.787 458.774 109.747C458.774 112.707 456.517 131.917 454.079 138.22C451.242 145.557 447.995 148.936 447.995 148.936L446.505 157.118C446.505 157.118 426.688 151.723 424.31 149.028Z" fill="#FFC099"/>
<path d="M418.601 161.353C418.601 161.353 419.557 149.201 420.852 148.544C422.147 147.886 448.984 153.479 450.096 154.706C451.208 155.933 448.095 168.982 448.095 168.982C448.095 168.982 421.557 165.492 418.601 161.353Z" fill="#3D74BF"/>
<path d="M308.854 121.534C278.321 135.315 258.694 165.708 258.694 199.207V292.681H387.488V214.302C387.488 214.302 391.088 224.003 395.842 234.518C399.758 243.18 406.777 252.572 423.309 249.817C439.842 247.062 444.434 196.544 449.333 172.867C450.129 169.022 447.973 168.557 446.153 167.506C444.333 166.455 421.05 158.735 418.601 158.735C416.152 158.735 412.594 158.579 413.002 164.294C413.41 170.009 410.348 189.196 410.348 189.196C410.348 189.196 393.611 148.17 388.712 140.822C383.813 133.474 350.798 119.696 350.798 119.696L308.854 121.534Z" fill="#88B6F5"/>
<path d="M271.316 178.66L276.043 193.79C276.043 193.79 278.186 249.819 276.043 261.147C273.9 272.475 271.316 283.803 271.316 283.803L263.952 270.419C263.952 270.419 265.94 262.371 269.001 238.797C272.063 215.221 271.316 178.66 271.316 178.66Z" fill="#3D74BF"/>
<path d="M315.029 144.497C315.029 144.497 327.276 157.152 342.38 147.355C357.484 137.558 336.41 144.497 336.41 144.497H326.919L321.373 142.112L315.029 144.497Z" fill="#3D74BF"/>
<path d="M308.854 85.1001V121.534L313.335 132.578C315.727 138.473 320.762 142.891 326.918 144.497H336.409L350.799 119.698V85.1011H308.854V85.1001Z" fill="#FFC099"/>
<path d="M293.393 67.7512C293.393 67.7512 288.494 47.9522 291.964 33.6652C295.434 19.3772 306.252 15.9072 306.252 15.9072C306.252 15.9072 314.825 2.64019 333.807 5.90519C352.789 9.17119 364.832 22.7372 367.281 36.5692C369.73 50.4012 364.832 69.1792 364.832 69.1792L293.393 67.7512Z" fill="black"/>
<path d="M360.137 80.6101H354.32V62.0361H360.137C365.266 62.0361 369.424 66.1941 369.424 71.3231C369.424 76.4521 365.266 80.6101 360.137 80.6101Z" fill="#FFC099"/>
<path d="M299.516 80.6101H305.333V62.0361H299.516C294.387 62.0361 290.229 66.1941 290.229 71.3231C290.229 76.4521 294.387 80.6101 299.516 80.6101Z" fill="#FFC099"/>
<path d="M350.799 100.987V85.1011H308.854V100.987C314.058 106.653 321.526 110.206 329.826 110.206C338.126 110.206 345.594 106.653 350.799 100.987Z" fill="#D06858"/>
<path d="M358.3 43.0539V73.3649C358.3 89.0899 345.552 101.838 329.827 101.838C314.102 101.838 301.354 89.0899 301.354 73.3649V48.1209C301.354 43.6329 302.534 39.1869 304.977 35.4229C305.494 34.6259 306.058 33.8669 306.661 33.2069C309.876 29.6859 314.447 27.0469 314.447 27.0469C314.447 27.0469 328.908 45.2989 358.3 43.0539Z" fill="#FFC099"/>
<path d="M387.488 292.681H271.316V347.179H387.488V292.681Z" fill="#343074"/>
<path d="M152.352 263.596C152.352 263.596 145.922 256.554 145.31 244.614C144.698 232.673 148.066 227.162 156.944 218.284C165.823 209.405 154.426 195.673 162.149 186.749C169.872 177.825 163.88 167.926 163.88 167.926C163.88 167.926 159.699 131.333 193.378 122.454C227.057 113.575 237.466 142.798 238.844 152.68C240.222 162.562 241.753 177.462 241.753 179.81C241.753 182.157 240.222 190.356 240.222 190.356C240.222 190.356 247.57 193.485 246.652 199.915C245.733 206.345 248.183 214.305 254.918 218.285C261.654 222.265 272.622 236.349 252.135 259.005C231.649 281.659 152.352 263.596 152.352 263.596Z" fill="#875874"/>
<path d="M182.56 204.914V236.143L146.563 260.773C133.813 269.497 125.869 283.676 125.088 299.105L122.654 347.179H282.167L277.788 293.778C276.557 278.768 268.557 265.136 256.052 256.742L224.302 235.428V202.974L182.56 204.914Z" fill="#FFC099"/>
<path d="M182.56 216.343C188.457 222.27 196.44 226.396 203.175 226.396C211.282 226.396 219.049 223.569 224.301 217.815V204.965L182.56 206.904V216.343Z" fill="#D06858"/>
<path d="M277.787 293.778C276.556 278.768 268.556 265.136 256.051 256.742L248.796 251.872C236.633 257.522 220.998 263.124 205.625 263.902C186.415 264.875 170.104 257.592 160.053 251.543L146.563 260.773C133.813 269.497 125.869 283.676 125.088 299.105L122.654 347.179H282.167L277.787 293.778Z" fill="#F06F76"/>
<path d="M152.352 347.179L138.115 294.059C138.115 294.059 145.157 269.719 146.228 265.126C147.3 260.534 145.129 255.788 142.248 258.084C139.366 260.38 136.278 266.81 136.278 266.81C136.278 266.81 135.002 236.04 133.267 235.428C131.532 234.816 129.491 235.02 128.675 239C127.859 242.98 128.675 262.575 128.675 262.575C128.675 262.575 121.837 234.51 120.204 233.285C118.571 232.06 115.324 234.059 115.732 237.121C116.14 240.183 119.591 254.819 119.591 254.819C119.591 254.819 115.657 240.397 113.837 239.346C112.017 238.295 109.793 240.327 110.508 244.205C111.222 248.083 114.999 268.596 114.999 268.596C114.999 268.596 106.834 254.002 104.487 254.512C102.14 255.022 103.237 261.662 105.381 266.458C107.525 271.254 111.665 277.372 113.961 283.819C116.257 290.266 116.99 293.981 118.828 295.664C120.665 297.348 120.817 347.178 120.817 347.178H152.352V347.179Z" fill="#FFC099"/>
<path d="M182.509 195.933H174.753C165.848 195.933 158.628 188.714 158.628 179.808C158.628 170.902 165.847 163.683 174.753 163.683H182.509V195.933Z" fill="#343074"/>
<path d="M167.558 191.464V203.842C167.558 215.143 176.719 224.304 188.02 224.304H194.093" stroke="#343074" stroke-width="2.4493" stroke-miterlimit="10"/>
<path d="M176.029 157.968C171.5 157.968 167.681 161.349 167.161 165.847C166.763 169.29 166.436 173.911 166.436 179.808C166.436 186.41 167.352 191.295 168.384 194.704C169.524 198.47 172.996 201.035 176.93 201.035H179.295L176.029 157.968Z" fill="#4C43AE"/>
<path d="M233.588 167.97C230.533 167.562 227.959 165.816 225.886 163.684H222.77V195.934H230.078C238.842 195.934 246.342 189.129 246.642 180.371C246.645 180.278 246.648 180.185 246.649 180.093C246.75 174.249 242.291 169.323 236.511 168.455C234.747 168.188 233.588 167.97 233.588 167.97Z" fill="#343074"/>
<path d="M233.588 167.97C231.766 167.726 230.117 167.003 228.641 166.01L225.985 201.036H228.35C232.285 201.036 235.757 198.471 236.896 194.705C237.928 191.296 238.844 186.411 238.844 179.809C238.844 175.418 238.663 171.737 238.406 168.721C235.626 168.353 233.588 167.97 233.588 167.97Z" fill="#4C43AE"/>
<path d="M233.588 167.97C233.588 167.97 233.18 191.647 228.894 202.363C224.608 213.079 214.198 218.284 203.176 218.284C192.154 218.284 177.764 207.262 174.703 195.322C171.641 183.382 171.947 162.868 174.703 152.459C177.458 142.049 188.685 131.232 201.135 131.436C213.586 131.64 217.154 148.013 220.526 155.929C225.22 166.949 233.588 167.97 233.588 167.97Z" fill="#FFC099"/>
<path d="M198.43 228.489H193.991C191.793 228.489 190.011 226.707 190.011 224.509C190.011 222.311 191.793 220.529 193.991 220.529H198.43C200.628 220.529 202.41 222.311 202.41 224.509C202.41 226.707 200.628 228.489 198.43 228.489Z" fill="#4C43AE"/>
<path d="M201.849 171.644V185.677C201.849 185.677 205.548 184.299 205.778 182.233C206.008 180.165 203.201 179.578 201.849 171.644Z" fill="#D06858"/>
<path d="M184.806 190.354H219.25C219.25 190.354 219.097 207.884 202.028 207.884C184.959 207.884 184.806 190.354 184.806 190.354Z" fill="#FFFDFF"/>
<path d="M192.613 152.151C192.613 152.151 187.774 145.397 179.907 152.151Z" fill="#333333"/>
<path d="M192.613 152.151C192.613 152.151 187.774 145.397 179.907 152.151" stroke="#333333" stroke-width="2.4493" stroke-miterlimit="10" stroke-linecap="round"/>
<path d="M210.217 152.151C210.217 152.151 214.809 143.698 224.301 149.149Z" fill="#333333"/>
<path d="M210.217 152.151C210.217 152.151 214.809 143.698 224.301 149.149" stroke="#333333" stroke-width="2.4493" stroke-miterlimit="10" stroke-linecap="round"/>
<path d="M187.638 163.775C189.348 163.775 190.735 165.162 190.735 166.872C190.735 168.583 189.347 169.97 187.638 169.97C185.927 169.97 184.54 168.582 184.54 166.872C184.54 165.161 185.927 163.775 187.638 163.775Z" fill="#333333" stroke="#333333"/>
<path d="M216.111 163.775C217.822 163.775 219.209 165.162 219.209 166.872C219.209 168.582 217.822 169.97 216.111 169.97C214.4 169.97 213.014 168.583 213.014 166.872C213.014 165.161 214.401 163.775 216.111 163.775Z" fill="#333333" stroke="#333333"/>
<path d="M322.479 47.2381C322.479 47.2381 318.601 41.0131 309.62 46.0131Z" fill="#333333"/>
<path d="M322.479 47.2381C322.479 47.2381 318.601 41.0131 309.62 46.0131" stroke="#333333" stroke-width="2.4493" stroke-miterlimit="10" stroke-linecap="round"/>
<path d="M337.94 47.2381C337.94 47.2381 341.818 41.0131 350.799 46.0131Z" fill="#333333"/>
<path d="M337.94 47.2381C337.94 47.2381 341.818 41.0131 350.799 46.0131" stroke="#333333" stroke-width="2.4493" stroke-miterlimit="10" stroke-linecap="round"/>
<path d="M315.922 53.606C317.717 53.606 319.172 55.061 319.172 56.8569C319.172 58.652 317.717 60.1079 315.922 60.1079C314.127 60.1079 312.671 58.6527 312.671 56.8569C312.671 55.062 314.126 53.606 315.922 53.606Z" fill="#333333" stroke="#333333"/>
<path d="M344.37 53.606C346.165 53.606 347.62 55.061 347.62 56.8569C347.62 58.652 346.165 60.1079 344.37 60.1079C342.575 60.1079 341.119 58.6527 341.119 56.8569C341.119 55.062 342.574 53.606 344.37 53.606Z" fill="#333333" stroke="#333333"/>
<path d="M330.439 56.8569V70.2009C330.439 70.2009 334.23 70.0439 334.376 67.9279C334.521 65.8119 331.255 62.3929 330.439 56.8569Z" fill="#D06858"/>
<path d="M315.922 74.2319H344.37V76.3879C344.37 84.2439 338.002 90.6119 330.146 90.6119C322.29 90.6119 315.922 84.2439 315.922 76.3879V74.2319Z" fill="#FFFDFF"/>
<path d="M427.034 123.422C427.034 123.422 434.311 124.647 436.388 129.954C438.465 135.261 439.281 138.118 439.281 138.118C439.281 138.118 440.608 128.014 436.934 122.606C433.26 117.198 426.667 115.962 426.667 115.962C426.667 115.962 427.034 120.463 427.034 123.422Z" fill="#D06858"/>
<path d="M136.278 266.81C136.278 266.81 129.184 269.127 126.098 275.842C123.586 281.308 125.409 285.18 125.409 285.18C125.409 285.18 121.149 277.888 123.598 272.53C126.047 267.172 136.022 261.413 136.022 261.413L136.278 266.81Z" fill="#D06858"/>
<path d="M332.99 139.445L343.706 154.09L360.917 124.173C360.917 124.173 360.341 119.697 358.3 116.788C356.259 113.88 350.799 112.859 350.799 112.859V116.635L332.99 139.445Z" fill="#FFFDFF"/>
<path d="M326.918 139.394V144.497L322.507 142.936L326.918 139.394Z" fill="#DDDCE3"/>
<path d="M332.99 139.445V144.497H336.409L332.99 139.445Z" fill="#DDDCE3"/>
<path d="M326.918 139.394L308.854 121.534V112.859C308.854 112.859 301.353 114.696 299.516 119.697C297.679 124.698 297.475 125.922 301.353 133.679C305.231 141.435 312.582 154.09 312.582 154.09L326.918 139.394Z" fill="#FFFDFF"/>
<path d="M164.905 339.423H172.355V314.317H164.905C157.972 314.317 152.352 319.937 152.352 326.87C152.352 333.803 157.972 339.423 164.905 339.423Z" stroke="#3D74BF" stroke-width="4.8987" stroke-miterlimit="10"/>
<path d="M198.583 347.179H170.824C168.964 347.179 167.456 345.671 167.456 343.811V308.908C167.456 307.048 168.964 305.54 170.824 305.54H198.583C200.443 305.54 201.951 307.048 201.951 308.908V343.811C201.951 345.671 200.443 347.179 198.583 347.179Z" fill="#88B6F5"/>
<path d="M438.913 339.423H431.463V314.317H438.913C445.846 314.317 451.466 319.937 451.466 326.87C451.466 333.803 445.846 339.423 438.913 339.423Z" stroke="#875874" stroke-width="4.8987" stroke-miterlimit="10"/>
<path d="M405.235 347.179H432.994C434.854 347.179 436.362 345.671 436.362 343.811V308.908C436.362 307.048 434.854 305.54 432.994 305.54H405.235C403.375 305.54 401.867 307.048 401.867 308.908V343.811C401.867 345.671 403.375 347.179 405.235 347.179Z" fill="#F06F76"/>
<path d="M277.226 347.179H227.516C222.359 347.179 218.178 342.998 218.178 337.841C218.178 336.235 219.48 334.932 221.087 334.932H277.227L277.226 347.179Z" fill="#FFFDFF"/>
<path d="M410.824 275.102L370.361 347.179L359.682 341.184L406.14 258.428C412.038 261.739 414.135 269.204 410.824 275.102Z" fill="#D0CDD3"/>
<path d="M313.066 258.428H406.141L370.361 347.179H277.287L313.066 258.428Z" fill="#D0CDD3"/>
<path d="M317.75 275.102L277.287 347.179L266.608 341.184L313.066 258.428C318.964 261.739 321.061 269.204 317.75 275.102Z" fill="#FFFDFF"/>
<path d="M359.602 305.54C357.54 311.289 351.926 315.95 347.065 315.95C342.204 315.95 339.934 311.289 341.997 305.54C344.06 299.791 349.673 295.13 354.534 295.13C359.395 295.131 361.664 299.791 359.602 305.54Z" fill="#FFFDFF"/>
<path d="M24.314 347.179H545.613" stroke="#4C43AE" stroke-width="2.4493" stroke-miterlimit="10" stroke-linecap="round"/>
<path d="M398.306 204.505C396.469 216.343 400.143 225.733 401.368 219.813C402.593 213.894 403.613 210.628 406.141 203.892C408.669 197.156 410.349 189.196 410.349 189.196C410.349 189.196 408.514 184.7 405.888 178.431C403.821 183.961 399.666 195.74 398.306 204.505Z" fill="#3D74BF"/>
<path d="M508.333 288.907L452.201 272.15C450.203 271.554 449.066 269.45 449.663 267.452L460.698 230.487C461.294 228.489 463.398 227.352 465.396 227.949L521.528 244.706C523.526 245.302 524.663 247.406 524.066 249.404L513.031 286.369C512.434 288.367 510.331 289.503 508.333 288.907Z" fill="#E3E1E5"/>
<path d="M521.527 244.705L465.395 227.948C463.397 227.352 461.293 228.488 460.697 230.486L484.132 260.837C484.999 261.96 486.486 262.404 487.827 261.94L524.065 249.403C524.662 247.405 523.526 245.302 521.527 244.705Z" fill="#FFFDFF"/>
<path d="M65.6049 254.921H18.659C17.306 254.921 16.21 256.018 16.21 257.37V285.129C16.21 286.482 17.307 287.578 18.659 287.578H52.014C53.035 291.36 55.513 294.65 58.996 296.661V287.578H65.604C66.957 287.578 68.053 286.481 68.053 285.129V257.37C68.054 256.017 66.9579 254.921 65.6049 254.921Z" fill="#FFC672"/>
<path d="M28.5841 270.51C28.5841 271.99 27.3851 273.189 25.9051 273.189C24.4261 273.189 23.2261 271.99 23.2261 270.51C23.2261 269.031 24.4251 267.831 25.9051 267.831C27.3851 267.831 28.5841 269.03 28.5841 270.51Z" fill="white"/>
<path d="M39.4019 270.51C39.4019 271.99 38.2029 273.189 36.7229 273.189C35.2439 273.189 34.0439 271.99 34.0439 270.51C34.0439 269.031 35.2429 267.831 36.7229 267.831C38.2029 267.831 39.4019 269.03 39.4019 270.51Z" fill="white"/>
<path d="M50.2203 270.51C50.2203 271.99 49.0203 273.189 47.5413 273.189C46.0613 273.189 44.8623 271.99 44.8623 270.51C44.8623 269.031 46.0613 267.831 47.5413 267.831C49.0213 267.831 50.2203 269.03 50.2203 270.51Z" fill="white"/>
<path d="M61.0382 270.51C61.0382 271.99 59.8392 273.189 58.3592 273.189C56.8792 273.189 55.6802 271.99 55.6802 270.51C55.6802 269.031 56.8792 267.831 58.3592 267.831C59.8382 267.831 61.0382 269.03 61.0382 270.51Z" fill="white"/>
<path d="M551.892 131.281H504.946C503.593 131.281 502.497 132.378 502.497 133.73V161.489C502.497 162.842 503.594 163.938 504.946 163.938H538.301C539.321 167.72 541.8 171.01 545.283 173.021V163.938H551.891C553.244 163.938 554.34 162.841 554.34 161.489V133.73C554.341 132.377 553.244 131.281 551.892 131.281Z" fill="#CDDBF0"/>
<path d="M514.871 146.87C514.871 148.35 513.672 149.549 512.192 149.549C510.712 149.549 509.513 148.35 509.513 146.87C509.513 145.39 510.712 144.191 512.192 144.191C513.672 144.191 514.871 145.39 514.871 146.87Z" fill="white"/>
<path d="M525.689 146.87C525.689 148.35 524.49 149.549 523.01 149.549C521.53 149.549 520.331 148.35 520.331 146.87C520.331 145.39 521.53 144.191 523.01 144.191C524.489 144.191 525.689 145.39 525.689 146.87Z" fill="white"/>
<path d="M536.507 146.87C536.507 148.35 535.308 149.549 533.828 149.549C532.349 149.549 531.149 148.35 531.149 146.87C531.149 145.39 532.348 144.191 533.828 144.191C535.307 144.191 536.507 145.39 536.507 146.87Z" fill="white"/>
<path d="M547.325 146.87C547.325 148.35 546.126 149.549 544.646 149.549C543.167 149.549 541.967 148.35 541.967 146.87C541.967 145.39 543.166 144.191 544.646 144.191C546.125 144.191 547.325 145.39 547.325 146.87Z" fill="white"/>
<path d="M196.236 26.3682H243.182C244.535 26.3682 245.631 27.4652 245.631 28.8172V56.5762C245.631 57.9292 244.534 59.0252 243.182 59.0252H235.906C234.886 62.8072 232.407 66.0972 228.924 68.1082V59.0252H196.236C194.883 59.0252 193.787 57.9282 193.787 56.5762V28.8172C193.787 27.4642 194.883 26.3682 196.236 26.3682Z" fill="#CDDBF0"/>
<path d="M233.257 41.9573C233.257 43.4363 234.456 44.6363 235.936 44.6363C237.416 44.6363 238.615 43.4373 238.615 41.9573C238.615 40.4773 237.416 39.2783 235.936 39.2783C234.456 39.2783 233.257 40.4773 233.257 41.9573Z" fill="white"/>
<path d="M222.439 41.9573C222.439 43.4363 223.638 44.6363 225.118 44.6363C226.598 44.6363 227.797 43.4373 227.797 41.9573C227.797 40.4773 226.598 39.2783 225.118 39.2783C223.638 39.2783 222.439 40.4773 222.439 41.9573Z" fill="white"/>
<path d="M211.621 41.9573C211.621 43.4363 212.82 44.6363 214.3 44.6363C215.78 44.6363 216.979 43.4373 216.979 41.9573C216.979 40.4773 215.78 39.2783 214.3 39.2783C212.82 39.2783 211.621 40.4773 211.621 41.9573Z" fill="white"/>
<path d="M200.803 41.9573C200.803 43.4363 202.002 44.6363 203.482 44.6363C204.961 44.6363 206.161 43.4373 206.161 41.9573C206.161 40.4773 204.962 39.2783 203.482 39.2783C202.002 39.2783 200.803 40.4773 200.803 41.9573Z" fill="white"/>
<path d="M135.524 121.38L79.8953 131.897C78.6423 132.134 77.4343 131.31 77.1973 130.057L70.4103 94.157C70.1733 92.904 70.9973 91.696 72.2503 91.459L127.879 80.942C129.132 80.705 130.34 81.529 130.577 82.782L137.364 118.682C137.601 119.935 136.778 121.143 135.524 121.38Z" fill="#E3E1E5"/>
<path d="M127.614 85.2041L116.216 87.3594L118.64 100.174L130.038 98.0192L127.614 85.2041Z" fill="#FFFDFF"/>
<path d="M103.608 114.792L79.9917 119.258L80.3614 121.213L103.977 116.748L103.608 114.792Z" fill="#8B5FBC"/>
<path d="M104.581 119.932L80.9648 124.398L81.3346 126.353L104.95 121.888L104.581 119.932Z" fill="#8B5FBC"/>
<path d="M78.3013 97.4016L61.0527 100.663L61.868 104.975L79.1166 101.713L78.3013 97.4016Z" fill="#8B5FBC"/>
<path d="M79.6469 104.521L66.3101 107.043L67.1253 111.355L80.4622 108.833L79.6469 104.521Z" fill="#8B5FBC"/>
<path d="M467.129 45.3618C468.968 45.7558 471.611 42.9138 472.613 38.2368C474.661 28.6728 470.552 19.8778 460.306 17.6838C451.161 15.7258 442.022 21.9578 439.974 31.5228C437.96 40.9298 443.378 49.5088 452.416 51.4448C455.36 52.0748 459.356 51.8868 462.795 50.2048L464.508 55.2978C460.93 57.1158 455.401 57.5248 451.302 56.6468C439.005 54.0138 431.631 42.7618 434.298 30.3068C437.01 17.6418 449.069 9.8358 461.42 12.4808C473.717 15.1138 481.004 26.5128 478.27 39.2828C476.616 47.0078 471.279 51.1418 465.445 49.8928C462.292 49.2178 460.279 47.5778 460.076 44.6758L460.05 44.2858C457.521 46.6028 454.732 47.0488 452.315 46.5318C446.849 45.3608 442.449 39.4728 444.002 32.2208C445.409 25.6518 450.501 20.8608 456.703 22.1888C460.486 22.9988 462.149 26.2678 462.149 26.2678L462.61 24.1128L469.705 25.6318L466.048 42.7118C465.665 44.4988 466.183 45.1588 467.129 45.3618ZM451.835 33.6228C451.171 36.7238 451.994 39.8128 454.412 40.3298C457.04 40.8928 459.032 38.5168 459.707 35.3628C460.348 32.3678 459.406 29.5828 456.778 29.0198C454.466 28.5248 452.454 30.7318 451.835 33.6228Z" fill="#FFC672"/>
<path d="M66.3031 192.987C66.3031 194.441 65.1241 195.62 63.6701 195.62C62.2161 195.62 61.0371 194.441 61.0371 192.987C61.0371 191.533 62.2161 190.354 63.6701 190.354C65.1251 190.354 66.3031 191.533 66.3031 192.987Z" fill="#CDDBF0"/>
<path d="M140.759 48.2398C143.234 48.2398 145.24 46.2336 145.24 43.7588C145.24 41.284 143.234 39.2778 140.759 39.2778C138.284 39.2778 136.278 41.284 136.278 43.7588C136.278 46.2336 138.284 48.2398 140.759 48.2398Z" fill="#CDDBF0"/>
<path d="M489.495 85.7479C489.495 87.5849 488.006 89.0749 486.168 89.0749C484.331 89.0749 482.841 87.5859 482.841 85.7479C482.841 83.9109 484.33 82.4209 486.168 82.4209C488.005 82.4219 489.495 83.9109 489.495 85.7479Z" fill="#CDDBF0"/>
<path d="M547.356 283.266C547.356 284.754 546.15 285.96 544.661 285.96C543.173 285.96 541.967 284.754 541.967 283.266C541.967 281.778 543.173 280.572 544.661 280.572C546.149 280.571 547.356 281.778 547.356 283.266Z" fill="#CDDBF0"/>
<path d="M288.196 2.694C288.196 4.182 286.99 5.389 285.502 5.389C284.014 5.389 282.807 4.183 282.807 2.694C282.807 1.206 284.013 6.20927e-07 285.502 6.20927e-07C286.99 -0.000999379 288.196 1.206 288.196 2.694Z" fill="#CDDBF0"/>
<path d="M2.799 315.95C4.34485 315.95 5.598 314.697 5.598 313.151C5.598 311.605 4.34485 310.352 2.799 310.352C1.25316 310.352 0 311.605 0 313.151C0 314.697 1.25316 315.95 2.799 315.95Z" fill="#CDDBF0"/>
<path d="M578.133 192.079C578.133 194.027 576.554 195.607 574.605 195.607C572.657 195.607 571.077 194.027 571.077 192.079C571.077 190.131 572.656 188.551 574.605 188.551C576.553 188.551 578.133 190.131 578.133 192.079Z" fill="#CDDBF0"/>
</svg>
