<svg width="170" height="39" viewBox="0 0 170 39" fill="none" xmlns="http://www.w3.org/2000/svg">
<path d="M36.66 19.9062C36.66 18.6388 36.5462 17.42 36.335 16.25H19.5V23.1725H29.12C28.6975 25.3988 27.43 27.2837 25.5287 28.5512V33.0525H31.33C34.71 29.9325 36.66 25.35 36.66 19.9062Z" fill="#4285F4"/>
<path d="M19.5 37.3746C24.3262 37.3746 28.3725 35.7821 31.33 33.0521L25.5287 28.5509C23.9362 29.6234 21.905 30.2734 19.5 30.2734C14.8525 30.2734 10.9037 27.1371 9.48998 22.9121H3.54248V27.5271C6.48373 33.3609 12.5125 37.3746 19.5 37.3746Z" fill="#34A853"/>
<path d="M9.49 22.8968C9.1325 21.8243 8.92125 20.6868 8.92125 19.5005C8.92125 18.3143 9.1325 17.1768 9.49 16.1043V11.4893H3.5425C2.32375 13.8943 1.625 16.608 1.625 19.5005C1.625 22.393 2.32375 25.1068 3.5425 27.5118L8.17375 23.9043L9.49 22.8968Z" fill="#FBBC05"/>
<path d="M19.5 8.7425C22.1325 8.7425 24.4725 9.6525 26.3412 11.4075L31.46 6.28875C28.3562 3.39625 24.3262 1.625 19.5 1.625C12.5125 1.625 6.48373 5.63875 3.54248 11.4888L9.48998 16.1038C10.9037 11.8787 14.8525 8.7425 19.5 8.7425Z" fill="#EA4335"/>
<path d="M52.5646 7.46446C52.4961 7.24937 52.4039 7.05673 52.2881 6.88655C52.1746 6.714 52.0387 6.56746 51.8803 6.44691C51.722 6.324 51.5411 6.23064 51.3379 6.16682C51.137 6.103 50.916 6.07109 50.6749 6.07109C50.266 6.07109 49.8972 6.17628 49.5687 6.38664C49.2401 6.597 48.9801 6.90546 48.7887 7.312C48.5996 7.71619 48.5051 8.21137 48.5051 8.79755C48.5051 9.38609 48.6008 9.88364 48.7922 10.2902C48.9837 10.6967 49.2461 11.0052 49.5793 11.2155C49.9126 11.4259 50.292 11.5311 50.7174 11.5311C51.1121 11.5311 51.4561 11.4507 51.7491 11.29C52.0446 11.1293 52.2727 10.9024 52.4334 10.6093C52.5965 10.3138 52.6781 9.96637 52.6781 9.56691L52.9617 9.6201H50.8841V8.716H53.7381V9.5421C53.7381 10.1519 53.6081 10.6814 53.3481 11.1305C53.0905 11.5772 52.7336 11.9223 52.2774 12.1657C51.8236 12.4092 51.3036 12.5309 50.7174 12.5309C50.0603 12.5309 49.4836 12.3796 48.9872 12.0771C48.4932 11.7745 48.108 11.3455 47.8314 10.7901C47.5549 10.2323 47.4166 9.57046 47.4166 8.80464C47.4166 8.22555 47.497 7.70555 47.6577 7.24464C47.8184 6.78373 48.0441 6.39255 48.3349 6.07109C48.628 5.74728 48.9719 5.50028 49.3666 5.33009C49.7637 5.15755 50.1974 5.07128 50.6678 5.07128C51.0601 5.07128 51.4253 5.12919 51.7633 5.245C52.1037 5.36082 52.4062 5.52509 52.671 5.73782C52.9381 5.95055 53.1591 6.20346 53.334 6.49655C53.5089 6.78728 53.6271 7.10991 53.6885 7.46446H52.5646ZM56.9383 12.5415C56.4278 12.5415 55.9822 12.4245 55.6017 12.1905C55.2211 11.9565 54.9257 11.6292 54.7153 11.2085C54.5049 10.7877 54.3998 10.2961 54.3998 9.73355C54.3998 9.16864 54.5049 8.67464 54.7153 8.25155C54.9257 7.82846 55.2211 7.49991 55.6017 7.26591C55.9822 7.03191 56.4278 6.91491 56.9383 6.91491C57.4489 6.91491 57.8944 7.03191 58.2749 7.26591C58.6555 7.49991 58.9509 7.82846 59.1613 8.25155C59.3717 8.67464 59.4769 9.16864 59.4769 9.73355C59.4769 10.2961 59.3717 10.7877 59.1613 11.2085C58.9509 11.6292 58.6555 11.9565 58.2749 12.1905C57.8944 12.4245 57.4489 12.5415 56.9383 12.5415ZM56.9419 11.6516C57.2728 11.6516 57.5469 11.5642 57.7644 11.3893C57.9819 11.2144 58.1426 10.9815 58.2466 10.6908C58.3529 10.4001 58.4061 10.0798 58.4061 9.73C58.4061 9.38255 58.3529 9.06346 58.2466 8.77273C58.1426 8.47964 57.9819 8.24446 57.7644 8.06719C57.5469 7.88991 57.2728 7.80128 56.9419 7.80128C56.6086 7.80128 56.332 7.88991 56.1122 8.06719C55.8948 8.24446 55.7329 8.47964 55.6265 8.77273C55.5225 9.06346 55.4705 9.38255 55.4705 9.73C55.4705 10.0798 55.5225 10.4001 55.6265 10.6908C55.7329 10.9815 55.8948 11.2144 56.1122 11.3893C56.332 11.5642 56.6086 11.6516 56.9419 11.6516ZM62.5547 12.5415C62.0442 12.5415 61.5986 12.4245 61.2181 12.1905C60.8375 11.9565 60.5421 11.6292 60.3317 11.2085C60.1213 10.7877 60.0162 10.2961 60.0162 9.73355C60.0162 9.16864 60.1213 8.67464 60.3317 8.25155C60.5421 7.82846 60.8375 7.49991 61.2181 7.26591C61.5986 7.03191 62.0442 6.91491 62.5547 6.91491C63.0652 6.91491 63.5108 7.03191 63.8913 7.26591C64.2719 7.49991 64.5673 7.82846 64.7777 8.25155C64.9881 8.67464 65.0932 9.16864 65.0932 9.73355C65.0932 10.2961 64.9881 10.7877 64.7777 11.2085C64.5673 11.6292 64.2719 11.9565 63.8913 12.1905C63.5108 12.4245 63.0652 12.5415 62.5547 12.5415ZM62.5582 11.6516C62.8892 11.6516 63.1633 11.5642 63.3808 11.3893C63.5982 11.2144 63.759 10.9815 63.863 10.6908C63.9693 10.4001 64.0225 10.0798 64.0225 9.73C64.0225 9.38255 63.9693 9.06346 63.863 8.77273C63.759 8.47964 63.5982 8.24446 63.3808 8.06719C63.1633 7.88991 62.8892 7.80128 62.5582 7.80128C62.225 7.80128 61.9484 7.88991 61.7286 8.06719C61.5112 8.24446 61.3492 8.47964 61.2429 8.77273C61.1389 9.06346 61.0869 9.38255 61.0869 9.73C61.0869 10.0798 61.1389 10.4001 61.2429 10.6908C61.3492 10.9815 61.5112 11.2144 61.7286 11.3893C61.9484 11.5642 62.225 11.6516 62.5582 11.6516ZM68.1605 14.5873C67.7279 14.5873 67.3556 14.5305 67.0436 14.4171C66.734 14.3036 66.4811 14.1535 66.2849 13.9668C66.0887 13.7801 65.9422 13.5756 65.8453 13.3535L66.7565 12.9776C66.8203 13.0816 66.9054 13.1915 67.0117 13.3074C67.1205 13.4255 67.267 13.526 67.4514 13.6087C67.6381 13.6915 67.878 13.7328 68.1711 13.7328C68.5729 13.7328 68.905 13.6347 69.1674 13.4385C69.4297 13.2447 69.5609 12.9351 69.5609 12.5096V11.4389H69.4935C69.4297 11.5547 69.3375 11.6835 69.217 11.8254C69.0988 11.9672 68.9357 12.0901 68.7277 12.1941C68.5197 12.2981 68.2491 12.3501 67.9158 12.3501C67.4856 12.3501 67.098 12.2496 66.7529 12.0487C66.4102 11.8455 66.1384 11.5465 65.9375 11.1517C65.7389 10.7546 65.6396 10.2665 65.6396 9.68746C65.6396 9.10837 65.7377 8.612 65.9339 8.19837C66.1325 7.78473 66.4043 7.468 66.7494 7.24819C67.0945 7.026 67.4856 6.91491 67.9229 6.91491C68.2609 6.91491 68.5339 6.97164 68.7419 7.08509C68.9499 7.19619 69.1118 7.32619 69.2276 7.47509C69.3458 7.624 69.4368 7.75519 69.5006 7.86864H69.5786V6.98582H70.6175V12.5522C70.6175 13.0202 70.5087 13.4043 70.2913 13.7045C70.0738 14.0046 69.7795 14.2268 69.4085 14.371C69.0397 14.5152 68.6237 14.5873 68.1605 14.5873ZM68.1498 11.4708C68.4547 11.4708 68.7124 11.3999 68.9227 11.2581C69.1355 11.1139 69.2962 10.9083 69.4049 10.6412C69.516 10.3717 69.5715 10.0491 69.5715 9.67328C69.5715 9.30691 69.5172 8.98428 69.4085 8.70537C69.2997 8.42646 69.1402 8.209 68.9298 8.053C68.7195 7.89464 68.4595 7.81546 68.1498 7.81546C67.8307 7.81546 67.5648 7.89819 67.3521 8.06364C67.1394 8.22673 66.9786 8.44891 66.8699 8.73019C66.7635 9.01146 66.7104 9.32582 66.7104 9.67328C66.7104 10.0302 66.7647 10.3434 66.8735 10.6128C66.9822 10.8823 67.1429 11.0926 67.3556 11.2439C67.5707 11.3952 67.8355 11.4708 68.1498 11.4708ZM72.6999 5.17055V12.4316H71.6398V5.17055H72.6999ZM76.0738 12.5415C75.5373 12.5415 75.0752 12.4269 74.6875 12.1976C74.3023 11.966 74.0044 11.641 73.7941 11.2226C73.5861 10.8019 73.4821 10.3091 73.4821 9.74419C73.4821 9.18637 73.5861 8.69473 73.7941 8.26928C74.0044 7.84382 74.2975 7.51173 74.6733 7.273C75.0515 7.03428 75.4935 6.91491 75.9993 6.91491C76.3066 6.91491 76.6044 6.96573 76.8928 7.06737C77.1812 7.169 77.44 7.32855 77.6693 7.546C77.8985 7.76346 78.0793 8.04591 78.2117 8.39337C78.3441 8.73846 78.4103 9.158 78.4103 9.652V10.0278H74.0813V9.23364H77.3714C77.3714 8.95473 77.3147 8.70773 77.2013 8.49264C77.0878 8.27519 76.9283 8.10382 76.7226 7.97855C76.5193 7.85328 76.2806 7.79064 76.0064 7.79064C75.7086 7.79064 75.4486 7.86391 75.2264 8.01046C75.0066 8.15464 74.8364 8.34373 74.7159 8.57773C74.5977 8.80937 74.5386 9.06109 74.5386 9.33291V9.95337C74.5386 10.3174 74.6024 10.627 74.7301 10.8823C74.8601 11.1375 75.0409 11.3325 75.2725 11.4673C75.5042 11.5996 75.7748 11.6658 76.0844 11.6658C76.2853 11.6658 76.4685 11.6375 76.634 11.5807C76.7994 11.5216 76.9424 11.4342 77.063 11.3184C77.1835 11.2025 77.2757 11.0595 77.3395 10.8894L78.3429 11.0702C78.2625 11.3656 78.1183 11.6245 77.9103 11.8466C77.7047 12.0665 77.4459 12.2378 77.1339 12.3607C76.8243 12.4813 76.4709 12.5415 76.0738 12.5415ZM81.5151 12.4316V5.17055H84.1033C84.6658 5.17055 85.1326 5.26746 85.5037 5.46128C85.8772 5.65509 86.1561 5.92337 86.3404 6.26609C86.5248 6.60646 86.617 7 86.617 7.44673C86.617 7.89109 86.5236 8.28228 86.3369 8.62028C86.1525 8.95591 85.8736 9.21709 85.5002 9.40382C85.1291 9.59055 84.6623 9.68391 84.0997 9.68391H82.1391V8.74082H84.0004C84.355 8.74082 84.6434 8.69 84.8655 8.58837C85.0901 8.48673 85.2544 8.339 85.3584 8.14519C85.4624 7.95137 85.5144 7.71855 85.5144 7.44673C85.5144 7.17255 85.4612 6.935 85.3548 6.73409C85.2508 6.53319 85.0865 6.37955 84.862 6.27319C84.6398 6.16446 84.3479 6.11009 83.9863 6.11009H82.6106V12.4316H81.5151ZM85.0995 9.15564L86.8935 12.4316H85.6455L83.887 9.15564H85.0995ZM89.0504 12.5522C88.7054 12.5522 88.3934 12.4884 88.1144 12.3607C87.8355 12.2307 87.6145 12.0428 87.4514 11.797C87.2907 11.5512 87.2104 11.2498 87.2104 10.8929C87.2104 10.5856 87.2694 10.3327 87.3876 10.1342C87.5058 9.93564 87.6654 9.77846 87.8663 9.66264C88.0672 9.54682 88.2917 9.45937 88.5399 9.40028C88.7881 9.34119 89.041 9.29628 89.2986 9.26555C89.6248 9.22773 89.8895 9.197 90.0928 9.17337C90.2961 9.14737 90.4438 9.106 90.536 9.04928C90.6282 8.99255 90.6743 8.90037 90.6743 8.77273V8.74791C90.6743 8.43828 90.5868 8.19837 90.4119 8.02819C90.2394 7.858 89.9817 7.77291 89.639 7.77291C89.2821 7.77291 89.0008 7.85209 88.7952 8.01046C88.5919 8.16646 88.4513 8.34019 88.3733 8.53164L87.377 8.30473C87.4952 7.97382 87.6677 7.70673 87.8946 7.50346C88.1239 7.29782 88.3874 7.14891 88.6853 7.05673C88.9831 6.96219 89.2963 6.91491 89.6248 6.91491C89.8423 6.91491 90.0727 6.94091 90.3162 6.99291C90.562 7.04255 90.7913 7.13473 91.004 7.26946C91.2191 7.40419 91.3952 7.59682 91.5323 7.84737C91.6694 8.09555 91.7379 8.41819 91.7379 8.81528V12.4316H90.7026V11.6871H90.6601C90.5915 11.8242 90.4887 11.9589 90.3516 12.0913C90.2145 12.2236 90.0384 12.3335 89.8234 12.421C89.6083 12.5085 89.3506 12.5522 89.0504 12.5522ZM89.2809 11.7013C89.574 11.7013 89.8245 11.6434 90.0325 11.5275C90.2429 11.4117 90.4024 11.2605 90.5112 11.0737C90.6223 10.8846 90.6778 10.6825 90.6778 10.4675V9.76546C90.64 9.80328 90.5667 9.83873 90.458 9.87182C90.3516 9.90255 90.2299 9.92973 90.0928 9.95337C89.9557 9.97464 89.8222 9.99473 89.6922 10.0136C89.5622 10.0302 89.4534 10.0444 89.366 10.0562C89.1604 10.0822 88.9724 10.1259 88.8023 10.1874C88.6344 10.2488 88.4997 10.3375 88.3981 10.4533C88.2988 10.5667 88.2492 10.718 88.2492 10.9071C88.2492 11.1695 88.3461 11.368 88.5399 11.5027C88.7337 11.6351 88.9807 11.7013 89.2809 11.7013ZM95.2926 6.98582V7.83673H92.318V6.98582H95.2926ZM93.1157 5.68109H94.1758V10.8326C94.1758 11.0383 94.2065 11.1931 94.268 11.2971C94.3294 11.3987 94.4086 11.4685 94.5055 11.5063C94.6048 11.5417 94.7123 11.5595 94.8282 11.5595C94.9132 11.5595 94.9877 11.5535 95.0515 11.5417C95.1153 11.5299 95.165 11.5205 95.2004 11.5134L95.3919 12.3891C95.3304 12.4127 95.243 12.4364 95.1295 12.46C95.0161 12.486 94.8742 12.5002 94.7041 12.5025C94.4252 12.5073 94.1652 12.4576 93.9241 12.3536C93.683 12.2496 93.488 12.0889 93.3391 11.8715C93.1902 11.654 93.1157 11.381 93.1157 11.0525V5.68109ZM96.0659 12.4316V6.98582H97.126V12.4316H96.0659ZM96.6013 6.14555C96.4169 6.14555 96.2585 6.08409 96.1262 5.96119C95.9962 5.83591 95.9312 5.687 95.9312 5.51446C95.9312 5.33955 95.9962 5.19064 96.1262 5.06773C96.2585 4.94246 96.4169 4.87982 96.6013 4.87982C96.7856 4.87982 96.9428 4.94246 97.0728 5.06773C97.2052 5.19064 97.2714 5.33955 97.2714 5.51446C97.2714 5.687 97.2052 5.83591 97.0728 5.96119C96.9428 6.08409 96.7856 6.14555 96.6013 6.14555ZM99.2129 9.19819V12.4316H98.1528V6.98582H99.1703V7.87219H99.2377C99.363 7.58382 99.5592 7.35219 99.8263 7.17728C100.096 7.00237 100.435 6.91491 100.844 6.91491C101.215 6.91491 101.54 6.99291 101.819 7.14891C102.098 7.30255 102.314 7.53182 102.468 7.83673C102.621 8.14164 102.698 8.51864 102.698 8.96773V12.4316H101.638V9.09537C101.638 8.70064 101.535 8.39219 101.33 8.17C101.124 7.94546 100.841 7.83319 100.482 7.83319C100.236 7.83319 100.018 7.88637 99.8263 7.99273C99.6372 8.09909 99.4871 8.25509 99.376 8.46073C99.2673 8.664 99.2129 8.90982 99.2129 9.19819ZM106.004 14.5873C105.571 14.5873 105.199 14.5305 104.887 14.4171C104.577 14.3036 104.324 14.1535 104.128 13.9668C103.932 13.7801 103.785 13.5756 103.689 13.3535L104.6 12.9776C104.664 13.0816 104.749 13.1915 104.855 13.3074C104.964 13.4255 105.11 13.526 105.295 13.6087C105.481 13.6915 105.721 13.7328 106.014 13.7328C106.416 13.7328 106.748 13.6347 107.011 13.4385C107.273 13.2447 107.404 12.9351 107.404 12.5096V11.4389H107.337C107.273 11.5547 107.181 11.6835 107.06 11.8254C106.942 11.9672 106.779 12.0901 106.571 12.1941C106.363 12.2981 106.092 12.3501 105.759 12.3501C105.329 12.3501 104.941 12.2496 104.596 12.0487C104.253 11.8455 103.982 11.5465 103.781 11.1517C103.582 10.7546 103.483 10.2665 103.483 9.68746C103.483 9.10837 103.581 8.612 103.777 8.19837C103.976 7.78473 104.248 7.468 104.593 7.24819C104.938 7.026 105.329 6.91491 105.766 6.91491C106.104 6.91491 106.377 6.97164 106.585 7.08509C106.793 7.19619 106.955 7.32619 107.071 7.47509C107.189 7.624 107.28 7.75519 107.344 7.86864H107.422V6.98582H108.461V12.5522C108.461 13.0202 108.352 13.4043 108.135 13.7045C107.917 14.0046 107.623 14.2268 107.252 14.371C106.883 14.5152 106.467 14.5873 106.004 14.5873ZM105.993 11.4708C106.298 11.4708 106.556 11.3999 106.766 11.2581C106.979 11.1139 107.139 10.9083 107.248 10.6412C107.359 10.3717 107.415 10.0491 107.415 9.67328C107.415 9.30691 107.36 8.98428 107.252 8.70537C107.143 8.42646 106.983 8.209 106.773 8.053C106.563 7.89464 106.303 7.81546 105.993 7.81546C105.674 7.81546 105.408 7.89819 105.195 8.06364C104.983 8.22673 104.822 8.44891 104.713 8.73019C104.607 9.01146 104.554 9.32582 104.554 9.67328C104.554 10.0302 104.608 10.3434 104.717 10.6128C104.825 10.8823 104.986 11.0926 105.199 11.2439C105.414 11.3952 105.679 11.4708 105.993 11.4708ZM113.564 8.31537L112.603 8.48555C112.563 8.36264 112.499 8.24564 112.412 8.13455C112.327 8.02346 112.211 7.93246 112.064 7.86155C111.918 7.79064 111.734 7.75519 111.515 7.75519C111.214 7.75519 110.964 7.82255 110.763 7.95728C110.562 8.08964 110.462 8.261 110.462 8.47137C110.462 8.65337 110.529 8.79991 110.664 8.911C110.798 9.0221 111.016 9.1131 111.316 9.184L112.181 9.38255C112.682 9.49837 113.056 9.67682 113.302 9.91791C113.547 10.159 113.67 10.4722 113.67 10.8575C113.67 11.1836 113.576 11.4744 113.387 11.7296C113.2 11.9825 112.939 12.1811 112.603 12.3253C112.27 12.4695 111.883 12.5415 111.444 12.5415C110.834 12.5415 110.336 12.4115 109.951 12.1515C109.566 11.8892 109.329 11.5169 109.242 11.0347L110.267 10.8787C110.33 11.1458 110.462 11.3479 110.66 11.485C110.859 11.6197 111.118 11.6871 111.437 11.6871C111.784 11.6871 112.062 11.615 112.27 11.4708C112.478 11.3243 112.582 11.1458 112.582 10.9355C112.582 10.7653 112.518 10.6223 112.39 10.5065C112.265 10.3906 112.072 10.3032 111.812 10.2441L110.891 10.042C110.382 9.92619 110.007 9.74182 109.763 9.48891C109.522 9.236 109.402 8.91573 109.402 8.52809C109.402 8.20664 109.491 7.92537 109.671 7.68428C109.851 7.44319 110.099 7.25528 110.416 7.12055C110.732 6.98346 111.095 6.91491 111.504 6.91491C112.093 6.91491 112.556 7.04255 112.894 7.29782C113.232 7.55073 113.455 7.88991 113.564 8.31537Z" fill="#6A6A6A"/>
<path d="M52.1563 33.6602V31.264H47.2143V29.3171L52.0066 22.503H54.4776V29.3171H56.1999V31.264H54.4776V33.6602H52.1563ZM48.9066 30.1558L48.4723 29.3171H52.1563V24.3002L52.7404 24.4799L48.9066 30.1558ZM58.5827 33.6602V31.4138H60.8291V33.6602H58.5827ZM67.4965 33.8399C66.6578 33.8399 65.934 33.6851 65.3249 33.3756C64.7259 33.0661 64.2666 32.6518 63.9471 32.1326C63.6277 31.6134 63.4679 31.0493 63.4679 30.4403C63.4679 29.7115 63.6576 29.1025 64.037 28.6132C64.4264 28.124 64.9955 27.7546 65.7443 27.505L65.5945 28.0741C65.0653 27.9144 64.641 27.5849 64.3215 27.0857C64.012 26.5865 63.8573 26.0324 63.8573 25.4234C63.8573 24.8243 64.012 24.2902 64.3215 23.8209C64.631 23.3517 65.0604 22.9873 65.6095 22.7277C66.1586 22.4581 66.7876 22.3233 67.4965 22.3233C68.2053 22.3233 68.8293 22.4581 69.3685 22.7277C69.9176 22.9873 70.3469 23.3517 70.6564 23.8209C70.9759 24.2902 71.1356 24.8243 71.1356 25.4234C71.1356 26.0324 70.9809 26.5865 70.6714 27.0857C70.3619 27.5849 69.9375 27.9194 69.3984 28.0891L69.2636 27.49C70.0124 27.7696 70.5815 28.154 70.9709 28.6432C71.3603 29.1224 71.5549 29.7265 71.5549 30.4553C71.5549 31.0643 71.3902 31.6284 71.0607 32.1476C70.7413 32.6568 70.277 33.0661 69.668 33.3756C69.0589 33.6851 68.3351 33.8399 67.4965 33.8399ZM67.4965 31.893C67.8459 31.893 68.1504 31.8281 68.41 31.6983C68.6696 31.5685 68.8693 31.3888 69.009 31.1592C69.1588 30.9295 69.2337 30.665 69.2337 30.3654C69.2337 30.0559 69.1588 29.7914 69.009 29.5717C68.8693 29.3421 68.6696 29.1674 68.41 29.0475C68.1504 28.9178 67.8459 28.8529 67.4965 28.8529C67.157 28.8529 66.8575 28.9178 66.5979 29.0475C66.3483 29.1674 66.1486 29.3421 65.9989 29.5717C65.8591 29.7914 65.7892 30.0559 65.7892 30.3654C65.7892 30.665 65.8591 30.9295 65.9989 31.1592C66.1486 31.3888 66.3483 31.5685 66.5979 31.6983C66.8575 31.8281 67.157 31.893 67.4965 31.893ZM67.4965 26.906C67.766 26.906 67.9957 26.8461 68.1853 26.7263C68.385 26.6065 68.5398 26.4467 68.6496 26.247C68.7594 26.0474 68.8143 25.8277 68.8143 25.5881C68.8143 25.3385 68.7594 25.1139 68.6496 24.9142C68.5398 24.7145 68.385 24.5597 68.1853 24.4499C67.9957 24.3301 67.766 24.2702 67.4965 24.2702C67.2369 24.2702 67.0072 24.3301 66.8076 24.4499C66.6079 24.5597 66.4531 24.7145 66.3433 24.9142C66.2335 25.1139 66.1786 25.3385 66.1786 25.5881C66.1786 25.8277 66.2335 26.0474 66.3433 26.247C66.4531 26.4467 66.6079 26.6065 66.8076 26.7263C67.0072 26.8461 67.2369 26.906 67.4965 26.906Z" fill="#FFD700"/>
<path d="M90.6492 19.5486C90.8787 19.0868 91.5374 19.0868 91.7669 19.5486L93.6407 23.32C93.7316 23.5029 93.9062 23.6297 94.1082 23.6596L98.2741 24.2763C98.7842 24.3519 98.9878 24.9784 98.6195 25.3393L95.6117 28.2869C95.4658 28.4298 95.3991 28.635 95.4331 28.8364L96.1339 32.989C96.2198 33.4975 95.6868 33.8847 95.2297 33.6459L91.4969 31.6962C91.3159 31.6017 91.1001 31.6017 90.9191 31.6962L87.1863 33.6459C86.7293 33.8847 86.1963 33.4975 86.2822 32.989L86.983 28.8364C87.017 28.635 86.9503 28.4298 86.8044 28.2869L83.7966 25.3393C83.4283 24.9784 83.6319 24.3519 84.142 24.2763L88.3079 23.6596C88.5099 23.6297 88.6845 23.5029 88.7754 23.32L90.6492 19.5486Z" fill="#FFD700"/>
<path d="M108.121 19.5486C108.351 19.0868 109.009 19.0868 109.239 19.5486L111.113 23.32C111.204 23.5029 111.378 23.6297 111.58 23.6596L115.746 24.2763C116.256 24.3519 116.46 24.9784 116.092 25.3393L113.084 28.2869C112.938 28.4298 112.871 28.635 112.905 28.8364L113.606 32.989C113.692 33.4975 113.159 33.8847 112.702 33.6459L108.969 31.6962C108.788 31.6017 108.572 31.6017 108.391 31.6962L104.658 33.6459C104.201 33.8847 103.668 33.4975 103.754 32.989L104.455 28.8364C104.489 28.635 104.422 28.4298 104.276 28.2869L101.269 25.3393C100.9 24.9784 101.104 24.3519 101.614 24.2763L105.78 23.6596C105.982 23.6297 106.157 23.5029 106.247 23.32L108.121 19.5486Z" fill="#FFD700"/>
<path d="M125.593 19.5486C125.823 19.0868 126.481 19.0868 126.711 19.5486L128.585 23.32C128.676 23.5029 128.85 23.6297 129.052 23.6596L133.218 24.2763C133.728 24.3519 133.932 24.9784 133.563 25.3393L130.556 28.2869C130.41 28.4298 130.343 28.635 130.377 28.8364L131.078 32.989C131.164 33.4975 130.631 33.8847 130.174 33.6459L126.441 31.6962C126.26 31.6017 126.044 31.6017 125.863 31.6962L122.13 33.6459C121.673 33.8847 121.14 33.4975 121.226 32.989L121.927 28.8364C121.961 28.635 121.894 28.4298 121.748 28.2869L118.741 25.3393C118.372 24.9784 118.576 24.3519 119.086 24.2763L123.252 23.6596C123.454 23.6297 123.628 23.5029 123.719 23.32L125.593 19.5486Z" fill="#FFD700"/>
<path d="M143.065 19.5486C143.295 19.0868 143.953 19.0868 144.183 19.5486L146.057 23.32C146.148 23.5029 146.322 23.6297 146.524 23.6596L150.69 24.2763C151.2 24.3519 151.404 24.9784 151.035 25.3393L148.028 28.2869C147.882 28.4298 147.815 28.635 147.849 28.8364L148.55 32.989C148.636 33.4975 148.103 33.8847 147.646 33.6459L143.913 31.6962C143.732 31.6017 143.516 31.6017 143.335 31.6962L139.602 33.6459C139.145 33.8847 138.612 33.4975 138.698 32.989L139.399 28.8364C139.433 28.635 139.366 28.4298 139.22 28.2869L136.213 25.3393C135.844 24.9784 136.048 24.3519 136.558 24.2763L140.724 23.6596C140.926 23.6297 141.101 23.5029 141.191 23.32L143.065 19.5486Z" fill="#FFD700"/>
<path d="M160.537 19.5486C160.767 19.0868 161.425 19.0868 161.655 19.5486L163.529 23.32C163.62 23.5029 163.794 23.6297 163.996 23.6596L168.162 24.2763C168.672 24.3519 168.876 24.9784 168.508 25.3393L165.5 28.2869C165.354 28.4298 165.287 28.635 165.321 28.8364L166.022 32.989C166.108 33.4975 165.575 33.8847 165.118 33.6459L161.385 31.6962C161.204 31.6017 160.988 31.6017 160.807 31.6962L157.074 33.6459C156.617 33.8847 156.084 33.4975 156.17 32.989L156.871 28.8364C156.905 28.635 156.838 28.4298 156.692 28.2869L153.685 25.3393C153.316 24.9784 153.52 24.3519 154.03 24.2763L158.196 23.6596C158.398 23.6297 158.573 23.5029 158.663 23.32L160.537 19.5486Z" fill="#FFD700"/>
</svg>
