<svg width="198" height="32" viewBox="0 0 198 32" fill="none" xmlns="http://www.w3.org/2000/svg">
<rect width="20" height="20" transform="translate(0 5.70996)" fill="#219653"/>
<path d="M10 19.3861L13.0417 18.5716L14.3125 22.71L10 19.3861ZM17 14.037H11.6458L10 8.70996L8.35417 14.037H3L7.33334 17.3389L5.6875 22.6659L10.0208 19.364L12.6875 17.3389L17 14.037Z" fill="white"/>
<rect width="20" height="20" transform="translate(22 5.70996)" fill="#219653"/>
<path d="M32 19.3861L35.0417 18.5716L36.3125 22.71L32 19.3861ZM39 14.037H33.6458L32 8.70996L30.3542 14.037H25L29.3333 17.3389L27.6875 22.6659L32.0208 19.364L34.6875 17.3389L39 14.037Z" fill="white"/>
<rect width="20" height="20" transform="translate(44 5.70996)" fill="#219653"/>
<path d="M54 19.3861L57.0417 18.5716L58.3125 22.71L54 19.3861ZM61 14.037H55.6458L54 8.70996L52.3542 14.037H47L51.3333 17.3389L49.6875 22.6659L54.0208 19.364L56.6875 17.3389L61 14.037Z" fill="white"/>
<rect width="20" height="20" transform="translate(66 5.70996)" fill="#219653"/>
<path d="M76 19.3861L79.0417 18.5716L80.3125 22.71L76 19.3861ZM83 14.037H77.6458L76 8.70996L74.3542 14.037H69L73.3333 17.3389L71.6875 22.6659L76.0208 19.364L78.6875 17.3389L83 14.037Z" fill="white"/>
<rect width="20" height="20" transform="translate(88 5.70996)" fill="#219653"/>
<path d="M98 19.3861L101.042 18.5716L102.313 22.71L98 19.3861ZM105 14.037H99.6458L98 8.70996L96.3542 14.037H91L95.3333 17.3389L93.6875 22.6659L98.0208 19.364L100.687 17.3389L105 14.037Z" fill="white"/>
<path d="M115.767 19.9545V18.017L120.625 10.3636H122.295V13.0455H121.307L118.244 17.892V17.983H125.148V19.9545H115.767ZM121.352 22V19.3636L121.398 18.5057V10.3636H123.705V22H121.352ZM127.366 22.1477C126.991 22.1477 126.669 22.0152 126.4 21.75C126.135 21.4811 126.002 21.1591 126.002 20.7841C126.002 20.4129 126.135 20.0947 126.4 19.8295C126.669 19.5644 126.991 19.4318 127.366 19.4318C127.729 19.4318 128.047 19.5644 128.32 19.8295C128.593 20.0947 128.729 20.4129 128.729 20.7841C128.729 21.0341 128.665 21.2633 128.536 21.4716C128.411 21.6761 128.246 21.8409 128.042 21.9659C127.837 22.0871 127.612 22.1477 127.366 22.1477ZM134.045 10.2045C134.644 10.2045 135.22 10.3049 135.773 10.5057C136.329 10.7064 136.826 11.0265 137.261 11.4659C137.701 11.9053 138.047 12.4886 138.301 13.2159C138.559 13.9394 138.689 14.8277 138.693 15.8807C138.693 16.8693 138.581 17.7519 138.358 18.5284C138.138 19.3011 137.822 19.9583 137.409 20.5C136.996 21.0417 136.498 21.4545 135.915 21.7386C135.331 22.0189 134.68 22.1591 133.96 22.1591C133.184 22.1591 132.498 22.0095 131.903 21.7102C131.309 21.4072 130.829 20.9962 130.466 20.4773C130.106 19.9545 129.888 19.3674 129.812 18.7159H132.238C132.333 19.1402 132.532 19.4697 132.835 19.7045C133.138 19.9356 133.513 20.0511 133.96 20.0511C134.718 20.0511 135.293 19.7216 135.687 19.0625C136.081 18.3996 136.28 17.4924 136.284 16.3409H136.204C136.03 16.6818 135.795 16.9754 135.5 17.2216C135.204 17.464 134.865 17.6515 134.483 17.7841C134.104 17.9167 133.701 17.983 133.273 17.983C132.587 17.983 131.975 17.822 131.437 17.5C130.899 17.178 130.475 16.7348 130.165 16.1705C129.854 15.6061 129.699 14.9621 129.699 14.2386C129.695 13.4583 129.875 12.7633 130.238 12.1534C130.602 11.5436 131.11 11.0663 131.761 10.7216C132.416 10.3731 133.178 10.2008 134.045 10.2045ZM134.062 12.1364C133.68 12.1364 133.339 12.2273 133.04 12.4091C132.744 12.5909 132.509 12.8352 132.335 13.142C132.165 13.4489 132.081 13.7917 132.085 14.1705C132.085 14.553 132.168 14.8977 132.335 15.2045C132.506 15.5076 132.737 15.75 133.028 15.9318C133.324 16.1098 133.661 16.1989 134.04 16.1989C134.324 16.1989 134.587 16.1458 134.829 16.0398C135.072 15.9337 135.282 15.7879 135.46 15.6023C135.642 15.4129 135.784 15.1951 135.886 14.9489C135.988 14.7027 136.04 14.4413 136.04 14.1648C136.036 13.7973 135.949 13.4602 135.778 13.1534C135.608 12.8466 135.373 12.6004 135.074 12.4148C134.774 12.2292 134.437 12.1364 134.062 12.1364Z" fill="#222222"/>
<path d="M143.633 16.1818C143.633 14.8182 143.806 13.5303 144.15 12.3182C144.495 11.1061 144.989 9.9697 145.633 8.90909H146.554C146.277 9.35606 146.023 9.86174 145.792 10.4261C145.565 10.9905 145.368 11.5928 145.201 12.233C145.035 12.8731 144.906 13.5284 144.815 14.1989C144.724 14.8655 144.679 15.5265 144.679 16.1818C144.679 17.0568 144.758 17.9394 144.917 18.8295C145.076 19.7197 145.296 20.5644 145.576 21.3636C145.86 22.1629 146.186 22.8598 146.554 23.4545H145.633C144.989 22.3902 144.495 21.2519 144.15 20.0398C143.806 18.8277 143.633 17.5417 143.633 16.1818ZM151.671 10.3636V22H150.608V11.4773H150.54L147.813 13.2898V12.1875L150.563 10.3636H151.671ZM157.968 22.1591C157.321 22.1591 156.741 22.0284 156.23 21.767C155.722 21.5019 155.317 21.1383 155.014 20.6761C154.714 20.214 154.555 19.6856 154.536 19.0909H155.565C155.599 19.7083 155.841 20.2159 156.292 20.6136C156.743 21.0076 157.302 21.2045 157.968 21.2045C158.487 21.2045 158.949 21.0814 159.355 20.8352C159.76 20.5852 160.076 20.2443 160.303 19.8125C160.535 19.3769 160.65 18.8864 160.65 18.3409C160.646 17.7727 160.523 17.2727 160.281 16.8409C160.038 16.4053 159.709 16.0644 159.292 15.8182C158.879 15.572 158.415 15.4489 157.9 15.4489C157.51 15.4451 157.127 15.5095 156.752 15.642C156.377 15.7746 156.065 15.9451 155.815 16.1534L154.752 16.017L155.451 10.3636H161.201V11.3182H156.343L155.877 15.2102H155.934C156.192 14.9943 156.504 14.8182 156.872 14.6818C157.243 14.5455 157.635 14.4773 158.048 14.4773C158.733 14.4773 159.349 14.642 159.894 14.9716C160.444 15.3011 160.877 15.7557 161.196 16.3352C161.517 16.911 161.678 17.5739 161.678 18.3239C161.678 19.0587 161.517 19.7159 161.196 20.2955C160.877 20.8712 160.438 21.3258 159.877 21.6591C159.321 21.9924 158.684 22.1591 157.968 22.1591ZM164.709 20.4091L164.607 21.017C164.542 21.4261 164.451 21.8769 164.334 22.3693C164.216 22.8617 164.095 23.3295 163.97 23.7727C163.845 24.2159 163.737 24.572 163.646 24.8409H162.868C162.917 24.5833 162.98 24.2557 163.056 23.858C163.135 23.4602 163.216 23.0189 163.3 22.5341C163.383 22.053 163.459 21.5568 163.527 21.0455L163.607 20.4091H164.709ZM169.836 22.1591C169.018 22.1591 168.319 21.9242 167.739 21.4545C167.164 20.9811 166.72 20.2973 166.41 19.4034C166.103 18.5095 165.95 17.4356 165.95 16.1818C165.95 14.9318 166.103 13.8617 166.41 12.9716C166.72 12.0777 167.166 11.3939 167.745 10.9205C168.328 10.4432 169.025 10.2045 169.836 10.2045C170.647 10.2045 171.342 10.4432 171.921 10.9205C172.505 11.3939 172.95 12.0777 173.256 12.9716C173.567 13.8617 173.722 14.9318 173.722 16.1818C173.722 17.4356 173.567 18.5095 173.256 19.4034C172.95 20.2973 172.506 20.9811 171.927 21.4545C171.351 21.9242 170.654 22.1591 169.836 22.1591ZM169.836 21.2045C170.734 21.2045 171.434 20.767 171.938 19.892C172.442 19.0133 172.694 17.7765 172.694 16.1818C172.694 15.1212 172.578 14.2159 172.347 13.4659C172.12 12.7121 171.792 12.1364 171.364 11.7386C170.94 11.3409 170.431 11.142 169.836 11.142C168.946 11.142 168.247 11.5852 167.739 12.4716C167.232 13.3542 166.978 14.5909 166.978 16.1818C166.978 17.2424 167.092 18.1477 167.319 18.8977C167.55 19.6477 167.878 20.2197 168.302 20.6136C168.73 21.0076 169.241 21.2045 169.836 21.2045ZM179.008 22.1591C178.19 22.1591 177.491 21.9242 176.912 21.4545C176.336 20.9811 175.893 20.2973 175.582 19.4034C175.276 18.5095 175.122 17.4356 175.122 16.1818C175.122 14.9318 175.276 13.8617 175.582 12.9716C175.893 12.0777 176.338 11.3939 176.918 10.9205C177.501 10.4432 178.198 10.2045 179.008 10.2045C179.819 10.2045 180.514 10.4432 181.094 10.9205C181.677 11.3939 182.122 12.0777 182.429 12.9716C182.74 13.8617 182.895 14.9318 182.895 16.1818C182.895 17.4356 182.74 18.5095 182.429 19.4034C182.122 20.2973 181.679 20.9811 181.099 21.4545C180.524 21.9242 179.827 22.1591 179.008 22.1591ZM179.008 21.2045C179.906 21.2045 180.607 20.767 181.111 19.892C181.615 19.0133 181.866 17.7765 181.866 16.1818C181.866 15.1212 181.751 14.2159 181.52 13.4659C181.293 12.7121 180.965 12.1364 180.537 11.7386C180.113 11.3409 179.603 11.142 179.008 11.142C178.118 11.142 177.419 11.5852 176.912 12.4716C176.404 13.3542 176.151 14.5909 176.151 16.1818C176.151 17.2424 176.264 18.1477 176.491 18.8977C176.722 19.6477 177.05 20.2197 177.474 20.6136C177.902 21.0076 178.414 21.2045 179.008 21.2045ZM188.164 22.1591C187.421 22.1591 186.761 22.0189 186.181 21.7386C185.601 21.4583 185.147 21.0758 184.817 20.5909C184.488 20.1023 184.323 19.5511 184.323 18.9375C184.323 18.4564 184.423 18.0076 184.624 17.5909C184.825 17.1705 185.101 16.8182 185.454 16.5341C185.806 16.2462 186.202 16.0587 186.641 15.9716V15.9091C186.069 15.7424 185.609 15.4148 185.261 14.9261C184.912 14.4337 184.74 13.875 184.743 13.25C184.74 12.6705 184.887 12.1515 185.187 11.6932C185.486 11.2348 185.893 10.8731 186.408 10.608C186.927 10.339 187.512 10.2045 188.164 10.2045C188.812 10.2045 189.393 10.339 189.908 10.608C190.423 10.8731 190.831 11.2348 191.13 11.6932C191.433 12.1515 191.586 12.6705 191.59 13.25C191.586 13.8712 191.41 14.4299 191.062 14.9261C190.713 15.4186 190.255 15.7462 189.687 15.9091V15.9716C190.126 16.0549 190.52 16.2405 190.868 16.5284C191.217 16.8163 191.493 17.1705 191.698 17.5909C191.903 18.0076 192.005 18.4564 192.005 18.9375C192.005 19.5511 191.838 20.1023 191.505 20.5909C191.175 21.0758 190.721 21.4583 190.141 21.7386C189.565 22.0189 188.906 22.1591 188.164 22.1591ZM188.164 21.2045C188.717 21.2045 189.202 21.1061 189.618 20.9091C190.039 20.7083 190.367 20.4337 190.601 20.0852C190.84 19.7367 190.959 19.3371 190.959 18.8864C190.959 18.4205 190.836 18.0057 190.59 17.642C190.344 17.2746 190.011 16.9848 189.59 16.7727C189.17 16.5568 188.694 16.4489 188.164 16.4489C187.634 16.4489 187.156 16.5568 186.732 16.7727C186.312 16.9848 185.978 17.2746 185.732 17.642C185.49 18.0057 185.368 18.4205 185.368 18.8864C185.368 19.3371 185.484 19.7367 185.715 20.0852C185.95 20.4337 186.278 20.7083 186.698 20.9091C187.122 21.1061 187.611 21.2045 188.164 21.2045ZM188.164 15.5398C188.618 15.5398 189.026 15.4432 189.386 15.25C189.745 15.0568 190.029 14.7936 190.238 14.4602C190.45 14.1231 190.558 13.7405 190.562 13.3125C190.558 12.8883 190.452 12.5133 190.243 12.1875C190.035 11.858 189.751 11.6023 189.391 11.4205C189.035 11.2348 188.626 11.142 188.164 11.142C187.702 11.142 187.289 11.2348 186.925 11.4205C186.565 11.6023 186.281 11.858 186.073 12.1875C185.868 12.5133 185.768 12.8883 185.772 13.3125C185.768 13.7405 185.87 14.1231 186.079 14.4602C186.291 14.7936 186.577 15.0568 186.937 15.25C187.3 15.4432 187.709 15.5398 188.164 15.5398ZM196.219 16.1818C196.219 17.5455 196.046 18.8333 195.701 20.0455C195.357 21.2576 194.862 22.3939 194.219 23.4545H193.298C193.575 23.0076 193.826 22.5019 194.054 21.9375C194.285 21.3731 194.484 20.7708 194.65 20.1307C194.817 19.4905 194.946 18.8352 195.037 18.1648C195.128 17.4943 195.173 16.8333 195.173 16.1818C195.173 15.3068 195.094 14.4242 194.934 13.5341C194.775 12.6439 194.554 11.7992 194.27 11C193.989 10.2008 193.665 9.50379 193.298 8.90909H194.219C194.862 9.97348 195.357 11.1117 195.701 12.3239C196.046 13.536 196.219 14.822 196.219 16.1818Z" fill="#6F6C90"/>
</svg>
