<svg width="158" height="158" viewBox="0 0 158 158" fill="none" xmlns="http://www.w3.org/2000/svg">
<g filter="url(#filter0_d_808_32128)">
<g filter="url(#filter1_d_808_32128)">
<rect x="4.16315" y="4.16309" width="149.438" height="149.438" rx="31.2236" fill="white" fill-opacity="0.901961" shape-rendering="crispEdges"/>
</g>
<g filter="url(#filter2_d_808_32128)">
<rect x="11.6351" y="11.635" width="135.325" height="135.325" rx="31.2236" fill="white" fill-opacity="0.901961" shape-rendering="crispEdges"/>
</g>
<g filter="url(#filter3_f_808_32128)">
<rect x="48.3476" y="48.3423" width="62.6336" height="62.6336" rx="20.8157" fill="#0B74C7"/>
</g>
<rect x="41.6303" y="41.6318" width="74.9367" height="74.9367" rx="20.8157" fill="#0B74C7"/>
<path d="M68.486 99.3447H60.0249V72.717H68.486V99.3447ZM64.2554 68.9841C61.518 68.9841 59.5272 66.9933 59.5272 64.2559C59.5272 61.5184 61.7669 59.5276 64.2554 59.5276C66.9929 59.5276 68.9837 61.5184 68.9837 64.2559C68.9837 66.9933 66.9929 68.9841 64.2554 68.9841ZM99.3442 99.3447H90.8831V84.911C90.8831 80.6804 89.1411 79.4361 86.6525 79.4361C84.164 79.4361 81.6754 81.427 81.6754 85.1598V99.3447H73.2143V72.717H81.1777V76.4499C81.9243 74.7079 84.9105 71.9704 89.1411 71.9704C93.8694 71.9704 98.8465 74.7079 98.8465 82.9201V99.3447H99.3442Z" fill="white"/>
</g>
<defs>
<filter id="filter0_d_808_32128" x="-1.43051e-06" y="-6.24657e-05" width="157.765" height="157.765" filterUnits="userSpaceOnUse" color-interpolation-filters="sRGB">
<feFlood flood-opacity="0" result="BackgroundImageFix"/>
<feColorMatrix in="SourceAlpha" type="matrix" values="0 0 0 0 0 0 0 0 0 0 0 0 0 0 0 0 0 0 127 0" result="hardAlpha"/>
<feOffset/>
<feGaussianBlur stdDeviation="2.08157"/>
<feComposite in2="hardAlpha" operator="out"/>
<feColorMatrix type="matrix" values="0 0 0 0 0 0 0 0 0 0 0 0 0 0 0 0 0 0 0.1 0"/>
<feBlend mode="normal" in2="BackgroundImageFix" result="effect1_dropShadow_808_32128"/>
<feBlend mode="normal" in="SourceGraphic" in2="effect1_dropShadow_808_32128" result="shape"/>
</filter>
<filter id="filter1_d_808_32128" x="2.60197" y="4.16309" width="152.561" height="152.561" filterUnits="userSpaceOnUse" color-interpolation-filters="sRGB">
<feFlood flood-opacity="0" result="BackgroundImageFix"/>
<feColorMatrix in="SourceAlpha" type="matrix" values="0 0 0 0 0 0 0 0 0 0 0 0 0 0 0 0 0 0 127 0" result="hardAlpha"/>
<feOffset dy="1.56118"/>
<feGaussianBlur stdDeviation="0.78059"/>
<feComposite in2="hardAlpha" operator="out"/>
<feColorMatrix type="matrix" values="0 0 0 0 0.803922 0 0 0 0 0.835294 0 0 0 0 1 0 0 0 1 0"/>
<feBlend mode="normal" in2="BackgroundImageFix" result="effect1_dropShadow_808_32128"/>
<feBlend mode="normal" in="SourceGraphic" in2="effect1_dropShadow_808_32128" result="shape"/>
</filter>
<filter id="filter2_d_808_32128" x="10.0739" y="11.635" width="138.447" height="138.447" filterUnits="userSpaceOnUse" color-interpolation-filters="sRGB">
<feFlood flood-opacity="0" result="BackgroundImageFix"/>
<feColorMatrix in="SourceAlpha" type="matrix" values="0 0 0 0 0 0 0 0 0 0 0 0 0 0 0 0 0 0 127 0" result="hardAlpha"/>
<feOffset dy="1.56118"/>
<feGaussianBlur stdDeviation="0.78059"/>
<feComposite in2="hardAlpha" operator="out"/>
<feColorMatrix type="matrix" values="0 0 0 0 0.803922 0 0 0 0 0.835294 0 0 0 0 1 0 0 0 1 0"/>
<feBlend mode="normal" in2="BackgroundImageFix" result="effect1_dropShadow_808_32128"/>
<feBlend mode="normal" in="SourceGraphic" in2="effect1_dropShadow_808_32128" result="shape"/>
</filter>
<filter id="filter3_f_808_32128" x="27.5319" y="27.5265" width="104.265" height="104.265" filterUnits="userSpaceOnUse" color-interpolation-filters="sRGB">
<feFlood flood-opacity="0" result="BackgroundImageFix"/>
<feBlend mode="normal" in="SourceGraphic" in2="BackgroundImageFix" result="shape"/>
<feGaussianBlur stdDeviation="10.4079" result="effect1_foregroundBlur_808_32128"/>
</filter>
</defs>
</svg>
