<svg width="158" height="158" viewBox="0 0 158 158" fill="none" xmlns="http://www.w3.org/2000/svg">
<g filter="url(#filter0_d_808_32112)">
<g filter="url(#filter1_d_808_32112)">
<rect x="4.16315" y="4.16309" width="149.438" height="149.438" rx="31.2236" fill="white" fill-opacity="0.901961" shape-rendering="crispEdges"/>
</g>
<g filter="url(#filter2_d_808_32112)">
<rect x="11.6362" y="11.635" width="135.325" height="135.325" rx="31.2236" fill="white" fill-opacity="0.901961" shape-rendering="crispEdges"/>
</g>
<g filter="url(#filter3_f_808_32112)">
<rect x="48.3474" y="48.342" width="62.6336" height="62.6336" rx="20.8157" fill="#25D366"/>
</g>
<rect x="41.6312" y="41.6311" width="74.9367" height="74.9367" rx="20.8157" fill="#25D366"/>
<path fill-rule="evenodd" clip-rule="evenodd" d="M92.0755 65.8984C88.6014 62.4244 83.9693 60.5715 79.1057 60.5715C68.9151 60.5715 60.5774 68.9093 60.5774 79.0998C60.5774 82.3423 61.5038 85.5847 63.125 88.364L60.5774 97.6281L70.3047 95.0805C73.084 96.4701 76.0948 97.3965 79.1057 97.3965C89.2962 97.3965 97.634 89.0588 97.634 78.8682C97.634 74.0045 95.5495 69.3725 92.0755 65.8984ZM79.1057 94.3857C76.3264 94.3857 73.5472 93.6909 71.2311 92.3012L70.7679 92.0696L64.9778 93.6909L66.5991 88.1324L66.1358 87.4376C64.5146 84.8899 63.8198 82.1107 63.8198 79.3314C63.8198 70.9937 70.7679 64.0456 79.1057 64.0456C83.2745 64.0456 86.9802 65.6668 89.9911 68.4461C93.0019 71.4569 94.3915 75.1626 94.3915 79.3314C94.3915 87.4376 87.675 94.3857 79.1057 94.3857ZM87.4434 82.8055C86.9802 82.5739 84.6642 81.4159 84.201 81.4159C83.7378 81.1843 83.5061 81.1843 83.2745 81.6475C83.0429 82.1107 82.1165 83.0371 81.8849 83.5003C81.6533 83.7319 81.4217 83.7319 80.9585 83.7319C80.4953 83.5003 79.1057 83.0371 77.2529 81.4159C75.8632 80.2578 74.9368 78.6366 74.7052 78.1734C74.4736 77.7102 74.7052 77.4786 74.9368 77.247C75.1684 77.0154 75.4 76.7838 75.6316 76.5522C75.8632 76.3206 75.8632 76.089 76.0948 75.8574C76.3264 75.6258 76.0948 75.3942 76.0948 75.1626C76.0948 74.931 75.1684 72.6149 74.7052 71.6885C74.4736 70.9937 74.0104 70.9937 73.7788 70.9937C73.5472 70.9937 73.3155 70.9937 72.8523 70.9937C72.6207 70.9937 72.1575 70.9937 71.6943 71.4569C71.2311 71.9201 70.0731 73.0781 70.0731 75.3942C70.0731 77.7102 71.6943 79.7946 71.9259 80.2578C72.1575 80.4895 75.1684 85.3531 79.8004 87.206C83.7377 88.8272 84.4326 88.364 85.359 88.364C86.2854 88.364 88.1382 87.206 88.3698 86.2795C88.833 85.1215 88.833 84.1951 88.6014 84.1951C88.3698 83.0371 87.9066 83.0371 87.4434 82.8055Z" fill="white"/>
</g>
<defs>
<filter id="filter0_d_808_32112" x="-1.43051e-06" y="-6.24657e-05" width="157.765" height="157.765" filterUnits="userSpaceOnUse" color-interpolation-filters="sRGB">
<feFlood flood-opacity="0" result="BackgroundImageFix"/>
<feColorMatrix in="SourceAlpha" type="matrix" values="0 0 0 0 0 0 0 0 0 0 0 0 0 0 0 0 0 0 127 0" result="hardAlpha"/>
<feOffset/>
<feGaussianBlur stdDeviation="2.08157"/>
<feComposite in2="hardAlpha" operator="out"/>
<feColorMatrix type="matrix" values="0 0 0 0 0 0 0 0 0 0 0 0 0 0 0 0 0 0 0.1 0"/>
<feBlend mode="normal" in2="BackgroundImageFix" result="effect1_dropShadow_808_32112"/>
<feBlend mode="normal" in="SourceGraphic" in2="effect1_dropShadow_808_32112" result="shape"/>
</filter>
<filter id="filter1_d_808_32112" x="2.60197" y="4.16309" width="152.561" height="152.561" filterUnits="userSpaceOnUse" color-interpolation-filters="sRGB">
<feFlood flood-opacity="0" result="BackgroundImageFix"/>
<feColorMatrix in="SourceAlpha" type="matrix" values="0 0 0 0 0 0 0 0 0 0 0 0 0 0 0 0 0 0 127 0" result="hardAlpha"/>
<feOffset dy="1.56118"/>
<feGaussianBlur stdDeviation="0.78059"/>
<feComposite in2="hardAlpha" operator="out"/>
<feColorMatrix type="matrix" values="0 0 0 0 0.803922 0 0 0 0 0.835294 0 0 0 0 1 0 0 0 1 0"/>
<feBlend mode="normal" in2="BackgroundImageFix" result="effect1_dropShadow_808_32112"/>
<feBlend mode="normal" in="SourceGraphic" in2="effect1_dropShadow_808_32112" result="shape"/>
</filter>
<filter id="filter2_d_808_32112" x="10.075" y="11.635" width="138.447" height="138.447" filterUnits="userSpaceOnUse" color-interpolation-filters="sRGB">
<feFlood flood-opacity="0" result="BackgroundImageFix"/>
<feColorMatrix in="SourceAlpha" type="matrix" values="0 0 0 0 0 0 0 0 0 0 0 0 0 0 0 0 0 0 127 0" result="hardAlpha"/>
<feOffset dy="1.56118"/>
<feGaussianBlur stdDeviation="0.78059"/>
<feComposite in2="hardAlpha" operator="out"/>
<feColorMatrix type="matrix" values="0 0 0 0 0.803922 0 0 0 0 0.835294 0 0 0 0 1 0 0 0 1 0"/>
<feBlend mode="normal" in2="BackgroundImageFix" result="effect1_dropShadow_808_32112"/>
<feBlend mode="normal" in="SourceGraphic" in2="effect1_dropShadow_808_32112" result="shape"/>
</filter>
<filter id="filter3_f_808_32112" x="27.5316" y="27.5263" width="104.265" height="104.265" filterUnits="userSpaceOnUse" color-interpolation-filters="sRGB">
<feFlood flood-opacity="0" result="BackgroundImageFix"/>
<feBlend mode="normal" in="SourceGraphic" in2="BackgroundImageFix" result="shape"/>
<feGaussianBlur stdDeviation="10.4079" result="effect1_foregroundBlur_808_32112"/>
</filter>
</defs>
</svg>
