<svg width="158" height="158" viewBox="0 0 158 158" fill="none" xmlns="http://www.w3.org/2000/svg">
<g filter="url(#filter0_d_808_32141)">
<g filter="url(#filter1_d_808_32141)">
<rect x="4.16315" y="4.16309" width="149.438" height="149.438" rx="31.2236" fill="white" fill-opacity="0.901961" shape-rendering="crispEdges"/>
</g>
<g filter="url(#filter2_d_808_32141)">
<rect x="11.6362" y="11.635" width="135.325" height="135.325" rx="31.2236" fill="white" fill-opacity="0.901961" shape-rendering="crispEdges"/>
</g>
<g filter="url(#filter3_f_808_32141)">
<rect x="48.3475" y="48.342" width="62.6336" height="62.6336" rx="20.8157" fill="#F20000"/>
</g>
<rect x="41.6314" y="41.6316" width="74.9367" height="74.9367" rx="20.8157" fill="#F20000"/>
<path d="M98.3499 69.35C97.8522 67.608 96.608 66.3637 94.866 65.866C91.8797 65.1194 79.1879 65.1194 79.1879 65.1194C79.1879 65.1194 66.7451 65.1194 63.51 65.866C61.768 66.3637 60.5237 67.608 60.026 69.35C59.5283 72.5851 59.5283 79.0554 59.5283 79.0554C59.5283 79.0554 59.5283 85.5256 60.2748 88.7608C60.7726 90.5028 62.0168 91.7471 63.7588 92.2448C66.7451 92.9913 79.4368 92.9914 79.4368 92.9914C79.4368 92.9914 91.8796 92.9913 95.1147 92.2448C96.8567 91.7471 98.1011 90.5028 98.5988 88.7608C99.3454 85.5256 99.3453 79.0554 99.3453 79.0554C99.3453 79.0554 99.3454 72.5851 98.3499 69.35ZM75.4551 85.0279V73.0828L85.9071 79.0554L75.4551 85.0279Z" fill="white"/>
</g>
<defs>
<filter id="filter0_d_808_32141" x="-1.43051e-06" y="-6.24657e-05" width="157.765" height="157.765" filterUnits="userSpaceOnUse" color-interpolation-filters="sRGB">
<feFlood flood-opacity="0" result="BackgroundImageFix"/>
<feColorMatrix in="SourceAlpha" type="matrix" values="0 0 0 0 0 0 0 0 0 0 0 0 0 0 0 0 0 0 127 0" result="hardAlpha"/>
<feOffset/>
<feGaussianBlur stdDeviation="2.08157"/>
<feComposite in2="hardAlpha" operator="out"/>
<feColorMatrix type="matrix" values="0 0 0 0 0 0 0 0 0 0 0 0 0 0 0 0 0 0 0.1 0"/>
<feBlend mode="normal" in2="BackgroundImageFix" result="effect1_dropShadow_808_32141"/>
<feBlend mode="normal" in="SourceGraphic" in2="effect1_dropShadow_808_32141" result="shape"/>
</filter>
<filter id="filter1_d_808_32141" x="2.60197" y="4.16309" width="152.561" height="152.561" filterUnits="userSpaceOnUse" color-interpolation-filters="sRGB">
<feFlood flood-opacity="0" result="BackgroundImageFix"/>
<feColorMatrix in="SourceAlpha" type="matrix" values="0 0 0 0 0 0 0 0 0 0 0 0 0 0 0 0 0 0 127 0" result="hardAlpha"/>
<feOffset dy="1.56118"/>
<feGaussianBlur stdDeviation="0.78059"/>
<feComposite in2="hardAlpha" operator="out"/>
<feColorMatrix type="matrix" values="0 0 0 0 0.803922 0 0 0 0 0.835294 0 0 0 0 1 0 0 0 1 0"/>
<feBlend mode="normal" in2="BackgroundImageFix" result="effect1_dropShadow_808_32141"/>
<feBlend mode="normal" in="SourceGraphic" in2="effect1_dropShadow_808_32141" result="shape"/>
</filter>
<filter id="filter2_d_808_32141" x="10.075" y="11.635" width="138.447" height="138.447" filterUnits="userSpaceOnUse" color-interpolation-filters="sRGB">
<feFlood flood-opacity="0" result="BackgroundImageFix"/>
<feColorMatrix in="SourceAlpha" type="matrix" values="0 0 0 0 0 0 0 0 0 0 0 0 0 0 0 0 0 0 127 0" result="hardAlpha"/>
<feOffset dy="1.56118"/>
<feGaussianBlur stdDeviation="0.78059"/>
<feComposite in2="hardAlpha" operator="out"/>
<feColorMatrix type="matrix" values="0 0 0 0 0.803922 0 0 0 0 0.835294 0 0 0 0 1 0 0 0 1 0"/>
<feBlend mode="normal" in2="BackgroundImageFix" result="effect1_dropShadow_808_32141"/>
<feBlend mode="normal" in="SourceGraphic" in2="effect1_dropShadow_808_32141" result="shape"/>
</filter>
<filter id="filter3_f_808_32141" x="27.5318" y="27.5263" width="104.265" height="104.265" filterUnits="userSpaceOnUse" color-interpolation-filters="sRGB">
<feFlood flood-opacity="0" result="BackgroundImageFix"/>
<feBlend mode="normal" in="SourceGraphic" in2="BackgroundImageFix" result="shape"/>
<feGaussianBlur stdDeviation="10.4079" result="effect1_foregroundBlur_808_32141"/>
</filter>
</defs>
</svg>
