<svg width="55" height="55" viewBox="0 0 55 55" fill="none" xmlns="http://www.w3.org/2000/svg">
<rect width="55" height="55" rx="15" fill="url(#paint0_linear_136_423)"/>
<g clip-path="url(#clip0_136_423)">
<path d="M14.0012 21.5889C14.3618 20.8653 14.6835 20.7215 15.7299 20.8406C15.7299 20.9502 15.7299 21.0645 15.7299 21.1788C15.7299 25.1724 15.7311 29.166 15.7287 33.1596C15.7287 33.8159 15.8713 34.4193 16.2943 34.9378C16.7893 35.5435 17.428 35.8428 18.2045 35.9005C19.1284 35.9701 20.0582 36.0184 20.9679 36.1739C22.5446 36.4438 24.0105 37.0177 25.2797 38.0252C25.4081 38.1265 25.5295 38.2361 25.6532 38.3434C25.6791 38.3658 25.7003 38.3952 25.7416 38.4424C25.1819 38.3457 24.6539 38.2385 24.1213 38.1654C22.5481 37.9486 20.9644 37.892 19.3877 38.0688C18.0266 38.222 16.6738 38.4565 15.321 38.6721C14.6705 38.7758 14.3205 38.5908 14 37.9144C14.0012 32.4726 14.0012 27.0307 14.0012 21.5889Z" fill="white"/>
<path d="M27.1909 37.6095C26.7761 37.263 26.4014 36.9177 25.9949 36.6161C24.4889 35.4989 22.7802 34.8614 20.9372 34.5928C20.0946 34.4702 19.2391 34.4207 18.3883 34.3653C17.6718 34.3194 17.2782 33.9411 17.2782 33.2282C17.277 28.3154 17.277 23.4038 17.2782 18.4911C17.2782 17.7228 17.7107 17.3339 18.4826 17.3575C19.8801 17.3987 21.2518 17.5743 22.581 18.0303C24.3981 18.6537 25.9077 19.6895 26.96 21.324C27.0955 21.5337 27.1933 21.8118 27.1945 22.0581C27.2074 27.1983 27.2051 32.3373 27.2039 37.4775C27.2027 37.5128 27.1968 37.547 27.1909 37.6095Z" fill="white"/>
<path d="M28.7498 37.6033C28.7498 37.4714 28.7498 37.3629 28.7498 37.2545C28.7498 32.3512 28.7639 27.4479 28.7344 22.5445C28.7297 21.8104 28.9784 21.253 29.4167 20.7145C30.7955 19.0188 32.6196 18.0843 34.7184 17.673C35.6587 17.4892 36.6274 17.4338 37.5854 17.3607C38.2489 17.3101 38.6743 17.7685 38.6754 18.4684C38.6778 21.1882 38.6766 23.9079 38.6766 26.6289C38.6766 28.803 38.6766 30.9772 38.6766 33.1513C38.6766 33.9691 38.3042 34.3462 37.4794 34.3615C35.4879 34.3993 33.5576 34.7257 31.7335 35.5647C30.7342 36.0243 29.828 36.6229 29.0361 37.3889C28.9713 37.4525 28.9053 37.515 28.8381 37.5762C28.8252 37.5857 28.804 37.5857 28.7498 37.6033Z" fill="white"/>
<path d="M40.2217 20.8255C40.5387 20.8255 40.8121 20.8066 41.082 20.8302C41.5321 20.8679 41.8939 21.2533 41.9434 21.7164C41.9516 21.7977 41.9504 21.8802 41.9504 21.9615C41.9504 27.1571 41.9528 32.3526 41.9434 37.5482C41.9434 37.7827 41.8868 38.0443 41.7737 38.247C41.5757 38.6017 41.2293 38.7572 40.8239 38.6901C40.098 38.5699 39.3792 38.4073 38.6521 38.2977C35.844 37.8746 33.0405 37.8169 30.1641 38.4732C30.3502 38.3059 30.4716 38.1845 30.6048 38.0773C31.9658 36.9826 33.5484 36.3957 35.25 36.1247C36.029 35.9998 36.822 35.9515 37.6104 35.9114C39.1989 35.8301 40.2194 34.7872 40.2205 33.1881C40.2241 29.4667 40.2217 25.7453 40.2217 22.0239C40.2217 21.6327 40.2217 21.2427 40.2217 20.8255Z" fill="white"/>
</g>
<defs>
<linearGradient id="paint0_linear_136_423" x1="27.5" y1="0" x2="27.5" y2="55" gradientUnits="userSpaceOnUse">
<stop stop-color="#92A7FF"/>
<stop offset="1" stop-color="#5C7BFF"/>
</linearGradient>
<clipPath id="clip0_136_423">
<rect width="28" height="28" fill="white" transform="translate(14 14)"/>
</clipPath>
</defs>
</svg>
