<svg width="55" height="55" viewBox="0 0 55 55" fill="none" xmlns="http://www.w3.org/2000/svg">
<rect width="55" height="55" rx="15" fill="url(#paint0_linear_316_688)"/>
<path d="M26.292 20.2269C26.6075 19.603 26.8293 19.1062 27.1003 18.6387C28.1568 16.8174 29.593 15.4576 31.7207 15.1059C33.4552 14.8196 35.1342 15.1174 36.6978 15.9557C38.7629 17.0624 39.9504 18.8429 40.4197 21.1185C40.7939 22.9329 40.5902 24.7236 40.0155 26.4743C39.9508 26.6717 39.8639 26.8609 39.7757 27.083C37.2481 27.083 34.7377 27.083 32.1361 27.083C31.9568 26.7461 31.7442 26.3629 31.5459 25.9724C31.2611 25.4122 30.9767 24.8521 30.7108 24.283C30.484 23.7985 30.171 23.4119 29.6031 23.4485C29.0503 23.4846 28.7617 23.8632 28.5768 24.3834C28.069 25.8155 27.525 27.2348 26.994 28.6584C26.9486 28.7796 26.8948 28.8983 26.8037 29.1182C26.6945 28.906 26.6016 28.772 26.5529 28.6223C25.9135 26.6815 25.2801 24.7381 24.6453 22.7956C24.6046 22.6709 24.5756 22.5421 24.5277 22.4208C24.3496 21.9704 24.0417 21.6586 23.5447 21.6544C23.06 21.6506 22.7159 21.9087 22.5311 22.3724C22.066 23.5408 21.5998 24.7083 21.131 25.875C20.9751 26.2629 20.81 26.647 20.6122 27.1213C20.3198 27.1213 20.0148 27.1208 19.7103 27.1213C18.9579 27.1234 18.2047 27.1034 17.4532 27.1344C16.8546 27.1591 16.4794 27.5721 16.466 28.1382C16.453 28.6742 16.7806 29.0948 17.3137 29.2046C17.4641 29.2352 17.6233 29.2309 17.7783 29.2314C18.8936 29.2335 20.0098 29.2165 21.1247 29.2382C21.7884 29.2505 22.1925 28.9574 22.4244 28.3386C22.7176 27.5564 23.0423 26.7861 23.4128 25.864C23.5745 26.3293 23.6947 26.6564 23.8031 26.9881C24.4218 28.8809 25.0389 30.7741 25.6527 32.6689C25.8098 33.1547 26.0639 33.5128 26.6205 33.5443C27.1658 33.5749 27.5014 33.3605 27.7308 32.7587C28.1601 31.6328 28.5688 30.4993 28.9868 29.3687C29.2401 28.6822 29.4951 27.9962 29.7921 27.1931C30.0013 27.6074 30.1908 27.9098 30.313 28.2382C30.5894 28.9821 31.0923 29.2513 31.8753 29.245C35.4291 29.2169 38.9838 29.2322 42.5381 29.2331C42.7973 29.2331 43.0603 29.2186 43.3157 29.2526C43.716 29.3058 43.997 29.6286 44 29.9897C44.0029 30.3457 43.7244 30.6754 43.3279 30.7434C43.1254 30.7779 42.9145 30.763 42.707 30.7634C41.2283 30.7651 39.7492 30.7715 38.2705 30.7621C37.9383 30.7596 37.6942 30.8353 37.4716 31.1233C35.1229 34.1631 32.1735 36.5038 28.9704 38.5411C28.2462 39.0018 27.4918 39.4131 26.7566 39.8559C26.4651 40.0315 26.2013 40.0553 25.8888 39.8788C21.9413 37.6518 18.2946 35.0385 15.4019 31.4674C13.8876 29.598 12.7181 27.5355 12.2354 25.1379C11.7641 22.7939 11.9531 20.52 13.2369 18.4567C14.5441 16.3559 16.5214 15.3113 18.9209 15.0557C21.8968 14.7384 24.0131 16.0863 25.4989 18.6098C25.6447 18.8578 25.7669 19.1202 25.8934 19.378C26.0081 19.6098 26.1139 19.8458 26.292 20.2269Z" fill="white"/>
<defs>
<linearGradient id="paint0_linear_316_688" x1="27.5" y1="0" x2="27.5" y2="55" gradientUnits="userSpaceOnUse">
<stop stop-color="#92A7FF"/>
<stop offset="1" stop-color="#5C7BFF"/>
</linearGradient>
</defs>
</svg>
