<svg width="55" height="55" viewBox="0 0 55 55" fill="none" xmlns="http://www.w3.org/2000/svg">
<rect width="55" height="55" rx="15" fill="url(#paint0_linear_316_714)"/>
<mask id="mask0_316_714" style="mask-type:luminance" maskUnits="userSpaceOnUse" x="15" y="10" width="25" height="35">
<path d="M15 10H40V44.1297H15V10Z" fill="white"/>
</mask>
<g mask="url(#mask0_316_714)">
<path fill-rule="evenodd" clip-rule="evenodd" d="M21.4904 24.5521V28.4992C21.4904 28.5557 21.5526 28.5894 21.6 28.5588L27.8713 24.4925C27.9186 24.4619 27.9808 24.4957 27.9808 24.5521V28.4992C27.9808 28.5557 28.0433 28.5894 28.0906 28.5588L33.2972 25.1829C33.3445 25.1523 33.4067 25.186 33.4067 25.2425V44.0282C33.4067 44.0674 33.3749 44.0991 33.3358 44.0991H15.0709C15.0318 44.0991 15 44.0671 15 44.0282V28.6685C15 28.6437 15.0116 28.6223 15.0324 28.609L21.3809 24.4925C21.4282 24.4619 21.4904 24.4957 21.4904 24.5521ZM22.3372 16.2257C22.9196 14.2654 24.0022 12.2219 25.6409 11.0433C27.2705 9.87144 29.9073 9.57636 31.5345 10.9069C33.4078 12.4389 33.3616 14.5023 36.1 15.917C36.1706 15.9535 36.1362 16.0614 36.0578 16.0503C35.0372 15.9059 34.0733 15.6039 33.1694 15.1362C30.6288 13.8215 29.2938 11.9888 26.0742 13.4697C24.729 14.0883 23.496 15.1742 22.4574 16.2941C22.4065 16.3488 22.3159 16.2972 22.3372 16.2257ZM33.4343 18.1977H39.2423C39.6583 18.1977 39.9984 18.5379 39.9984 18.9538V20.0199C39.9984 20.4359 39.6583 20.7761 39.2423 20.7761H33.4343C33.0185 20.7761 32.6783 20.4359 32.6783 20.0199V18.9538C32.6783 18.5379 33.0185 18.1977 33.4343 18.1977ZM38.2055 21.9117V44.0282C38.2055 44.0674 38.1735 44.0991 38.1346 44.0991H34.5424C34.5033 44.0991 34.4715 44.0671 34.4715 44.0282V21.9117C34.4715 21.8726 34.5033 21.8408 34.5424 21.8408H38.1346C38.1735 21.8408 38.2055 21.8726 38.2055 21.9117ZM30.7223 38.8099C30.7223 38.4635 30.4388 38.1802 30.0924 38.1802H29.1885C28.8421 38.1802 28.5588 38.4635 28.5588 38.8099V39.714C28.5588 40.0604 28.8421 40.3437 29.1885 40.3437H30.0924C30.4388 40.3437 30.7223 40.0604 30.7223 39.714V38.8099ZM30.7223 33.3196C30.7223 32.9732 30.4388 32.6899 30.0924 32.6899H29.1885C28.8421 32.6899 28.5588 32.9732 28.5588 33.3196V34.2235C28.5588 34.5699 28.8421 34.8534 29.1885 34.8534H30.0924C30.4388 34.8534 30.7223 34.5699 30.7223 34.2235V33.3196ZM23.698 38.1802C23.3518 38.1802 23.0683 38.4635 23.0683 38.8099V39.714C23.0683 40.0604 23.3518 40.3437 23.698 40.3437H24.6021C24.9485 40.3437 25.2318 40.0604 25.2318 39.714V38.8099C25.2318 38.4635 24.9485 38.1802 24.6021 38.1802H23.698ZM18.2077 38.1802C17.8613 38.1802 17.5779 38.4635 17.5779 38.8099V39.714C17.5779 40.0604 17.8613 40.3437 18.2077 40.3437H19.1118C19.4582 40.3437 19.7415 40.0604 19.7415 39.714V38.8099C19.7415 38.4635 19.4582 38.1802 19.1118 38.1802H18.2077ZM23.698 32.6899C23.3518 32.6899 23.0683 32.9732 23.0683 33.3196V34.2235C23.0683 34.5699 23.3518 34.8534 23.698 34.8534H24.6021C24.9485 34.8534 25.2318 34.5699 25.2318 34.2235V33.3196C25.2318 32.9732 24.9485 32.6899 24.6021 32.6899H23.698ZM18.2077 32.6899C17.8613 32.6899 17.5779 32.9732 17.5779 33.3196V34.2235C17.5779 34.5699 17.8613 34.8534 18.2077 34.8534H19.1118C19.4582 34.8534 19.7415 34.5699 19.7415 34.2235V33.3196C19.7415 32.9732 19.4582 32.6899 19.1118 32.6899H18.2077Z" fill="white"/>
</g>
<defs>
<linearGradient id="paint0_linear_316_714" x1="27.5" y1="0" x2="27.5" y2="55" gradientUnits="userSpaceOnUse">
<stop stop-color="#92A7FF"/>
<stop offset="1" stop-color="#5C7BFF"/>
</linearGradient>
</defs>
</svg>
