<svg width="55" height="55" viewBox="0 0 55 55" fill="none" xmlns="http://www.w3.org/2000/svg">
<rect width="55" height="55" rx="15" fill="url(#paint0_linear_316_701)"/>
<path d="M40.5707 26.0033L37.7409 22.0781C37.324 22.799 36.5435 23.2804 35.6501 23.2804H19.0528C18.1594 23.2804 17.3785 22.799 16.962 22.0781L14.1323 26.0033C13.908 26.3118 14.1512 26.7287 14.5631 26.7287H40.141C40.5529 26.7287 40.7961 26.3118 40.5718 26.0033H40.5707Z" fill="white"/>
<path d="M38.2658 28.1021H16.444C16.16 28.1021 15.9297 28.3124 15.9297 28.5707V38.084C15.9297 38.3423 16.16 38.5526 16.444 38.5526H18.1406V35.4038C18.1406 34.2906 19.1314 33.3878 20.3537 33.3878C21.576 33.3878 22.5669 34.2906 22.5669 35.4038V38.5526H25.1429V33.5297C25.1429 32.4169 26.1337 31.5141 27.356 31.5141C28.5783 31.5141 29.5692 32.4169 29.5692 33.5297V38.5526H32.1452V35.4038C32.1452 34.2906 33.136 33.3878 34.3583 33.3878C35.5806 33.3878 36.5715 34.2906 36.5715 35.4038V38.5526H38.268C38.5524 38.5526 38.7823 38.3423 38.7823 38.084V28.5707C38.7823 28.3124 38.5524 28.1021 38.268 28.1021H38.2658Z" fill="white"/>
<mask id="mask0_316_701" style="mask-type:luminance" maskUnits="userSpaceOnUse" x="14" y="39" width="27" height="3">
<path d="M14 39.8735H40.6801V42.0002H14V39.8735Z" fill="white"/>
</mask>
<g mask="url(#mask0_316_701)">
<path d="M14.5143 39.9272H40.1926C40.2236 39.9272 40.2538 39.9303 40.284 39.9363C40.3142 39.9424 40.3433 39.951 40.3716 39.9627C40.3999 39.9744 40.4267 39.9888 40.4524 40.0062C40.4781 40.0232 40.5015 40.0424 40.523 40.0643C40.5449 40.0858 40.5642 40.1093 40.5812 40.1349C40.5985 40.1606 40.6129 40.1874 40.6246 40.2157C40.6363 40.2441 40.645 40.2731 40.651 40.3033C40.6571 40.3335 40.6601 40.3638 40.6601 40.3947V41.5336C40.6601 41.5642 40.6571 41.5944 40.651 41.6246C40.645 41.6548 40.6363 41.6839 40.6246 41.7122C40.6129 41.7405 40.5985 41.7677 40.5812 41.793C40.5642 41.8187 40.5449 41.8421 40.523 41.864C40.5015 41.8855 40.4777 41.9048 40.4524 41.9221C40.4267 41.9391 40.3999 41.9535 40.3716 41.9652C40.3433 41.9769 40.3142 41.9856 40.284 41.9916C40.2538 41.9977 40.2236 42.0007 40.1926 42.0007H14.5143C14.4834 42.0007 14.4532 41.9977 14.423 41.9916C14.3931 41.9856 14.3637 41.9769 14.3354 41.9652C14.307 41.9535 14.2802 41.9391 14.2546 41.9221C14.2293 41.9048 14.2055 41.8855 14.1839 41.864C14.162 41.8421 14.1428 41.8187 14.1258 41.793C14.1088 41.7677 14.0941 41.7405 14.0824 41.7122C14.0707 41.6839 14.062 41.6548 14.0559 41.6246C14.0499 41.5944 14.0469 41.5642 14.0469 41.5336V40.3947C14.0469 40.3638 14.0499 40.3335 14.0559 40.3033C14.062 40.2731 14.0707 40.2441 14.0824 40.2157C14.0941 40.1874 14.1088 40.1606 14.1258 40.1349C14.1428 40.1093 14.162 40.0858 14.1839 40.0643C14.2055 40.0424 14.2293 40.0232 14.2546 40.0062C14.2802 39.9888 14.307 39.9744 14.3354 39.9627C14.3637 39.951 14.3931 39.9424 14.423 39.9363C14.4532 39.9303 14.4834 39.9272 14.5143 39.9272Z" fill="white"/>
</g>
<path d="M33.0502 16.4178C32.975 16.3309 32.8836 16.2664 32.773 16.2195C32.6616 16.1723 32.5302 16.1489 32.3844 16.1489C32.2391 16.1489 32.1039 16.1723 31.9898 16.2207C31.8785 16.2675 31.7882 16.3321 31.7131 16.4178C31.6364 16.5046 31.5767 16.6153 31.5345 16.7444C31.491 16.8792 31.4688 17.0329 31.4688 17.2032C31.4688 17.3735 31.491 17.5298 31.5345 17.6646C31.5767 17.7938 31.6353 17.9029 31.7131 17.9913C31.7882 18.077 31.8796 18.1415 31.9898 18.1872C32.2153 18.2786 32.5487 18.2801 32.7753 18.1872C32.8859 18.1415 32.9761 18.0781 33.0513 17.9913C33.1276 17.9029 33.1876 17.7938 33.2299 17.6646C33.2733 17.531 33.2956 17.3746 33.2956 17.2032C33.2956 17.0318 33.2733 16.8792 33.2299 16.7444C33.1876 16.6153 33.1276 16.5058 33.0513 16.4189L33.0502 16.4178Z" fill="white"/>
<mask id="mask1_316_701" style="mask-type:luminance" maskUnits="userSpaceOnUse" x="18" y="13" width="19" height="9">
<path d="M18.4453 13H36.232V21.41H18.4453V13Z" fill="white"/>
</mask>
<g mask="url(#mask1_316_701)">
<path d="M35.6535 12.9985H19.0562C18.7477 12.9985 18.5 13.2462 18.5 13.5502V20.8569C18.5 21.1608 18.7477 21.4086 19.0562 21.4086H35.6535C35.962 21.4086 36.2097 21.1608 36.2097 20.8569V13.5502C36.2097 13.2462 35.962 12.9985 35.6535 12.9985ZM30.8254 18.7057C30.6389 18.5142 30.4931 18.2888 30.39 18.032C30.2866 17.7749 30.236 17.4988 30.236 17.2039C30.236 16.9094 30.2877 16.6288 30.3851 16.3717C30.4931 16.1145 30.6377 15.8902 30.8254 15.6977C31.0168 15.5111 31.2468 15.3608 31.5089 15.254C32.0322 15.0391 32.7297 15.0391 33.2534 15.254C33.5155 15.362 33.7443 15.5156 33.932 15.7026C34.1189 15.8891 34.2692 16.1191 34.3722 16.3762C34.4757 16.6288 34.5263 16.9094 34.5263 17.2039C34.5263 17.4988 34.4746 17.7794 34.3722 18.032C34.2692 18.2888 34.12 18.5131 33.932 18.7057C33.7454 18.8971 33.5155 19.0474 33.2534 19.1543C32.9917 19.2622 32.6968 19.3128 32.3834 19.3128C32.07 19.3128 31.7705 19.2611 31.5089 19.1543C31.2468 19.0463 31.018 18.8971 30.8254 18.7057ZM25.3939 16.3577C25.4974 16.1006 25.6466 15.8714 25.8391 15.6837C26.0257 15.4971 26.2605 15.3514 26.5271 15.2434C26.7937 15.1399 27.0977 15.0897 27.4205 15.0897C27.5886 15.0897 27.7528 15.1037 27.8971 15.132C28.0462 15.1599 28.1871 15.2022 28.314 15.2491C28.4408 15.3008 28.5617 15.3571 28.6697 15.4265C28.7731 15.4922 28.8705 15.5719 28.9551 15.6508L29.0537 15.7449L28.7214 16.2497C28.6606 16.3434 28.5677 16.4079 28.4642 16.4317C28.3562 16.4551 28.2494 16.4317 28.1369 16.3611C28.0712 16.3233 28.01 16.2905 27.9549 16.2576C27.8986 16.2342 27.8469 16.2108 27.7917 16.1968C27.7351 16.178 27.6743 16.1685 27.6143 16.1591C27.4322 16.1357 27.1834 16.1451 27.0108 16.2203C26.8979 16.272 26.8054 16.3377 26.7303 16.4257C26.6502 16.5148 26.5894 16.6266 26.5434 16.7531C26.5014 16.8848 26.4777 17.034 26.4777 17.2017C26.4777 17.3837 26.5014 17.5479 26.5528 17.6831C26.6 17.8194 26.6702 17.9308 26.7537 18.0248C26.8383 18.1139 26.9402 18.1834 27.0626 18.2303C27.2585 18.3099 27.5346 18.3243 27.7222 18.2771C27.7694 18.2676 27.8117 18.2537 27.8537 18.2397V17.9403H27.6388C27.5168 17.9403 27.4383 17.8885 27.396 17.8511C27.3303 17.7854 27.2974 17.7054 27.2974 17.6174V16.9668H28.9808V18.8242L28.9151 18.8714C28.7052 19.0251 28.4748 19.1376 28.2365 19.2082C28.0028 19.2789 27.7551 19.3117 27.5017 19.3117C27.1645 19.3117 26.8606 19.26 26.5845 19.1576C26.3089 19.0497 26.0657 18.9005 25.8686 18.7128C25.6677 18.5263 25.5125 18.296 25.406 18.0388C25.2976 17.7817 25.2425 17.5011 25.2425 17.2017C25.2425 16.9022 25.2942 16.6122 25.3966 16.3551L25.3939 16.3577ZM20.1834 15.132H20.8151C20.8619 15.132 20.8997 15.1365 20.9325 15.1411C20.9748 15.146 21.0171 15.1554 21.05 15.1739C21.0873 15.1883 21.1206 15.2117 21.1534 15.24C21.1768 15.2634 21.2048 15.2914 21.2331 15.3291L22.7348 17.2239V15.132H23.8431V19.2762H23.2208C23.1268 19.2762 23.0483 19.2577 22.9776 19.2249C22.9119 19.192 22.8462 19.1403 22.7866 19.0708L21.2943 17.1854V19.2762H20.186V15.132H20.1834Z" fill="white"/>
</g>
<defs>
<linearGradient id="paint0_linear_316_701" x1="27.5" y1="0" x2="27.5" y2="55" gradientUnits="userSpaceOnUse">
<stop stop-color="#92A7FF"/>
<stop offset="1" stop-color="#5C7BFF"/>
</linearGradient>
</defs>
</svg>
