<svg width="55" height="55" viewBox="0 0 55 55" fill="none" xmlns="http://www.w3.org/2000/svg">
<rect width="55" height="55" rx="15" fill="url(#paint0_linear_316_629)"/>
<mask id="mask0_316_629" style="mask-type:luminance" maskUnits="userSpaceOnUse" x="21" y="12" width="23" height="31">
<path d="M21.4922 12H43.9996V42.561H21.4922V12Z" fill="white"/>
</mask>
<g mask="url(#mask0_316_629)">
<path d="M40.491 41.7525V16.1164L34.3377 12.0735C34.2643 12.0183 34.1541 12 34.0622 12L21.8843 13.654C21.6822 13.6723 21.5352 13.8561 21.5352 14.0582V20.0492L28.5702 21.0047C29.1579 21.0782 29.5988 21.5928 29.5988 22.181V42.0648C29.5988 42.2119 29.5621 42.3589 29.5254 42.4875L34.1172 42.561C34.2275 42.561 34.3377 42.5242 34.4112 42.4508C34.4848 42.3773 34.5398 42.2671 34.5398 42.1566V13.1761L35.8806 14.0582V42.4875H36.7073V14.5911L37.8278 15.3262H37.7909V42.4875H38.6176V15.8408L39.7012 16.5574V42.561H43.9809V41.7341L40.491 41.7525ZM26.0905 17.605H24.3271V15.8408H26.0905V17.605ZM32.6847 21.3172H30.9213V19.553H32.6847V21.3172ZM32.6847 15.7305H30.9213V13.9663H32.6847V15.7305Z" fill="white"/>
</g>
<mask id="mask1_316_629" style="mask-type:luminance" maskUnits="userSpaceOnUse" x="12" y="20" width="17" height="23">
<path d="M12 20.6064H28.8006V42.5611H12V20.6064Z" fill="white"/>
</mask>
<g mask="url(#mask1_316_629)">
<path d="M28.4444 21.8133L19.7564 20.6372C19.6645 20.6189 19.5727 20.6555 19.4991 20.6924L15.0908 23.5958V41.826H12.0234V42.5611H15.8256V24.0002L16.4684 23.5775V42.4323H17.2032V23.0998L17.8276 22.6954V42.4323H18.5624V22.2177L19.3706 21.6847V42.1936C19.3706 42.2854 19.4072 42.3773 19.4808 42.4509C19.5543 42.5242 19.6462 42.5611 19.7379 42.5611L28.4261 42.4323C28.6282 42.4323 28.7934 42.2671 28.7934 42.0648V22.181C28.775 21.997 28.6282 21.8502 28.4444 21.8133ZM23.2278 35.2285H21.4646V33.4645H23.2278V35.2285ZM23.2278 25.6726H21.4646V23.9084H23.2278V25.6726ZM27.1771 39.9147H25.4137V38.1505H27.1771V39.9147ZM27.1771 30.4507H25.4137V28.6864H27.1771V30.4507Z" fill="white"/>
</g>
<defs>
<linearGradient id="paint0_linear_316_629" x1="27.5" y1="0" x2="27.5" y2="55" gradientUnits="userSpaceOnUse">
<stop stop-color="#92A7FF"/>
<stop offset="1" stop-color="#5C7BFF"/>
</linearGradient>
</defs>
</svg>
