<svg width="190" height="231" viewBox="0 0 190 231" fill="none" xmlns="http://www.w3.org/2000/svg">
<path fill-rule="evenodd" clip-rule="evenodd" d="M187.617 195.685C187.161 188.544 188.089 181.023 186.118 174.347C183.57 165.725 184.357 157.237 184.098 148.683C183.934 143.215 181.873 139.518 176.522 137.924C165.742 134.714 155.759 129.964 146.125 124.039C139.112 119.73 133.185 114.614 127.704 108.623C125.584 106.309 119.746 103.138 119.746 103.138C119.746 103.138 123.471 118.652 120.649 124.639C116.589 133.243 109.407 156.986 103.377 178.049L106.825 144.58C106.851 144.321 106.798 144.046 106.673 143.799L100.736 132.108L105.388 119.748C105.546 119.331 105.462 118.834 105.17 118.436C104.874 118.038 104.412 117.799 103.945 117.799H101.45C112.715 112.257 118.448 93.3738 118.65 93.1238C118.789 92.726 118.841 99.108 118.665 99.5562C118.665 99.5562 118.66 99.5651 118.65 99.5769C118.259 100.694 127.982 109.268 142.238 99.0829C144.817 97.24 134.712 95.5421 135.875 94.4638C136.393 93.9817 141.334 89.6954 141.375 88.5757C141.462 86.2921 142.177 84.0677 142.589 81.8595C142.963 79.8436 143.085 77.594 144.095 75.6268C144.892 74.0694 145.103 68.8069 144.508 67.0351C143.388 63.7176 142.797 60.264 142.431 56.7956C142.226 54.8536 142.491 52.8659 142.992 50.9653C143.312 49.7599 143.312 48.6728 142.937 47.4674C142.1 44.7859 141.042 42.2582 139.126 40.1491C137.22 38.0444 135.62 35.6542 134.421 33.1458C132.182 28.4483 129.08 27.8242 126.987 23.0647C126.511 21.985 125.671 21.1878 124.977 20.2796C124.505 19.6673 124.035 19.0742 123.887 18.2888C123.783 17.7372 123.413 17.3984 122.993 17.0464C121.398 15.7212 120.137 14.0809 119.078 12.3238C117.704 10.0387 115.733 8.40592 113.54 7.04817C112.335 6.30421 111.916 5.32059 110.841 4.15806C103.792 -3.46639 92.8568 0.836149 92.8568 5.61345C81.4846 -7.29118 73.8511 6.30565 72.6477 7.04961C70.4521 8.40737 52.8549 21.8637 43.7566 54.8862C42.8308 58.2481 42.7984 67.3028 41.6777 70.6173C41.0827 72.3921 41.2923 74.0694 42.0896 75.6268C43.1011 77.594 43.2206 79.8436 43.5957 81.8595C44.0076 84.0662 44.7252 86.2921 44.8094 88.5757C44.8522 89.6939 45.5255 90.8653 46.0408 91.3445C47.2058 92.4242 47.0064 93.2599 46.3582 94.2465C45.7558 95.1679 44.9895 95.9799 43.8113 96.2076C43.5795 96.2535 42.382 97.064 41.8564 97.0463C41.7146 97.0419 41.5773 96.9886 41.4341 96.9738C41.059 96.9383 40.6146 96.7889 40.4226 97.2474C40.2337 97.7 40.588 97.9574 40.9261 98.1526C41.7988 98.6451 42.6596 99.3447 43.671 99.321C45.3232 99.2781 46.8514 99.4201 48.3087 100.313C67.7353 112.227 67.5183 99.5547 67.5183 99.5547C67.5183 99.5547 67.409 93.3516 67.5183 93.1282C67.5065 93.3013 68.323 95.6175 71.025 100.197C71.025 100.197 79.9107 113.277 89.294 117.796H86.056C85.5894 117.796 85.1272 118.035 84.8319 118.433C84.5396 118.831 84.4554 119.328 84.6149 119.745L89.2659 132.105L83.3303 143.796C83.2033 144.043 83.1516 144.318 83.1782 144.577L86.6244 178.046C80.5973 156.983 73.4125 133.24 69.3536 124.636C66.529 118.649 70.2543 103.136 70.2543 103.136C70.2543 103.136 64.419 106.305 62.2973 108.62C56.8179 114.611 50.8897 119.727 43.8748 124.036C34.239 129.961 24.2577 134.712 13.4777 137.921C8.12675 139.515 6.06552 143.212 5.9031 148.68C5.64767 157.234 6.43169 165.723 3.8847 174.344C1.91207 181.019 2.8423 188.541 2.38605 195.682C1.63155 207.452 0.798797 219.225 0 231H93.8771H96.1214H190C189.201 219.228 188.37 207.455 187.617 195.685Z" fill="#9B9B9B"/>
</svg>
