<svg width="191" height="45" viewBox="0 0 191 45" fill="none" xmlns="http://www.w3.org/2000/svg">
<g clip-path="url(#clip0_690_2158)">
<path d="M60.3811 15.628V12.7487H66.9602V18.6331C65.7 19.4962 64.5875 20.0858 63.6225 20.398C62.6542 20.7105 61.5066 20.8651 60.1792 20.8651C58.544 20.8651 57.2102 20.585 56.181 20.0245C55.152 19.4673 54.3536 18.633 53.786 17.5251C53.2186 16.4203 52.9365 15.148 52.9365 13.7148C52.9365 12.2042 53.2473 10.8932 53.8663 9.77583C54.4851 8.66122 55.3922 7.81431 56.5884 7.23444C57.5214 6.7867 58.7781 6.56451 60.3554 6.56451C61.8753 6.56451 63.0133 6.70308 63.7667 6.98012C64.5235 7.25716 65.1487 7.68549 65.6457 8.26842C66.1426 8.85134 66.5177 9.58886 66.7679 10.481L62.6704 11.2219C62.5002 10.6969 62.2151 10.2943 61.8111 10.0172C61.4071 9.73709 60.8941 9.59852 60.2658 9.59852C59.3358 9.59852 58.592 9.92382 58.0374 10.5746C57.4828 11.2251 57.207 12.2558 57.207 13.6632C57.207 15.1577 57.4861 16.2271 58.0471 16.8679C58.605 17.509 59.3872 17.831 60.3875 17.831C60.8622 17.831 61.3142 17.7634 61.7472 17.6249C62.1766 17.4863 62.6705 17.2514 63.2282 16.9228V15.6279H60.3812L60.3811 15.628ZM69.3648 6.79644H73.193V20.6332H69.3648V6.79644ZM75.1744 15.6473C75.1744 14.1143 75.6874 12.8517 76.7134 11.8597C77.7393 10.8675 79.1243 10.3716 80.8685 10.3716C82.8661 10.3716 84.3729 10.9545 85.3923 12.1206C86.21 13.0609 86.6204 14.2174 86.6204 15.5894C86.6204 17.1354 86.1137 18.3979 85.0975 19.3868C84.0811 20.3722 82.6735 20.8652 80.8781 20.8652C79.2782 20.8652 77.9831 20.4563 76.9955 19.6348C75.7803 18.6202 75.1744 17.29 75.1744 15.6474V15.6473ZM79.0024 15.6409C79.0024 16.5395 79.182 17.203 79.5413 17.6313C79.9004 18.0596 80.3492 18.2754 80.8941 18.2754C81.4424 18.2754 81.8914 18.0629 82.2441 17.641C82.5966 17.219 82.773 16.5394 82.773 15.6054C82.773 14.7326 82.5965 14.0852 82.2407 13.6568C81.8849 13.2316 81.4456 13.0191 80.9196 13.0191C80.365 13.0191 79.9067 13.2349 79.5443 13.6665C79.1819 14.1012 79.0023 14.7584 79.0023 15.6408L79.0024 15.6409ZM88.4864 6.79644H92.353V11.5762C92.7345 11.1737 93.1674 10.8742 93.6548 10.6711C94.1388 10.4715 94.6742 10.3716 95.2641 10.3716C96.4792 10.3716 97.4828 10.8096 98.2779 11.6889C99.073 12.5683 99.4707 13.8308 99.4707 15.4766C99.4707 16.5718 99.2878 17.5379 98.9254 18.3754C98.5633 19.2096 98.0599 19.8344 97.4187 20.2466C96.7773 20.6589 96.0656 20.865 95.2833 20.865C94.6134 20.865 93.9976 20.7201 93.4429 20.4303C93.0229 20.2015 92.5645 19.7765 92.0708 19.1484V20.6332H88.4864V6.79636L88.4864 6.79644ZM92.3242 15.5797C92.3242 16.446 92.4844 17.0742 92.8084 17.4607C93.129 17.8505 93.536 18.0436 94.0299 18.0436C94.485 18.0436 94.87 17.8536 95.1778 17.4703C95.4886 17.0871 95.6425 16.446 95.6425 15.5443C95.6425 14.7488 95.4919 14.1626 95.1872 13.7921C94.886 13.4186 94.5172 13.2317 94.0876 13.2317C93.5682 13.2317 93.1449 13.425 92.8178 13.8148C92.4877 14.2013 92.3242 14.7906 92.3242 15.5797ZM104.799 13.85L101.144 13.4635C101.282 12.8194 101.481 12.3137 101.741 11.9466C102 11.5762 102.372 11.2572 102.863 10.9868C103.212 10.7902 103.693 10.6389 104.306 10.5324C104.918 10.4263 105.582 10.3715 106.297 10.3715C107.441 10.3715 108.358 10.436 109.054 10.5648C109.746 10.6936 110.327 10.9641 110.789 11.3733C111.116 11.6567 111.372 12.0594 111.558 12.5778C111.747 13.0964 111.84 13.5923 111.84 14.0658V18.4979C111.84 18.9712 111.869 19.3416 111.93 19.6089C111.988 19.8763 112.119 20.2176 112.318 20.6332H108.736C108.592 20.3756 108.499 20.1822 108.454 20.047C108.413 19.9118 108.368 19.7024 108.323 19.4158C107.823 19.8988 107.326 20.2434 106.829 20.4496C106.153 20.7266 105.367 20.8652 104.472 20.8652C103.283 20.8652 102.379 20.5881 101.763 20.031C101.144 19.4771 100.837 18.7909 100.837 17.9794C100.837 17.2161 101.058 16.588 101.504 16.0951C101.949 15.6023 102.77 15.2352 103.966 14.9969C105.399 14.707 106.329 14.504 106.755 14.3849C107.182 14.269 107.634 14.1175 108.108 13.9274C108.108 13.4542 108.012 13.1256 107.816 12.9355C107.624 12.7455 107.284 12.6521 106.797 12.6521C106.172 12.6521 105.704 12.7518 105.389 12.9549C105.146 13.1159 104.95 13.4121 104.8 13.8501L104.799 13.85ZM108.108 15.86C107.582 16.0498 107.034 16.2175 106.46 16.3657C105.684 16.5749 105.19 16.7811 104.985 16.9841C104.77 17.1933 104.665 17.4318 104.665 17.699C104.665 18.0051 104.77 18.2564 104.979 18.4495C105.19 18.6429 105.498 18.7394 105.905 18.7394C106.332 18.7394 106.729 18.6332 107.098 18.4238C107.464 18.2144 107.723 17.9601 107.877 17.6572C108.031 17.3547 108.108 16.9615 108.108 16.4786V15.8602V15.86ZM114.264 6.79644H118.092V20.6332H114.264V6.79644ZM52.494 27.1049H65.4406V30.5254H61.093V40.9417H56.8417V30.5254H52.4941V27.1049H52.494ZM77.0245 36.8834H69.3489C69.4195 37.4987 69.5831 37.9591 69.8491 38.262C70.2176 38.6967 70.7019 38.9125 71.2982 38.9125C71.6765 38.9125 72.0356 38.8191 72.3724 38.6324C72.5806 38.5132 72.8051 38.3038 73.0423 38.0042L76.8126 38.3519C76.2357 39.3568 75.5398 40.0816 74.7254 40.5163C73.9112 40.9546 72.7408 41.1735 71.2178 41.1735C69.8937 41.1735 68.8551 40.9868 68.0953 40.6099C67.3385 40.2362 66.71 39.6402 66.21 38.8254C65.713 38.0072 65.4628 37.0475 65.4628 35.946C65.4628 34.3775 65.9631 33.1053 66.9634 32.1359C67.9604 31.1664 69.3423 30.6799 71.1024 30.6799C72.5324 30.6799 73.6577 30.899 74.485 31.3337C75.3121 31.7687 75.9437 32.3965 76.3764 33.2244C76.8094 34.0489 77.0242 35.1247 77.0242 36.4485V36.8832L77.0245 36.8834ZM73.1386 35.0476C73.065 34.3003 72.8628 33.7656 72.539 33.4436C72.2152 33.1214 71.7919 32.9605 71.2629 32.9605C70.6537 32.9605 70.1664 33.2051 69.8009 33.6916C69.5701 33.9944 69.4226 34.4452 69.3585 35.0476H73.1386ZM86.2197 37.0188L89.8555 37.4245C89.6534 38.1878 89.3264 38.8483 88.8679 39.4085C88.4126 39.9659 87.826 40.4006 87.1141 40.7098C86.4056 41.019 85.5015 41.1736 84.405 41.1736C83.3438 41.1736 82.462 41.0739 81.7566 40.8771C81.0547 40.6776 80.4485 40.3554 79.9388 39.911C79.4322 39.4697 79.0347 38.9479 78.7461 38.349C78.4575 37.7497 78.3133 36.9575 78.3133 35.9688C78.3133 34.9381 78.4896 34.0781 78.8392 33.3921C79.0957 32.8862 79.4482 32.4354 79.8939 32.036C80.3396 31.6367 80.7949 31.3372 81.2662 31.1439C82.0131 30.8347 82.9687 30.6801 84.1325 30.6801C85.7644 30.6801 87.0052 30.9732 87.8613 31.5561C88.7173 32.1424 89.3169 32.996 89.663 34.12L86.0658 34.6032C85.9535 34.1749 85.7484 33.8526 85.4502 33.6335C85.1521 33.4179 84.7511 33.3082 84.2478 33.3082C83.6162 33.3082 83.1032 33.537 82.7088 33.9911C82.3177 34.4485 82.1222 35.1376 82.1222 36.0652C82.1222 36.89 82.3177 37.5148 82.7058 37.9431C83.0936 38.3714 83.5872 38.5839 84.1901 38.5839C84.6902 38.5839 85.1134 38.4551 85.4533 38.2007C85.7963 37.9431 86.0498 37.5502 86.2197 37.0188L86.2197 37.0188ZM91.2759 27.1049H95.1042V32.1972C95.6235 31.6528 96.1395 31.263 96.6525 31.0311C97.1624 30.7962 97.7716 30.6801 98.4705 30.6801C99.5092 30.6801 100.327 30.9989 100.923 31.6334C101.519 32.2712 101.818 33.247 101.818 34.5644V40.9417H97.9702V35.4243C97.9702 34.7932 97.8549 34.3486 97.6241 34.0878C97.3932 33.8268 97.0695 33.6947 96.6525 33.6947C96.1941 33.6947 95.819 33.872 95.5336 34.223C95.2484 34.5773 95.1042 35.2084 95.1042 36.1233V40.9416H91.2759V27.1048V27.1049ZM104.107 30.912H107.672V32.545C108.204 31.8751 108.74 31.3985 109.285 31.1118C109.83 30.8251 110.49 30.6802 111.273 30.6802C112.331 30.6802 113.155 30.9957 113.754 31.6304C114.351 32.2616 114.649 33.2407 114.649 34.5645V40.9417H110.801V35.4244C110.801 34.7932 110.686 34.3486 110.455 34.0879C110.224 33.8269 109.901 33.6947 109.484 33.6947C109.025 33.6947 108.65 33.8721 108.365 34.2231C108.08 34.5774 107.935 35.2085 107.935 36.1234V40.9417H104.107V30.9119L104.107 30.912ZM116.476 35.9559C116.476 34.4229 116.989 33.1603 118.015 32.1682C119.041 31.1761 120.426 30.6802 122.17 30.6802C124.168 30.6802 125.675 31.2631 126.694 32.4292C127.512 33.3695 127.922 34.526 127.922 35.898C127.922 37.444 127.416 38.7065 126.399 39.6953C125.383 40.6808 123.975 41.1738 122.18 41.1738C120.58 41.1738 119.285 40.7648 118.297 39.9434C117.082 38.9288 116.476 37.5986 116.476 35.956V35.9559ZM120.304 35.9495C120.304 36.8481 120.484 37.5115 120.843 37.9399C121.202 38.3682 121.651 38.584 122.196 38.584C122.744 38.584 123.193 38.3715 123.546 37.9495C123.899 37.5276 124.075 36.848 124.075 35.914C124.075 35.0412 123.898 34.3938 123.543 33.9654C123.187 33.5402 122.748 33.3276 122.222 33.3276C121.667 33.3276 121.209 33.5435 120.846 33.9751C120.484 34.4098 120.304 35.067 120.304 35.9494L120.304 35.9495ZM129.904 27.105H133.732V40.9418H129.904V27.105ZM135.713 35.9559C135.713 34.4229 136.226 33.1603 137.252 32.1682C138.278 31.1761 139.663 30.6802 141.407 30.6802C143.405 30.6802 144.912 31.2631 145.931 32.4292C146.749 33.3695 147.159 34.526 147.159 35.898C147.159 37.444 146.653 38.7065 145.636 39.6953C144.62 40.6808 143.212 41.1738 141.417 41.1738C139.817 41.1738 138.522 40.7648 137.534 39.9434C136.319 38.9288 135.713 37.5986 135.713 35.956V35.9559ZM139.541 35.9495C139.541 36.8481 139.721 37.5115 140.08 37.9399C140.439 38.3682 140.888 38.584 141.433 38.584C141.981 38.584 142.43 38.3715 142.783 37.9495C143.135 37.5276 143.312 36.848 143.312 35.914C143.312 35.0412 143.135 34.3938 142.78 33.9654C142.424 33.5402 141.984 33.3276 141.458 33.3276C140.904 33.3276 140.445 33.5435 140.083 33.9751C139.721 34.4098 139.541 35.067 139.541 35.9494L139.541 35.9495ZM155.954 30.9121H159.529V40.375L159.538 40.8195C159.538 41.4476 159.403 42.0465 159.137 42.6167C158.871 43.1869 158.519 43.6474 158.076 43.9984C157.637 44.3528 157.076 44.6071 156.396 44.765C155.717 44.9229 154.94 45.0002 154.062 45.0002C152.058 45.0002 150.683 44.6974 149.936 44.0918C149.189 43.4897 148.814 42.678 148.814 41.6633C148.814 41.5378 148.82 41.3671 148.833 41.1543L152.545 41.5796C152.638 41.9242 152.783 42.1625 152.978 42.2947C153.261 42.4878 153.613 42.5845 154.04 42.5845C154.588 42.5845 155.001 42.4363 155.274 42.1432C155.546 41.847 155.681 41.3347 155.681 40.6036V39.0899C155.306 39.5374 154.931 39.8629 154.556 40.0624C153.966 40.3782 153.331 40.536 152.648 40.536C151.314 40.536 150.237 39.9497 149.416 38.7775C148.836 37.9466 148.544 36.8481 148.544 35.4794C148.544 33.9173 148.919 32.7288 149.669 31.9073C150.423 31.0894 151.404 30.6802 152.619 30.6802C153.395 30.6802 154.036 30.8123 154.54 31.0764C155.043 31.3405 155.514 31.7785 155.954 32.3905V30.9121H155.954ZM152.353 35.7691C152.353 36.497 152.507 37.0317 152.815 37.3827C153.119 37.7338 153.527 37.9077 154.027 37.9077C154.501 37.9077 154.902 37.7274 155.226 37.3633C155.546 37.0026 155.71 36.4551 155.71 35.7239C155.71 34.9928 155.54 34.4326 155.2 34.0461C154.863 33.6562 154.45 33.4629 153.959 33.4629C153.472 33.4629 153.081 33.6402 152.789 33.9977C152.497 34.352 152.353 34.9446 152.353 35.7691ZM161.971 27.105H165.8V29.7141H161.971V27.105ZM161.971 30.9121H165.8V40.9418H161.971V30.9121ZM179.323 36.8835H171.648C171.718 37.4988 171.882 37.9593 172.148 38.2621C172.516 38.6968 173.001 38.9126 173.597 38.9126C173.975 38.9126 174.334 38.8193 174.671 38.6325C174.879 38.5134 175.104 38.3039 175.341 38.0044L179.111 38.3521C178.534 39.357 177.839 40.0818 177.024 40.5165C176.21 40.9547 175.04 41.1737 173.517 41.1737C172.193 41.1737 171.154 40.9869 170.394 40.6101C169.637 40.2364 169.009 39.6404 168.509 38.8255C168.012 38.0074 167.762 37.0477 167.762 35.9461C167.762 34.3776 168.262 33.1055 169.262 32.136C170.259 31.1666 171.641 30.6801 173.401 30.6801C174.831 30.6801 175.956 30.8992 176.784 31.3339C177.611 31.7688 178.243 32.3967 178.675 33.2245C179.108 34.049 179.323 35.1248 179.323 36.4487V36.8834L179.323 36.8835ZM175.437 35.0477C175.364 34.3005 175.162 33.7658 174.838 33.4438C174.514 33.1216 174.091 32.9606 173.562 32.9606C172.953 32.9606 172.465 33.2053 172.1 33.6918C171.869 33.9946 171.721 34.4454 171.657 35.0477H175.437ZM180.401 38.1591L184.19 37.8111C184.347 38.2622 184.565 38.5841 184.848 38.7775C185.13 38.9706 185.505 39.0674 185.976 39.0674C186.489 39.0674 186.886 38.9579 187.169 38.7357C187.39 38.5748 187.499 38.3684 187.499 38.1237C187.499 37.8467 187.355 37.6309 187.066 37.4796C186.861 37.3732 186.313 37.2413 185.425 37.0834C184.097 36.8514 183.177 36.6356 182.658 36.4359C182.141 36.2395 181.709 35.9014 181.353 35.431C181 34.9575 180.824 34.4198 180.824 33.8144C180.824 33.1539 181.013 32.584 181.395 32.1072C181.776 31.6273 182.302 31.2698 182.972 31.0347C183.642 30.7995 184.54 30.6803 185.665 30.6803C186.852 30.6803 187.73 30.7706 188.294 30.9541C188.862 31.1377 189.333 31.4211 189.711 31.8043C190.09 32.1909 190.404 32.7095 190.654 33.3666L187.037 33.7143C186.945 33.3955 186.787 33.1605 186.57 33.0089C186.271 32.8092 185.909 32.7094 185.483 32.7094C185.053 32.7094 184.739 32.7868 184.543 32.9414C184.347 33.096 184.248 33.2827 184.248 33.5018C184.248 33.7498 184.373 33.9334 184.62 34.059C184.867 34.1878 185.412 34.3006 186.249 34.4003C187.522 34.5452 188.464 34.7482 189.086 35.0059C189.705 35.2635 190.18 35.6307 190.506 36.1105C190.837 36.5904 191 37.1154 191 37.6889C191 38.2686 190.827 38.8324 190.478 39.3799C190.131 39.9273 189.583 40.362 188.836 40.6876C188.089 41.0129 187.07 41.1738 185.781 41.1738C183.96 41.1738 182.661 40.9128 181.888 40.3878C181.116 39.8661 180.619 39.1222 180.401 38.1592L180.401 38.1591Z" fill="url(#paint0_linear_690_2158)"/>
<path fill-rule="evenodd" clip-rule="evenodd" d="M22.3976 0C34.767 0 44.7948 10.0737 44.7948 22.5003C44.7948 27.4706 43.1895 32.0639 40.4726 35.787L25.9377 35.7017C26.1125 33.7726 29.3789 32.7067 31.1644 31.8235C35.1369 29.8555 39.7394 27.838 40.4521 22.7648C40.8563 19.8861 39.8038 17.0435 38.4606 15.4363C34.5037 10.7014 23.2153 9.957 18.0232 15.1203C16.6137 16.523 15.0616 18.9696 15.4129 21.8697L23.6257 21.8715C23.9697 19.779 24.345 18.1155 25.7565 17.3981C27.3886 16.5677 29.902 16.6778 30.9884 17.8902C32.0983 19.1298 32.0555 21.9216 31.3204 23.4356C28.3708 29.5087 15.9798 28.8743 15.3847 41.4775L34.4387 41.4747C30.9613 43.7064 26.8301 45 22.3976 45C10.0278 45 0 34.9262 0 22.5002C0 17.6528 1.5262 13.1637 4.12216 9.49024C4.11719 14.9094 4.19441 21.7375 4.19089 23.7497C4.18431 27.3448 4.21438 30.3223 6.93792 31.7532C8.4707 32.5572 9.94823 32.7569 11.4413 32.7143C13.005 32.6701 15.2924 32.6576 17.7328 32.6394C19.6957 30.4046 22.2652 29.0002 24.6723 27.6854C25.0302 27.4899 25.384 27.2968 25.731 27.1032C22.1343 27.1607 16.6927 26.93 14.4029 27.0149C12.9092 27.07 11.9084 26.6118 11.8717 24.4652C11.7981 20.1511 12.2127 5.39825 11.7938 2.67746L11.6193 2.77316C14.8164 1.00497 18.4901 8.05589e-05 22.3977 8.05589e-05L22.3976 0Z" fill="url(#paint1_linear_690_2158)"/>
</g>
<defs>
<linearGradient id="paint0_linear_690_2158" x1="176.243" y1="40.9417" x2="62.0783" y2="2.69018" gradientUnits="userSpaceOnUse">
<stop stop-color="#00AFEF"/>
<stop offset="1" stop-color="#363894"/>
</linearGradient>
<linearGradient id="paint1_linear_690_2158" x1="31.1926" y1="43.1984" x2="-5.24532" y2="-18.0055" gradientUnits="userSpaceOnUse">
<stop stop-color="#ED282E"/>
<stop offset="1" stop-color="#FFF200"/>
</linearGradient>
<clipPath id="clip0_690_2158">
<rect width="191" height="45" fill="white"/>
</clipPath>
</defs>
</svg>
