<svg width="189" height="231" viewBox="0 0 189 231" fill="none" xmlns="http://www.w3.org/2000/svg">
<path fill-rule="evenodd" clip-rule="evenodd" d="M186.629 195.914C186.177 188.823 187.099 181.35 185.137 174.72C182.607 166.156 183.384 157.725 183.132 149.223C182.968 143.791 180.92 140.121 175.596 138.539C164.871 135.351 154.942 130.629 145.354 124.742C138.38 120.463 132.483 115.381 127.033 109.43C124.924 107.13 119.115 103.979 119.115 103.979C119.115 103.979 122.822 119.39 120.014 125.337C116.08 133.659 109.207 156.228 103.314 176.726L106.265 148.129C106.292 147.869 106.235 147.597 106.112 147.351L100.204 135.737L104.831 123.458C104.987 123.043 104.903 122.55 104.615 122.155C104.319 121.759 103.86 121.522 103.397 121.522H99.4599L117.88 111.303L116.515 105.472C116.515 105.472 123.905 100.429 125.739 89.6286C125.945 88.4093 125.953 87.6699 127.322 87.0234C130.019 85.7613 131.309 83.0956 132.665 80.5361C134.635 76.8179 135.648 72.7544 137.139 68.865C138.245 65.972 135.791 61.8641 132.795 61.5659C132.674 61.5556 132.576 61.5291 132.477 61.504C133.473 57.8685 134.31 53.0787 135.063 48.6018C135.55 45.508 135.75 38.6252 134.99 34.9617C131.12 13.3169 118.113 8.8681 116.746 8.17583C117.711 7.88505 119.081 8.45035 119.987 8.8725C120.055 8.75885 117.997 6.96547 116.54 6.01194C114.085 4.40157 110.417 4.5654 107.67 4.63625C107.05 4.65397 106.232 4.53292 105.828 4.15801C102.783 1.31809 99.4157 1.37271 95.7048 2.93732C94.9139 2.01036 96.894 0 96.894 0C96.894 0 91.7489 3.5661 90.6983 4.11224C86.9358 6.04882 87.6042 1.08487 87.6042 1.08487C87.6042 1.08487 80.5645 5.34476 79.8444 6.42523C75.1493 6.89314 71.2968 8.28211 69.7622 8.88286C70.5708 8.88286 71.375 8.88286 72.4315 8.88286C70.0647 9.33601 68.0654 10.167 66.8098 10.8519C68.8445 10.6984 69.5911 11.187 69.8641 11.432C65.2398 12.3855 59.0855 16.3841 56.6494 21.5222C56.2938 22.2676 55.3804 22.7341 55.041 23.5119C54.3372 25.1282 52.8647 32.1852 52.9665 38.1263C52.7112 41.9847 53.3782 50.1399 57.0079 61.2914C56.8191 61.4301 56.5623 61.5305 56.2038 61.5659C53.2085 61.8641 50.7547 65.972 51.8598 68.865C53.3486 72.7544 54.3638 76.8165 56.3321 80.5361C57.6881 83.0956 58.9807 85.7613 61.6735 87.0234C63.0487 87.6699 63.0531 88.4093 63.2597 89.6286C65.0952 100.427 72.486 105.472 72.486 105.472L71.1182 111.303L89.5386 121.522H85.6019C85.1386 121.522 84.6782 121.761 84.3831 122.155C84.0924 122.55 84.0098 123.043 84.1662 123.458L88.7978 135.737L82.8899 147.351C82.7645 147.597 82.7113 147.869 82.7379 148.129L85.6889 176.726C79.7943 156.228 72.9213 133.659 68.9891 125.337C66.1812 119.389 69.8847 103.979 69.8847 103.979C69.8847 103.979 64.0771 107.13 61.9672 109.43C56.5181 115.38 50.6204 120.462 43.6427 124.742C34.0563 130.629 24.1276 135.351 13.4035 138.539C8.07841 140.121 6.03332 143.791 5.86954 149.223C5.61428 157.725 6.39193 166.156 3.86143 174.72C1.89899 181.35 2.82263 188.823 2.36817 195.914C1.62008 207.612 0.792351 219.304 0 231H189C188.206 219.304 187.38 207.612 186.629 195.914Z" fill="#9B9B9B"/>
</svg>
