<svg width="29" height="37" viewBox="0 0 29 37" fill="none" xmlns="http://www.w3.org/2000/svg">
<mask id="mask0_363_937" style="mask-type:luminance" maskUnits="userSpaceOnUse" x="5" y="0" width="18" height="17">
<path d="M5.72946 0H22.5501V16.8111H5.72946V0Z" fill="white"/>
</mask>
<g mask="url(#mask0_363_937)">
<path d="M22.4222 8.31128C22.4222 3.72808 18.6818 0 14.0843 0C3.02383 0.45613 3.02764 16.1674 14.0843 16.6216C18.6818 16.6216 22.4222 12.8935 22.4222 8.31128ZM7.41468 8.31128C7.41468 4.6451 10.4067 1.66264 14.0843 1.66264C22.9212 1.99688 22.9193 14.6257 14.0843 14.959C10.4067 14.959 7.41468 11.9765 7.41468 8.31128Z" fill="#021B79"/>
</g>
<mask id="mask1_363_937" style="mask-type:luminance" maskUnits="userSpaceOnUse" x="0" y="16" width="29" height="21">
<path d="M0.000183105 16.5673H28.1565V36.5665H0.000183105V16.5673Z" fill="white"/>
</mask>
<g mask="url(#mask1_363_937)">
<path d="M1.38386 22.4826L0.122122 33.7982C0.0440371 34.5019 0.270674 35.2085 0.745849 35.7361C1.22007 36.2646 1.89808 36.5664 2.60846 36.5664H25.5616C27.009 36.5988 28.2403 35.2295 28.047 33.7982L26.7862 22.4826C26.6291 21.0771 25.7778 19.8582 24.5075 19.224L19.4596 16.7091C19.2253 16.5919 18.9492 16.5919 18.714 16.7091C15.8143 18.1536 12.3529 18.1536 9.45518 16.7091C9.22092 16.5919 8.94381 16.5919 8.70861 16.7091L3.6607 19.224C2.39325 19.8582 1.54098 21.0761 1.38386 22.4826ZM11.7815 34.9048L13.9308 24.9099C14.0327 24.9375 14.1365 24.9365 14.2393 24.9099L16.3895 34.9048H11.7815ZM12.6709 21.6075H15.501C15.7439 21.5998 15.8467 21.9408 15.641 22.0693L14.085 23.1016L12.53 22.0693C12.3253 21.9398 12.4262 21.5998 12.6709 21.6075ZM4.40917 20.7114L9.09237 18.3774C12.2491 19.8125 15.9229 19.8134 19.0806 18.3774L23.7628 20.7114C24.5246 21.0904 25.036 21.8217 25.1302 22.6664L26.392 33.982C26.4567 34.4591 26.0473 34.9171 25.5635 34.9048H18.0959L15.7505 23.9938L16.5666 23.451C18.135 22.454 17.3675 19.9105 15.5029 19.9448H12.6728C11.612 19.9458 10.7502 20.8038 10.7502 21.8598C10.7055 22.9187 11.6244 23.5072 12.4224 23.9948L10.077 34.9057H2.60846C2.19328 34.9057 1.73429 34.5438 1.78 33.983L3.04174 22.6673C3.13601 21.8217 3.64642 21.0904 4.40917 20.7114Z" fill="#021B79"/>
</g>
<path d="M6.57971 25.7632H9.91546C11.0048 25.7594 11.0067 24.1053 9.91546 24.1006H6.57971C5.49033 24.1053 5.48843 25.7594 6.57971 25.7632Z" fill="#021B79"/>
</svg>
