<svg width="39" height="37" viewBox="0 0 39 37" fill="none" xmlns="http://www.w3.org/2000/svg">
<path fill-rule="evenodd" clip-rule="evenodd" d="M38.3133 1.4244C38.1829 1.01044 37.839 0.688475 37.3968 0.56641C37.3968 0.56641 25.8585 -2.64796 16.3648 6.238C11.686 10.6164 6.81816 17.7846 6.44401 21.8941C6.40999 22.2656 6.55361 22.6336 6.83706 22.899L14.4581 30.0335C14.7416 30.2989 15.1346 30.4334 15.5314 30.4015C19.9211 30.0512 27.5781 25.4942 32.255 21.114C41.7469 12.2262 38.3133 1.4244 38.3133 1.4244ZM35.887 2.83964C36.3688 5.16064 37.2835 12.8189 30.3389 19.3202C26.3139 23.0918 19.9363 27.1411 15.9037 27.801L9.22182 21.5456C9.92856 17.7705 14.2521 11.7999 18.2809 8.03182C25.2255 1.53054 33.4077 2.38677 35.8851 2.83788L35.887 2.83964Z" fill="#021B79"/>
<path fill-rule="evenodd" clip-rule="evenodd" d="M30.3524 8.02124C28.0716 5.88599 24.3641 5.88599 22.0832 8.02124C19.8024 10.1565 19.8024 13.6274 22.0832 15.7626C24.3641 17.8979 28.0716 17.8979 30.3524 15.7626C32.6333 13.6274 32.6333 10.1565 30.3524 8.02124ZM28.4363 9.81506C29.6608 10.9614 29.6608 12.8224 28.4363 13.9688C27.2118 15.1151 25.2239 15.1151 23.9994 13.9688C22.7749 12.8224 22.7749 10.9614 23.9994 9.81506C25.2239 8.66871 27.2118 8.66871 28.4363 9.81506Z" fill="#021B79"/>
<path fill-rule="evenodd" clip-rule="evenodd" d="M22.7672 25.3951L11.7958 15.1239C11.2686 14.6286 10.4088 14.6286 9.87968 15.1239C9.35057 15.6193 9.35057 16.4224 9.87968 16.9178L20.8511 27.1889C21.3802 27.6842 22.2381 27.6842 22.7672 27.1889C23.2964 26.6936 23.2964 25.8886 22.7672 25.3951Z" fill="#021B79"/>
<mask id="mask0_363_899" style="mask-type:luminance" maskUnits="userSpaceOnUse" x="16" y="22" width="13" height="15">
<path d="M16.3069 22.9645H28.4008V36.4376H16.3069V22.9645Z" fill="white"/>
</mask>
<g mask="url(#mask0_363_899)">
<path fill-rule="evenodd" clip-rule="evenodd" d="M25.5039 24.2664C25.5039 24.2664 25.2318 27.0615 25.0447 28.9968C24.9748 29.7045 24.5326 30.3289 23.8675 30.6668L19.3153 32.9613V29.1384C19.3153 28.4378 18.7087 27.87 17.9604 27.87C17.2121 27.87 16.6055 28.4378 16.6055 29.1384V35.0842C16.6055 35.5317 16.8568 35.9457 17.265 36.1739C17.675 36.4021 18.1815 36.4145 18.6029 36.2004C18.6029 36.2004 22.7318 34.12 25.1506 32.8994C26.6188 32.1617 27.592 30.7818 27.7432 29.2268C27.9303 27.2915 28.2043 24.4946 28.2043 24.4946C28.2704 23.7976 27.7205 23.1802 26.976 23.1183C26.2315 23.0528 25.572 23.5676 25.5039 24.2664Z" fill="#021B79"/>
</g>
<mask id="mask1_363_899" style="mask-type:luminance" maskUnits="userSpaceOnUse" x="-1" y="9" width="16" height="13">
<path d="M-0.000183105 9.83105H14.3689V21.153H-0.000183105V9.83105Z" fill="white"/>
</mask>
<g mask="url(#mask1_363_899)">
<path fill-rule="evenodd" clip-rule="evenodd" d="M12.7556 10.0326C12.7556 10.0326 9.76803 10.2891 7.70073 10.4643C6.03971 10.6058 4.56577 11.5169 3.77777 12.8914C2.4739 15.1558 0.251645 19.0212 0.251645 19.0212C0.0229947 19.4157 0.0362224 19.8898 0.27999 20.2737C0.523757 20.6558 0.965941 20.8911 1.44403 20.8911H7.79521C8.54352 20.8911 9.15011 20.3232 9.15011 19.6227C9.15011 18.9221 8.54352 18.3543 7.79521 18.3543H3.71163L6.16254 14.0926C6.52347 13.4699 7.19052 13.056 7.94639 12.9905C10.0137 12.8154 12.9994 12.5606 12.9994 12.5606C13.7458 12.4969 14.2957 11.8795 14.2258 11.1825C14.1596 10.4855 13.5001 9.97072 12.7556 10.0326Z" fill="#021B79"/>
</g>
<path fill-rule="evenodd" clip-rule="evenodd" d="M3.98898 24.9582L1.11857 27.6471C0.589464 28.1425 0.589464 28.9456 1.11857 29.441C1.64768 29.9345 2.50559 29.9345 3.0347 29.441L5.907 26.752C6.43611 26.2567 6.43611 25.4535 5.907 24.9582C5.376 24.4628 4.51809 24.4628 3.98898 24.9582Z" fill="#021B79"/>
<path fill-rule="evenodd" clip-rule="evenodd" d="M7.17005 27.9319L1.75615 32.9985C1.22704 33.4938 1.22704 34.297 1.75615 34.7923C2.28525 35.2877 3.14316 35.2877 3.67227 34.7923L9.08429 29.724C9.6134 29.2304 9.6134 28.4255 9.08429 27.9319C8.55707 27.4366 7.69727 27.4366 7.17005 27.9319Z" fill="#021B79"/>
<path fill-rule="evenodd" clip-rule="evenodd" d="M10.3444 30.9041L7.47207 33.5931C6.94486 34.0884 6.94486 34.8915 7.47207 35.3869C8.00118 35.8822 8.85909 35.8822 9.3882 35.3869L12.2605 32.6997C12.7896 32.2043 12.7896 31.4012 12.2605 30.9041C11.7314 30.4088 10.8735 30.4088 10.3444 30.9041Z" fill="#021B79"/>
</svg>
