<svg width="35" height="38" viewBox="0 0 35 38" fill="none" xmlns="http://www.w3.org/2000/svg">
<mask id="mask0_363_924" style="mask-type:luminance" maskUnits="userSpaceOnUse" x="0" y="0" width="35" height="38">
<path d="M0.00012207 0H34.7814V37.8057H0.00012207V0Z" fill="white"/>
</mask>
<g mask="url(#mask0_363_924)">
<path d="M34.7794 34.3924V34.0104C34.7794 31.6653 34.3196 29.39 33.4119 27.2457C32.5367 25.1763 31.2824 23.3185 29.6865 21.7235C28.0906 20.1276 26.2308 18.8753 24.1603 18.0001C24.0235 17.943 23.8866 17.8868 23.7488 17.8327C24.0097 17.62 24.2608 17.3936 24.501 17.1534C25.4235 16.2309 26.1481 15.1568 26.6551 13.9596C27.1799 12.7201 27.4457 11.4037 27.4457 10.0481C27.4457 8.69237 27.1799 7.37704 26.6551 6.13654C26.1481 4.93936 25.4235 3.86524 24.501 2.94274C23.5785 2.02123 22.5034 1.29662 21.3052 0.790573C20.0647 0.265822 18.7474 0 17.3907 0C16.0351 0 14.7178 0.265822 13.4763 0.790573C12.2791 1.29662 11.204 2.02123 10.2815 2.94274C9.35801 3.86524 8.6334 4.93936 8.12735 6.13654C7.6026 7.37704 7.33579 8.69237 7.33579 10.0481C7.33579 11.4037 7.6026 12.7201 8.12735 13.9596C8.6334 15.1568 9.35899 16.2309 10.2815 17.1534C10.5217 17.3936 10.7728 17.62 11.0327 17.8327C10.8948 17.8868 10.758 17.943 10.6221 18.0001C8.5507 18.8753 6.69191 20.1276 5.096 21.7235C3.4991 23.3185 2.2458 25.1763 1.36957 27.2457C0.462825 29.39 0.00305176 31.6653 0.00305176 34.0104V34.3924C0.00305176 36.1754 1.37253 37.6453 3.11612 37.8067L31.9026 37.7762L31.9135 37.7752C32.2128 37.7447 32.5032 37.6551 32.768 37.5133C33.9534 36.9728 34.7794 35.7766 34.7794 34.3924ZM9.98023 13.1769C9.56082 12.1855 9.34816 11.133 9.34816 10.0481C9.34816 8.96311 9.56082 7.91066 9.98023 6.91924C10.3849 5.96228 10.9657 5.10279 11.7041 4.36538C12.4425 3.62699 13.303 3.0471 14.26 2.64246C15.2524 2.22306 16.3048 2.0104 17.3907 2.0104C18.4767 2.0104 19.5301 2.22306 20.5215 2.64246C21.4795 3.0471 22.3399 3.62699 23.0783 4.36538C23.8167 5.10279 24.3966 5.96228 24.8022 6.92022C25.2217 7.91066 25.4343 8.96311 25.4343 10.0481C25.4343 11.133 25.2217 12.1855 24.8022 13.1769C24.3966 14.1338 23.8167 14.9933 23.0783 15.7317C22.3399 16.4691 21.4795 17.049 20.5215 17.4537C19.5301 17.8731 18.4767 18.0857 17.3907 18.0857C16.3048 18.0857 15.2524 17.8731 14.26 17.4537C13.303 17.049 12.4425 16.4691 11.7041 15.7317C10.9657 14.9933 10.3849 14.1338 9.98023 13.1769ZM32.7671 34.3924C32.7671 35.1741 32.131 35.8101 31.3484 35.8101H3.43412C2.65142 35.8101 2.01444 35.1741 2.01444 34.3924V34.0104C2.01444 31.936 2.42104 29.9236 3.22343 28.0294C3.99727 26.1992 5.10584 24.556 6.51864 23.1452C7.93044 21.7334 9.5746 20.6258 11.4058 19.852C11.8095 19.6816 12.224 19.5261 12.6384 19.3922C12.7832 19.3449 12.9299 19.2996 13.0756 19.2573C13.1297 19.2416 13.1809 19.2209 13.2301 19.1972C13.3119 19.2347 13.3936 19.2711 13.4763 19.3055C14.7178 19.8303 16.0341 20.0961 17.3907 20.0961C18.7474 20.0961 20.0647 19.8303 21.3052 19.3055C21.3879 19.2711 21.4706 19.2347 21.5523 19.1972C21.6006 19.2209 21.6528 19.2416 21.7069 19.2573C22.27 19.4217 22.8322 19.6216 23.3767 19.852C25.2079 20.6258 26.852 21.7334 28.2638 23.1452C29.6756 24.556 30.7842 26.1992 31.559 28.0294C32.3604 29.9236 32.7671 31.936 32.7671 34.0104V34.3924Z" fill="#021B79"/>
</g>
</svg>
