<svg width="159" height="124" viewBox="0 0 159 124" fill="none" xmlns="http://www.w3.org/2000/svg">
<path d="M158.778 81.8812L153.035 122.204H7.01212L2.69971 91.4436C2.22003 87.9969 4.12528 84.6574 7.34101 83.3203L20.3008 77.9418V65.053C20.3008 61.2556 23.0809 58.0355 26.8386 57.4895L29.9032 57.0408L35.0508 39.6353C36.0102 36.3842 38.9946 34.1592 42.379 34.1592H95.0312C97.034 34.1592 98.8686 34.9321 100.236 36.2021C101.604 37.4769 102.506 39.2488 102.653 41.2477L127.724 43.8949C131.446 44.2901 134.333 47.3149 134.555 51.0501L135.567 68.4425L153.284 73.448C156.97 74.486 159.315 78.0926 158.778 81.8812Z" fill="white"/>
<path d="M68.4893 7.04517H32.9578V40.2092H68.4893V7.04517Z" fill="#112B46"/>
<path d="M68.4893 7.04517H32.9578V10.5526H68.4893V7.04517Z" fill="#1D262D"/>
<path d="M60.8087 8.8389C60.8087 9.19402 60.5209 9.48175 60.1658 9.48175C59.8107 9.48175 59.5229 9.19402 59.5229 8.8389C59.5229 8.48378 59.8107 8.19604 60.1658 8.19604C60.5209 8.19604 60.8087 8.48378 60.8087 8.8389Z" fill="#606BF1"/>
<path d="M63.493 8.8389C63.493 9.19402 63.2052 9.48175 62.8501 9.48175C62.495 9.48175 62.2073 9.19402 62.2073 8.8389C62.2073 8.48378 62.495 8.19604 62.8501 8.19604C63.2052 8.19604 63.493 8.48378 63.493 8.8389Z" fill="#FBD15B"/>
<path d="M65.9854 8.90653C65.9854 9.26164 65.6977 9.54938 65.3426 9.54938C64.9874 9.54938 64.6997 9.26164 64.6997 8.90653C64.6997 8.55141 64.9874 8.26367 65.3426 8.26367C65.6977 8.26367 65.9854 8.55141 65.9854 8.90653Z" fill="#FFBC12"/>
<path d="M44.3081 13.8135H39.2756V14.2363H44.3081V13.8135Z" fill="#FFBC12"/>
<path d="M50.2146 13.8137H45.1821V14.2366H50.2146V13.8137Z" fill="#FBD15B"/>
<path d="M48.6361 16.0918H40.8323V16.5147H48.6361V16.0918Z" fill="#606BF1"/>
<path d="M53.893 16.0918H49.9263V16.5147H53.893V16.0918Z" fill="#FFBC12"/>
<path d="M46.9664 18.3706H43.5391V18.7935H46.9664V18.3706Z" fill="#FBD15B"/>
<path d="M60.3175 18.3706H48.9475V18.7935H60.3175V18.3706Z" fill="#FBD15B"/>
<path d="M59.1958 20.6489H46.2014V21.0718H59.1958V20.6489Z" fill="#606BF1"/>
<path d="M46.9516 22.9275H42.9524V23.3504H46.9516V22.9275Z" fill="#FFBC12"/>
<path d="M52.6618 22.9275H48.6626V23.3504H52.6618V22.9275Z" fill="#606BF1"/>
<path d="M45.0931 34.7488H39.2754V35.1716H45.0931V34.7488Z" fill="#FFBC12"/>
<path d="M52.949 34.7488H47.1309V35.1716H52.949V34.7488Z" fill="#FBD15B"/>
<path d="M60.5929 34.7488H54.7751V35.1716H60.5929V34.7488Z" fill="#FFBC12"/>
<path d="M52.202 32.4705H40.832V32.8933H52.202V32.4705Z" fill="#606BF1"/>
<path d="M65.3446 32.4705H53.9746V32.8933H65.3446V32.4705Z" fill="#FFBC12"/>
<path d="M54.822 30.1919H43.5391V30.6148H54.822V30.1919Z" fill="#FFBC12"/>
<path d="M58.946 30.1919H55.8057V30.6148H58.946V30.1919Z" fill="#FBD15B"/>
<path d="M47.0498 27.9133H42.8022V28.3362H47.0498V27.9133Z" fill="#FBD15B"/>
<path d="M53.553 27.9133H49.3054V28.3362H53.553V27.9133Z" fill="#606BF1"/>
<path d="M60.5322 27.9133H56.2847V28.3362H60.5322V27.9133Z" fill="#FFBC12"/>
<path d="M53.6816 25.6348H47.7258V26.0576H53.6816V25.6348Z" fill="#FBD15B"/>
<path d="M45.479 25.6348H39.5232V26.0576H45.479V25.6348Z" fill="#606BF1"/>
<path d="M36.5232 13.4072H35.9819V13.9488H36.5232V13.4072Z" fill="#F9FBFC"/>
<path d="M36.5237 33.2725H35.9824V32.1685H36.5237V33.2725ZM36.5237 30.5121H35.9824V29.4081H36.5237V30.5121ZM36.5237 27.7512H35.9824V26.6469H36.5237V27.7512ZM36.5237 24.9908H35.9824V23.8865H36.5237V24.9908ZM36.5237 22.2303H35.9824V21.126H36.5237V22.2303ZM36.5237 19.4699H35.9824V18.3656H36.5237V19.4699ZM36.5237 16.7091H35.9824V15.6047H36.5237V16.7091Z" fill="#F9FBFC"/>
<path d="M36.5234 34.929H35.9822V35.4706H36.5234V34.929Z" fill="#F9FBFC"/>
<path d="M105.392 0H76.1343V18.0345H105.392V0Z" fill="#FFBC12"/>
<path d="M87.4981 7.25353L84.0172 8.7392L87.4981 10.203L87.0424 11.2549L82.8677 9.38971V8.09926L87.0424 6.22314L87.4981 7.25353Z" fill="#F9FBFC"/>
<path d="M92.6278 3.81639L90.1012 13.5215L88.8975 13.2396L91.435 3.54541L92.6278 3.81639Z" fill="#F9FBFC"/>
<path d="M98.6692 8.09963V9.39007L94.4941 11.2553L94.0388 10.2034L97.5088 8.73957L94.0388 7.2539L94.4941 6.22388L98.6692 8.09963Z" fill="#F9FBFC"/>
<path d="M121.052 34.938H104.387V46.8102H121.052V34.938Z" fill="#606BF1"/>
<path d="M111.358 37.5011C110.822 37.5011 110.644 37.6457 110.644 38.0456V39.8325C110.644 40.5303 110.355 40.7431 109.869 40.8793C110.355 41.0067 110.644 41.2195 110.644 41.9086V43.6955C110.644 44.0954 110.831 44.24 111.358 44.24V45.0227C110.006 45.0227 109.623 44.5889 109.623 43.6867V41.9934C109.623 41.5083 109.495 41.3214 109.052 41.3214V40.428C109.495 40.428 109.623 40.2324 109.623 39.7473V38.054C109.623 37.1434 110.006 36.718 111.358 36.718V37.5011Z" fill="#F1F2F2"/>
<path d="M115.817 38.0541V39.7474C115.817 40.2325 115.945 40.4281 116.396 40.4281V41.3216C115.945 41.3216 115.817 41.5088 115.817 41.9936V43.6868C115.817 44.5886 115.434 45.0228 114.081 45.0228V44.2401C114.609 44.2401 114.796 44.0955 114.796 43.6956V41.9087C114.796 41.2196 115.085 41.0069 115.57 40.8794C115.085 40.7432 114.796 40.5305 114.796 39.8326V38.0457C114.796 37.6458 114.617 37.5012 114.081 37.5012V36.7185C115.434 36.7181 115.817 37.1436 115.817 38.0541Z" fill="#F1F2F2"/>
<path d="M40.3442 2.58643H21.6489V15.091H40.3442V2.58643Z" fill="#FBD15B"/>
<path d="M27.8366 6.17573C26.9439 7.2928 26.9578 8.92525 27.8672 10.0288C28.9005 11.2829 30.6707 11.4847 31.9425 10.6364L33.9046 12.5984C33.9873 12.6811 34.1217 12.6811 34.2044 12.5984L34.7558 12.0474C34.8385 11.9647 34.8385 11.8303 34.7558 11.7476L32.7937 9.78555C33.5885 8.59381 33.4614 6.96463 32.4106 5.91385C31.1321 4.63542 28.9978 4.72284 27.8366 6.17573ZM31.775 9.618C30.9289 10.4641 29.5525 10.4637 28.7064 9.618C27.8603 8.77191 27.8603 7.39551 28.7064 6.54942C29.5525 5.70333 30.9289 5.70333 31.775 6.54942C32.6207 7.39515 32.6211 8.77191 31.775 9.618Z" fill="#F9FBFC"/>
<path d="M94.7276 41.2107C94.6868 41.6237 94.1223 45.9358 89.6882 45.9358C85.0327 45.9358 85.8125 41.3269 85.8125 41.3269L85.8067 41.2978C86.2605 41.2045 86.7493 41.1695 87.2672 41.2278V39.0454L92.551 36.0894H92.743V41.1812C92.743 41.1812 93.5811 41.0825 94.7276 41.2107Z" fill="url(#paint0_radial_800_21568)"/>
<path d="M92.1616 26.3487C92.9108 27.1084 93.4772 28.0918 93.7496 29.2934C94.2573 31.5319 93.7795 33.9005 93.13 36.0578C93.019 36.4267 92.8929 36.799 92.6649 37.1097C92.5021 37.3311 92.2931 37.5139 92.0855 37.6942C91.1454 38.5126 90.2061 39.3314 89.2682 40.1524C88.6326 40.7089 84.7194 41.1726 83.9724 40.6386C81.0943 38.5808 80.5406 32.6191 81.1169 29.5713C82.0726 24.5148 88.5714 22.7068 92.1616 26.3487Z" fill="url(#paint1_radial_800_21568)"/>
<path d="M90.545 32.8195C90.5832 32.3329 91.0836 31.7996 91.5859 32.1154C92.106 32.4425 91.9836 33.3068 91.768 33.7825C91.599 34.1554 91.0337 34.5637 90.6509 34.217C90.3301 33.9263 90.8287 33.5832 90.8451 33.3181C90.8596 33.0792 90.3818 32.908 90.5774 32.6523" fill="#F7B094"/>
<path d="M90.6372 35.0697C91.1616 35.227 92.05 34.8271 92.2751 34.0964C92.4998 33.3658 92.4758 32.5317 92.4758 32.5317C92.4758 32.5317 92.7398 33.1932 92.604 34.2571C92.4681 35.3213 92.0952 36.335 91.26 36.3481C90.4248 36.3616 90.6372 35.0697 90.6372 35.0697Z" fill="#F7B094"/>
<path d="M89.9937 34.3125C89.9766 34.3208 89.9573 34.327 89.9351 34.3303C89.6102 34.3758 89.4809 33.9828 89.4324 33.7366C89.3199 33.1622 89.3377 32.5809 89.3173 32C89.3126 31.8543 89.3243 31.6729 89.2645 31.536C89.082 31.1182 88.5958 30.8465 88.4476 30.4153C88.2749 29.9134 88.7623 29.4126 88.5689 28.8629C88.2727 28.0212 87.1921 27.8278 86.4105 27.8369C85.2373 27.8508 84.094 28.0682 82.9365 28.2478C81.7145 28.4375 80.1527 28.6175 79.0761 27.8446C77.7784 26.9133 77.2364 24.4857 78.2049 23.1567C78.7326 22.4322 79.7339 22.0465 80.6109 22.0265C81.5408 22.0053 82.3264 22.5593 83.1791 22.8383C83.8584 23.0605 84.5154 22.4107 85.1503 22.2836C85.9483 22.1241 86.2874 22.9953 86.9932 23.0193C87.6791 23.0426 88.3521 22.5069 89.019 22.3849C90.3485 22.1423 90.2701 23.4775 91.1625 23.9335C91.7168 24.2169 92.4333 24.0454 92.9942 24.3335C93.4203 24.5524 93.48 24.937 93.5729 25.3726C93.6531 25.7492 93.6578 26.1841 93.7816 26.5421C93.8931 26.8641 94.1637 27.0673 94.3746 27.3194C94.6048 27.594 94.7516 27.9149 94.8685 28.2594C95.1271 29.0232 95.1846 29.8474 95.114 30.6473C94.9952 31.9902 94.5633 33.3116 94.1149 34.5762C93.8239 35.3968 93.7157 36.2512 93.2681 37.0278C93.1479 37.2365 92.6139 37.8458 92.4154 37.392C92.3728 37.2947 92.3794 37.184 92.387 37.078C92.446 36.2323 93.2335 30.7817 91.169 31.4366C90.7356 31.5739 90.445 31.9344 90.2833 32.346C90.0902 32.8381 90.0764 33.3338 90.1011 33.8539C90.1048 33.9282 90.1066 34.0029 90.1037 34.0772C90.1001 34.1737 90.076 34.2713 89.9937 34.3125Z" fill="#3D3D7A"/>
<path d="M87.2674 40.7288C89.6152 40.3515 91.1642 38.4968 91.1642 38.4968C91.1642 38.4968 90.5309 41.6226 87.1265 41.788L87.2674 40.7288Z" fill="#F7B094"/>
<path d="M91.1213 83.3325H94.482V115.575C94.482 115.903 94.2169 116.168 93.8898 116.168H91.7136C91.3865 116.168 91.1213 115.903 91.1213 115.575V83.3325Z" fill="#0A2033"/>
<path d="M83.5608 83.7937H102.042V84.2982C102.042 85.5682 101.013 86.5979 99.7425 86.5979H85.8605C84.5905 86.5979 83.5608 85.5682 83.5608 84.2982V83.7937Z" fill="#30475E"/>
<path d="M91.1213 112.344H94.482V119.816C94.482 120.143 94.2169 120.408 93.8898 120.408H91.7136C91.3865 120.408 91.1213 120.143 91.1213 119.816V112.344Z" fill="#0A2033"/>
<path d="M75.3625 118.441C75.3625 119.528 76.2432 120.408 77.3294 120.408C78.4155 120.408 79.2962 119.528 79.2962 118.441C79.2962 117.355 78.4155 116.475 77.3294 116.475C76.2432 116.475 75.3625 117.355 75.3625 118.441Z" fill="#0A2033"/>
<path d="M106.307 118.441C106.307 119.528 107.188 120.408 108.274 120.408C109.36 120.408 110.24 119.528 110.24 118.441C110.24 117.355 109.36 116.475 108.274 116.475C107.187 116.475 106.307 117.355 106.307 118.441Z" fill="#0A2033"/>
<path d="M89.4212 115.748H96.1819V109.841H89.4212V115.748Z" fill="#30475E"/>
<path d="M75.3625 117.138H110.241V116.453C110.241 115.296 109.303 114.358 108.146 114.358H77.4576C76.3008 114.358 75.3629 115.296 75.3629 116.453V117.138H75.3625Z" fill="#FBD15B"/>
<path d="M92.8016 87.2605H91.6357V109.314H92.8016V87.2605Z" fill="#30475E"/>
<path d="M106.004 59.9614C105.198 59.9362 104.542 60.6035 104.589 61.4088C104.82 65.4116 103.971 75.1765 100.243 78.5084C95.6842 82.5819 82.7641 82.0271 82.7641 82.0271C82.7641 82.0271 80.6305 84.6459 84.8977 85.2276C89.1654 85.8096 101.192 85.4217 104.101 82.7061C106.918 80.0775 108.59 73.1904 107.33 61.203C107.257 60.5154 106.695 59.9829 106.004 59.9614Z" fill="#FBD15B"/>
<path d="M81.7974 109.314L83.3337 112.817L78.6261 114.883L77.084 111.368L81.7974 109.314Z" fill="url(#paint2_radial_800_21568)"/>
<path d="M103.998 70.3767C103.707 70.9587 82.7894 70.3884 80.8138 70.5687C80.8138 70.5687 68.0113 76.6789 66.1724 82.3994C65.9863 82.9756 65.9338 83.7379 65.9921 84.6455C66.5042 92.6993 75.6753 111.985 75.6753 111.985L77.0834 111.368L81.7972 109.313L82.4663 109.022C82.4663 109.022 75.1924 87.3455 76.6471 86.1818C78.1018 85.0181 94.588 82.1084 100.308 80.5604C106.034 79.007 103.998 70.3767 103.998 70.3767Z" fill="#56548C"/>
<path d="M63.8499 110.215L64.2174 115.478H59.0789L58.7114 110.203L63.8499 110.215Z" fill="url(#paint3_radial_800_21568)"/>
<path d="M80.7095 70.3884L80.5233 70.47C80.5233 70.47 59.0909 73.4785 55.5995 79.49C53.33 83.4007 57.7229 111.975 57.7229 111.975L65.3053 111.992C65.3053 111.992 64.1711 88.1899 64.5496 86.863C64.9743 85.35 65.7016 84.8029 65.9926 84.646C65.9344 83.7383 65.9868 82.9756 66.1729 82.3998C68.0119 76.6793 80.8144 70.5691 80.8144 70.5691C80.7732 70.5399 80.7382 70.4758 80.7095 70.3884Z" fill="#3D3D7A"/>
<path d="M101.41 50.5854L99.9732 50.7832C99.9732 50.7832 99.6239 54.6589 98.7687 58.5346L80.8627 65.3314L80.6183 66.6291C80.5425 66.6233 80.4671 66.6175 80.3972 66.6117C80.403 66.8794 80.403 67.1412 80.4147 67.3856C80.4555 68.8811 80.5542 69.9578 80.7115 70.3883C80.7407 70.4757 80.7756 70.5395 80.8164 70.5686C81.303 70.9652 87.6358 70.1967 94.4825 72.7106C100.42 74.8908 103.748 77.2725 103.902 76.9523C105.768 73.073 102.37 57.8481 101.41 50.5854Z" fill="#FFBC12"/>
<path d="M99.5424 59.4656C99.0653 61.7584 97.8316 66.3206 95.4106 66.9318C92.2506 67.7349 86.1404 67.6941 80.4145 67.3856C80.4028 67.1412 80.4028 66.8793 80.397 66.6116C80.4669 66.6175 80.5423 66.6233 80.6181 66.6291L80.8625 65.3314L98.7684 58.5346C99.624 54.6589 99.9729 50.7832 99.9729 50.7832C99.9729 50.7832 99.9729 50.8065 99.9787 50.8473C100.014 51.4468 100.258 56.0787 99.5424 59.4656Z" fill="#E5AA11"/>
<path d="M81.5938 44.8652C81.2736 45.4473 80.814 51.6737 80.5638 57.8538L76.9033 54.4378C78.4571 51.4293 81.5938 44.8652 81.5938 44.8652Z" fill="#E5AA11"/>
<path d="M79.3999 62.3696C76.3098 62.905 73.47 63.3646 73.47 63.3646L73.4642 63.5158C70.0248 60.7692 64.7935 52.9886 64.7935 52.9886C64.7935 52.9886 66.3589 51.1089 66.7486 50.6143C66.8069 50.5385 75.3377 56.4101 75.7744 56.3577C75.8852 56.346 76.3215 55.5779 76.9035 54.4375L80.564 57.8536C80.5057 59.3258 80.4591 60.7921 80.4299 62.1831C80.0865 62.2472 79.743 62.3055 79.3999 62.3696Z" fill="#F7B094"/>
<path d="M73.4702 63.3647L73.3944 65.9135H64.0837C64.0837 65.9135 65.0089 62.2764 67.5289 62.2764C70.0486 62.2764 71.0204 63.6091 71.0204 63.6091L73.4702 63.3647Z" fill="url(#paint4_radial_800_21568)"/>
<path d="M66.6791 50.5565L66.749 50.6147C66.3589 51.1094 64.7939 52.9891 64.7939 52.9891L63.8221 52.3026C63.8221 52.3026 62.7513 52.9545 61.506 52.2734C60.2083 51.5694 61.0114 49.8881 61.0781 49.6889C60.8264 49.7599 59.2715 51.0165 59.0271 50.8828C58.7827 50.7488 58.6024 50.3066 60.3423 48.59C62.0764 46.8734 64.4391 49.0788 64.509 49.0788L66.6791 50.5565Z" fill="#F7B094"/>
<path d="M61.7082 51.9811C61.7082 51.9811 61.333 52.6837 61.9999 52.9889C62.6668 53.2941 63.9645 53.5145 64.5218 53.4609C65.0791 53.4074 65.5223 52.6272 65.5223 52.6272L63.8342 51.0432H62.4847L61.7082 51.9811Z" fill="#F7B094"/>
<path d="M61.6082 52.3261C61.7084 51.9812 62.6666 52.1651 63.2611 52.1793C63.6989 52.1899 63.9385 52.0752 64.074 51.7415C64.2095 51.4083 63.5739 50.8765 63.4486 51.0433C63.3237 51.2101 63.6781 51.4447 63.6883 51.6662C63.6989 51.8876 63.0629 51.9604 62.5734 51.9604C62.0835 51.9604 61.2385 52.0879 61.2385 52.0879L61.6082 52.3261Z" fill="#E8987C"/>
<path d="M97.8583 61.8402L88.7396 58.6106C88.0764 59.85 87.3662 60.7814 86.6621 60.9675C85.5971 61.2468 83.025 61.7298 80.4295 62.1836C80.086 62.2477 79.7429 62.3056 79.3995 62.3697C76.3094 62.9052 73.4696 63.3648 73.4696 63.3648L73.4637 63.516V63.615L73.3938 65.9136V66.4968C73.3938 66.4968 76.4897 66.3383 80.3945 66.6119C85.859 67.0016 92.906 67.2347 95.2396 66.1347C96.3337 65.6168 97.2064 63.9177 97.8933 61.8227C97.8817 61.8285 97.87 61.8343 97.8583 61.8402Z" fill="url(#paint5_radial_800_21568)"/>
<path d="M88.7396 58.6106L97.8583 61.8402L97.4456 63.0585L88.4202 59.1872L88.7396 58.6106Z" fill="#F7B094"/>
<path d="M88.7396 58.6105C88.0763 59.85 87.3661 60.7813 86.662 60.9674C85.5971 61.2468 83.0249 61.7297 80.4294 62.1835C80.4586 60.7926 80.5052 59.3262 80.5635 57.854C80.8137 51.6739 81.2733 45.4475 81.5935 44.8654C82.1173 43.8937 83.5487 41.7812 85.8065 41.2982L85.8123 41.3274C85.8123 41.3274 85.0325 45.9363 89.688 45.9363C94.1224 45.9363 94.6866 41.6242 94.7274 41.2112C97.0086 41.4672 100.506 42.608 100.989 47.1936C101.088 48.1012 101.227 49.2653 101.408 50.5863L99.9704 50.7841C99.9704 50.7841 99.3884 57.2436 97.8929 61.8233C97.8812 61.8292 97.8696 61.835 97.8579 61.8408L88.7396 58.6105Z" fill="#FFBC12"/>
<path d="M88.6453 57.7698L92.2864 48.9556L89.6039 58.126L88.6453 57.7698Z" fill="#6D4B35"/>
<path d="M94.7279 41.2109H92.7436C92.7436 41.2109 89.9198 44.3116 88.1045 44.3116C86.2892 44.3116 87.2678 41.2284 87.2678 41.2284H86.3824C83.8383 41.2284 81.6974 43.1388 81.4097 45.6669C81.3765 45.9564 81.3467 46.231 81.3208 46.4794C81.1267 48.3552 88.7255 49.7203 88.7255 49.7203L92.638 49.5014L95.0138 44.8656L95.4873 42.9672L94.7279 41.2109Z" fill="#FFBC12"/>
<path d="M70.7826 118.914C70.9592 119.862 71.6163 120.536 72.5647 120.359L85.2036 118.002C85.5234 117.942 85.7343 117.635 85.6746 117.315L85.4655 116.194C85.4655 116.194 72.1732 118.52 70.7764 118.907L70.7826 118.914Z" fill="#F1F2F2"/>
<path d="M74.5429 115.732C74.6748 115.618 74.8015 115.504 74.9334 115.39C75.1869 115.163 75.4364 114.942 75.6764 114.728C75.8031 114.615 75.9299 114.501 76.0475 114.395C76.2784 114.188 76.4959 113.994 76.6908 113.82C76.831 113.694 76.9617 113.574 77.0794 113.468C77.2954 113.274 77.472 113.116 77.5955 113.005C77.7026 112.91 77.8614 112.905 77.9717 112.997C78.4915 113.434 80.1706 114.433 83.2122 112.551C83.3564 112.462 83.5476 112.508 83.6259 112.659L85.4653 116.193C85.4653 116.193 72.1729 118.519 70.7761 118.907C71.2354 118.621 72.9323 117.153 74.5429 115.732Z" fill="#3D3D7A"/>
<path d="M50.8777 118.791C50.9013 119.755 51.4426 120.525 52.4067 120.501L65.2598 120.188C65.585 120.18 65.8422 119.91 65.8341 119.585L65.8065 118.444C65.8065 118.444 52.3131 118.623 50.8726 118.783L50.8777 118.791Z" fill="#F1F2F2"/>
<path d="M55.0967 116.248C55.2453 116.156 55.3884 116.065 55.5367 115.972C55.823 115.789 56.1045 115.61 56.3755 115.438C56.5186 115.346 56.6618 115.254 56.7951 115.168C57.0559 115 57.3013 114.844 57.5213 114.703C57.6798 114.601 57.828 114.504 57.9613 114.418C58.2053 114.261 58.4049 114.133 58.5444 114.043C58.6654 113.966 58.8231 113.986 58.917 114.095C59.3603 114.609 60.8591 115.863 64.1619 114.489C64.3185 114.424 64.4999 114.501 64.5534 114.662L65.806 118.445C65.806 118.445 52.3126 118.624 50.8721 118.783C51.3711 118.573 53.2803 117.394 55.0967 116.248Z" fill="#3D3D7A"/>
<path d="M41.7343 66.4967L34.8701 48.1897H54.4118L61.2763 66.4967H41.7343Z" fill="#ABB5BA"/>
<path d="M62.4839 66.4969H61.2761L54.4116 48.1899L55.509 48.2387L61.8578 64.8095L62.4839 66.4969Z" fill="#8495A0"/>
<path d="M62.1051 66.497H75.018L74.983 65.3428C74.983 65.3428 62.0567 65.3428 61.8411 65.3428" fill="#8495A0"/>
<path d="M117.119 69.9878H114.01V121.064H117.119V69.9878Z" fill="#8495A0"/>
<path d="M100.243 69.988H97.134V121.065H100.243V69.988Z" fill="#ABB5BA"/>
<path d="M46.1779 69.988H43.0688V121.065H46.1779V69.988Z" fill="#8495A0"/>
<path d="M29.3024 69.988H26.1934V121.065H29.3024V69.988Z" fill="#ABB5BA"/>
<path d="M120.23 70.1822H23.215C22.3806 70.1822 21.7039 69.5054 21.7039 68.671V68.0077C21.7039 67.1729 22.3806 66.4966 23.215 66.4966H120.23C121.064 66.4966 121.741 67.1733 121.741 68.0077V68.671C121.741 69.5058 121.064 70.1822 120.23 70.1822Z" fill="#141B56"/>
<path d="M38.1328 50.1138L38.4672 51.005H42.36L42.0256 50.1138H38.1328Z" fill="#8495A0"/>
<path d="M76.9034 54.438L76.624 54.9778L80.5635 59.0494V57.854L76.9034 54.438Z" fill="#E8987C"/>
<path d="M157.314 120.408H0V124H157.314V120.408Z" fill="#A5B7C6"/>
<path d="M132.373 93.7655C131.748 96.7977 131.936 101.963 127.924 102.781C126.844 103.001 125.801 102.252 125.173 101.394C124.351 100.271 124.154 97.8944 124.169 96.5351C124.18 95.4577 124.548 94.2561 124.666 93.1693C124.794 91.9954 124.898 90.819 125.035 89.6458C125.528 85.4179 127.737 81.8743 131.473 79.7637C131.762 81.1514 132.421 82.326 133.002 83.6587C133.267 84.2662 133.506 84.9069 133.678 85.5435C133.984 86.6708 133.614 87.8105 133.34 88.89C132.935 90.4868 132.706 92.1506 132.373 93.7655Z" fill="url(#paint6_linear_800_21568)"/>
<path d="M127.246 102.882C127.274 102.628 127.305 102.374 127.339 102.119C127.818 102.118 128.317 101.846 128.72 101.637C129.418 101.275 129.983 100.757 130.532 100.202C130.561 100.173 130.512 100.125 130.48 100.151C129.934 100.611 129.367 101.055 128.716 101.359C128.353 101.528 127.823 101.804 127.376 101.858C127.418 101.554 127.465 101.251 127.515 100.949C128.014 100.888 128.471 100.56 128.894 100.31C129.612 99.8834 130.23 99.332 130.87 98.8009C130.877 98.7948 130.869 98.7838 130.861 98.7893C129.881 99.5006 128.79 100.513 127.551 100.735C127.617 100.356 127.686 99.9785 127.766 99.603C127.77 99.5833 127.774 99.564 127.779 99.5443C129.213 99.1816 130.183 98.0568 131.281 97.1477C131.298 97.1332 131.28 97.1026 131.261 97.1171C130.179 97.9567 129.163 98.9153 127.827 99.3225C127.943 98.7856 128.063 98.2502 128.184 97.7156C129.482 97.237 130.518 96.4768 131.425 95.418C131.44 95.4002 131.415 95.3754 131.399 95.3925C130.46 96.3694 129.426 96.9307 128.236 97.4865C128.356 96.9573 128.475 96.4277 128.588 95.897C129.149 95.6209 129.739 95.453 130.258 95.0899C130.769 94.7318 131.228 94.305 131.557 93.7721C131.575 93.7441 131.533 93.7175 131.514 93.7444C130.789 94.7879 129.694 95.1128 128.636 95.6617C128.739 95.1671 128.836 94.6706 128.922 94.1717C130.1 93.5226 131.381 92.9209 132.049 91.6771C132.056 91.6647 132.039 91.6527 132.031 91.6647C131.323 92.8076 130.086 93.2997 128.963 93.9218C128.978 93.8329 128.994 93.7444 129.008 93.6552C129.08 93.1923 129.148 92.729 129.214 92.2657C129.892 91.9943 130.537 91.6115 131.147 91.2145C131.58 90.933 132.042 90.6536 132.325 90.2111C132.343 90.1834 132.302 90.1546 132.283 90.1816C131.651 91.0874 130.266 91.6108 129.244 92.0643C129.31 91.5962 129.376 91.1278 129.442 90.6598C130.577 89.9733 131.912 89.5934 132.61 88.3557C132.631 88.319 132.577 88.2851 132.554 88.3211C131.831 89.4513 130.558 89.7999 129.473 90.4413C129.515 90.1514 129.557 89.8614 129.601 89.5719C130.826 89.1213 132.251 88.0957 132.897 86.9877C132.933 86.9269 132.845 86.8701 132.805 86.9287C132.146 87.9008 130.822 88.9571 129.637 89.3417C129.709 88.8722 129.785 88.4035 129.869 87.9354C129.877 87.9227 129.883 87.9088 129.887 87.8939C130.437 87.7318 130.981 87.3439 131.455 87.0511C132.028 86.6978 132.575 86.2873 132.931 85.7067C132.97 85.6426 132.866 85.5833 132.829 85.6492C132.284 86.6206 130.993 87.2718 129.924 87.6426C129.955 87.4721 129.986 87.3013 130.02 87.1309C130.07 86.8759 130.122 86.6213 130.174 86.3667C130.612 86.0644 131.168 85.9194 131.607 85.6004C131.989 85.3228 132.323 84.9885 132.65 84.6498C132.683 84.6162 132.635 84.5642 132.6 84.5966C132.157 85.0136 131.7 85.4135 131.16 85.7027C130.858 85.8645 130.514 85.9566 130.222 86.1336C130.307 85.7173 130.393 85.301 130.474 84.8843C130.479 84.8832 130.484 84.8818 130.49 84.881C130.495 84.8821 130.5 84.8832 130.505 84.8843C130.535 84.8901 130.559 84.8796 130.577 84.8621C131.172 84.712 131.628 84.1992 132.028 83.7625C132.037 83.752 132.023 83.737 132.013 83.7469C131.593 84.1351 131.116 84.5645 130.554 84.7313C130.551 84.731 130.55 84.7295 130.548 84.7292C130.533 84.727 130.519 84.7248 130.505 84.7222C130.57 84.3831 130.632 84.043 130.689 83.7024C130.732 83.6948 130.77 83.658 130.759 83.615C131.075 83.403 131.362 83.1331 131.631 82.8687C131.651 82.849 131.623 82.8177 131.601 82.8363C131.321 83.0774 131.045 83.2763 130.73 83.4507C130.841 82.7471 130.928 82.0397 130.967 81.3251C130.971 81.2588 130.87 81.2581 130.865 81.3233C130.802 82.011 130.703 82.6921 130.584 83.3699C130.256 82.939 129.89 82.4954 129.69 82.0022C129.679 81.9767 129.639 81.9869 129.647 82.0146C129.746 82.3209 129.915 82.5886 130.083 82.8611C130.233 83.1047 130.353 83.3885 130.544 83.6048C130.478 83.9687 130.406 84.3318 130.331 84.6942C129.932 84.6301 129.566 84.5543 129.236 84.2655C128.833 83.9118 128.603 83.4303 128.563 82.8971C128.558 82.8316 128.455 82.8319 128.461 82.8975C128.506 83.3939 128.704 83.8605 129.043 84.2305C129.4 84.6199 129.819 84.7437 130.3 84.8435C130.213 85.262 130.122 85.6802 130.03 86.0979C129.667 85.8805 129.331 85.596 129.004 85.3356C128.476 84.9153 128.165 84.4094 127.707 83.9359C127.661 83.8885 127.587 83.957 127.632 84.0051C128.061 84.4615 128.351 84.9553 128.839 85.3651C129.191 85.6601 129.578 86.0298 129.997 86.248C129.993 86.2702 129.988 86.292 129.983 86.3143C129.979 86.3186 129.973 86.3219 129.969 86.3263C129.937 86.3576 129.941 86.3937 129.96 86.4199C129.872 86.8202 129.784 87.2204 129.7 87.6215C129.694 87.6466 129.69 87.6717 129.685 87.6969C128.751 87.2696 127.357 86.5277 127.234 85.4452C127.222 85.3422 127.068 85.3709 127.092 85.4762C127.368 86.7011 128.714 87.2441 129.642 87.9121C129.551 88.3656 129.467 88.8205 129.39 89.2761C128.787 89.0689 128.214 88.8125 127.708 88.41C127.248 88.044 126.597 87.6025 126.389 87.0358C126.383 87.0179 126.357 87.0296 126.363 87.0471C126.554 87.6105 127.138 87.9981 127.563 88.3823C128.103 88.8704 128.655 89.2845 129.348 89.4797C129.343 89.4998 129.341 89.5205 129.346 89.5406C129.299 89.8298 129.253 90.1189 129.208 90.4085C128.075 90.3215 126.49 89.4608 125.911 88.6038C125.908 88.5998 125.902 88.6041 125.905 88.6081C126.299 89.2619 126.897 89.6444 127.57 89.9762C128.073 90.2238 128.616 90.517 129.185 90.5593C129.104 91.0954 129.025 91.6323 128.945 92.1688C128.453 91.9856 127.932 91.8978 127.446 91.703C126.723 91.4134 126.171 90.8936 125.745 90.2544C125.719 90.2158 125.655 90.2483 125.68 90.2887C126.464 91.5358 127.593 91.9018 128.915 92.3688C128.849 92.8087 128.78 93.2487 128.707 93.6876C127.625 93.4804 126.226 92.82 125.678 91.88C125.638 91.8108 125.528 91.8683 125.568 91.9379C125.915 92.5399 126.51 92.9209 127.118 93.228C127.556 93.449 128.158 93.8155 128.68 93.8548C128.678 93.8694 128.675 93.8836 128.673 93.8981C128.566 94.5301 128.441 95.1587 128.306 95.7855C127.098 95.4818 126.316 94.5862 125.438 93.7484C125.377 93.6902 125.281 93.779 125.342 93.8388C126.237 94.7195 127.023 95.6439 128.267 95.9695C128.155 96.4794 128.036 96.9878 127.913 97.4952C126.884 97.2071 125.865 96.4768 125.199 95.6377C125.152 95.5783 125.069 95.6588 125.114 95.7178C125.806 96.6283 126.804 97.3153 127.866 97.6919C127.732 98.2364 127.594 98.7795 127.454 99.3221C126.397 99.1612 125.582 98.499 124.931 97.6624C124.915 97.6431 124.882 97.6686 124.896 97.6886C125.475 98.4939 126.35 99.4234 127.403 99.521C127.359 99.6944 127.314 99.8674 127.269 100.041C127.242 100.145 127.214 100.251 127.185 100.358C126.388 100.123 125.648 99.8368 124.989 99.2996C124.971 99.2846 124.95 99.313 124.967 99.3287C125.593 99.8918 126.341 100.271 127.142 100.518C127.053 100.844 126.959 101.179 126.867 101.52C126.669 101.428 126.477 101.327 126.261 101.262C125.864 101.143 125.607 100.892 125.262 100.684C125.23 100.665 125.195 100.71 125.226 100.731C125.53 100.929 125.743 101.183 126.089 101.314C126.345 101.41 126.586 101.533 126.833 101.643C126.47 102.998 126.148 104.438 126.323 105.739C126.361 106.027 126.845 106.104 126.92 105.797C127.15 104.853 127.138 103.846 127.246 102.882Z" fill="#747DED"/>
<path d="M119.678 92.8973C120.391 95.9102 122.742 100.513 119.45 102.948C118.564 103.603 117.302 103.365 116.37 102.852C115.151 102.181 113.97 100.109 113.409 98.8706C112.965 97.889 112.791 96.6444 112.439 95.6097C112.06 94.4915 111.657 93.381 111.286 92.2599C109.949 88.2188 110.456 84.0743 112.952 80.584C113.8 81.72 114.894 82.5067 115.983 83.4697C116.479 83.9086 116.966 84.3887 117.391 84.8931C118.144 85.7862 118.29 86.975 118.497 88.0695C118.804 89.6878 119.298 91.2933 119.678 92.8973Z" fill="url(#paint7_linear_800_21568)"/>
<path d="M118.878 103.327C118.796 103.084 118.717 102.84 118.64 102.596C119.074 102.392 119.412 101.935 119.688 101.576C120.168 100.954 120.462 100.245 120.725 99.5107C120.739 99.4717 120.674 99.4491 120.657 99.4863C120.356 100.133 120.029 100.776 119.567 101.326C119.31 101.632 118.946 102.106 118.563 102.344C118.473 102.051 118.387 101.756 118.305 101.461C118.732 101.195 119.008 100.705 119.286 100.299C119.757 99.6097 120.084 98.8489 120.441 98.0971C120.445 98.0887 120.432 98.0822 120.427 98.0906C119.84 99.149 119.278 100.528 118.248 101.251C118.147 100.88 118.051 100.508 117.965 100.135C117.96 100.115 117.956 100.096 117.951 100.076C119.098 99.1417 119.503 97.7129 120.115 96.4253C120.125 96.4046 120.095 96.3849 120.084 96.406C119.458 97.6236 118.942 98.9214 117.902 99.8549C117.78 99.3195 117.664 98.7829 117.548 98.2472C118.522 97.2656 119.141 96.1394 119.516 94.7965C119.522 94.7739 119.489 94.7619 119.482 94.7845C119.043 96.0662 118.343 97.011 117.498 98.0173C117.384 97.4867 117.268 96.9567 117.146 96.4279C117.538 95.9405 118.003 95.5392 118.32 94.9914C118.632 94.4512 118.868 93.8703 118.942 93.2486C118.946 93.2158 118.897 93.2096 118.891 93.242C118.673 94.4946 117.818 95.2511 117.091 96.1951C116.976 95.7031 116.853 95.2125 116.721 94.724C117.515 93.6379 118.423 92.5522 118.503 91.1426C118.504 91.1288 118.483 91.1251 118.481 91.1393C118.322 92.4742 117.409 93.4423 116.653 94.4804C116.629 94.3937 116.606 94.3066 116.582 94.22C116.452 93.7698 116.318 93.3214 116.182 92.8734C116.682 92.3413 117.105 91.7221 117.49 91.1047C117.763 90.6669 118.065 90.2182 118.135 89.6981C118.139 89.6653 118.09 89.6566 118.084 89.6894C117.894 90.7773 116.859 91.8365 116.123 92.6789C115.986 92.2265 115.848 91.7742 115.711 91.3218C116.45 90.2204 117.5 89.3128 117.611 87.8959C117.614 87.8537 117.551 87.846 117.545 87.8883C117.367 89.2181 116.359 90.0714 115.647 91.1106C115.562 90.8301 115.478 90.5493 115.396 90.2681C116.317 89.3426 117.175 87.8111 117.294 86.5341C117.301 86.4638 117.196 86.4496 117.185 86.5195C116.998 87.6789 116.243 89.1951 115.332 90.0441C115.199 89.5881 115.07 89.131 114.948 88.6717C114.95 88.6564 114.95 88.6415 114.947 88.6266C115.377 88.2474 115.707 87.6661 116.013 87.2003C116.383 86.6383 116.706 86.0355 116.783 85.3587C116.792 85.2841 116.672 85.2742 116.667 85.3496C116.583 86.4602 115.687 87.5954 114.874 88.3833C114.831 88.2154 114.787 88.0474 114.745 87.8788C114.683 87.6264 114.623 87.3736 114.563 87.1209C114.832 86.6619 115.275 86.2963 115.538 85.8213C115.768 85.4083 115.929 84.9643 116.083 84.5192C116.098 84.4748 116.033 84.4482 116.015 84.4923C115.789 85.0575 115.544 85.6126 115.176 86.1025C114.971 86.3764 114.698 86.6055 114.507 86.8892C114.409 86.4758 114.311 86.0624 114.209 85.6501C114.213 85.6472 114.217 85.6436 114.221 85.6407C114.227 85.6392 114.232 85.6381 114.237 85.637C114.267 85.6294 114.284 85.6097 114.293 85.5864C114.769 85.1992 114.966 84.5418 115.144 83.9772C115.148 83.9638 115.129 83.9565 115.124 83.9696C114.907 84.4988 114.656 85.0896 114.216 85.4778C114.214 85.4782 114.212 85.4775 114.21 85.4782C114.196 85.4822 114.182 85.4862 114.168 85.4902C114.084 85.1551 113.997 84.8208 113.905 84.4883C113.94 84.4631 113.959 84.414 113.931 84.3793C114.128 84.0541 114.274 83.6884 114.406 83.3351C114.416 83.3085 114.378 83.2925 114.366 83.3184C114.214 83.6553 114.048 83.9518 113.836 84.2428C113.64 83.558 113.419 82.8802 113.153 82.2159C113.129 82.1543 113.038 82.1958 113.06 82.2574C113.294 82.9072 113.49 83.5668 113.67 84.2311C113.19 83.9791 112.671 83.7314 112.281 83.3686C112.261 83.3497 112.229 83.3763 112.248 83.3974C112.466 83.6338 112.733 83.805 113 83.9813C113.238 84.139 113.467 84.3455 113.732 84.4609C113.825 84.8186 113.914 85.1781 113.999 85.5379C113.61 85.6483 113.246 85.7343 112.825 85.6115C112.31 85.4611 111.898 85.1216 111.637 84.6551C111.605 84.5979 111.512 84.6416 111.545 84.6984C111.795 85.1289 112.172 85.4691 112.635 85.6611C113.123 85.8632 113.556 85.7987 114.033 85.6862C114.131 86.1025 114.225 86.5195 114.318 86.9373C113.898 86.8932 113.472 86.7778 113.066 86.6794C112.41 86.5206 111.915 86.1939 111.3 85.9579C111.238 85.9342 111.199 86.0278 111.26 86.0526C111.842 86.285 112.313 86.6106 112.929 86.7759C113.372 86.895 113.879 87.0666 114.351 87.0877C114.356 87.1096 114.361 87.1318 114.366 87.1536C114.364 87.1595 114.361 87.1646 114.358 87.1704C114.343 87.2123 114.361 87.2436 114.389 87.2589C114.478 87.6588 114.567 88.0591 114.66 88.4583C114.666 88.4831 114.673 88.5078 114.679 88.533C113.652 88.5395 112.075 88.4554 111.506 87.5262C111.452 87.4377 111.325 87.5288 111.391 87.614C112.158 88.608 113.608 88.5319 114.731 88.746C114.839 89.1958 114.955 89.6435 115.078 90.0893C114.444 90.1556 113.816 90.165 113.188 90.0139C112.616 89.8762 111.84 89.7509 111.413 89.3244C111.399 89.3109 111.38 89.3328 111.393 89.3463C111.805 89.7761 112.498 89.8809 113.045 90.0499C113.74 90.2648 114.415 90.4076 115.126 90.2918C115.129 90.3122 115.137 90.3315 115.15 90.3479C115.229 90.6302 115.309 90.9117 115.391 91.1929C114.327 91.5921 112.527 91.4814 111.64 90.9485C111.636 90.9459 111.633 90.9521 111.637 90.955C112.271 91.3812 112.974 91.4759 113.724 91.4923C114.284 91.5047 114.901 91.5411 115.434 91.3393C115.587 91.8598 115.742 92.3795 115.896 92.8996C115.373 92.9412 114.864 93.0814 114.34 93.1098C113.562 93.1528 112.842 92.9142 112.186 92.5147C112.146 92.4906 112.102 92.5471 112.142 92.5729C113.38 93.3724 114.557 93.2278 115.953 93.0934C116.079 93.5203 116.202 93.9479 116.322 94.3766C115.253 94.6454 113.706 94.6374 112.813 94.0164C112.747 93.9708 112.672 94.0692 112.738 94.1154C113.306 94.5153 114.007 94.6089 114.687 94.6308C115.177 94.6465 115.879 94.7244 116.368 94.5397C116.372 94.5539 116.376 94.5678 116.38 94.582C116.55 95.2001 116.702 95.8229 116.844 96.4479C115.62 96.6828 114.534 96.2006 113.383 95.8116C113.303 95.7847 113.254 95.9056 113.335 95.934C114.518 96.3547 115.62 96.8609 116.885 96.6311C116.999 97.1407 117.106 97.6513 117.209 98.1634C116.154 98.3368 114.922 98.1048 113.964 97.6251C113.896 97.5908 113.855 97.699 113.921 97.7336C114.932 98.2668 116.127 98.469 117.248 98.3619C117.357 98.9119 117.461 99.4626 117.564 100.014C116.537 100.314 115.519 100.058 114.575 99.574C114.553 99.5627 114.533 99.6003 114.555 99.6126C115.419 100.099 116.605 100.572 117.601 100.216C117.634 100.392 117.666 100.568 117.699 100.744C117.718 100.85 117.738 100.958 117.757 101.067C116.935 101.19 116.143 101.243 115.319 101.034C115.296 101.028 115.289 101.063 115.312 101.07C116.116 101.316 116.955 101.344 117.785 101.23C117.842 101.563 117.898 101.906 117.958 102.255C117.74 102.255 117.524 102.244 117.301 102.277C116.891 102.336 116.552 102.216 116.151 102.174C116.114 102.17 116.101 102.226 116.139 102.231C116.497 102.283 116.798 102.424 117.166 102.396C117.439 102.375 117.71 102.385 117.981 102.38C118.223 103.762 118.539 105.203 119.246 106.308C119.403 106.553 119.874 106.419 119.812 106.109C119.623 105.154 119.187 104.246 118.878 103.327Z" fill="#747DED"/>
<path d="M126.63 90.5621C126.8 94.3901 128.592 100.53 124.027 102.728C122.798 103.32 121.318 102.738 120.305 101.899C118.979 100.8 118.022 98.0082 117.627 96.3729C117.314 95.0766 117.391 93.5236 117.203 92.1839C117.001 90.7365 116.769 89.2935 116.577 87.8446C115.887 82.6224 117.463 77.701 121.306 74.0361C122.073 75.6136 123.22 76.8232 124.322 78.2458C124.824 78.8942 125.305 79.5905 125.705 80.3022C126.413 81.5625 126.315 83.0416 126.313 84.4202C126.311 86.458 126.54 88.5239 126.63 90.5621Z" fill="url(#paint8_linear_800_21568)"/>
<path d="M123.243 103.056C123.2 102.742 123.161 102.427 123.124 102.112C123.699 101.965 124.215 101.487 124.635 101.115C125.362 100.47 125.884 99.6758 126.373 98.8443C126.4 98.7998 126.326 98.7576 126.296 98.7987C125.78 99.5155 125.234 100.221 124.545 100.782C124.161 101.095 123.609 101.587 123.088 101.787C123.047 101.41 123.011 101.033 122.979 100.655C123.56 100.43 124.009 99.8983 124.44 99.4693C125.172 98.7401 125.747 97.8911 126.354 97.0599C126.361 97.0505 126.347 97.0399 126.339 97.0486C125.38 98.1992 124.377 99.745 122.958 100.387C122.922 99.9125 122.891 99.4379 122.872 98.9634C122.871 98.9386 122.871 98.9138 122.869 98.8891C124.48 98.0189 125.303 96.3755 126.345 94.9518C126.362 94.9289 126.33 94.8979 126.311 94.9212C125.269 96.2565 124.34 97.7144 122.86 98.6086C122.836 97.9293 122.818 97.2504 122.802 96.5719C124.213 95.6045 125.226 94.3781 125.993 92.8327C126.006 92.8069 125.969 92.7843 125.954 92.8098C125.124 94.2667 124.054 95.253 122.794 96.2812C122.778 95.6096 122.76 94.9383 122.734 94.2674C123.324 93.7659 123.981 93.3853 124.494 92.7927C124.999 92.2081 125.42 91.5569 125.653 90.8179C125.666 90.7789 125.607 90.7599 125.593 90.7978C125.038 92.27 123.824 92.9915 122.721 93.9709C122.695 93.3463 122.66 92.7213 122.612 92.0967C123.829 90.9603 125.183 89.8501 125.608 88.1554C125.612 88.1386 125.588 88.1295 125.582 88.1463C125.08 89.7321 123.745 90.6977 122.586 91.7845C122.577 91.6734 122.569 91.5623 122.559 91.4512C122.506 90.8743 122.446 90.2978 122.385 89.7215C123.116 89.1905 123.774 88.5356 124.385 87.8746C124.818 87.4054 125.288 86.9301 125.494 86.3135C125.507 86.2749 125.449 86.2527 125.435 86.2909C124.951 87.5693 123.448 88.6176 122.358 89.4713C122.296 88.8897 122.233 88.308 122.171 87.726C123.325 86.5579 124.811 85.6976 125.274 84.0011C125.288 83.9504 125.213 83.9264 125.196 83.9763C124.671 85.5515 123.249 86.3558 122.142 87.4543C122.104 87.0937 122.067 86.7331 122.032 86.3721C123.365 85.4601 124.764 83.7971 125.203 82.2724C125.227 82.1887 125.104 82.1471 125.074 82.2295C124.578 83.5953 123.31 85.2642 122.005 86.0851C121.95 85.4998 121.898 84.9145 121.857 84.3278C121.863 84.3099 121.866 84.2917 121.866 84.2724C122.477 83.9115 123.012 83.281 123.493 82.7853C124.073 82.1879 124.604 81.5294 124.856 80.7249C124.883 80.636 124.74 80.5967 124.716 80.6866C124.357 82.0171 123.005 83.1899 121.834 83.9595C121.82 83.745 121.806 83.5308 121.795 83.3163C121.778 82.9951 121.763 82.6738 121.748 82.3526C122.182 81.8572 122.805 81.5149 123.236 80.9984C123.61 80.5493 123.909 80.047 124.199 79.5415C124.228 79.4912 124.154 79.4435 124.123 79.4927C123.717 80.1275 123.291 80.7456 122.731 81.2563C122.417 81.5418 122.032 81.7567 121.735 82.0579C121.712 81.5323 121.688 81.0071 121.659 80.4823C121.665 80.4797 121.671 80.4761 121.677 80.4735C121.683 80.4732 121.69 80.4728 121.696 80.4724C121.735 80.4703 121.76 80.4502 121.776 80.424C122.445 80.0634 122.836 79.3102 123.183 78.6648C123.192 78.6495 123.17 78.636 123.16 78.6506C122.774 79.2436 122.332 79.9035 121.708 80.2743C121.705 80.2743 121.703 80.2732 121.7 80.2732C121.682 80.275 121.665 80.2765 121.646 80.278C121.622 79.8511 121.593 79.4246 121.558 78.9988C121.607 78.9766 121.641 78.9209 121.616 78.8724C121.93 78.5224 122.193 78.1115 122.435 77.7127C122.453 77.6829 122.41 77.6541 122.389 77.6829C122.127 78.0573 121.856 78.3793 121.531 78.6841C121.451 77.8063 121.34 76.9315 121.17 76.0621C121.155 75.9816 121.034 76.0111 121.047 76.0908C121.181 76.9351 121.267 77.7827 121.331 78.6317C120.806 78.2143 120.233 77.7929 119.843 77.2618C119.822 77.2345 119.777 77.2589 119.796 77.2895C120.006 77.6271 120.291 77.8974 120.574 78.1735C120.828 78.4204 121.059 78.7242 121.353 78.926C121.385 79.3827 121.409 79.8398 121.429 80.2973C120.93 80.3413 120.468 80.3617 119.985 80.1148C119.393 79.8125 118.972 79.3047 118.762 78.6768C118.737 78.5996 118.613 78.6313 118.64 78.7081C118.845 79.2898 119.223 79.7899 119.743 80.1308C120.289 80.4896 120.829 80.5114 121.437 80.4852C121.458 81.014 121.477 81.5429 121.493 82.0721C120.992 81.9213 120.502 81.6824 120.031 81.469C119.271 81.1244 118.743 80.612 118.05 80.1829C117.981 80.1399 117.912 80.2448 117.981 80.2889C118.634 80.7063 119.132 81.2107 119.842 81.5546C120.353 81.8019 120.93 82.1282 121.499 82.263C121.5 82.291 121.501 82.3187 121.502 82.3467C121.498 82.3533 121.493 82.3588 121.489 82.3653C121.46 82.4127 121.475 82.4549 121.506 82.4804C121.521 82.9874 121.537 83.4944 121.558 84.0011C121.559 84.0327 121.561 84.0644 121.562 84.0961C120.313 83.8666 118.415 83.399 117.939 82.1377C117.893 82.0175 117.718 82.0987 117.778 82.2178C118.481 83.604 120.261 83.847 121.576 84.3675C121.604 84.9393 121.641 85.5104 121.687 86.0808C120.901 86.0148 120.136 85.8808 119.407 85.5512C118.744 85.2518 117.829 84.9193 117.408 84.3019C117.395 84.2826 117.367 84.3044 117.38 84.3238C117.781 84.9418 118.599 85.2296 119.225 85.5617C120.02 85.9839 120.808 86.3135 121.699 86.3375C121.698 86.363 121.703 86.3882 121.715 86.4111C121.746 86.7724 121.779 87.1334 121.813 87.4943C120.427 87.7332 118.264 87.1818 117.309 86.3288C117.305 86.3248 117.299 86.3317 117.303 86.3357C117.975 87.0004 118.808 87.2783 119.716 87.4721C120.395 87.6171 121.135 87.8039 121.831 87.6823C121.896 88.3502 121.964 89.0179 122.031 89.6859C121.385 89.6152 120.734 89.6676 120.091 89.5813C119.135 89.4531 118.315 88.9967 117.61 88.359C117.567 88.3204 117.5 88.379 117.543 88.4194C118.862 89.6782 120.327 89.7747 122.055 89.9343C122.109 90.4824 122.16 91.0309 122.206 91.5794C120.845 91.6588 118.965 91.2906 118.024 90.3291C117.955 90.2584 117.84 90.3608 117.909 90.4321C118.507 91.0499 119.338 91.3259 120.16 91.5102C120.752 91.6428 121.586 91.8996 122.224 91.7885C122.225 91.8064 122.227 91.8246 122.228 91.8424C122.292 92.6332 122.333 93.4253 122.361 94.2179C120.818 94.2201 119.609 93.3824 118.301 92.643C118.21 92.5916 118.123 92.7271 118.214 92.7803C119.554 93.5656 120.778 94.4364 122.369 94.4499C122.389 95.0957 122.401 95.7414 122.407 96.3876C121.085 96.3541 119.641 95.787 118.587 94.9817C118.513 94.9245 118.438 95.0465 118.509 95.1037C119.616 95.9862 121.021 96.5085 122.41 96.6378C122.415 97.3316 122.413 98.0251 122.41 98.7186C121.092 98.8461 119.914 98.2987 118.879 97.4923C118.855 97.4733 118.822 97.5145 118.846 97.5341C119.784 98.3249 121.116 99.175 122.409 98.9725C122.408 99.1939 122.407 99.4154 122.406 99.6364C122.405 99.7701 122.403 99.9056 122.401 100.043C121.373 100.002 120.399 99.8838 119.446 99.4383C119.419 99.4259 119.402 99.4667 119.428 99.4802C120.349 99.9661 121.363 100.194 122.397 100.247C122.39 100.665 122.379 101.096 122.371 101.534C122.106 101.483 121.845 101.42 121.566 101.408C121.054 101.385 120.67 101.162 120.193 101.018C120.149 101.004 120.12 101.069 120.164 101.084C120.588 101.23 120.921 101.471 121.375 101.522C121.712 101.56 122.039 101.635 122.369 101.691C122.343 103.427 122.394 105.252 122.998 106.76C123.132 107.094 123.735 107.039 123.732 106.648C123.726 105.449 123.406 104.244 123.243 103.056Z" fill="#747DED"/>
<path d="M129.15 104.49L128.981 107.602L128.717 112.447L128.283 120.408H117.505L117.072 112.447L116.808 107.602L116.639 104.49H129.15Z" fill="#95A8B5"/>
<path d="M128.981 107.602L128.946 108.225L128.912 108.871L128.717 112.447H117.072L116.877 108.871L116.842 108.225L116.808 107.602H128.981Z" fill="#A5B7C6"/>
<path d="M128.947 108.226L128.912 108.871H116.877L116.842 108.226H128.947Z" fill="#95A8B5"/>
<defs>
<radialGradient id="paint0_radial_800_21568" cx="0" cy="0" r="1" gradientUnits="userSpaceOnUse" gradientTransform="translate(90.2454 41.0128) scale(4.70777 4.70778)">
<stop stop-color="#FFC8AF"/>
<stop offset="1" stop-color="#FFBB9C"/>
</radialGradient>
<radialGradient id="paint1_radial_800_21568" cx="0" cy="0" r="1" gradientUnits="userSpaceOnUse" gradientTransform="translate(87.522 32.4915) rotate(-12.1516) scale(7.42202 7.42201)">
<stop stop-color="#FFC8AF"/>
<stop offset="1" stop-color="#FFBB9C"/>
</radialGradient>
<radialGradient id="paint2_radial_800_21568" cx="0" cy="0" r="1" gradientUnits="userSpaceOnUse" gradientTransform="translate(80.2089 112.098) scale(2.95965 2.95964)">
<stop stop-color="#FFC8AF"/>
<stop offset="1" stop-color="#FFBB9C"/>
</radialGradient>
<radialGradient id="paint3_radial_800_21568" cx="0" cy="0" r="1" gradientUnits="userSpaceOnUse" gradientTransform="translate(61.4644 112.84) scale(2.6958 2.6958)">
<stop stop-color="#FFC8AF"/>
<stop offset="1" stop-color="#FFBB9C"/>
</radialGradient>
<radialGradient id="paint4_radial_800_21568" cx="0" cy="0" r="1" gradientUnits="userSpaceOnUse" gradientTransform="translate(77.8771 62.2539) scale(15.095 15.095)">
<stop stop-color="#FFC8AF"/>
<stop offset="1" stop-color="#FFBB9C"/>
</radialGradient>
<radialGradient id="paint5_radial_800_21568" cx="0" cy="0" r="1" gradientUnits="userSpaceOnUse" gradientTransform="translate(77.8769 62.2541) scale(15.0949 15.0949)">
<stop stop-color="#FFC8AF"/>
<stop offset="1" stop-color="#FFBB9C"/>
</radialGradient>
<linearGradient id="paint6_linear_800_21568" x1="128.98" y1="79.764" x2="128.981" y2="102.82" gradientUnits="userSpaceOnUse">
<stop stop-color="#606BF1"/>
<stop offset="1" stop-color="#58479F"/>
</linearGradient>
<linearGradient id="paint7_linear_800_21568" x1="110.693" y1="81.636" x2="120.425" y2="102.537" gradientUnits="userSpaceOnUse">
<stop stop-color="#606BF1"/>
<stop offset="1" stop-color="#58479F"/>
</linearGradient>
<linearGradient id="paint8_linear_800_21568" x1="118.315" y1="74.7911" x2="125.306" y2="102.454" gradientUnits="userSpaceOnUse">
<stop stop-color="#606BF1"/>
<stop offset="1" stop-color="#58479F"/>
</linearGradient>
</defs>
</svg>
