<svg width="173" height="105" viewBox="0 0 173 105" fill="none" xmlns="http://www.w3.org/2000/svg">
<path d="M18.6599 100.725C18.6599 100.725 -4.91454 93.6821 0.931888 73.6386C6.77831 53.595 26.2408 55.8845 34.6903 47.7443C43.1398 39.604 44.4974 15.1214 63.1684 3.99411C81.8394 -7.13288 99.8364 8.14325 105.925 11.7265C112.014 15.3098 136.72 0.22212 151.808 11.7265C166.896 23.2307 152.751 44.1531 151.054 58.6809C149.356 73.2085 166.896 74.2967 171.234 83.7482C175.571 93.1999 164.255 100.725 164.255 100.725L18.6599 100.725Z" fill="white"/>
<path d="M109.064 19.0725H65.6135V52.2767H109.064V19.0725Z" fill="#E1ECF8"/>
<path d="M107.999 20.1995H66.7314V51.1495H107.999V20.1995Z" fill="white"/>
<path d="M102.598 22.1069H72.1318V24.4871H102.598V22.1069Z" fill="#E1ECF8"/>
<path d="M73.3343 41.2991H70.9631V47.2525H73.3343V41.2991Z" fill="#E1ECF8"/>
<path d="M78.6781 36.073H76.3066V47.2527H78.6781V36.073Z" fill="#E1ECF8"/>
<path d="M84.0219 37.2292H81.6504V47.2528H84.0219V37.2292Z" fill="#E1ECF8"/>
<path d="M89.3656 31.5698H86.9941V47.2527H89.3656V31.5698Z" fill="#E1ECF8"/>
<path d="M98.5805 48.8916H69.3972V27.3164H69.7209V48.5677H98.5805V48.8916Z" fill="#CFD2E2"/>
<path d="M72.013 38.0757L71.7966 37.8345L77.3485 32.8494L82.4908 33.9667L88.0592 27.7676L88.3 27.984L82.6059 34.3229L77.4416 33.201L72.013 38.0757Z" fill="#CFD2E2"/>
<path d="M88.7362 28.8994L87.166 27.3938L89.1929 26.8513L88.7362 28.8994Z" fill="#CFD2E2"/>
<path d="M105.17 27.6589H94.3281V28.0839H105.17V27.6589Z" fill="#EFEFEF"/>
<path d="M105.171 28.6873H92.8645V29.1122H105.171V28.6873Z" fill="#EFEFEF"/>
<path d="M105.171 29.7161H92.8645V30.141H105.171V29.7161Z" fill="#EFEFEF"/>
<path d="M105.171 30.7449H92.8645V31.1698H105.171V30.7449Z" fill="#EFEFEF"/>
<path d="M105.171 31.7737H92.8645V32.1986H105.171V31.7737Z" fill="#EFEFEF"/>
<path d="M105.171 32.8025H92.8645V33.2274H105.171V32.8025Z" fill="#EFEFEF"/>
<path d="M105.171 33.8313H92.8645V34.2562H105.171V33.8313Z" fill="#EFEFEF"/>
<path d="M105.171 34.8604H92.8645V35.2853H105.171V34.8604Z" fill="#EFEFEF"/>
<path d="M105.171 35.8887H92.8645V36.3136H105.171V35.8887Z" fill="#EFEFEF"/>
<path d="M105.171 36.9175H92.8645V37.3421H105.171V36.9175Z" fill="#EFEFEF"/>
<path d="M105.171 37.9463H92.8645V38.3712H105.171V37.9463Z" fill="#EFEFEF"/>
<path d="M105.171 38.9751H92.8645V39.4H105.171V38.9751Z" fill="#EFEFEF"/>
<path d="M105.171 40.0039H92.8645V40.4288H105.171V40.0039Z" fill="#EFEFEF"/>
<path d="M105.171 41.0322H92.8645V41.4572H105.171V41.0322Z" fill="#EFEFEF"/>
<path d="M105.171 42.061H92.8645V42.486H105.171V42.061Z" fill="#EFEFEF"/>
<path d="M105.171 43.0898H92.8645V43.5148H105.171V43.0898Z" fill="#EFEFEF"/>
<path d="M105.171 44.1189H92.8645V44.5438H105.171V44.1189Z" fill="#EFEFEF"/>
<path d="M105.171 45.1477H92.8645V45.5724H105.171V45.1477Z" fill="#EFEFEF"/>
<path d="M105.171 46.1765H99.7495V46.6012H105.171V46.1765Z" fill="#EFEFEF"/>
<path d="M69.8539 100.13C69.9155 100.635 69.9693 101.096 70.0203 101.512H63.9331C60.5485 100.656 55.9188 99.9371 50.2904 100.171C47.1152 100.302 44.2998 100.817 41.8681 101.512H31.9292C32.1573 100.082 32.399 98.4499 32.6271 96.7054C33.2176 92.1023 33.6979 86.6968 33.5182 82.1235C33.1022 71.7555 29.2803 67.2061 30.005 65.0402C30.5363 63.4512 38.6016 60.1177 42.9093 58.4375C44.4956 57.8204 45.5719 57.4256 45.5719 57.4256L55.0141 57.1492C55.0141 57.1492 55.5618 57.3452 56.4499 57.6778L56.5224 57.7047C59.7269 58.9097 67.1053 61.8408 69.2712 64.004C72.0625 66.7953 68.3372 69.2754 67.9293 75.5774C67.6985 79.0181 68.4338 87.1318 69.1452 93.7746C69.3975 96.1819 69.6497 98.4016 69.8539 100.13Z" fill="#285FAF"/>
<path d="M63.896 96.4221C66.207 98.3961 68.5659 99.5755 69.8538 100.129C69.6493 98.402 69.3965 96.1815 69.1437 93.7742C67.7356 93.046 66.3756 92.3601 66.3756 92.3601C66.3756 92.3601 60.4719 93.4913 63.896 96.4221Z" fill="#9B4B38"/>
<path d="M31.9297 101.513C33.0424 101.513 35.8885 98.7168 35.8885 98.7168L37.8331 96.8376L37.3398 95.2188L32.6278 96.7051C32.3991 98.4504 32.1583 100.081 31.9297 101.513Z" fill="#9B4B38"/>
<path d="M68.8096 101.512H34.2725C34.8549 100.218 35.5904 98.5675 36.5163 96.4608C40.5262 87.346 41.2134 72.917 41.1113 68.1879C40.9772 61.8351 42.8558 58.4612 42.8558 58.4612L42.9096 58.437L50.3308 55.2485L56.4501 57.6776L56.5226 57.7045L56.6299 57.7474C56.6299 57.7474 57.8781 61.6687 59.9848 69.1918C62.0918 76.7121 62.7924 89.2516 64.0968 92.9125C64.9341 95.2636 67.2557 99.0829 68.8096 101.512Z" fill="#C4DBF7"/>
<path d="M52.7303 81.2275H47.3343C47.1777 81.2275 47.0463 81.1091 47.0302 80.9533L45.8415 69.4654C45.8228 69.2851 45.9642 69.1282 46.1456 69.1282H53.9193C54.1007 69.1282 54.2422 69.2851 54.2234 69.4654L53.0347 80.9533C53.0181 81.1088 52.887 81.2275 52.7303 81.2275Z" fill="#E8505C"/>
<path d="M52.5017 81.1173H47.5624C47.4191 81.1173 47.2988 81.0033 47.2841 80.8531L46.1959 69.7889C46.1787 69.6151 46.3083 69.4641 46.4742 69.4641H53.5897C53.7556 69.4641 53.8851 69.6151 53.868 69.7889L52.7797 80.8531C52.7653 81.0033 52.6451 81.1173 52.5017 81.1173Z" fill="#D33D4F"/>
<path d="M59.4127 79.1176C59.4127 79.1176 57.1623 74.9103 55.7143 74.1862C54.2662 73.462 53.806 73.5006 53.806 73.5006L53.6955 74.5688C53.6955 74.5688 52.257 74.9193 50.059 74.8126C48.886 74.7556 47.7904 74.4542 47.7904 74.4542C47.7904 74.4542 47.0666 74.1254 46.5773 74.1843C46.088 74.2429 45.3223 74.7702 47.2401 75.7879C47.2401 75.7879 48.9827 76.3394 49.785 76.5349C50.5874 76.7306 52.4661 76.7502 52.4661 76.7502C52.4661 76.7502 51.2863 78.8738 51.3908 79.8393C52.6132 80.2691 55.1484 80.0503 56.1398 81.5377" fill="#FBAB99"/>
<path d="M52.8247 76.1452C52.8247 76.1452 50.806 76.2823 50.0022 76.1452C49.1985 76.0081 47.813 75.5839 47.1618 75.437C46.5107 75.2899 46.6525 75.2516 46.2319 75.2481C45.7698 75.2443 44.877 76.1243 46.7676 76.7966C46.7676 76.7966 48.9311 77.5107 49.7503 77.6999C50.5695 77.8889 52.9852 78.0149 52.9852 78.0149" fill="#FBAB99"/>
<path d="M53.4342 77.6747C53.4342 77.6747 51.4154 77.8118 50.6117 77.6747C49.808 77.5376 48.581 77.2226 47.9299 77.0755C47.2788 76.9283 46.9044 76.6666 46.4843 76.6875C46.0643 76.7084 45.4865 77.6538 47.3771 78.3258C47.3771 78.3258 49.5406 79.0399 50.3597 79.2292C51.1789 79.4182 53.5947 79.5441 53.5947 79.5441" fill="#FBAB99"/>
<path d="M52.3751 78.8513C52.3751 78.8513 51.0004 78.9659 50.4514 78.8809C49.9021 78.7959 48.917 78.6088 48.4717 78.5154C48.0264 78.422 47.8179 78.2618 47.5317 78.2806C47.2455 78.2993 47.2757 78.8589 48.5711 79.2971C48.5711 79.2971 49.7354 79.8225 50.2958 79.9428C50.8562 80.0631 52.923 80.1364 52.923 80.1364" fill="#FBAB99"/>
<path d="M46.8772 78.115C46.8772 78.115 46.9608 78.1535 47.1121 78.2089C47.263 78.2646 47.4816 78.3371 47.7447 78.4194C48.2698 78.5883 48.9791 78.7846 49.6864 78.9893C50.0415 79.0851 50.3918 79.2019 50.7279 79.2456C51.0701 79.2853 51.3894 79.3222 51.6631 79.354C51.9378 79.3795 52.1667 79.4006 52.3269 79.4153C52.4877 79.4251 52.5797 79.4308 52.5797 79.4308C52.5797 79.4308 52.2107 79.4558 51.6576 79.4246C51.3812 79.4118 51.0589 79.386 50.7152 79.3453C50.3646 79.3032 50.01 79.1924 49.6573 79.0889C48.9508 78.8815 48.2454 78.6654 47.7262 78.4729C47.4667 78.377 47.2535 78.2882 47.1058 78.2236C46.9584 78.1587 46.8772 78.115 46.8772 78.115Z" fill="#CE736B"/>
<path d="M46.2842 76.5916C46.2842 76.5916 46.6765 76.7222 47.2652 76.9182C47.5603 77.0127 47.9046 77.1227 48.2736 77.2405C48.6429 77.3559 49.039 77.4732 49.439 77.5709C49.5376 77.594 49.6418 77.6223 49.7355 77.6396C49.8373 77.6543 49.9386 77.6692 50.0391 77.6839C50.2405 77.7113 50.439 77.7382 50.6307 77.7643C51.0149 77.8137 51.3736 77.8598 51.681 77.8995C52.2962 77.9761 52.7081 78.0151 52.7081 78.0151C52.7081 78.0151 52.2941 78.0078 51.6747 77.9603C51.3655 77.9337 51.0043 77.9041 50.6188 77.8579C50.4263 77.834 50.2272 77.8096 50.0249 77.7846C49.9239 77.7713 49.8221 77.7577 49.7198 77.7439C49.6109 77.7252 49.515 77.6996 49.4121 77.6766C48.6076 77.4683 47.8253 77.1943 47.2443 76.9758C46.6646 76.755 46.2842 76.5916 46.2842 76.5916Z" fill="#CE736B"/>
<path d="M46.2842 75.1411C46.2842 75.1411 46.3635 75.2139 46.5152 75.3241C46.6662 75.4346 46.8929 75.5793 47.1829 75.7113C47.3285 75.7778 47.4908 75.8272 47.6698 75.8775C47.8462 75.931 48.0325 75.9872 48.2253 76.0453C48.6095 76.1639 49.0214 76.2842 49.4328 76.3999C49.6402 76.4556 49.8428 76.5088 50.0524 76.5308C50.2617 76.5541 50.4678 76.5772 50.6671 76.5995C51.067 76.6424 51.4404 76.6825 51.7602 76.717C52.4002 76.7893 52.8268 76.837 52.8268 76.837C52.8268 76.837 52.3983 76.8115 51.7554 76.773C51.4344 76.7482 51.0597 76.7195 50.6584 76.6885C50.4578 76.6687 50.2503 76.6481 50.0396 76.6272C49.8281 76.6071 49.613 76.5544 49.4056 76.5014C48.988 76.3942 48.5804 76.2582 48.1962 76.1376C48.0051 76.0754 47.8199 76.0151 47.6448 75.9581C47.4705 75.9022 47.3008 75.8433 47.1558 75.77C46.8625 75.6271 46.648 75.4593 46.5033 75.3401C46.3583 75.219 46.2842 75.1411 46.2842 75.1411Z" fill="#CE736B"/>
<path d="M69.9547 64.8955C69.9547 64.8955 74.2817 72.437 77.124 88.4933C79.6646 102.845 69.548 100.786 65.0847 95.6411C61.8517 91.9145 59.9885 88.5481 58.4302 86.0919C56.0851 82.3949 55.261 81.025 55.261 81.025L59.0411 77.9538L67.4105 86.6333C67.4105 86.6333 64.9307 78.7804 65.9639 73.0974" fill="#285FAF"/>
<path d="M59.041 77.9531C59.041 77.9531 59.7744 78.5909 60.8222 79.5969C61.3481 80.0979 61.9528 80.6906 62.5923 81.3333C62.9102 81.6564 63.2445 81.9852 63.5735 82.3287C63.9043 82.6711 64.2399 83.0189 64.5757 83.3665C64.907 83.7186 65.2382 84.0705 65.5643 84.417C65.8926 84.7616 66.2038 85.1115 66.5114 85.4442C67.1229 86.1132 67.6852 86.7453 68.1598 87.2943C69.1131 88.388 69.7135 89.1502 69.7135 89.1502C69.7135 89.1502 68.9796 88.5126 67.932 87.5069C67.4061 87.006 66.8011 86.4135 66.162 85.7703C65.8443 85.4469 65.5095 85.1189 65.1809 84.7746C64.8505 84.4322 64.5146 84.0844 64.179 83.7366C63.8478 83.3844 63.5165 83.0325 63.1907 82.6858C62.8632 82.3407 62.5513 81.9912 62.2439 81.6583C61.6327 80.989 61.0701 80.3569 60.5955 79.8082C59.6419 78.715 59.041 77.9531 59.041 77.9531Z" fill="#17467F"/>
<path d="M49.2628 96.0035C49.2628 96.0035 50.3546 96.2262 51.4505 96.2775C52.546 96.3288 53.0071 95.9522 54.1138 95.7638C55.2205 95.5753 58.9279 96.9055 59.5733 97.3448C60.219 97.7842 55.9583 98.6973 53.7079 98.7972C51.4578 98.8971 48.8938 98.2325 48.8938 98.2325" fill="#FBAB99"/>
<path d="M30.3183 64.575C26.3228 68.9492 23.1547 79.3208 21.4248 89.8656C20.3118 96.6496 22.5611 99.5593 26.978 99.7803C31.9295 100.028 49.6246 99.7803 49.6246 99.7803C50.4921 96.8321 49.8986 95.7819 49.8986 95.7819L31.1687 91.8575C31.1687 91.8575 34.9683 79.33 35.1511 74.5507" fill="#285FAF"/>
<path d="M35.462 73.8176C35.462 73.8176 35.4346 74.1073 35.3686 74.6113C35.298 75.1144 35.209 75.8359 35.0692 76.6955C34.932 77.5557 34.7591 78.557 34.5492 79.6252C34.3458 80.6947 34.0957 81.8289 33.8419 82.9622C33.572 84.092 33.2964 85.2205 33.0045 86.2702C32.7175 87.321 32.4224 88.2947 32.1544 89.1242C32.0191 89.5388 31.8875 89.9162 31.7704 90.2504C31.6558 90.5855 31.5423 90.8733 31.456 91.1122C31.2776 91.5885 31.1685 91.8579 31.1685 91.8579C31.1685 91.8579 31.2317 91.5736 31.355 91.081C31.4158 90.8345 31.4978 90.5377 31.5766 90.1929C31.6564 89.8483 31.7471 89.4603 31.8543 89.0394C32.0552 88.1945 32.2898 87.2086 32.541 86.1523C32.7875 85.0953 33.0504 83.9677 33.3132 82.84C33.5752 81.7119 33.837 80.5837 34.0827 79.5258C34.3322 78.4683 34.5652 77.481 34.7648 76.6349C34.9719 75.7897 35.1444 75.0851 35.2652 74.592C35.3876 74.0989 35.462 73.8176 35.462 73.8176Z" fill="#17467F"/>
<path d="M64.9871 75.9614L67.601 86.5747L67.0713 86.6928L64.9871 75.9614Z" fill="#17467F"/>
<path d="M49.417 60.2653C47.6857 60.3614 45.1171 59.4125 44.5198 57.7497C44.5198 57.7497 45.1828 57.0766 45.4131 55.9984C45.9396 53.5992 46.1142 49.0107 45.2157 43.5518L54.2406 49.2893C54.2406 49.2893 54.1901 49.7677 54.1444 50.4837C54.1192 50.8886 54.0964 51.3645 54.0836 51.8783C54.0684 52.4501 54.0684 53.0651 54.0937 53.67C54.1165 54.209 54.1621 54.7407 54.2406 55.2215C54.3823 56.13 54.6378 56.8667 55.0657 57.1602C55.0657 57.1602 55.4608 59.9235 49.417 60.2653Z" fill="#FBAB99"/>
<path d="M54.2413 55.2211C50.3936 53.5086 48.4104 50.1189 48.4104 50.1189L54.0847 51.8778C54.0695 52.4496 54.0695 53.0646 54.0947 53.6696C54.1175 54.2088 54.1629 54.7402 54.2413 55.2211Z" fill="#EF998B"/>
<path d="M61.0626 39.0006C61.0626 39.0006 62.3059 51.9378 57.5841 54.8013C55.4573 56.091 48.5047 50.2025 48.5047 50.2025C48.5047 50.2025 43.951 46.2706 44.7313 41.7126C46.2054 33.1047 59.7308 30.4341 61.0626 39.0006Z" fill="#FBAB99"/>
<path d="M65.7525 35.8894C64.8925 35.1693 63.8724 35.153 63.2382 35.2505C63.3302 34.4161 63.0302 33.576 62.0486 33.1337C61.0899 32.7017 60.3087 32.9613 59.8316 33.2417C59.616 32.7419 59.2093 32.2463 58.4577 31.9433C56.462 31.1385 55.578 32.5266 55.578 32.5266C55.578 32.5266 54.3005 30.1849 51.2749 30.9278C48.5868 31.5876 48.7427 34.147 48.7427 34.147C48.7427 34.147 46.6427 33.0881 44.751 35.027C43.0342 36.7867 44.0858 38.6754 44.0858 38.6754C44.0858 38.6754 42.326 38.6111 41.941 40.4137C41.578 42.1135 43.24 43.1159 43.24 43.1159C42.959 43.786 42.6614 44.647 42.8303 45.9751C43.0445 47.6599 44.9549 48.8804 44.9549 48.8804C44.372 49.9073 45.148 50.9407 45.7831 51.103C46.4179 51.2654 44.9872 44.0407 48.0131 44.1268C49.8119 44.1779 50.3775 47.2922 50.6675 47.0025C50.9572 46.7128 50.3525 42.9356 50.9319 42.3239C51.5114 41.7124 52.3268 41.0255 53.7433 40.9611C55.1598 40.8968 55.3849 39.6413 55.3849 39.6413C55.3849 39.6413 56.6404 40.8324 57.7993 40.4781C58.9582 40.124 58.9581 39.0618 58.9581 39.0618C58.9581 39.0618 59.6283 39.5174 60.4241 39.7474L60.4238 39.7482C65.5591 41.7437 67.4742 37.3311 65.7525 35.8894Z" fill="#092342"/>
<path d="M47.3578 45.5464C47.6559 45.4305 47.9543 45.5263 48.1378 45.7694C48.3396 46.0365 48.2948 46.2231 48.2486 46.5261C48.2155 46.7439 48.1313 46.9171 48.2492 47.1286C48.443 47.4762 49.3985 47.8685 48.8514 48.3939C48.7165 48.5234 48.9171 48.7195 49.0551 48.5975C49.2576 48.4183 49.3051 48.1438 49.259 47.8815C49.228 47.7064 49.1373 47.5364 49.0246 47.4007C48.9798 47.3466 48.9168 47.3056 48.8748 47.2524C48.6565 46.9776 48.5755 46.7705 48.5853 46.4218C48.6065 45.6654 48.1126 44.9355 47.2769 45.3539C47.1715 45.4066 47.2456 45.5902 47.3578 45.5464Z" fill="#DD8573"/>
<path d="M45.6003 34.9283C45.6003 34.9283 45.6096 34.8439 45.6587 34.7051C45.6826 34.6356 45.7174 34.5531 45.7662 34.4632C45.8143 34.3725 45.8765 34.2748 45.9547 34.1751C46.0293 34.0725 46.1293 33.9763 46.2371 33.88C46.3544 33.7928 46.4842 33.7105 46.6289 33.6473C46.7682 33.5745 46.921 33.5248 47.0666 33.4539C47.1391 33.4173 47.2189 33.3977 47.2946 33.3654C47.3715 33.3364 47.4459 33.2937 47.5268 33.275C47.6865 33.2356 47.8475 33.1642 48.0128 33.1604C48.1766 33.1512 48.3408 33.1202 48.4967 33.136C48.6528 33.1458 48.8062 33.1504 48.9469 33.1783C49.0867 33.2098 49.2173 33.2457 49.3373 33.2783C49.4581 33.3089 49.5638 33.3516 49.655 33.3961C49.7468 33.4387 49.8274 33.4724 49.8918 33.5058C50.021 33.5701 50.0921 33.6114 50.0921 33.6114L50.0829 33.6369C50.0829 33.6369 49.9993 33.6293 49.8578 33.6087C49.7867 33.5997 49.7031 33.5816 49.6064 33.565C49.51 33.5473 49.403 33.5234 49.2833 33.5142C49.1649 33.4985 49.0375 33.4819 48.9042 33.458C48.7698 33.4436 48.6284 33.4368 48.4823 33.4167C48.3359 33.3877 48.1852 33.4072 48.0305 33.3996C47.9525 33.395 47.8749 33.3975 47.7972 33.4064L47.5596 33.4197C47.4033 33.4404 47.2441 33.4727 47.0983 33.5302C46.9558 33.5965 46.8168 33.6663 46.7071 33.7705C46.5862 33.8577 46.4956 33.9712 46.3951 34.0578C46.3044 34.1553 46.2045 34.234 46.1304 34.3244C46.0475 34.4073 45.9797 34.4906 45.9167 34.5637C45.8558 34.6391 45.8029 34.7048 45.7592 34.7589C45.6723 34.8697 45.6259 34.9381 45.6259 34.9381L45.6003 34.9283Z" fill="#092342"/>
<path d="M116.4 60.81C116.4 60.81 113.584 60.3978 114.093 57.5807C114.303 56.4186 115.395 56.0692 114.303 54.1691C113.972 53.5937 114.695 52.5109 114.413 51.7799C114.084 50.9249 113.779 50.8918 114.742 48.8434C115.018 48.2553 113.894 47.4179 114.629 46.6058C115.365 45.7937 115.952 46.2061 116.112 45.6965C116.404 44.7649 115.402 44.4781 116.112 43.6915C116.823 42.9047 116.95 43.1841 117.305 42.0165C117.66 40.849 117.54 39.5115 118.417 38.1547C119.426 36.5939 118.252 36.4175 119.546 35.2499C120.84 34.0824 121.606 34.2303 122.605 32.8904C123.5 31.6889 125.155 31.1537 126.822 32.22C126.94 32.2957 127.055 32.3522 127.157 32.4087C127.69 32.7074 128.325 32.7535 128.893 32.5274C129.301 32.3647 129.832 32.2382 130.375 32.3468C131.517 32.5751 130.883 33.3873 132.025 33.9203C133.415 34.5689 134.241 33.6387 134.64 36.2999C134.696 36.6705 134.903 36.9942 135.151 37.2744C135.789 37.9915 136.542 38.2426 136.619 39.7501C136.697 41.297 135.781 41.1789 136.161 42.2449C136.542 43.3109 137.151 43.7068 137.481 45.057C137.811 46.4073 136.948 46.0519 137.024 47.3207C137.1 48.5898 137.76 48.6151 137.05 49.478C136.339 50.3409 136.111 50.5692 136.364 51.3306C136.618 52.0919 137.227 52.7009 137.176 53.437C137.126 54.1729 136.718 54.0716 137.556 55.3152C138.212 56.2875 138.426 58.0573 137.46 59.827C137.063 60.5534 138.177 62.3503 137.853 63.4391" fill="#092342"/>
<path d="M136.015 59.6459C134.362 61.3899 129.888 63.6172 124.97 64.2032C123.587 64.3683 122.156 64.2246 120.836 63.782C119.517 63.3419 118.295 62.3609 117.946 61.0141C117.673 59.9639 117.958 58.8515 118.343 57.8395C118.417 57.6432 121.443 57.5213 121.747 57.3277C122.29 56.9831 122.831 55.2535 123.061 54.6627C123.123 54.5025 123.185 54.3398 123.247 54.1748C123.388 53.8014 123.527 53.4139 123.656 53.017C124.333 50.9572 124.797 48.6199 124.092 46.6704L131.283 49.5819C129.661 52.7661 128.821 56.5411 129.659 57.7993C130.493 59.0597 136.608 59.4401 136.015 59.6459Z" fill="#FFC5BB"/>
<path d="M129.972 50.6798C131.087 50.2603 131.945 49.3145 132.471 48.2284C132.998 47.1421 133.222 45.9194 133.348 44.6997C133.541 42.8118 133.467 40.7488 132.371 39.162C131.578 38.0124 130.332 37.2546 129.043 36.7892C127.716 36.3097 126.273 36.1063 124.932 36.4308C124.778 36.468 124.627 36.5125 124.478 36.5644C122.213 37.3515 121.259 39.7722 120.445 41.8876C119.566 44.1719 118.998 46.592 118.765 49.0599C118.664 50.137 118.665 51.3455 119.37 52.187C120.163 53.1335 121.532 53.2446 122.717 53.1338C125.119 52.9095 127.402 52.0938 129.659 51.2847" fill="#FFC5BB"/>
<path d="M127.066 35.4822C127.066 35.4822 125.995 37.7323 128.083 39.0009C128.73 39.394 129.938 41.4144 129.867 42.5057C129.795 43.5969 129.597 43.7322 129.643 44.3583C129.758 45.9326 131.21 47.7599 133.431 47.3285C133.808 47.2552 133.898 44.0173 133.898 43.8649C133.898 43.7126 133.923 41.3512 133.898 40.9452C133.872 40.5393 133.224 37.9539 132.539 37.4209C131.854 36.8879 130.126 36.3296 130.025 36.1773C129.923 36.025 127.446 34.4336 127.446 34.4336" fill="#092342"/>
<path d="M129.976 47.3926C130.221 46.9951 130.666 46.407 131.123 46.3258C132.045 46.1621 132.426 46.7467 132.669 47.1654C133.006 47.7472 132.66 48.7136 132.259 49.2205C131.813 49.7856 131.033 50.3826 130.328 50.5222C129.623 50.6618 128.48 50.5094 128.829 49.5045" fill="#FFC5BB"/>
<path d="M131.855 47.2791C131.248 46.7135 130.472 47.2345 130.438 47.9782C130.43 48.1596 130.404 48.3586 130.232 48.477C130.166 48.5224 130.04 48.5308 129.963 48.5693C129.796 48.6532 129.647 48.7838 129.551 48.9446C129.411 49.1767 129.361 49.4743 129.516 49.7081C129.617 49.8615 129.861 49.7233 129.765 49.5628C129.393 48.9427 130.446 48.8753 130.658 48.5316C130.749 48.3823 130.726 48.2134 130.735 48.0467C130.765 47.5071 131.226 47.0659 131.727 47.4444C131.823 47.5169 131.942 47.3597 131.855 47.2791Z" fill="#ED9780"/>
<path d="M127.831 51.7803C126.632 52.8495 124.828 53.7227 123.247 54.1748C123.388 53.8015 123.527 53.414 123.656 53.0171C124.963 52.7298 126.594 52.2945 127.831 51.7803Z" fill="#ED9780"/>
<path d="M144.359 73.6827H103.525C103.525 73.6827 103.711 72.9621 104.1 71.8184C104.211 71.4801 104.347 71.1046 104.496 70.6984C104.665 70.2349 104.858 69.7342 105.074 69.2064C105.149 69.0372 105.22 68.8613 105.297 68.6853C106.921 64.896 109.696 60.0102 113.766 58.0139C115.478 57.1749 117.921 57.3169 120.303 57.4253C120.303 57.4253 120.259 61.3569 124.255 61.7865C128.247 62.2128 131.411 58.4571 131.411 58.4571C131.411 58.4571 136.675 58.8394 138.191 59.9863C140.421 61.6752 143.547 65.8672 144.359 73.6827Z" fill="#E8505C"/>
<path d="M100.008 58.9133L96.3061 60.0407C96.3061 60.0407 96.0546 57.4001 95.5656 56.6979C95.0731 55.9958 94.8146 56.1845 94.5422 54.9444C94.2699 53.7044 94.3011 52.7508 94.3011 52.7508L95.1429 52.3177L95.0416 52.2059L95.4432 49.6036C95.7087 49.7502 96.002 49.8865 96.3058 49.9949C97.5143 50.4209 97.7169 49.6978 97.7169 49.3625C97.7169 49.0272 97.5423 48.8841 97.2349 48.5487C96.9311 48.2134 96.3932 47.7173 96.3932 47.7173C95.9881 47.2074 96.0894 46.5995 96.271 46.3725C96.4877 46.1001 99.0514 48.063 99.4041 48.5485C99.7533 49.0339 100.111 51.6381 99.9499 52.4345C99.7856 53.2309 99.2958 54.8358 99.2958 55.6987C99.2961 56.4813 100.008 58.9133 100.008 58.9133Z" fill="#FFC5BB"/>
<path d="M93.4708 50.9175C93.4708 50.9175 92.9236 50.9672 92.707 51.4469C92.4903 51.9267 93.9389 53.8912 94.5047 53.5912C94.9587 53.3506 94.7089 52.7837 94.2145 52.1035C93.8843 51.6492 93.4708 50.9175 93.4708 50.9175Z" fill="#FFC5BB"/>
<path d="M92.7069 51.4465C92.7069 51.4465 92.7023 51.4645 92.6933 51.4984C92.69 51.5329 92.6876 51.5834 92.7012 51.6466C92.7234 51.7737 92.7989 51.9437 92.9054 52.1367C93.0118 52.3303 93.1598 52.5427 93.3311 52.7591C93.503 52.9738 93.7034 53.1935 93.9347 53.3681C94.049 53.4539 94.1731 53.5364 94.3026 53.5631C94.3651 53.5774 94.4335 53.5726 94.4783 53.55C94.5437 53.5109 94.5931 53.4778 94.6268 53.4276C94.7028 53.3304 94.7088 53.1979 94.6882 53.0789C94.6667 52.9589 94.6257 52.8462 94.5793 52.7469C94.4873 52.547 94.3928 52.3863 94.3241 52.2763C94.254 52.1666 94.2141 52.1039 94.2141 52.1039C94.2141 52.1039 94.2594 52.1628 94.339 52.266C94.4156 52.3711 94.5312 52.519 94.6341 52.7202C94.6871 52.8199 94.736 52.9342 94.7658 53.064C94.7949 53.1902 94.8006 53.354 94.7028 53.4832C94.6586 53.5503 94.5874 53.5978 94.5307 53.6326C94.4471 53.6776 94.3624 53.6771 94.2828 53.6627C94.1231 53.6312 93.992 53.5438 93.869 53.4547C93.6282 53.2668 93.4289 53.0393 93.2567 52.8172C93.0851 52.594 92.9515 52.3667 92.8513 52.1653C92.7511 51.9638 92.6963 51.7808 92.683 51.6496C92.6746 51.5842 92.6819 51.5318 92.6884 51.4976C92.7006 51.4642 92.7069 51.4465 92.7069 51.4465Z" fill="#E5A198"/>
<path d="M96.032 47.3037C95.7225 46.822 94.7719 45.588 94.7719 45.588L94.7713 45.5885C94.3043 44.9442 93.5421 44.3305 93.1954 44.5345C92.7428 44.8005 93.1199 45.4348 93.5997 46.1476C93.6915 46.2839 93.7816 46.3982 93.8655 46.4935C94.1965 46.9377 95.0108 48.5649 95.3179 49.0868C95.6253 49.6092 96.0985 50.6261 96.7352 50.9799C97.372 51.3337 98.0071 50.4048 98.0071 50.4048C98.0071 50.4048 96.3413 47.7851 96.032 47.3037Z" fill="#FFC5BB"/>
<path d="M94.4241 49.9622C94.4241 49.9622 93.6122 49.7449 93.3274 50.3415C93.0426 50.9383 94.8102 53.4431 95.5286 53.0811C96.1051 52.7909 95.8194 52.0597 95.2164 51.1924C94.8137 50.6135 94.4241 49.9622 94.4241 49.9622Z" fill="#FFC5BB"/>
<path d="M93.3276 50.342C93.3276 50.342 93.3211 50.3646 93.3089 50.4067C93.3035 50.4498 93.2983 50.5136 93.3132 50.5937C93.3369 50.7548 93.4246 50.9722 93.553 51.2188C93.6809 51.4661 93.8601 51.7388 94.0697 52.0162C94.2807 52.2916 94.5267 52.5742 94.815 52.8009C94.9576 52.9123 95.1132 53.0187 95.2793 53.0551C95.36 53.0738 95.4466 53.0687 95.5099 53.0366C95.5919 52.9894 95.6562 52.9476 95.7013 52.8816C95.8015 52.7561 95.811 52.5854 95.7893 52.4338C95.7659 52.2804 95.7181 52.1371 95.6625 52.0103C95.553 51.755 95.4365 51.5514 95.3524 51.4118C95.2682 51.2717 95.2169 51.1933 95.2169 51.1933C95.2169 51.1933 95.2734 51.2677 95.3676 51.4018C95.4599 51.5367 95.5978 51.7282 95.7184 51.9853C95.7803 52.1126 95.836 52.2582 95.8675 52.4214C95.897 52.5805 95.8987 52.7814 95.7768 52.9378C95.723 53.0187 95.6337 53.0774 95.5609 53.12C95.4626 53.1724 95.3567 53.1738 95.259 53.1542C95.0624 53.1124 94.8997 53.0005 94.7482 52.8859C94.4509 52.6454 94.2057 52.3554 93.9948 52.0725C93.7849 51.7879 93.6203 51.5009 93.4987 51.2459C93.377 50.991 93.3103 50.761 93.2956 50.5962C93.2861 50.5139 93.2961 50.4485 93.3048 50.4053C93.3195 50.3638 93.3276 50.342 93.3276 50.342Z" fill="#E5A198"/>
<path d="M95.2986 48.9095C95.2986 48.9095 94.4634 48.7526 94.1835 49.4224C93.9036 50.0926 95.9788 52.7442 96.7475 52.3082C97.3641 51.9585 96.8531 51.149 96.1442 50.2305C95.6709 49.6171 95.2986 48.9095 95.2986 48.9095Z" fill="#FFC5BB"/>
<path d="M94.1836 49.4226C94.1836 49.4226 94.1776 49.4479 94.1662 49.4948C94.1624 49.5429 94.16 49.6138 94.1812 49.7017C94.2159 49.8785 94.3243 50.1147 94.4799 50.3803C94.6344 50.6472 94.8483 50.9385 95.0954 51.2339C95.3444 51.5264 95.633 51.825 95.9662 52.0575C96.1304 52.1737 96.3115 52.276 96.4986 52.3024C96.5918 52.3127 96.6803 52.2959 96.7528 52.2456C96.8445 52.1908 96.8904 52.1305 96.9355 52.0518C97.0061 51.8907 96.9743 51.7018 96.9206 51.5397C96.8646 51.3754 96.7892 51.2261 96.7126 51.0925C96.5584 50.8256 96.4131 50.6108 96.3091 50.4628C96.2043 50.3151 96.1446 50.2307 96.1446 50.2307C96.1446 50.2307 96.2097 50.311 96.3238 50.4519C96.4351 50.5948 96.6004 50.7952 96.7653 51.0612C96.8475 51.194 96.9303 51.3431 96.9955 51.5136C97.0566 51.6806 97.1076 51.8894 97.0213 52.0914C96.9768 52.184 96.8904 52.279 96.8092 52.3257C96.7183 52.3917 96.5972 52.4153 96.488 52.4031C96.2681 52.3738 96.078 52.2652 95.9048 52.1465C95.5611 51.9002 95.2732 51.5942 95.0234 51.2942C94.7758 50.9917 94.576 50.6852 94.4272 50.4104C94.2778 50.1362 94.1896 49.8861 94.1638 49.7053C94.1483 49.6151 94.1554 49.5421 94.1624 49.494C94.176 49.4473 94.1836 49.4226 94.1836 49.4226Z" fill="#E5A198"/>
<path d="M106.989 73.6826H104.282L104.1 71.8183C104.211 71.48 104.347 71.1045 104.495 70.6983C104.665 70.2348 104.857 69.7341 105.074 69.2063C105.714 70.3839 106.759 72.4309 106.989 73.6826Z" fill="#D63C4F"/>
<path d="M106.331 73.6816C106.331 73.6816 105.27 70.2594 103.888 66.685C103.062 64.5479 99.8193 57.5002 99.8193 57.5002C99.8193 57.5002 98.5133 57.7009 97.7753 57.8543C97.0536 58.0042 95.8926 58.4932 95.8926 58.4932C95.8926 58.4932 96.9863 65.3456 97.1386 67.6989C97.2866 69.9843 97.9676 73.6814 97.9676 73.6814H106.331V73.6816Z" fill="#E8505C"/>
<path d="M111.049 73.6814C111.049 73.6814 112.121 68.8599 113.192 66.8862C113.192 66.8862 112.685 71.6794 112.628 73.6814H111.049Z" fill="#D63C4F"/>
<path d="M134.431 73.6816C134.431 73.6816 133.944 70.5521 134 69.1423L133.436 73.6816H134.431Z" fill="#D63C4F"/>
<path d="M127.77 34.7754C127.77 34.7754 127.301 36.7622 126.535 37.1135C125.769 37.4649 125.138 37.0177 124.751 37.4966C124.364 37.9756 124.108 39.0929 123.342 38.8694C122.576 38.646 121.906 38.3851 121.555 38.8985C121.203 39.4119 121.076 40.8486 119.478 40.9444C118.207 41.0207 120.118 37.7839 120.118 37.7839C120.118 37.7839 121.235 36.003 121.395 35.8718C121.555 35.7407 122.6 34.4917 122.662 34.4596C122.724 34.4276 124.113 34.0836 124.365 34.1156C124.617 34.1477 126.28 34.1156 126.28 34.1156L127.77 34.7754Z" fill="#092342"/>
<path d="M135.568 52.4649C136.252 51.9979 136.887 51.2697 137.394 50.6175C137.776 50.1255 137.735 49.6433 137.572 49.0695C137.433 48.5764 137.292 48.1344 137.526 47.6362C137.664 47.3437 137.87 47.0885 137.995 46.7896C138.253 46.1743 138.126 45.5305 137.855 44.9429C137.501 44.1751 136.879 43.5443 136.609 42.7349C136.339 41.925 136.619 41.0927 136.473 40.2717C136.301 39.3121 135.478 38.4649 134.654 38.0207C134.566 37.9729 134.458 38.0962 134.542 38.1665C135.394 38.8779 136.207 39.5904 136.255 40.7389C136.284 41.4335 136.155 42.1232 136.378 42.7984C136.587 43.4287 137.007 43.9527 137.351 44.5109C137.833 45.2946 138.114 46.1227 137.64 46.9777C137.389 47.4312 137.121 47.8137 137.168 48.3546C137.24 49.1795 137.779 49.8162 137.14 50.5743C136.615 51.198 135.966 51.7429 135.565 52.4625C135.565 52.4638 135.566 52.4657 135.568 52.4649Z" fill="#092342"/>
<path d="M119.047 38.794C118.403 38.6422 117.769 39.0476 117.387 39.5483C117.152 39.8557 117.036 40.2029 116.988 40.5833C116.918 41.1239 117.041 41.7118 116.704 42.1832C116.452 42.5372 116.018 42.6974 115.745 43.0327C115.539 43.2863 115.462 43.5856 115.435 43.9068C115.357 44.8433 115.721 45.8017 115.204 46.6654C115.171 46.7203 115.247 46.7792 115.293 46.7339C115.817 46.2071 115.764 45.5329 115.703 44.8433C115.67 44.4734 115.63 44.0719 115.706 43.7045C115.817 43.1742 116.208 42.9763 116.592 42.6629C117.148 42.21 117.229 41.6018 117.301 40.9263C117.358 40.3946 117.456 39.9233 117.837 39.5214C118.168 39.1717 118.611 39.0093 119.047 38.8326C119.064 38.8255 119.068 38.7989 119.047 38.794Z" fill="#092342"/>
<path d="M127.194 37.0659C126.637 36.6263 125.675 36.9269 125.176 37.3393C124.551 37.8544 124.407 38.7572 123.718 39.2101C122.984 39.692 122.56 39.1865 121.833 38.9502C121.322 38.7843 120.728 38.9006 120.316 39.2427C120.262 39.2872 120.331 39.354 120.384 39.3312C120.605 39.2364 120.85 39.1775 121.087 39.1457C121.687 39.0659 122.027 39.3776 122.549 39.5802C122.918 39.7233 123.22 39.7116 123.581 39.568C124.127 39.3513 124.43 38.8416 124.752 38.3863C124.997 38.0398 125.245 37.6776 125.614 37.4525C126.089 37.1623 126.639 37.1234 127.18 37.0995C127.195 37.099 127.209 37.0773 127.194 37.0659Z" fill="#092342"/>
<path d="M132.15 58.9776C131.62 59.5432 131.167 60.1723 130.575 60.6782C129.992 61.1759 129.314 61.5739 128.607 61.8696C127.504 62.3315 126.348 62.6 125.153 62.6435C123.959 62.6869 123.061 62.5688 121.997 61.8995C120.548 60.9874 119.973 59.4783 119.81 57.8313C119.8 57.7392 119.673 57.7379 119.665 57.8313C119.474 60.263 121.166 62.3573 123.52 62.88C125.039 63.2166 126.983 62.9457 128.413 62.4222C129.966 61.8541 131.717 60.676 132.193 59.0023C132.199 58.9785 132.168 58.9589 132.15 58.9776Z" fill="#CC3A4B"/>
<path d="M170.467 96.3708H143.207V99.7809H170.467V96.3708Z" fill="#443E49"/>
<path d="M147.919 97.2273H144.078V98.924H147.919V97.2273Z" fill="#8E8E8E"/>
<path d="M169.22 97.2273H168.345V98.924H169.22V97.2273Z" fill="#8E8E8E"/>
<path d="M165.365 97.2273H151.615V98.924H165.365V97.2273Z" fill="#8E8E8E"/>
<path d="M170.467 89.5498H143.207V92.9599H170.467V89.5498Z" fill="#BB4B37"/>
<path d="M146.932 90.407H144.078V92.1037H146.932V90.407Z" fill="#F9DACA"/>
<path d="M169.22 89.55H168.345V92.9601H169.22V89.55Z" fill="#F9DACA"/>
<path d="M167.686 89.55H166.811V92.9601H167.686V89.55Z" fill="#F9DACA"/>
<path d="M165.365 90.407H149.195V92.1037H165.365V90.407Z" fill="#F9DACA"/>
<path d="M168.096 92.96V96.37H140.84V95.9114H158.687V93.4609H140.84V92.96H168.096Z" fill="#5D7EC3"/>
<path d="M158.687 93.4607H141.45V95.9109H158.687V93.4607Z" fill="#DDDDDD"/>
<path d="M144.218 99.7805H97.3998L91.4171 73.18C91.2131 72.2739 91.9023 71.4124 92.8312 71.4124H148.787C149.716 71.4124 150.405 72.2736 150.201 73.18L144.218 99.7805Z" fill="#83CDF2"/>
<path d="M150.2 73.1792L144.219 99.7811H97.3988L91.4174 73.1792C91.2124 72.2751 91.9015 71.4116 92.8315 71.4116H148.787C149.716 71.4116 150.405 72.2748 150.2 73.1792Z" fill="#58B8DD"/>
<path d="M149.13 73.1792L143.146 99.7811H97.3988L91.4174 73.1792C91.2124 72.2751 91.9015 71.4116 92.8315 71.4116H147.716C148.643 71.4116 149.332 72.2748 149.13 73.1792Z" fill="#83CDF2"/>
<path d="M145.109 99.7806H96.5089C96.059 99.7806 95.6943 99.416 95.6943 98.9661V98.5653C95.6943 98.1154 96.059 97.7507 96.5089 97.7507H145.109C145.559 97.7507 145.924 98.1154 145.924 98.5653V98.9661C145.924 99.416 145.559 99.7806 145.109 99.7806Z" fill="#ADE9F7"/>
<path d="M120.809 86.6336C122.731 86.6336 124.29 85.3985 124.29 83.8749C124.29 82.3513 122.731 81.1162 120.809 81.1162C118.886 81.1162 117.328 82.3513 117.328 83.8749C117.328 85.3985 118.886 86.6336 120.809 86.6336Z" fill="#58B8DD"/>
<path d="M162.819 91.2417C162.559 90.5854 162.134 90.1382 161.546 89.9039C160.969 89.6731 160.338 89.7019 159.822 89.8029L159.995 88.4903H157.799L149.105 88.4868L150.396 98.4468C150.45 98.8579 150.667 99.2258 150.995 99.4745C151.157 99.5934 151.334 99.6801 151.525 99.7306C151.651 99.7631 151.781 99.7811 151.914 99.7811H157.175C157.503 99.7811 157.821 99.6801 158.088 99.4854C158.091 99.4818 158.091 99.478 158.095 99.478C158.099 99.4745 158.099 99.4745 158.102 99.471C158.427 99.2258 158.64 98.8614 158.694 98.4541V98.4506L158.845 97.304C159.281 97.0623 159.869 96.7196 160.309 96.3916C162 95.1217 163.731 93.5711 162.819 91.2417ZM159.844 95.771C159.591 95.9621 159.27 96.1641 158.967 96.3444L159.717 90.6145C160.157 90.4991 160.76 90.4198 161.264 90.6218C161.647 90.7768 161.921 91.069 162.097 91.5232C162.747 93.1782 161.762 94.3357 159.844 95.771Z" fill="#C3F0FC"/>
<path d="M159.995 88.49L159.822 89.8026L159.718 90.6139L158.968 96.3438L158.845 97.3031L158.694 98.4498V98.4533C158.64 98.8608 158.427 99.225 158.102 99.4701C158.099 99.4737 158.099 99.4737 158.095 99.4772C158.092 99.4772 158.092 99.4807 158.088 99.4845C157.821 99.6792 157.504 99.7802 157.176 99.7802H151.914C151.781 99.7802 151.651 99.7623 151.525 99.7297C152.387 99.3727 157.576 96.863 157.8 88.4895H159.995V88.49Z" fill="#ADE9F7"/>
<path d="M23.6518 91.2417C23.3922 90.5854 22.9667 90.1382 22.3789 89.9039C21.8019 89.6731 21.1709 89.7019 20.6553 89.8029L20.8282 88.4903H18.6321L9.93799 88.4868L11.2291 98.4468C11.2831 98.8579 11.4995 99.2258 11.8278 99.4745C11.9902 99.5934 12.1666 99.6801 12.3578 99.7306C12.4841 99.7631 12.6138 99.7811 12.7472 99.7811H18.0085C18.3367 99.7811 18.6539 99.6801 18.9208 99.4854C18.9243 99.4818 18.9243 99.478 18.9281 99.478C18.9316 99.4745 18.9316 99.4745 18.9354 99.471C19.2599 99.2258 19.4728 98.8614 19.5268 98.4541V98.4506L19.6783 97.304C20.1147 97.0623 20.7025 96.7196 21.1424 96.3916C22.8331 95.1217 24.5641 93.5711 23.6518 91.2417ZM20.6767 95.771C20.4242 95.9621 20.1032 96.1641 19.8005 96.3444L20.5504 90.6145C20.9903 90.4991 21.5926 90.4198 22.0973 90.6218C22.4796 90.7768 22.7536 91.069 22.9303 91.5232C23.5796 93.1782 22.5953 94.3357 20.6767 95.771Z" fill="#C3F0FC"/>
<path d="M20.8283 88.49L20.6554 89.8026L20.5508 90.6139L19.8009 96.3438L19.6784 97.3031L19.5269 98.4498V98.4533C19.4729 98.8608 19.26 99.225 18.9355 99.4701C18.932 99.4737 18.932 99.4737 18.9282 99.4772C18.9247 99.4772 18.9247 99.4807 18.9209 99.4845C18.654 99.6792 18.3368 99.7802 18.0086 99.7802H12.7473C12.614 99.7802 12.4842 99.7623 12.3579 99.7297C13.2197 99.3727 18.4088 96.863 18.6325 88.4895H20.8283V88.49Z" fill="#ADE9F7"/>
<path d="M90.3623 81.8857L87.1279 94.5677L87.7432 94.7247L91.7449 82.2382" fill="#00CFFF"/>
<path d="M91.6547 78.6506C91.6009 78.861 90.6712 82.5068 90.6712 82.5068C90.6218 82.7009 90.7388 82.898 90.933 82.9475C91.1268 82.9969 91.3242 82.8798 91.3736 82.686L91.4847 82.2505C91.4847 82.2505 92.0011 81.1492 93.4288 81.6031C93.4288 81.6031 91.7258 81.3905 91.668 81.3946C91.6101 81.3987 91.7082 78.4402 91.6547 78.6506Z" fill="#ABEDFF"/>
<path d="M89.8856 81.7711L89.8761 94.8591L89.2413 94.8588L88.4587 81.7698" fill="#00CFFF"/>
<path d="M89.4356 78.3163C89.4356 78.5336 89.4329 82.296 89.4329 82.296C89.4326 82.4962 89.2702 82.6583 89.0701 82.6583C88.87 82.658 88.7079 82.4956 88.7079 82.2955L88.7082 81.8461C88.7082 81.8461 88.4809 80.6512 86.9851 80.7372C86.9851 80.7372 88.6876 80.9531 88.7427 80.9716C88.7975 80.9895 89.4359 78.0991 89.4356 78.3163Z" fill="#ABEDFF"/>
<path d="M90.1165 82.3656C89.9891 82.8652 90.2919 83.3751 90.7915 83.5025C91.2911 83.6298 91.801 83.3271 91.9284 82.8275C91.9284 82.8275 91.9873 82.5239 92.1054 82.3564C92.287 82.0987 92.6577 82.0021 93.324 82.1652C93.3346 82.168 93.3443 82.1726 93.3549 82.1753C95.0063 82.5964 96.7642 81.3156 97.273 79.3202C97.7818 77.3245 96.8521 75.3584 95.2007 74.9373C93.5493 74.5162 91.7915 75.7969 91.2827 77.7926C91.2645 77.8641 91.2523 77.9355 91.2376 78.0066L91.2308 78.0058L90.1165 82.3656ZM93.6379 81.0659C92.5982 80.8008 92.0394 79.4593 92.3921 78.0756C92.7451 76.6919 93.8782 75.782 94.9175 76.047C95.9572 76.312 96.516 77.6536 96.1633 79.0373C95.8106 80.4207 94.6775 81.3309 93.6379 81.0659Z" fill="#4086DB"/>
<path d="M83.8262 77.5722C83.8245 79.6317 85.2101 81.3081 86.9145 81.3092C86.9299 81.3092 86.9449 81.3068 86.9604 81.3065C87.6386 81.3157 87.9691 81.5014 88.0804 81.7947C88.1532 81.9864 88.135 82.2948 88.135 82.2948C88.1347 82.8105 88.5537 83.23 89.0693 83.2305C89.5849 83.2308 90.0044 82.8118 90.0049 82.2962L90.006 77.796L89.9992 77.7952C90.0028 77.7224 90.0085 77.6504 90.0085 77.5766C90.0101 75.5171 88.6245 73.8407 86.9202 73.8394C85.2156 73.8383 83.8275 75.5127 83.8262 77.5722ZM84.9712 77.5731C84.9723 76.1451 85.846 74.9838 86.9191 74.9849C87.9919 74.9857 88.864 76.1481 88.8632 77.576C88.8621 79.004 87.9881 80.165 86.9153 80.1645C85.8425 80.1634 84.9704 79.001 84.9712 77.5731Z" fill="#4086DB"/>
<path d="M87.3255 76.9198C87.3613 76.9179 87.3906 76.8894 87.3931 76.8527L87.4175 76.4897C87.4202 76.45 87.3904 76.4158 87.3507 76.4131C87.3116 76.4096 87.2769 76.4403 87.2741 76.4802L87.2494 76.8429C87.2467 76.8826 87.2766 76.9171 87.3165 76.9195C87.3195 76.9198 87.3225 76.9198 87.3255 76.9198Z" fill="#009FD4"/>
<path d="M85.7412 93.4162L86.7005 93.4808L87.7247 78.0141L87.2449 77.982L86.7654 77.9495L85.7412 93.4162Z" fill="#55D2FF"/>
<path d="M87.2345 76.6973L87.4284 76.7103L87.7252 78.0136L86.7659 77.949L87.2345 76.6973Z" fill="#009FD4"/>
<path d="M84.7138 89.7215L86.3598 89.4242L83.7896 75.1915C83.7763 75.1171 83.7051 75.068 83.6307 75.0813L82.2538 75.33C82.1794 75.3433 82.13 75.4144 82.1436 75.4888L84.7138 89.7215Z" fill="#55D2FF"/>
<path d="M82.4038 76.9244L84.0498 76.6271L83.7905 75.191C83.7772 75.1166 83.706 75.0675 83.6316 75.0808L82.2547 75.3295C82.1803 75.3428 82.1312 75.4139 82.1445 75.4883L82.4038 76.9244Z" fill="#FFE300"/>
<g opacity="0.5">
<path d="M84.0496 76.6305L82.4033 76.9277L82.4923 77.4207L84.1386 77.1235L84.0496 76.6305Z" fill="#009FD4"/>
</g>
<path d="M83.4281 92.9719L86.1143 91.9131L80.3858 77.3804L77.6997 78.4392L83.4281 92.9719Z" fill="#63BED6"/>
<path d="M78.768 78.5581L77.8826 78.907" stroke="#BAF2FF" stroke-width="0.4549" stroke-miterlimit="10"/>
<path d="M79.0661 79.3123L78.1807 79.6612" stroke="#BAF2FF" stroke-width="0.4549" stroke-miterlimit="10"/>
<path d="M79.3632 80.0676L78.4778 80.4168" stroke="#BAF2FF" stroke-width="0.4549" stroke-miterlimit="10"/>
<path d="M80.0941 80.6516L78.7756 81.1713" stroke="#BAF2FF" stroke-width="0.4549" stroke-miterlimit="10"/>
<path d="M79.9586 81.5774L79.0735 81.9263" stroke="#BAF2FF" stroke-width="0.4549" stroke-miterlimit="10"/>
<path d="M80.2563 82.3323L79.3708 82.6812" stroke="#BAF2FF" stroke-width="0.4549" stroke-miterlimit="10"/>
<path d="M80.5534 83.0876L79.668 83.4366" stroke="#BAF2FF" stroke-width="0.4549" stroke-miterlimit="10"/>
<path d="M81.2843 83.6716L79.9658 84.1913" stroke="#BAF2FF" stroke-width="0.4549" stroke-miterlimit="10"/>
<path d="M81.1491 84.5972L80.2637 84.9461" stroke="#BAF2FF" stroke-width="0.4549" stroke-miterlimit="10"/>
<path d="M81.4462 85.3516L80.561 85.7005" stroke="#BAF2FF" stroke-width="0.4549" stroke-miterlimit="10"/>
<path d="M81.7441 86.1064L80.8589 86.4556" stroke="#BAF2FF" stroke-width="0.4549" stroke-miterlimit="10"/>
<path d="M82.4745 86.6909L81.156 87.2106" stroke="#BAF2FF" stroke-width="0.4549" stroke-miterlimit="10"/>
<path d="M82.3388 87.6167L81.4534 87.9656" stroke="#BAF2FF" stroke-width="0.4549" stroke-miterlimit="10"/>
<path d="M82.6367 88.3713L81.7512 88.7202" stroke="#BAF2FF" stroke-width="0.4549" stroke-miterlimit="10"/>
<path d="M82.9335 89.1262L82.0483 89.4754" stroke="#BAF2FF" stroke-width="0.4549" stroke-miterlimit="10"/>
<path d="M83.6644 89.7107L82.3462 90.2304" stroke="#BAF2FF" stroke-width="0.4549" stroke-miterlimit="10"/>
<path d="M83.529 90.636L82.6436 90.9849" stroke="#BAF2FF" stroke-width="0.4549" stroke-miterlimit="10"/>
<path d="M83.8268 91.3909L82.9414 91.7398" stroke="#BAF2FF" stroke-width="0.4549" stroke-miterlimit="10"/>
<path d="M84.124 92.1458L83.2385 92.4947" stroke="#BAF2FF" stroke-width="0.4549" stroke-miterlimit="10"/>
<path d="M79.9511 85.8241L81.3815 98.7412C81.4486 99.3334 81.9457 99.7804 82.5436 99.7804H89.6781C90.276 99.7804 90.7732 99.3334 90.8403 98.7412L92.2706 85.8241C92.2929 85.6454 92.1533 85.4888 91.9747 85.4888H80.2474C80.0684 85.4888 79.9286 85.6452 79.9511 85.8241Z" fill="#2B6FB2"/>
<path d="M79.9511 85.8241L81.3815 98.7412C81.4486 99.3334 81.9457 99.7804 82.5436 99.7804H86.9518C87.5497 99.7804 88.0468 99.3334 88.1139 98.7412L89.5443 85.8241C89.5665 85.6454 89.427 85.4888 89.2481 85.4888H80.2474C80.0684 85.4888 79.9286 85.6452 79.9511 85.8241Z" fill="#4086DB"/>
<path d="M29.6306 97.4404V96.2446C29.6306 96.2446 43.5478 96.5816 49.7559 98.6864L37.943 98.8073L29.6306 97.4404Z" fill="#ECF1FF"/>
<path d="M69.8811 97.4401V96.124C69.8811 96.124 55.964 96.5813 49.7559 98.6861L61.5687 98.8069L69.8811 97.4401Z" fill="#ECF1FF"/>
<path d="M49.7558 98.6866C42.6633 97.1867 28.9536 97.0811 28.9536 97.0811V99.626H46.7098H52.8014H70.5577V97.0811C70.5577 97.0811 56.8479 97.1867 49.7558 98.6866Z" fill="white"/>
<path d="M71.7535 99.7806H27.7578C27.5303 99.7806 27.3459 99.5962 27.3459 99.3687V99.3299C27.3459 99.1023 27.5303 98.918 27.7578 98.918H71.7535C71.981 98.918 72.1654 99.1023 72.1654 99.3299V99.3687C72.1654 99.5962 71.981 99.7806 71.7535 99.7806Z" fill="#BB4B37"/>
<path d="M75.191 93.8922C75.191 93.8922 71.4858 91.7233 70.6824 87.4656C70.6824 87.4656 74.1725 88.1886 75.922 93.8922" fill="#4ABABA"/>
<path d="M76.6533 93.8922C76.6533 93.8922 80.3585 91.7233 81.1619 87.4656C81.1619 87.4656 77.6718 88.1886 75.9224 93.8922" fill="#4ABABA"/>
<path d="M75.5347 93.5442C75.5347 93.5442 72.8627 90.1836 73.6512 85.9231C73.6512 85.9231 76.6447 87.8577 76.2165 93.8081" fill="#4ABABA"/>
<path d="M76.3977 93.5578C76.3977 93.5578 78.9891 90.1347 78.1001 85.894C78.1001 85.894 75.1533 87.899 75.7224 93.8377" fill="#4ABABA"/>
<path d="M79.8715 93.0288H71.7981V99.7805H79.8715V93.0288Z" fill="#C3F0FC"/>
<path d="M79.8716 93.0291H78.2854V99.7807H79.8716V93.0291Z" fill="#96DAEA"/>
<path d="M171.308 102.52H7.48604C6.72958 102.52 6.11621 101.907 6.11621 101.15C6.11621 100.394 6.72958 99.7803 7.48604 99.7803H171.309C172.065 99.7803 172.678 100.394 172.678 101.15C172.678 101.907 172.065 102.52 171.308 102.52Z" fill="#594A5F"/>
<path d="M26.0476 104H100.001" stroke="#594A5F" stroke-miterlimit="10" stroke-linecap="round"/>
<path d="M101.111 104H147.918" stroke="#594A5F" stroke-miterlimit="10" stroke-linecap="round"/>
<path d="M13.7251 104H6.11597" stroke="#594A5F" stroke-miterlimit="10" stroke-linecap="round"/>
<path d="M105.107 93.4793C105.624 90.3489 103.506 87.3917 100.375 86.8742C97.245 86.3566 94.2878 88.4748 93.7703 91.6053C93.2528 94.7357 95.371 97.693 98.5014 98.2105C101.632 98.728 104.589 96.6098 105.107 93.4793Z" fill="#E8505C"/>
<path d="M104.017 93.4959C104.609 90.9701 103.041 88.4428 100.515 87.8511C97.9893 87.2593 95.462 88.8272 94.8703 91.3529C94.2785 93.8787 95.8464 96.406 98.3722 96.9977C100.898 97.5895 103.425 96.0217 104.017 93.4959Z" fill="white"/>
<path d="M95.2889 95.915L93.8865 99.7802H94.6614L97.457 97.5409" fill="#E8505C"/>
<path d="M103.599 95.915L105.001 99.7802H104.226L101.431 97.5409" fill="#E8505C"/>
<path d="M99.7797 92.4148H99.168L99.474 88.9893L99.7797 92.4148Z" fill="#E8505C"/>
<path d="M99.2473 92.7423L99.7002 92.0874L103.211 94.8713L99.2473 92.7423Z" fill="#E8505C"/>
<path d="M100.156 92.4152C100.156 92.7915 99.8503 93.0967 99.474 93.0967C99.0977 93.0967 98.7925 92.7915 98.7925 92.4152C98.7925 92.0388 99.0977 91.7336 99.474 91.7336C99.8503 91.7336 100.156 92.0388 100.156 92.4152Z" fill="#DB2A40"/>
<g opacity="0.6">
<path d="M150.136 39.1631L146.782 40.9516L148.459 36.5923" fill="#389FE5"/>
<path d="M160.519 34.1665C160.836 30.2652 157.931 26.8452 154.03 26.5278C150.128 26.2104 146.708 29.1156 146.391 33.0169C146.073 36.9182 148.979 40.3381 152.88 40.6556C156.781 40.973 160.201 38.0678 160.519 34.1665Z" fill="#389FE5"/>
</g>
<path d="M157.383 34.5153C157.462 34.2218 157.504 33.9136 157.504 33.5956C157.504 33.2999 157.467 33.0132 157.399 32.7387L156.748 32.8109C156.668 32.4783 156.539 32.1644 156.369 31.8774L156.886 31.4639C156.734 31.2013 156.545 30.9543 156.321 30.7294C156.233 30.6417 156.142 30.5595 156.048 30.4832C156.023 30.4625 155.998 30.4433 155.973 30.4237C155.866 30.3412 155.755 30.2654 155.641 30.1967L155.228 30.7137C155.195 30.6936 155.162 30.6738 155.129 30.6545C155.091 30.6328 155.053 30.6119 155.014 30.5918C154.79 30.4742 154.552 30.3811 154.303 30.3156L154.376 29.6588C154.083 29.5806 153.775 29.5388 153.457 29.5388C153.162 29.5388 152.875 29.5747 152.6 29.6431L152.673 30.2969C152.339 30.3754 152.025 30.503 151.738 30.6719L151.326 30.1565C151.063 30.3083 150.815 30.4968 150.591 30.721C150.382 30.9304 150.204 31.1587 150.058 31.4006L150.571 31.8106C150.394 32.0947 150.259 32.4064 150.172 32.7379L149.52 32.6649C149.441 32.9584 149.399 33.2666 149.399 33.5842C149.399 33.8797 149.436 34.1669 149.503 34.4414L150.153 34.3689C150.231 34.7026 150.36 35.0176 150.53 35.3054L150.017 35.7154C150.169 35.9785 150.357 36.2259 150.582 36.4507C150.791 36.6598 151.02 36.8371 151.262 36.9832L151.67 36.4732C151.954 36.65 152.266 36.7863 152.598 36.8732L152.526 37.521C152.819 37.5995 153.127 37.6413 153.445 37.6413C153.74 37.6413 154.027 37.6052 154.302 37.5371L154.23 36.8925C154.565 36.8134 154.881 36.6847 155.17 36.5145L155.577 37.0236C155.839 36.8718 156.087 36.6834 156.312 36.4586C156.521 36.2495 156.698 36.0211 156.844 35.7789L156.335 35.3722C156.511 35.0877 156.646 34.7749 156.732 34.4422L157.383 34.5153ZM155.533 33.6627C155.498 34.7529 154.61 35.641 153.52 35.6758C152.317 35.7141 151.332 34.7303 151.371 33.5267C151.406 32.4365 152.294 31.5484 153.384 31.5139C154.588 31.4753 155.571 32.459 155.533 33.6627Z" fill="white"/>
<g opacity="0.6">
<path d="M33.1672 38.545L35.6946 39.8931L34.4309 36.6077" fill="#389FE5"/>
<path d="M30.6676 39.6865C33.6177 39.6865 36.0093 37.295 36.0093 34.3448C36.0093 31.3947 33.6177 29.0032 30.6676 29.0032C27.7175 29.0032 25.3259 31.3947 25.3259 34.3448C25.3259 37.295 27.7175 39.6865 30.6676 39.6865Z" fill="#389FE5"/>
</g>
<path d="M28.2633 33.5941C28.6583 33.6066 28.9801 33.9284 28.9928 34.3237C29.007 34.7598 28.6502 35.1166 28.2141 35.1024C27.8191 35.09 27.4973 34.7679 27.4845 34.3729C27.4704 33.9368 27.8269 33.5803 28.2633 33.5941Z" fill="white"/>
<path d="M30.8375 33.5941C31.2325 33.6066 31.5543 33.9284 31.567 34.3237C31.5812 34.7598 31.2244 35.1166 30.7883 35.1024C30.3932 35.09 30.0715 34.7679 30.059 34.3729C30.0449 33.9368 30.4014 33.5803 30.8375 33.5941Z" fill="white"/>
<path d="M33.4114 33.5941C33.8065 33.6066 34.1282 33.9284 34.141 34.3237C34.1549 34.7598 33.7983 35.1166 33.3623 35.1024C32.9672 35.09 32.6455 34.7679 32.633 34.3729C32.6189 33.9368 32.9754 33.5803 33.4114 33.5941Z" fill="white"/>
<g opacity="0.5">
<path d="M66.7311 15.8818H65.6133V16.9997H66.7311V15.8818Z" fill="#389FE5"/>
<path d="M68.9579 15.8818H67.8401V16.9997H68.9579V15.8818Z" fill="#389FE5"/>
<path d="M71.1843 15.8818H70.0664V16.9997H71.1843V15.8818Z" fill="#389FE5"/>
<path d="M73.4113 15.8818H72.2935V16.9997H73.4113V15.8818Z" fill="#389FE5"/>
<path d="M75.6376 15.8818H74.5198V16.9997H75.6376V15.8818Z" fill="#389FE5"/>
</g>
<g opacity="0.5">
<path d="M144.651 60.2012H143.533V61.319H144.651V60.2012Z" fill="#389FE5"/>
<path d="M146.878 60.2012H145.76V61.319H146.878V60.2012Z" fill="#389FE5"/>
<path d="M149.105 60.2012H147.987V61.319H149.105V60.2012Z" fill="#389FE5"/>
<path d="M151.331 60.2012H150.214V61.319H151.331V60.2012Z" fill="#389FE5"/>
<path d="M153.559 60.2012H152.441V61.319H153.559V60.2012Z" fill="#389FE5"/>
</g>
<g opacity="0.5">
<path d="M15.9059 66.3281H14.7881V67.446H15.9059V66.3281Z" fill="#389FE5"/>
<path d="M18.1328 66.3281H17.0149V67.446H18.1328V66.3281Z" fill="#389FE5"/>
<path d="M20.3593 66.3281H19.2415V67.446H20.3593V66.3281Z" fill="#389FE5"/>
<path d="M22.5856 66.3281H21.4678V67.446H22.5856V66.3281Z" fill="#389FE5"/>
<path d="M24.8127 66.3281H23.6948V67.446H24.8127V66.3281Z" fill="#389FE5"/>
</g>
<path opacity="0.2" d="M80.6507 10.4166C80.6507 10.749 80.3813 11.0183 80.049 11.0183C79.7166 11.0183 79.4473 10.749 79.4473 10.4166C79.4473 10.0843 79.7166 9.81494 80.049 9.81494C80.3813 9.81494 80.6507 10.0846 80.6507 10.4166Z" fill="#389FE5"/>
<path opacity="0.2" d="M8.63747 78.0145C8.63747 78.3469 8.36812 78.6162 8.03578 78.6162C7.70343 78.6162 7.43408 78.3469 7.43408 78.0145C7.43408 77.6822 7.70343 77.4128 8.03578 77.4128C8.36812 77.4128 8.63747 77.6822 8.63747 78.0145Z" fill="#389FE5"/>
<path opacity="0.5" d="M29.4419 54.2472C29.4419 54.5795 29.1726 54.8489 28.8402 54.8489C28.5079 54.8489 28.2385 54.5795 28.2385 54.2472C28.2385 53.9149 28.5079 53.6455 28.8402 53.6455C29.1726 53.6455 29.4419 53.9149 29.4419 54.2472Z" fill="#389FE5"/>
<path opacity="0.5" d="M81.1563 64.5748C81.1563 64.9072 80.8869 65.1765 80.5546 65.1765C80.2222 65.1765 79.9529 64.9072 79.9529 64.5748C79.9529 64.2425 80.2222 63.9731 80.5546 63.9731C80.8869 63.9731 81.1563 64.2425 81.1563 64.5748Z" fill="#389FE5"/>
<path opacity="0.5" d="M19.8007 84.2735C20.133 84.2735 20.4024 84.0041 20.4024 83.6718C20.4024 83.3395 20.133 83.0701 19.8007 83.0701C19.4684 83.0701 19.199 83.3395 19.199 83.6718C19.199 84.0041 19.4684 84.2735 19.8007 84.2735Z" fill="#389FE5"/>
<path opacity="0.5" d="M118.876 16.9999C118.876 17.3322 118.606 17.6016 118.274 17.6016C117.941 17.6016 117.672 17.3322 117.672 16.9999C117.672 16.6675 117.941 16.3982 118.274 16.3982C118.606 16.3982 118.876 16.6675 118.876 16.9999Z" fill="#389FE5"/>
<path opacity="0.5" d="M150.237 18.2029C150.569 18.2029 150.839 17.9335 150.839 17.6012C150.839 17.2689 150.569 16.9995 150.237 16.9995C149.905 16.9995 149.635 17.2689 149.635 17.6012C149.635 17.9335 149.905 18.2029 150.237 18.2029Z" fill="#389FE5"/>
<path opacity="0.5" d="M165.365 67.4462C165.365 67.7785 165.095 68.0479 164.763 68.0479C164.431 68.0479 164.161 67.7785 164.161 67.4462C164.161 67.1138 164.431 66.8445 164.763 66.8445C165.095 66.8445 165.365 67.1138 165.365 67.4462Z" fill="#389FE5"/>
<path opacity="0.2" d="M158.49 81.7737C158.822 81.7737 159.092 81.5043 159.092 81.172C159.092 80.8397 158.822 80.5703 158.49 80.5703C158.158 80.5703 157.888 80.8397 157.888 81.172C157.888 81.5043 158.158 81.7737 158.49 81.7737Z" fill="#389FE5"/>
</svg>
