<svg width="173" height="174" viewBox="0 0 173 174" fill="none" xmlns="http://www.w3.org/2000/svg">
<path d="M97.1335 98.3686C97.2082 98.6092 97.2825 98.8499 97.3572 99.0909C97.3953 99.214 97.5892 99.1613 97.5506 99.0374C97.4759 98.7968 97.4016 98.5562 97.3269 98.3151C97.2888 98.1921 97.0949 98.2448 97.1335 98.3686Z" fill="#150202"/>
<path d="M20.9156 47.7766C20.9777 47.9363 20.927 47.8588 20.8169 47.6544C20.8255 47.6158 20.8354 47.5781 20.8448 47.5396C20.8668 47.6288 20.8904 47.711 20.9156 47.7766Z" fill="#36465B"/>
<path d="M86.9437 62.6303C83.427 62.6303 80.2795 60.6825 78.7079 57.5405C74.6356 56.4942 71.8003 52.8414 71.8003 48.6248C71.8003 45.3983 73.5158 42.3809 76.2851 40.7224C76.3043 35.662 80.427 31.5508 85.4921 31.5508C87.2162 31.5508 88.8948 32.0313 90.3543 32.9411C91.8134 32.0313 93.4916 31.5508 95.2161 31.5508C99.1779 31.5508 102.671 34.0609 103.938 37.8069C107.264 39.2853 109.407 42.5787 109.407 46.222C109.407 48.9854 108.186 51.5643 106.051 53.3231L110.156 61.9049L103.347 59C101.587 61.209 98.9711 62.4723 96.1468 62.4723C94.5858 62.4723 93.0457 62.0732 91.6837 61.3171C90.2536 62.1762 88.6179 62.6303 86.9437 62.6303ZM85.4917 31.944C80.6318 31.944 76.6779 35.8979 76.6779 40.7574L76.6806 40.9457L76.5819 41.0031C73.8748 42.5783 72.1927 45.4989 72.1927 48.6244C72.1927 52.69 74.9466 56.2087 78.8904 57.1807L78.9796 57.2027L79.0197 57.2853C80.5115 60.3396 83.5473 62.2368 86.9429 62.2368C88.583 62.2368 90.1844 61.7818 91.5748 60.9211L91.6742 60.8594L91.7757 60.9176C93.1027 61.6768 94.6137 62.0779 96.1448 62.0779C98.8976 62.0779 101.443 60.8244 103.128 58.639L103.22 58.5183L109.35 61.1331L105.561 53.2106L105.683 53.1131C107.799 51.4279 109.012 48.9158 109.012 46.2208C109.012 42.7053 106.927 39.5295 103.698 38.1313L103.617 38.0959L103.59 38.0121C102.401 34.3822 99.0356 31.9432 95.2145 31.9432C93.5234 31.9432 91.8795 32.4256 90.4589 33.3382L90.3523 33.4067L90.2458 33.3386C88.8267 32.4264 87.1824 31.944 85.4917 31.944Z" fill="#FF931A"/>
<path d="M104.272 46.2401C95.0499 46.2354 85.828 46.231 76.606 46.2263C76.2899 46.2263 76.2891 46.7178 76.606 46.7178C85.828 46.7225 95.0499 46.7268 104.272 46.7316C104.588 46.7316 104.588 46.2401 104.272 46.2401Z" fill="#FF931A"/>
<path d="M99.6624 40.3022C94.1593 40.2995 88.6565 40.2967 83.1534 40.2939C82.8373 40.2939 82.8365 40.7854 83.1534 40.7854C88.6565 40.7882 94.1593 40.7909 99.6624 40.7937C99.9785 40.7941 99.9789 40.3026 99.6624 40.3022Z" fill="#FF931A"/>
<path d="M96.8929 42.2468C91.3897 42.244 85.887 42.2413 80.3839 42.2385C80.0677 42.2385 80.067 42.73 80.3839 42.73C85.887 42.7328 91.3897 42.7355 96.8929 42.7383C97.209 42.7383 97.2098 42.2468 96.8929 42.2468Z" fill="#FF931A"/>
<path d="M96.6404 51.2197C91.1373 51.2169 85.6346 51.2142 80.1314 51.2114C79.8153 51.2114 79.8145 51.7029 80.1314 51.7029C85.6346 51.7057 91.1373 51.7084 96.6404 51.7112C96.957 51.7116 96.9573 51.2201 96.6404 51.2197Z" fill="#FF931A"/>
<path d="M113.406 64.0198C113.406 64.2761 113.198 64.4841 112.941 64.4841C112.685 64.4841 112.477 64.2761 112.477 64.0198C112.477 63.7634 112.685 63.5554 112.941 63.5554C113.198 63.5554 113.406 63.7634 113.406 64.0198Z" fill="white"/>
<path d="M115.765 65.6763C115.765 65.9326 115.557 66.1406 115.301 66.1406C115.044 66.1406 114.836 65.9326 114.836 65.6763C114.836 65.4199 115.044 65.2119 115.301 65.2119C115.557 65.2123 115.765 65.4199 115.765 65.6763Z" fill="white"/>
<path d="M118.124 67.3333C118.124 67.5896 117.916 67.7976 117.66 67.7976C117.403 67.7976 117.195 67.5896 117.195 67.3333C117.195 67.0769 117.403 66.8689 117.66 66.8689C117.916 66.8689 118.124 67.0769 118.124 67.3333Z" fill="white"/>
<path d="M120.483 68.9898C120.483 69.2461 120.275 69.4541 120.019 69.4541C119.763 69.4541 119.555 69.2461 119.555 68.9898C119.555 68.7334 119.763 68.5254 120.019 68.5254C120.275 68.5258 120.483 68.7334 120.483 68.9898Z" fill="white"/>
<path d="M122.842 70.6467C122.842 70.9031 122.634 71.1111 122.378 71.1111C122.122 71.1111 121.914 70.9031 121.914 70.6467C121.914 70.3904 122.122 70.1824 122.378 70.1824C122.634 70.1824 122.842 70.3904 122.842 70.6467Z" fill="white"/>
<path d="M63.5073 27.9824C62.0021 27.9824 60.5316 27.5754 59.2458 26.8044C58.0214 27.4822 56.637 27.8396 55.2341 27.8396C52.6933 27.8396 50.3404 26.7057 48.7547 24.7224L42.5977 27.3489L46.3035 19.5999C44.3871 18.0149 43.2909 15.6951 43.2909 13.2101C43.2909 9.93009 45.2199 6.96424 48.2125 5.62974C49.3559 2.2585 52.5022 0 56.0696 0C57.6196 0 59.1279 0.430546 60.4412 1.24642C61.754 0.430546 63.2627 0 64.8127 0C69.3737 0 73.087 3.69916 73.1098 8.2547C75.6003 9.7504 77.1424 12.4666 77.1424 15.3707C77.1424 19.1678 74.591 22.4576 70.9256 23.4032C69.5074 26.2299 66.6733 27.9824 63.5073 27.9824ZM59.2541 26.3475L59.3536 26.4092C60.6 27.181 62.0367 27.5892 63.5073 27.5892C66.5526 27.5892 69.2754 25.8874 70.6131 23.1485L70.6532 23.0659L70.7424 23.0439C74.2792 22.1722 76.7488 19.0168 76.7488 15.3703C76.7488 12.5668 75.2406 9.94779 72.8126 8.53544L72.7139 8.47803L72.7159 8.32626C72.7166 3.93862 69.1708 0.3928 64.8123 0.3928C63.2961 0.3928 61.8213 0.825313 60.5473 1.64394L60.4412 1.71196L60.3346 1.64394C59.0607 0.825313 57.5858 0.3928 56.0696 0.3928C52.6433 0.3928 49.6244 2.58013 48.5581 5.83577L48.5305 5.91952L48.4495 5.95491C45.5545 7.2092 43.684 10.0571 43.684 13.2097C43.684 15.6263 44.7724 17.8793 46.67 19.3907L46.7922 19.4882L43.4017 26.5779L48.8785 24.2415L48.9713 24.3622C50.482 26.3223 52.7645 27.4465 55.2333 27.4465C56.6067 27.4465 57.9617 27.0867 59.1515 26.4057L59.2541 26.3475Z" fill="#FF931A"/>
<path d="M70.2005 9.29634C64.6978 9.29359 59.1946 9.29084 53.6915 9.28809C53.3754 9.28809 53.3746 9.77958 53.6915 9.77958C59.1946 9.78233 64.6974 9.78508 70.2005 9.78783C70.5166 9.78783 70.5174 9.29634 70.2005 9.29634Z" fill="#FF931A"/>
<path d="M64.5276 12.0336C59.0249 12.0309 53.5218 12.0281 48.0186 12.0254C47.7025 12.0254 47.7017 12.5169 48.0186 12.5169C53.5218 12.5196 59.0245 12.5224 64.5276 12.5251C64.8438 12.5251 64.8442 12.0336 64.5276 12.0336Z" fill="#FF931A"/>
<path d="M69.3523 14.771C63.8496 14.7682 58.3465 14.7654 52.8433 14.7627C52.5272 14.7627 52.5264 15.2542 52.8433 15.2542C58.3465 15.2569 63.8492 15.2597 69.3523 15.2624C69.6685 15.2628 69.6689 14.7713 69.3523 14.771Z" fill="#FF931A"/>
<path d="M69.3514 16.9108C63.8482 16.9081 58.3455 16.9053 52.8424 16.9026C52.5262 16.9026 52.5255 17.3941 52.8424 17.3941C58.3455 17.3968 63.8482 17.3996 69.3514 17.4023C69.6675 17.4027 69.6683 16.9112 69.3514 16.9108Z" fill="#FF931A"/>
<path d="M41.2466 28.4336C41.2466 28.69 41.4546 28.898 41.7109 28.898C41.9673 28.898 42.1753 28.69 42.1753 28.4336C42.1753 28.1772 41.9673 27.9692 41.7109 27.9692C41.4546 27.9692 41.2466 28.1772 41.2466 28.4336Z" fill="#FF931A"/>
<path d="M38.8872 30.0903C38.8872 30.3467 39.0952 30.5547 39.3516 30.5547C39.6079 30.5547 39.8159 30.3467 39.8159 30.0903C39.8159 29.834 39.6079 29.626 39.3516 29.626C39.0948 29.626 38.8872 29.834 38.8872 30.0903Z" fill="#FF931A"/>
<path d="M36.5283 31.7473C36.5283 32.0037 36.7363 32.2117 36.9927 32.2117C37.249 32.2117 37.457 32.0037 37.457 31.7473C37.457 31.491 37.249 31.283 36.9927 31.283C36.7359 31.283 36.5283 31.491 36.5283 31.7473Z" fill="#FF931A"/>
<path d="M34.1689 33.4038C34.1689 33.6602 34.3769 33.8682 34.6333 33.8682C34.8897 33.8682 35.0977 33.6602 35.0977 33.4038C35.0977 33.1475 34.8897 32.9395 34.6333 32.9395C34.3766 32.9398 34.1689 33.1475 34.1689 33.4038Z" fill="#FF931A"/>
<path d="M34.9801 127.65C33.9377 127.65 32.8997 127.42 31.9293 126.962C30.2221 126.157 28.9245 124.744 28.2687 122.977C25.0803 123.198 22.1203 121.272 21.0343 118.249C20.1288 115.727 20.6903 112.956 22.4982 110.984C22.4455 110.861 22.3952 110.737 22.3496 110.609C21.7228 108.865 21.8132 106.98 22.604 105.303C23.3951 103.625 24.7917 102.356 26.5367 101.73C27.9081 101.238 29.3645 101.186 30.7592 101.579C31.6085 100.24 32.8915 99.2112 34.3872 98.6737C36.188 98.0269 38.1335 98.1201 39.8647 98.9364C41.596 99.7526 42.9053 101.194 43.5521 102.995C43.5631 103.026 43.5733 103.056 43.5836 103.087C46.7405 102.897 49.6674 104.83 50.7405 107.818C51.646 110.339 51.0841 113.111 49.277 115.082C49.3077 115.16 49.3375 115.238 49.3659 115.317C50.0127 117.118 49.9195 119.063 49.1032 120.794C48.2869 122.525 46.8455 123.835 45.0443 124.482C43.6705 124.975 42.2062 125.038 40.799 124.666C39.9501 125.848 38.7799 126.732 37.4065 127.225C36.6154 127.509 35.7964 127.65 34.9801 127.65ZM28.5388 122.559L28.6029 122.743C29.2234 124.473 30.4611 125.835 32.0968 126.607C33.7329 127.378 35.5711 127.467 37.274 126.855C38.6136 126.374 39.7487 125.5 40.5564 124.328L40.6366 124.212L40.7722 124.251C42.1405 124.641 43.5726 124.593 44.9118 124.112C46.6139 123.501 47.9763 122.263 48.7481 120.627C49.5196 118.992 49.6077 117.153 48.9963 115.45C48.9558 115.338 48.9125 115.226 48.8665 115.117L48.817 114.999L48.905 114.906C50.6783 113.037 51.2398 110.372 50.3705 107.952C49.3395 105.081 46.4999 103.243 43.4593 103.49L43.304 103.503L43.2427 103.311C43.2234 103.25 43.2037 103.189 43.1825 103.129C42.5711 101.426 41.3333 100.064 39.6972 99.2926C38.0612 98.5216 36.2226 98.4331 34.5205 99.0445C33.0617 99.5682 31.8173 100.587 31.0159 101.912L30.9369 102.043L30.7902 101.999C29.4329 101.584 28.0084 101.619 26.6696 102.1C25.0233 102.692 23.7057 103.889 22.9594 105.47C22.2135 107.053 22.1278 108.831 22.7192 110.477C22.7766 110.637 22.841 110.792 22.9091 110.943L22.9629 111.064L22.8721 111.159C21.0965 113.028 20.5338 115.693 21.4039 118.116C22.4467 121.02 25.317 122.854 28.3859 122.573L28.5388 122.559Z" fill="#FF931A"/>
<path d="M26.2251 114.709C26.1677 114.709 26.1189 114.692 26.0787 114.658C26.0442 114.617 26.027 114.569 26.027 114.511V114.236C26.027 114.184 26.0413 114.126 26.0701 114.063C26.0988 114 26.1562 113.931 26.2423 113.857L28.0681 112.031C28.361 111.784 28.5906 111.574 28.7571 111.402C28.9294 111.224 29.05 111.055 29.1189 110.894C29.1935 110.733 29.2308 110.567 29.2308 110.394C29.2308 110.067 29.139 109.809 28.9552 109.619C28.7715 109.424 28.4988 109.326 28.137 109.326C27.9074 109.326 27.7093 109.375 27.5428 109.473C27.3763 109.565 27.2442 109.694 27.1466 109.86C27.0547 110.021 26.9945 110.205 26.9657 110.412C26.9543 110.486 26.9227 110.538 26.871 110.567C26.8251 110.595 26.782 110.61 26.7418 110.61H26.294C26.2423 110.61 26.1992 110.595 26.1648 110.567C26.1303 110.532 26.1131 110.492 26.1131 110.446C26.1189 110.228 26.1648 110.01 26.2509 109.792C26.337 109.568 26.4634 109.367 26.6299 109.189C26.8021 109.011 27.0117 108.867 27.2586 108.758C27.5112 108.643 27.804 108.586 28.137 108.586C28.5906 108.586 28.961 108.669 29.2481 108.836C29.5409 108.996 29.7562 109.212 29.894 109.481C30.0318 109.751 30.1007 110.047 30.1007 110.369C30.1007 110.621 30.0576 110.854 29.9715 111.066C29.8854 111.273 29.7591 111.477 29.5926 111.678C29.4318 111.873 29.2308 112.074 28.9897 112.281L27.3361 113.96H30.0232C30.0863 113.96 30.1351 113.977 30.1696 114.012C30.2098 114.046 30.2299 114.095 30.2299 114.158V114.511C30.2299 114.569 30.2098 114.617 30.1696 114.658C30.1351 114.692 30.0863 114.709 30.0232 114.709H26.2251ZM34.0292 114.709C33.9718 114.709 33.923 114.692 33.8828 114.658C33.8484 114.617 33.8312 114.569 33.8312 114.511V113.271H31.0407C30.9833 113.271 30.9345 113.254 30.8943 113.219C30.8599 113.179 30.8426 113.13 30.8426 113.073V112.728C30.8426 112.705 30.8484 112.671 30.8599 112.625C30.8771 112.573 30.9029 112.522 30.9374 112.47L33.5211 108.827C33.59 108.729 33.6962 108.681 33.8398 108.681H34.4599C34.5173 108.681 34.5632 108.701 34.5977 108.741C34.6379 108.775 34.658 108.821 34.658 108.879V112.522H35.4331C35.4962 112.522 35.545 112.542 35.5795 112.582C35.6197 112.616 35.6398 112.662 35.6398 112.72V113.073C35.6398 113.13 35.6197 113.179 35.5795 113.219C35.545 113.254 35.4991 113.271 35.4417 113.271H34.658V114.511C34.658 114.569 34.6379 114.617 34.5977 114.658C34.5632 114.692 34.5173 114.709 34.4599 114.709H34.0292ZM31.7642 112.539H33.8398V109.585L31.7642 112.539ZM36.3041 115.433C36.2582 115.433 36.218 115.415 36.1836 115.381C36.1491 115.347 36.1319 115.306 36.1319 115.26C36.1319 115.232 36.1405 115.197 36.1577 115.157L39.1032 108.095C39.1204 108.06 39.1434 108.026 39.1721 107.992C39.2065 107.957 39.2582 107.94 39.3271 107.94H39.663C39.7089 107.94 39.7491 107.957 39.7836 107.992C39.818 108.026 39.8353 108.066 39.8353 108.112C39.8353 108.135 39.8295 108.169 39.818 108.215L36.864 115.278C36.8525 115.306 36.8266 115.338 36.7864 115.372C36.752 115.413 36.7032 115.433 36.64 115.433H36.3041ZM41.3377 114.709C41.286 114.709 41.2429 114.692 41.2085 114.658C41.1798 114.617 41.1654 114.571 41.1654 114.52C41.1654 114.503 41.1712 114.477 41.1826 114.442L43.3271 109.43H40.5023C40.4448 109.43 40.396 109.413 40.3558 109.378C40.3214 109.338 40.3042 109.289 40.3042 109.232V108.887C40.3042 108.824 40.3214 108.775 40.3558 108.741C40.396 108.701 40.4448 108.681 40.5023 108.681H44.0334C44.0965 108.681 44.1453 108.701 44.1798 108.741C44.22 108.775 44.2401 108.824 44.2401 108.887V109.206C44.2401 109.281 44.2343 109.341 44.2228 109.387C44.2114 109.433 44.1941 109.484 44.1712 109.542L42.0439 114.494C42.0267 114.54 41.998 114.589 41.9578 114.64C41.9233 114.686 41.8716 114.709 41.8027 114.709H41.3377Z" fill="#FF4756"/>
<path d="M155.587 67.549C153.534 67.549 151.603 66.2951 150.834 64.278C148.592 64.4168 146.512 63.0524 145.748 60.9221C145.109 59.1453 145.498 57.1943 146.76 55.798C146.728 55.7221 146.698 55.6455 146.67 55.5672C146.225 54.3291 146.289 52.9918 146.85 51.802C147.412 50.6122 148.402 49.7122 149.641 49.2675C150.599 48.923 151.618 48.8825 152.595 49.1491C153.197 48.2169 154.097 47.5013 155.144 47.125C157.779 46.1782 160.696 47.5528 161.644 50.1903C161.646 50.1978 161.649 50.2052 161.651 50.2127C163.881 50.1022 165.927 51.4654 166.683 53.5706C167.321 55.3474 166.932 57.2988 165.669 58.6955C165.687 58.7391 165.703 58.7831 165.719 58.8272C166.178 60.1047 166.111 61.484 165.533 62.7119C164.953 63.9395 163.932 64.8682 162.654 65.3271C161.693 65.6727 160.668 65.7207 159.682 65.4678C159.082 66.29 158.261 66.9046 157.3 67.2498C156.734 67.4527 156.156 67.549 155.587 67.549ZM151.17 64.0519C152.044 66.485 154.734 67.7539 157.167 66.8798C158.094 66.5468 158.88 65.942 159.439 65.1309L159.519 65.0149L159.655 65.0534C160.604 65.3239 161.594 65.2905 162.521 64.9571C163.699 64.534 164.642 63.6772 165.177 62.5444C165.711 61.412 165.772 60.1389 165.349 58.9605C165.321 58.8822 165.29 58.8052 165.259 58.7297L165.209 58.6113L165.298 58.5185C166.525 57.2249 166.914 55.3801 166.312 53.7039C165.599 51.7163 163.623 50.4427 161.528 50.615L161.372 50.6275L161.324 50.4789C161.303 50.4121 161.289 50.3676 161.273 50.3232C160.399 47.8909 157.71 46.6225 155.276 47.4958C154.266 47.8583 153.405 48.5637 152.85 49.481L152.771 49.6119L152.625 49.5671C151.685 49.2805 150.699 49.3052 149.773 49.6375C148.634 50.0468 147.722 50.8749 147.206 51.9699C146.689 53.0649 146.63 54.2952 147.04 55.4343C147.079 55.5448 147.124 55.6518 147.171 55.7575L147.225 55.8778L147.134 55.9734C145.905 57.267 145.516 59.1126 146.118 60.79C146.839 62.7996 148.825 64.072 150.952 63.8758L151.106 63.8616L151.156 64.0079L150.985 64.1188L151.17 64.0519Z" fill="#FF931A"/>
<path d="M149.441 58.8132C149.401 58.8132 149.367 58.8012 149.338 58.777C149.314 58.7488 149.302 58.7146 149.302 58.6744V58.4812C149.302 58.445 149.312 58.4047 149.332 58.3604C149.352 58.3162 149.393 58.2679 149.453 58.2155L150.733 56.9356C150.938 56.7626 151.099 56.6156 151.216 56.4949C151.337 56.3701 151.421 56.2514 151.47 56.1387C151.522 56.026 151.548 55.9093 151.548 55.7885C151.548 55.5591 151.484 55.378 151.355 55.2452C151.226 55.1083 151.035 55.0399 150.781 55.0399C150.62 55.0399 150.481 55.0741 150.365 55.1425C150.248 55.2069 150.155 55.2975 150.087 55.4142C150.023 55.5269 149.98 55.6557 149.96 55.8006C149.952 55.8529 149.93 55.8892 149.894 55.9093C149.862 55.9294 149.831 55.9395 149.803 55.9395H149.489C149.453 55.9395 149.423 55.9294 149.399 55.9093C149.375 55.8851 149.363 55.857 149.363 55.8248C149.367 55.6718 149.399 55.5189 149.459 55.3659C149.52 55.209 149.608 55.0681 149.725 54.9433C149.846 54.8185 149.992 54.7179 150.166 54.6414C150.343 54.5609 150.548 54.5207 150.781 54.5207C151.099 54.5207 151.359 54.5791 151.56 54.6958C151.765 54.8085 151.916 54.9594 152.013 55.1486C152.11 55.3377 152.158 55.545 152.158 55.7704C152.158 55.9475 152.128 56.1105 152.067 56.2594C152.007 56.4043 151.918 56.5472 151.802 56.6881C151.689 56.8249 151.548 56.9658 151.379 57.1107L150.22 58.288H152.103C152.148 58.288 152.182 58.3001 152.206 58.3242C152.234 58.3484 152.248 58.3826 152.248 58.4268V58.6744C152.248 58.7146 152.234 58.7488 152.206 58.777C152.182 58.8012 152.148 58.8132 152.103 58.8132H149.441ZM154.912 58.8132C154.871 58.8132 154.837 58.8012 154.809 58.777C154.785 58.7488 154.773 58.7146 154.773 58.6744V57.805H152.817C152.777 57.805 152.742 57.7929 152.714 57.7688C152.69 57.7406 152.678 57.7064 152.678 57.6661V57.4246C152.678 57.4085 152.682 57.3844 152.69 57.3522C152.702 57.316 152.72 57.2798 152.744 57.2435L154.556 54.6897C154.604 54.6213 154.678 54.5871 154.779 54.5871H155.214C155.254 54.5871 155.286 54.6012 155.31 54.6294C155.338 54.6535 155.352 54.6857 155.352 54.726V57.2798H155.896C155.94 57.2798 155.974 57.2938 155.998 57.322C156.027 57.3462 156.041 57.3784 156.041 57.4186V57.6661C156.041 57.7064 156.027 57.7406 155.998 57.7688C155.974 57.7929 155.942 57.805 155.902 57.805H155.352V58.6744C155.352 58.7146 155.338 58.7488 155.31 58.777C155.286 58.8012 155.254 58.8132 155.214 58.8132H154.912ZM153.324 57.2918H154.779V55.221L153.324 57.2918ZM156.506 59.3204C156.474 59.3204 156.446 59.3083 156.422 59.2841C156.398 59.26 156.386 59.2318 156.386 59.1996C156.386 59.1795 156.392 59.1553 156.404 59.1272L158.469 54.1766C158.481 54.1524 158.497 54.1283 158.517 54.1041C158.541 54.08 158.577 54.0679 158.626 54.0679H158.861C158.893 54.0679 158.921 54.08 158.946 54.1041C158.97 54.1283 158.982 54.1564 158.982 54.1886C158.982 54.2047 158.978 54.2289 158.97 54.2611L156.899 59.2117C156.891 59.2318 156.873 59.254 156.845 59.2781C156.82 59.3063 156.786 59.3204 156.742 59.3204H156.506ZM160.035 58.8132C159.999 58.8132 159.969 58.8012 159.944 58.777C159.924 58.7488 159.914 58.7166 159.914 58.6804C159.914 58.6683 159.918 58.6502 159.926 58.6261L161.43 55.1124H159.449C159.409 55.1124 159.375 55.1003 159.347 55.0761C159.323 55.048 159.31 55.0137 159.31 54.9735V54.732C159.31 54.6877 159.323 54.6535 159.347 54.6294C159.375 54.6012 159.409 54.5871 159.449 54.5871H161.925C161.969 54.5871 162.003 54.6012 162.027 54.6294C162.055 54.6535 162.07 54.6877 162.07 54.732V54.9554C162.07 55.0077 162.065 55.05 162.057 55.0822C162.049 55.1144 162.037 55.1506 162.021 55.1908L160.53 58.6623C160.518 58.6945 160.498 58.7287 160.47 58.7649C160.445 58.7971 160.409 58.8132 160.361 58.8132H160.035Z" fill="#FF4756"/>
<path d="M47.1893 48.8806C45.4651 44.0789 40.7606 41.2078 35.9082 41.5975C35.8689 41.4752 35.8307 41.3525 35.7867 41.2306C33.7236 35.4849 27.3932 32.4998 21.6475 34.5632C19.1617 35.4558 17.1942 37.1481 15.9269 39.245C13.7982 38.595 11.4496 38.6009 9.19387 39.4109C3.63215 41.4079 0.742577 47.5359 2.7396 53.0976C2.83318 53.3583 2.93856 53.6111 3.04983 53.8596C0.263666 56.7916 -0.807391 61.1494 0.652928 65.2158C2.39084 70.0556 7.15674 72.9361 12.0504 72.491C12.063 72.5268 12.0732 72.5626 12.0858 72.5984C14.1489 78.3441 20.4793 81.3292 26.225 79.2658C28.4859 78.4538 30.317 76.9797 31.5835 75.142C33.7299 75.7542 36.0804 75.727 38.3413 74.9151C44.087 72.852 47.0721 66.5216 45.0086 60.7759C44.9426 60.5914 44.8714 60.4102 44.7967 60.2317C47.5797 57.2996 48.6488 52.9446 47.1893 48.8806Z" fill="white"/>
<path d="M26.8584 52.3005C26.4389 53.517 26.5018 54.8932 27.0306 56.0665C27.0786 56.173 27.1317 56.2863 27.1144 56.4019C27.0967 56.5202 27.0094 56.6146 26.9245 56.6991C26.1349 57.4828 25.1862 58.1048 24.1525 58.5161C23.9008 58.6163 23.6382 58.7052 23.3672 58.7048C23.09 58.7044 22.8219 58.6112 22.564 58.5098C21.9911 58.2845 21.4363 58.0136 20.9066 57.7002C20.5359 57.4808 20.1364 57.1706 20.1328 56.7396C20.1309 56.5214 20.2347 56.3181 20.329 56.1215C21.3053 54.0848 21.4756 51.6745 20.795 49.521" fill="#EAA992"/>
<path d="M27.8326 40.3023C28.569 40.8229 28.7059 41.8409 28.7782 42.7397C28.8565 43.7097 28.9343 44.6797 29.0126 45.6497C29.0849 46.549 29.1569 47.4612 28.987 48.3474C28.8077 49.2828 28.3658 50.149 27.8511 50.9507C27.3651 51.708 26.769 52.4531 25.9327 52.785C25.096 53.1172 24.1126 52.6183 23.2943 52.2428C22.4761 51.8673 21.7397 51.2276 21.0669 50.6291C20.2605 49.9123 19.5162 49.5695 18.9688 48.6396C18.0834 47.1344 17.9497 45.2475 18.4455 43.5733C18.9413 41.899 20.0277 40.434 21.3756 39.3232" fill="#F8B69B"/>
<path d="M26.6637 49.4311C26.4211 49.7999 26.1313 50.2005 25.6968 50.2792C25.2706 50.3563 24.8613 50.0912 24.5334 49.8077C24.3698 49.6662 24.2122 49.5156 24.0859 49.3398C24.6848 49.3505 25.1908 49.4208 25.7896 49.4315C26.0059 49.4354 26.4534 49.4786 26.6637 49.4311Z" fill="white"/>
<path d="M24.0263 44.1907C23.3921 44.002 22.7539 44.0818 22.1862 44.4211C22.034 44.5119 21.896 44.2749 22.0478 44.184C22.6757 43.8085 23.398 43.7169 24.0994 43.9257C24.2681 43.9764 24.1966 44.2414 24.0263 44.1907Z" fill="#36465B"/>
<path d="M26.6932 43.9096C27.4206 43.6532 28.2042 43.7661 28.8282 44.2206C28.9694 44.3236 28.833 44.5619 28.6898 44.4577C28.1181 44.0413 27.4344 43.9391 26.7663 44.1742C26.5992 44.2332 26.5273 43.9678 26.6932 43.9096Z" fill="#36465B"/>
<path d="M24.1146 45.8392C23.4647 46.3771 22.6748 45.9854 22.0641 45.5942C21.9175 45.5002 22.0339 45.2514 22.1829 45.3465C22.7058 45.6815 23.386 46.0865 23.957 45.6139C24.0934 45.5014 24.2499 45.7275 24.1146 45.8392Z" fill="#36465B"/>
<path d="M28.5321 45.6333C28.0158 46.0737 27.2884 46.0847 26.754 45.6706C26.6145 45.5625 26.8103 45.3694 26.9483 45.4764C27.3576 45.7937 27.9458 45.7736 28.3382 45.439C28.4715 45.325 28.6665 45.5185 28.5321 45.6333Z" fill="#36465B"/>
<path d="M25.6623 46.0264C25.7748 46.5418 25.9529 47.0345 26.188 47.4796C26.2572 47.6105 26.3351 47.7607 26.3036 47.9129C26.2608 48.1201 26.0547 48.1811 25.8861 48.2039C25.6753 48.2322 25.4646 48.2605 25.2534 48.2888C25.264 48.0037 25.6521 46.311 25.6623 46.0264Z" fill="#EAA992"/>
<path opacity="0.21" d="M22.1092 49.1978C22.6114 49.1978 23.0186 48.7906 23.0186 48.2884C23.0186 47.7861 22.6114 47.3789 22.1092 47.3789C21.6069 47.3789 21.1997 47.7861 21.1997 48.2884C21.1997 48.7906 21.6069 49.1978 22.1092 49.1978Z" fill="#FF4756"/>
<path opacity="0.21" d="M28.3264 48.9764C28.8287 48.9764 29.2359 48.5692 29.2359 48.0669C29.2359 47.5646 28.8287 47.1575 28.3264 47.1575C27.8242 47.1575 27.417 47.5646 27.417 48.0669C27.417 48.5692 27.8242 48.9764 28.3264 48.9764Z" fill="#FF4756"/>
<path d="M12.2664 46.1021C12.9596 45.3154 13.3131 45.1274 13.9221 44.2738C14.6429 43.2641 14.6433 41.9276 14.9924 40.7374C15.4528 39.1686 16.2156 38.256 17.6708 37.5101C19.1257 36.7642 20.6713 36.2515 22.5736 36.4017C23.008 36.4359 23.8825 36.5519 24.304 36.6628C25.3983 36.9502 26.139 36.9211 27.1177 37.4889C28.5348 38.311 29.7792 39.6561 30.0474 41.1735C30.3159 42.6908 30.045 44.5557 30.9089 45.8316C31.6091 46.8665 32.0043 47.6065 32.3 48.8207C32.6358 50.1992 32.0778 51.8589 30.9812 52.7597C30.2821 53.3337 29.8614 53.5378 28.9728 53.7077C28.0846 53.8775 27.0886 53.6758 26.4611 53.0243C26.3309 52.889 26.2126 52.7215 26.2149 52.5336C26.2173 52.3225 26.3683 52.1463 26.5082 51.9882C27.286 51.1075 27.9776 50.0726 28.429 48.9768C28.915 47.7406 28.6669 46.7832 28.4825 46.1293C28.2965 45.4711 28.5171 45.0928 28.4825 44.5604C28.4703 44.3764 28.4781 43.9034 28.4164 43.6187C28.3409 43.1084 28.0236 42.565 27.6367 42.4848C27.5349 42.4451 27.2557 42.5351 27.1295 42.6122C26.9054 42.7498 26.4221 43.4343 26.0773 43.1744C25.7325 42.9145 25.6617 42.4561 25.2032 42.7679C24.7448 43.0797 24.3567 43.4937 23.4638 43.4847C23.3603 43.4835 23.0525 43.4902 23.0135 43.4957C22.1002 43.6215 21.7129 43.1465 21.451 43.7603C21.2017 44.345 21.0456 46.8697 21.2568 47.7158C21.0995 48.5105 21.3201 47.8208 21.3118 47.857C21.0499 48.9953 21.1329 49.4958 21.333 50.6467C21.4451 51.2919 21.6303 51.93 21.6382 52.5851C21.6456 53.2402 21.4416 53.9404 20.9214 54.3388C20.1208 54.9513 18.946 54.6124 18.1065 54.0549C17.267 53.4973 16.9906 53.1883 16.1012 52.7145C15.511 52.3999 14.7191 52.0429 14.0877 51.9289C12.8499 51.7055 11.8988 50.9266 11.4847 49.7388C11.0715 48.5509 11.4348 47.0458 12.2664 46.1021Z" fill="#36465B"/>
<path d="M19.0622 46.8429C18.4032 45.5013 17.7442 44.1597 17.0848 42.8182C16.8434 42.3271 16.5406 41.7841 16.0098 41.6508C15.5156 41.5269 14.9871 41.8368 14.7276 42.2756C14.4681 42.7144 14.4304 43.2499 14.4689 43.7583C14.6057 45.5662 15.5977 47.1814 16.5626 48.7165C17.2617 49.8288 17.9608 50.9411 18.6599 52.0535C19.3154 53.0966 20.0208 54.1866 21.1123 54.7575C21.5617 54.9922 22.0866 55.1287 22.5789 55.0076C23.0712 54.8864 23.5072 54.459 23.523 53.9522C23.5351 53.5634 23.3146 53.2103 23.1003 52.8859C22.1141 51.3945 21.084 49.9322 20.011 48.5018" fill="#25323F"/>
<path d="M18.0311 54.7599C18.2575 53.7982 18.3303 52.7515 17.9202 51.8526C17.2856 50.4611 15.5764 49.5698 15.5032 48.0422C15.4969 47.914 15.5272 47.7532 15.6511 47.7198C15.7163 47.7021 15.7844 47.7288 15.8453 47.7583C16.5008 48.076 17.0485 48.792 17.7684 48.6823C18.228 48.6123 18.5654 48.2089 18.7695 47.791C18.9731 47.373 19.0915 46.9114 19.3506 46.5253C19.4442 46.3861 19.5732 46.2489 19.7403 46.2363C19.8358 46.2292 19.929 46.2642 20.0159 46.3039C20.8204 46.6684 21.3822 47.417 21.812 48.1889C22.1973 48.8813 22.5127 49.6649 22.3951 50.4485C22.3365 50.8382 22.1745 51.2031 22.0408 51.5735C21.5501 52.9339 21.4373 54.4284 21.7192 55.8471C21.7385 55.945 21.7585 56.0527 21.7094 56.1396C21.6559 56.234 21.5403 56.2702 21.4345 56.2941C20.2597 56.5611 18.9708 56.2745 18.0204 55.5337" fill="#EAA992"/>
<path d="M17.6406 55.1074C15.3853 55.4428 12.8704 55.9335 11.5799 57.8134C10.501 59.3854 10.12 62.1456 10.3331 64.0404C10.7519 67.7635 10.685 71.1458 12.6703 74.4403C13.0245 75.0282 13.9112 75.9667 14.1082 76.2046C19.3962 82.5928 27.6989 80.0874 31.0642 76.1252C31.3383 75.8028 31.562 75.1402 31.7122 75.178C32.1329 75.2837 32.2237 75.3325 32.289 75.1005C33.2626 71.6424 34.1398 68.4807 33.9263 64.8944C33.7128 61.3081 32.0806 57.9195 28.9445 56.1667C28.8081 56.0904 28.4621 55.9131 28.2773 55.847C27.7917 55.6732 27.448 55.6213 27.2302 55.781C25.6496 56.9409 24.0607 57.5342 22.1902 56.9468" fill="#FF931A"/>
<path d="M31.2007 58.0765C31.1346 59.9001 30.3958 62.6112 28.6783 63.5981C27.3159 64.3806 26.0357 62.84 25.1592 61.9357C24.332 61.0817 23.6085 60.1431 22.9672 59.1428C22.9353 59.0933 22.8524 59.0701 22.8095 59.1224C21.9991 60.114 21.1675 61.0872 20.3068 62.036C19.9388 62.4413 19.583 62.9395 19.1512 63.2749C18.0786 64.1077 17.1511 63.3897 16.4775 62.6438C14.8674 60.8603 14.5045 58.4213 14.1848 56.1298C14.1671 56.0024 13.9737 56.0567 13.9914 56.1833C14.3555 58.7929 14.8305 61.8382 17.1295 63.503C18.1966 64.276 18.8253 63.9158 19.6679 63.0252C20.24 62.4209 20.7952 61.8004 21.3425 61.1737C21.7145 60.7475 22.5708 59.3084 23.073 59.6733C23.5023 59.9851 23.8566 60.7655 24.216 61.1926C24.7291 61.8016 25.2847 62.3741 25.8768 62.9065C26.5264 63.4908 27.4095 64.416 28.3685 64.0365C29.3629 63.6429 30.1233 62.415 30.5629 61.5044C31.0811 60.4313 31.3579 59.2655 31.4012 58.0769C31.4059 57.9471 31.2054 57.9475 31.2007 58.0765Z" fill="#150202"/>
<path d="M30.3435 70.7211C29.9373 70.7211 29.9365 70.0896 30.3435 70.0896C30.7497 70.09 30.7505 70.7211 30.3435 70.7211Z" fill="#150202"/>
<path d="M24.4231 70.6207C24.0169 70.6207 24.0161 69.9893 24.4231 69.9893C24.8293 69.9897 24.83 70.6207 24.4231 70.6207Z" fill="#150202"/>
<path d="M23.9211 66.4066C23.515 66.4066 23.5142 65.7751 23.9211 65.7751C24.3273 65.7751 24.3281 66.4066 23.9211 66.4066Z" fill="#150202"/>
<path d="M31.2458 65.5035C30.8397 65.5035 30.8389 64.8721 31.2458 64.8721C31.6524 64.8721 31.6528 65.5035 31.2458 65.5035Z" fill="#150202"/>
<path d="M28.5369 60.1854C28.1307 60.1854 28.1299 59.554 28.5369 59.554C28.943 59.554 28.9438 60.1854 28.5369 60.1854Z" fill="#150202"/>
<path d="M24.4231 59.0209C24.0169 59.0209 24.0161 58.3894 24.4231 58.3894C24.8293 58.3898 24.83 59.0209 24.4231 59.0209Z" fill="#150202"/>
<path d="M27.8425 57.2208C27.4364 57.2208 27.4356 56.5894 27.8425 56.5894C28.2487 56.5894 28.2495 57.2208 27.8425 57.2208Z" fill="#150202"/>
<path d="M12.8058 62.958C12.8393 62.9914 12.8727 63.0248 12.9061 63.0582C13.1939 63.346 12.7473 63.7923 12.4598 63.5045C12.4264 63.4711 12.393 63.4376 12.3596 63.4042C12.0717 63.1164 12.518 62.6701 12.8058 62.958Z" fill="#150202"/>
<path d="M13.0847 59.182C12.6785 59.182 12.6778 58.5505 13.0847 58.5505C13.4909 58.5505 13.4917 59.182 13.0847 59.182Z" fill="#150202"/>
<path d="M16.4153 56.9051C16.0091 56.9051 16.0083 56.2737 16.4153 56.2737C16.8214 56.2737 16.8222 56.9051 16.4153 56.9051Z" fill="#150202"/>
<path d="M25.928 74.233C25.5218 74.233 25.521 73.6016 25.928 73.6016C26.3341 73.602 26.3349 74.233 25.928 74.233Z" fill="#150202"/>
<path d="M27.5373 77.9364C27.1312 77.9364 27.1304 77.3049 27.5373 77.3049C27.9435 77.3049 27.9443 77.9364 27.5373 77.9364Z" fill="#150202"/>
<path d="M21.9143 73.6312C21.5081 73.6312 21.5073 72.9998 21.9143 72.9998C22.3205 72.9998 22.3213 73.6312 21.9143 73.6312Z" fill="#150202"/>
<path d="M19.8928 76.4965C19.4866 76.4965 19.4859 75.865 19.8928 75.865C20.299 75.865 20.2998 76.4965 19.8928 76.4965Z" fill="#150202"/>
<path d="M16.7507 77.9364C16.3446 77.9364 16.3438 77.3049 16.7507 77.3049C17.1573 77.3049 17.1577 77.9364 16.7507 77.9364Z" fill="#150202"/>
<path d="M23.6257 76.8119C23.2196 76.8119 23.2188 76.1804 23.6257 76.1804C24.0319 76.1804 24.0327 76.8119 23.6257 76.8119Z" fill="#150202"/>
<path d="M21.9143 79.4562C21.5081 79.4562 21.5073 78.8247 21.9143 78.8247C22.3205 78.8247 22.3213 79.4562 21.9143 79.4562Z" fill="#150202"/>
<path d="M27.2327 67.8114C26.8265 67.8114 26.8257 67.1799 27.2327 67.1799C27.6388 67.1799 27.6392 67.8114 27.2327 67.8114Z" fill="#150202"/>
<path d="M26.0286 63.6974C25.6224 63.6974 25.6216 63.0659 26.0286 63.0659C26.4347 63.0659 26.4355 63.6974 26.0286 63.6974Z" fill="#150202"/>
<path d="M23.1184 61.4896C22.7122 61.4896 22.7114 60.8582 23.1184 60.8582C23.525 60.8582 23.5254 61.4896 23.1184 61.4896Z" fill="#150202"/>
<path d="M29.741 74.7347C29.3348 74.7347 29.334 74.1033 29.741 74.1033C30.1475 74.1037 30.1479 74.7347 29.741 74.7347Z" fill="#150202"/>
<path d="M12.2815 69.6173C11.8753 69.6173 11.8745 68.9858 12.2815 68.9858C12.6877 68.9862 12.6884 69.6173 12.2815 69.6173Z" fill="#150202"/>
<path d="M32.3503 61.4896C31.9442 61.4896 31.9434 60.8582 32.3503 60.8582C32.7565 60.8582 32.7573 61.4896 32.3503 61.4896Z" fill="#150202"/>
<path d="M33.0178 68.4135C32.6116 68.4135 32.6109 67.782 33.0178 67.782C33.424 67.782 33.4248 68.4135 33.0178 68.4135Z" fill="#150202"/>
<path d="M21.8219 55.1539C20.7374 55.7354 19.8559 55.7229 18.8175 55.0454C18.6295 54.9227 18.2477 54.7403 18.0307 54.7603C17.6851 54.7926 17.6788 55.2467 17.553 55.6073C15.679 60.9791 13.7807 66.4783 13.6029 72.2389C13.5569 73.728 13.7068 75.4092 14.7365 76.358C15.9299 77.457 17.8329 76.9981 18.9472 75.8001C20.0615 74.602 20.5688 72.8802 20.9828 71.2166C22.2846 65.9875 23.0533 60.4046 21.8219 55.1539Z" fill="#ED8218"/>
<path d="M16.1101 65.2025C15.7039 65.2025 15.7031 64.571 16.1101 64.571C16.5167 64.571 16.5171 65.2025 16.1101 65.2025Z" fill="#150202"/>
<path d="M18.0198 71.7516C17.6136 71.7516 17.6128 71.1201 18.0198 71.1201C18.4259 71.1201 18.4267 71.7516 18.0198 71.7516Z" fill="#150202"/>
<path d="M19.8645 68.8993C19.4583 68.8993 19.4575 68.2678 19.8645 68.2678C20.2707 68.2678 20.2714 68.8993 19.8645 68.8993Z" fill="#150202"/>
<path d="M16.4153 74.7347C16.0091 74.7347 16.0083 74.1033 16.4153 74.1033C16.8214 74.1037 16.8222 74.7347 16.4153 74.7347Z" fill="#150202"/>
<path d="M20.5245 64.8867C20.5245 64.9201 20.5245 64.9536 20.5245 64.987C20.5245 65.3931 19.8931 65.3939 19.8931 64.987C19.8931 64.9536 19.8931 64.9201 19.8931 64.8867C19.8931 64.4805 20.5245 64.4798 20.5245 64.8867Z" fill="#150202"/>
<path d="M18.6033 60.1854C18.1971 60.1854 18.1963 59.554 18.6033 59.554C19.0094 59.554 19.0098 60.1854 18.6033 60.1854Z" fill="#150202"/>
<path d="M21.1116 58.2787C20.7054 58.2787 20.7046 57.6472 21.1116 57.6472C21.5181 57.6472 21.5185 58.2787 21.1116 58.2787Z" fill="#150202"/>
<path d="M15.1061 69.2517C15.1061 69.2851 15.1061 69.3185 15.1061 69.352C15.1061 69.7581 14.4746 69.7589 14.4746 69.352C14.4746 69.3185 14.4746 69.2851 14.4746 69.2517C14.4746 68.8455 15.1061 68.8447 15.1061 69.2517Z" fill="#150202"/>
<path d="M165.296 97.9015C161.381 86.9987 150.699 80.4792 139.68 81.3635C139.59 81.0855 139.504 80.8071 139.404 80.5303C134.719 67.4833 120.345 60.7051 107.298 65.39C101.654 67.4169 97.1854 71.2592 94.3084 76.0211C89.4748 74.5455 84.1412 74.5589 79.019 76.3982C66.3897 80.9333 59.8281 94.848 64.3632 107.477C64.5759 108.069 64.8153 108.643 65.0678 109.207C58.7409 115.866 56.3094 125.76 59.6252 134.994C63.5717 145.984 74.3935 152.525 85.5056 151.515C85.5339 151.596 85.5571 151.677 85.5862 151.758C90.2711 164.805 104.646 171.584 117.692 166.899C122.826 165.055 126.984 161.707 129.86 157.534C134.733 158.924 140.071 158.863 145.205 157.019C158.251 152.334 165.03 137.96 160.345 124.913C160.195 124.494 160.034 124.083 159.864 123.677C166.183 117.019 168.61 107.13 165.296 97.9015Z" fill="white"/>
<g opacity="0.51">
<path d="M172.763 167.069C158.822 167.069 144.882 167.069 130.941 167.069C108.902 167.069 86.8632 167.069 64.8244 167.069C59.777 167.069 54.7295 167.069 49.6817 167.069C49.3656 167.069 49.3648 167.56 49.6817 167.56C63.6224 167.56 77.5627 167.56 91.5033 167.56C113.542 167.56 135.581 167.56 157.62 167.56C162.667 167.56 167.715 167.56 172.763 167.56C173.079 167.56 173.079 167.069 172.763 167.069Z" fill="#36465B"/>
</g>
<g opacity="0.51">
<path d="M141.716 172.848C122.946 172.839 104.177 172.83 85.4078 172.821C82.7656 172.819 80.1233 172.818 77.481 172.817C77.1649 172.817 77.1641 173.308 77.481 173.308C96.2505 173.317 115.02 173.327 133.789 173.336C136.431 173.337 139.074 173.338 141.716 173.34C142.032 173.34 142.033 172.849 141.716 172.848Z" fill="#36465B"/>
</g>
<path d="M146.589 113.083V121.217C146.589 121.297 146.653 121.361 146.733 121.361H151.828C151.908 121.361 151.972 121.297 151.972 121.217V119.906C152.631 119.679 153.577 119.083 154.112 118.194C154.503 117.545 154.601 116.843 154.395 116.164C154.212 115.557 153.872 115.133 153.385 114.904C152.894 114.673 152.36 114.7 151.973 114.773V113.083C151.973 113.003 151.908 112.939 151.829 112.939H146.734C146.654 112.939 146.589 113.003 146.589 113.083ZM151.973 119.062V115.577C152.243 115.508 152.685 115.442 153.053 115.617C153.332 115.75 153.525 116.003 153.642 116.391C153.784 116.859 153.715 117.329 153.439 117.788C153.086 118.373 152.469 118.829 151.973 119.062Z" fill="#FF931A"/>
<path d="M151.23 114.045C151.488 114.045 151.489 113.644 151.23 113.644C150.972 113.644 150.971 114.045 151.23 114.045Z" fill="white"/>
<path d="M150.461 116.431C150.72 116.431 150.72 116.03 150.461 116.03C150.203 116.03 150.203 116.431 150.461 116.431Z" fill="white"/>
<path d="M151.029 118.113C151.029 118.121 151.029 118.13 151.029 118.139C151.029 118.397 151.43 118.398 151.43 118.139C151.43 118.13 151.43 118.121 151.43 118.113C151.43 117.854 151.029 117.854 151.029 118.113Z" fill="white"/>
<path d="M149.147 118.616C149.147 118.625 149.147 118.634 149.147 118.642C149.147 118.901 149.548 118.901 149.548 118.642C149.548 118.634 149.548 118.625 149.548 118.616C149.548 118.358 149.147 118.357 149.147 118.616Z" fill="white"/>
<path d="M148.116 115.433C148.106 115.433 148.098 115.433 148.089 115.433C147.831 115.433 147.83 115.834 148.089 115.834C148.097 115.834 148.106 115.834 148.116 115.834C148.373 115.835 148.374 115.433 148.116 115.433Z" fill="white"/>
<path d="M149.242 114.178C149.501 114.178 149.501 113.777 149.242 113.777C148.984 113.777 148.984 114.178 149.242 114.178Z" fill="white"/>
<path d="M147.536 117.387C147.527 117.396 147.518 117.405 147.51 117.414C147.327 117.597 147.61 117.88 147.793 117.697C147.802 117.689 147.811 117.68 147.82 117.671C148.003 117.488 147.719 117.205 147.536 117.387Z" fill="white"/>
<path d="M147.409 113.345C147.4 113.337 147.391 113.327 147.383 113.319C147.2 113.136 146.916 113.419 147.099 113.602C147.108 113.611 147.117 113.62 147.126 113.629C147.308 113.811 147.592 113.528 147.409 113.345Z" fill="white"/>
<path d="M147.952 120.038C147.943 120.029 147.934 120.02 147.926 120.011C147.743 119.829 147.459 120.112 147.642 120.295C147.651 120.304 147.66 120.313 147.669 120.322C147.851 120.505 148.135 120.221 147.952 120.038Z" fill="white"/>
<path d="M150.833 120.725C151.09 120.725 151.091 120.324 150.833 120.324C150.574 120.324 150.574 120.725 150.833 120.725Z" fill="white"/>
<g opacity="0.35">
<path d="M149.744 112.404C148.545 111.989 148.705 110.7 149.453 110.018C149.603 109.882 149.737 109.878 149.889 109.707C150.096 109.476 150.205 109.165 150.145 108.856C150.058 108.406 149.623 108.223 149.442 107.832C149.187 107.285 150.088 106.4 150.006 105.772C149.989 105.646 149.788 105.644 149.805 105.772C149.871 106.277 149.257 106.791 149.154 107.278C149.113 107.476 149.099 107.505 149.166 107.729C149.392 108.478 149.657 107.929 149.472 109.088C149.291 110.228 149.23 109.633 148.749 110.223C148.123 110.991 148.886 112.319 149.69 112.598C149.813 112.64 149.865 112.446 149.744 112.404Z" fill="#25323F"/>
</g>
<path d="M109.729 167.315C110.254 161.987 110.778 156.659 111.303 151.331C111.612 148.183 111.922 145.035 112.232 141.888C112.332 140.874 112.336 139.787 112.667 138.81C113.859 135.289 117.841 134.362 121.161 134.481C121.837 134.505 122.522 134.647 123.195 134.647C123.804 134.647 124.429 134.518 125.041 134.489C126.332 134.43 127.641 134.49 128.901 134.796C130.514 135.188 132.038 136.01 133.004 137.394C133.681 138.364 133.911 139.383 134.023 140.521C134.283 143.164 134.543 145.807 134.803 148.45C135.422 154.738 136.041 161.027 136.66 167.315C136.691 167.633 137.193 167.637 137.162 167.315C136.597 161.581 136.033 155.846 135.469 150.112C135.168 147.061 134.868 144.01 134.568 140.959C134.46 139.865 134.372 138.867 133.864 137.86C132.268 134.691 128.492 133.863 125.229 133.979C124.553 134.003 123.867 134.146 123.195 134.146C122.523 134.146 121.837 134.004 121.161 133.979C119.977 133.937 118.778 134.002 117.617 134.253C116.012 134.599 114.459 135.34 113.372 136.599C112.522 137.582 112.049 138.759 111.913 140.037C111.655 142.458 111.436 144.884 111.197 147.307C110.541 153.976 109.884 160.645 109.228 167.315C109.196 167.636 109.698 167.633 109.729 167.315Z" fill="#36465B"/>
<path d="M117.425 167.117C117.834 157.951 118.106 148.768 118.651 139.609C118.778 137.492 119.536 134.28 122.182 134.273C122.593 134.272 122.989 134.449 123.387 134.449C123.746 134.449 124.106 134.285 124.473 134.273C125.465 134.242 126.307 134.691 126.892 135.482C127.633 136.484 127.948 137.814 128.079 139.035C128.506 142.983 128.455 147.032 128.631 150.996C128.871 156.37 129.111 161.743 129.35 167.117C129.364 167.439 129.866 167.44 129.852 167.117C129.631 162.157 129.41 157.197 129.189 152.237C128.995 147.89 129 143.482 128.593 139.148C128.382 136.902 127.417 133.86 124.713 133.771C124.263 133.756 123.833 133.886 123.388 133.886C122.943 133.886 122.514 133.756 122.064 133.771C121.386 133.794 120.746 134.015 120.21 134.428C119.226 135.186 118.722 136.433 118.439 137.605C118.145 138.825 118.131 140.064 118.075 141.309C117.949 144.13 117.823 146.951 117.698 149.772C117.44 155.554 117.182 161.336 116.924 167.117C116.909 167.44 117.411 167.439 117.425 167.117Z" fill="#36465B"/>
<path d="M113.513 155.803C113.436 157.424 113.847 159.076 114.678 160.486C113.395 160.501 112.096 160.518 110.864 160.856C109.956 161.105 109.077 161.529 108.13 161.525C108.931 159.771 109.109 157.726 108.625 155.833" fill="#F8B69B"/>
<path d="M114.211 159.444C115.036 160.777 115.366 162.233 115.436 163.799C115.47 164.544 115.341 165.416 114.695 165.789C114.407 165.954 114.065 165.988 113.735 166.028C111.373 166.31 109.098 167.073 106.775 167.592C104.453 168.112 101.993 168.38 99.7192 167.677C98.9104 167.428 98.0816 167.003 97.7155 166.24C97.6451 166.092 97.5932 165.932 97.6027 165.769C97.631 165.281 98.159 164.998 98.6258 164.853C101.068 164.097 103.891 164.47 106.027 163.065C107.053 162.391 107.961 161.019 108.418 160.809C109.081 160.504 110.478 160.821 111.204 160.74C112.304 160.618 113.366 160.161 114.211 159.444Z" fill="#36465B"/>
<path d="M104.663 126.53C107.11 128.949 108.227 132.373 109.2 135.673C111.276 142.713 113.076 149.833 114.595 157.013C114.659 157.317 114.462 157.615 114.157 157.674L109.389 158.603C109.088 158.662 108.758 158.717 108.49 158.568C108.274 158.448 108.145 158.221 108.027 158.004C102.893 148.568 99.1432 138.38 96.9351 127.868" fill="#2C3B4C"/>
<path d="M130.136 83.1284C128.894 85.4093 128.7 88.2352 129.618 90.6647C129.665 90.7874 129.714 90.9223 129.671 91.0458C129.642 91.1271 129.577 91.1897 129.514 91.249C128.223 92.4668 126.932 93.6849 125.642 94.9026C125.542 94.9958 125.424 95.096 125.289 95.0776C125.178 95.0622 125.095 94.9702 125.023 94.8837C124.306 94.0155 123.65 93.0963 123.063 92.1353C122.936 91.9273 122.81 91.7106 122.772 91.4696C122.734 91.2333 122.785 90.9927 122.84 90.7595C123.093 89.6747 123.436 88.5612 123.225 87.4669" fill="#EAA992"/>
<path d="M134.276 136.081C134.276 136.081 147.407 117.276 137.399 102.612C127.391 87.947 127.021 134.394 127.021 134.394" fill="#25323F"/>
<path d="M87.8169 149.6C86.7167 150.858 85.9992 152.447 85.7817 154.104C84.7162 153.313 83.6361 152.513 82.4062 152.014C81.4995 151.647 80.5047 151.438 79.7285 150.842C81.5093 149.93 82.9625 148.393 83.7741 146.564" fill="#F8B69B"/>
<path d="M86.0392 152.875C85.8733 154.434 85.3028 155.947 84.398 157.228C83.9675 157.837 83.3309 158.447 82.5921 158.345C82.263 158.299 81.972 158.116 81.6874 157.944C79.6479 156.718 77.3831 155.926 75.2307 154.911C73.0784 153.896 70.9705 152.599 69.6057 150.65C69.1201 149.957 68.7261 149.113 68.9054 148.286C68.94 148.126 68.9974 147.968 69.1048 147.844C69.426 147.477 70.0174 147.577 70.4743 147.749C72.8676 148.65 74.8674 150.676 77.4165 150.877C78.6401 150.973 79.9231 150.634 81.0708 151.069C81.7534 151.327 82.3082 151.834 82.9306 152.215C83.8751 152.794 84.9324 152.923 86.0392 152.875Z" fill="#36465B"/>
<path d="M112.821 136.107H134.024C134.697 136.107 135.242 135.562 135.242 134.889C135.242 134.217 134.697 133.672 134.024 133.672H112.82C112.148 133.672 111.603 134.217 111.603 134.889C111.603 135.561 112.148 136.107 112.821 136.107Z" fill="#25323F"/>
<path d="M97.1999 117.677C97.1999 117.677 94.1078 117.356 92.4658 118.496C90.8235 119.635 90.1838 121.004 90.216 121.486C90.2482 121.967 91.3452 121.327 91.9574 120.814C92.5693 120.3 94.8738 119.485 95.9287 120.017C96.9836 120.549 99.3353 120.725 100.453 119.197L99.467 117.15C99.467 117.15 98.1557 117.719 97.1999 117.677Z" fill="#F8B69B"/>
<path d="M129.619 90.6646C128.378 91.977 128.313 91.9212 126.733 92.7941C126.385 92.9856 125.481 93.074 125.096 92.9781C124.786 92.901 124.282 92.6687 124.064 92.4351C123.35 91.6699 123.52 91.6782 122.806 90.9131C121.503 91.7973 119.534 92.5468 117.981 92.8094C117.352 92.916 116.677 92.9828 116.179 93.3807C115.622 93.825 115.424 94.5705 115.26 95.2637C114.171 99.8767 113.175 104.512 112.274 109.165C112.056 110.289 111.813 111.477 111.041 112.323C110.003 113.461 108.324 113.664 106.809 113.949C103.749 114.525 100.808 115.726 98.2189 117.457C98.0054 117.599 97.7715 117.787 97.7715 118.044C97.7715 118.18 97.8403 118.306 97.9166 118.419C98.2992 118.982 98.8807 119.393 99.5436 119.549C101.384 119.981 103.503 119.847 105.179 119.403C108.781 118.45 112.217 118.749 115.168 116.475C115.431 116.272 116.036 115.851 116.281 115.879C116.703 115.928 114.891 121.921 115.226 122.181C115.325 122.258 115.736 122.203 115.861 122.213C131.054 123.435 128.199 117.411 133.758 116.534C134.25 113.358 134.793 110.017 134.916 106.806C135.829 109.716 136.764 112.305 137.248 115.152C137.284 115.364 137.313 115.605 137.179 115.773C137.055 115.93 136.834 115.965 136.635 115.987C131.25 116.585 125.392 115.696 120.537 117.993C120.279 118.115 120.237 118.29 120.736 118.965C121.409 119.874 121.781 120.866 122.861 121.22C123.536 121.442 124.799 121.125 125.509 121.144C128.631 121.228 132.104 121.248 135.226 121.154C137.671 121.08 139.772 120.779 142.285 119.952C142.529 119.872 142.928 119.508 143.031 119.272C143.195 118.897 143.145 118.355 143.124 118.006C142.844 113.147 141.776 108.373 140.711 103.624C140.057 100.706 139.344 97.0779 137.324 94.8737C136.478 93.9505 135.43 93.7916 134.404 93.0737C133.224 92.2491 130.797 91.4895 129.619 90.6646Z" fill="#FF4756"/>
<path d="M118.752 121.57C118.752 121.57 119.217 121.411 119.074 120.781C118.931 120.15 116.371 118.892 114.332 119.512C112.292 120.133 112.19 121.148 112.608 121.481C113.026 121.814 118.752 121.57 118.752 121.57Z" fill="#25323F"/>
<path d="M119.389 118.074C119.389 118.074 116.431 117.118 114.588 117.892C112.745 118.665 111.835 119.871 111.766 120.349C111.698 120.827 112.904 120.429 113.609 120.053C114.315 119.678 116.738 119.359 117.66 120.099C118.581 120.839 120.845 121.498 122.256 120.236L121.716 118.029C121.716 118.029 120.315 118.312 119.389 118.074Z" fill="#F8B69B"/>
<path d="M116.28 115.879C118.257 112.68 118.672 107.901 118.321 104.157C118.216 103.044 118.082 101.907 118.335 100.817C118.389 100.587 118.52 100.312 118.757 100.318C118.959 100.323 119.086 100.534 119.164 100.72C119.664 101.915 119.804 103.224 119.938 104.513C120.217 107.189 120.497 109.886 120.252 112.566C120.191 113.239 120.093 113.922 119.795 114.528C119.499 115.135 118.972 115.662 118.313 115.808C117.654 115.955 116.518 116.512 116.28 115.879Z" fill="#D83651"/>
<path d="M133.505 115.668C133.559 114.682 133.342 113.699 133.036 112.76C132.996 112.638 132.953 112.512 132.868 112.416C132.655 112.173 132.252 112.199 131.981 112.374C131.709 112.549 131.531 112.832 131.337 113.089C130.03 114.822 127.826 115.571 125.757 116.227C125.109 116.433 124.461 116.638 123.814 116.844C123.458 116.957 123.097 117.079 122.789 117.283C126.143 116.374 129.82 116.494 133.415 116.361C133.461 116.132 133.492 115.9 133.505 115.668Z" fill="#D83651"/>
<path d="M130.454 81.1739C130.316 84.2637 128.017 87.1359 125.032 87.9471C124.462 88.102 123.847 88.1858 123.287 87.9966C122.75 87.815 122.324 87.4009 121.969 86.9594C120.958 85.7023 120.376 84.1363 120.131 82.5411C119.886 80.9463 119.963 79.3173 120.162 77.7162C120.31 76.5307 120.535 75.3248 121.138 74.2939C121.741 73.2629 122.792 72.4254 123.985 72.3652" fill="#F8B69B"/>
<path d="M125.215 84.0644C125.068 84.373 124.516 84.9722 124.181 85.1417C123.845 85.3112 123.222 85.3749 122.879 85.2207C122.44 85.0237 122.22 84.5389 122.038 84.0938C122.023 84.0581 122.008 84.0203 122.014 83.9822C122.881 84.0714 124.344 84.1072 125.215 84.0644Z" fill="white"/>
<path d="M124.497 78.2772C125.417 78.0259 126.351 78.2343 127.084 78.8398C127.218 78.9507 127.026 79.141 126.893 79.0309C126.235 78.4875 125.39 78.3133 124.569 78.5379C124.401 78.5839 124.329 78.3232 124.497 78.2772Z" fill="#36465B"/>
<path d="M121.917 78.7148C121.444 78.5273 120.93 78.6083 120.55 78.9531C120.422 79.0699 120.23 78.8792 120.359 78.762C120.804 78.3578 121.427 78.2316 121.989 78.4541C122.149 78.5178 122.079 78.7793 121.917 78.7148Z" fill="#36465B"/>
<path d="M122.07 80.3219C121.527 80.7143 120.75 80.5515 120.385 80.001C120.289 79.8555 120.523 79.7199 120.619 79.8646C120.908 80.301 121.516 80.3903 121.934 80.0883C122.074 79.9865 122.209 80.2208 122.07 80.3219Z" fill="#36465B"/>
<path d="M124.749 80.1705C125.354 80.7057 126.167 80.4623 126.851 80.2393C127.017 80.1855 127.087 80.4462 126.923 80.5C126.129 80.7587 125.246 80.9707 124.558 80.3616C124.428 80.246 124.619 80.0557 124.749 80.1705Z" fill="#36465B"/>
<path d="M123.213 80.5012C123.069 81.1575 122.828 81.7921 122.498 82.3771C122.865 82.4817 123.232 82.5863 123.599 82.6909C123.651 82.7059 123.714 82.7184 123.754 82.6819C123.79 82.65 123.79 82.5954 123.786 82.5478C123.759 82.1664 123.321 80.8685 123.213 80.5012Z" fill="#EAA992"/>
<path d="M132.594 81.8926C132.411 82.3487 132.219 82.8174 131.876 83.1697C131.533 83.522 130.997 83.7336 130.539 83.5559C130.042 83.3636 129.804 82.8096 129.618 82.3102C129.417 81.7719 129.215 81.2293 129.118 80.6627C129.046 80.2377 129.033 79.7997 128.898 79.3904C128.663 78.6771 128.043 78.1034 127.313 77.9245C125.673 77.5223 124.045 79.0204 122.382 78.731C121.784 78.6268 121.251 78.2992 120.672 78.1164C120.059 77.9226 119.404 77.8947 118.786 77.7169C117.756 77.4205 116.848 76.6805 116.409 75.7026C115.969 74.7247 116.029 73.5227 116.618 72.6267C117.206 71.7306 118.322 71.1923 119.383 71.3511C120.013 71.4455 120.592 71.762 121.218 71.8804C122.954 72.2083 124.736 70.9796 126.447 71.418C127.447 71.6743 128.287 72.478 129.318 72.5225C129.653 72.537 129.986 72.4686 130.321 72.4709C131.127 72.4772 131.892 72.9058 132.425 73.509C132.959 74.1121 133.281 74.8761 133.484 75.6558C134.031 77.768 133.718 80.0902 132.63 81.9819" fill="#36465B"/>
<path d="M130.561 84.4637C129.14 86.1548 127.082 87.0753 124.875 87.0132C124.682 87.0077 124.681 86.7069 124.875 86.7124C127.01 86.7725 128.975 85.8859 130.348 84.251C130.473 84.1024 130.685 84.3163 130.561 84.4637Z" fill="#150202"/>
<path d="M124.879 86.8909C124.925 87.1886 124.636 87.4835 124.336 87.4575C124.036 87.4316 123.804 87.1076 123.861 86.8123C123.919 86.517 124.241 86.3055 124.538 86.3558C124.727 86.3881 124.912 86.5481 124.893 86.7388" fill="#150202"/>
<path d="M130.766 81.4522C130.961 79.9023 130.904 78.3448 130.522 76.8255C130.337 76.0887 130.088 75.366 129.768 74.6767C129.434 73.9572 128.912 72.6632 128.016 72.5476C127.511 72.4823 127.504 71.679 128.016 71.7451C129.654 71.9566 130.392 73.9497 130.894 75.3105C131.618 77.2726 131.829 79.3817 131.569 81.4522C131.506 81.9579 130.702 81.9642 130.766 81.4522Z" fill="#150202"/>
<path d="M131.43 79.994C132.045 79.8666 132.691 80.1922 133.078 80.6864C133.465 81.1807 133.629 81.8157 133.693 82.4401C133.79 83.3885 133.661 84.3966 133.12 85.1818C132.579 85.967 131.564 86.466 130.645 86.2116C129.644 85.9344 129.042 84.8964 128.803 83.8855C128.63 83.1537 128.593 82.3701 128.839 81.66C129.087 80.9499 129.959 80.1352 131.43 79.994Z" fill="#150202"/>
<path d="M131.522 84.4744C132.203 84.4744 132.755 83.8038 132.755 82.9767C132.755 82.1495 132.203 81.479 131.522 81.479C130.841 81.479 130.29 82.1495 130.29 82.9767C130.29 83.8038 130.841 84.4744 131.522 84.4744Z" fill="#7191AA"/>
<path d="M133.498 122.898C133.669 126.421 132.387 130.033 129.878 132.512C127.369 134.991 123.636 136.235 120.176 135.552C118.845 135.29 117.582 134.763 116.33 134.241C111.632 132.281 106.935 130.321 102.238 128.361C101.73 128.149 101.153 127.936 100.647 128.15C100.185 128.346 99.9321 128.835 99.7142 129.287C96.225 136.517 92.2251 143.5 87.7541 150.168C87.6377 150.341 87.4065 150.396 87.2249 150.293L83.8108 148.357C83.5493 148.209 83.2803 148.054 83.0987 147.815C82.6383 147.208 82.9041 146.343 83.1923 145.638C86.0873 138.541 89.4649 131.642 93.2934 125.003C94.3515 123.168 95.568 121.242 97.5175 120.414C99.2766 119.668 101.283 119.969 103.168 120.283C107.209 120.955 111.267 121.632 115.167 122.887C116.082 123.182 117.01 123.512 117.972 123.5C118.934 123.487 119.957 123.05 120.372 122.183" fill="#36465B"/>
<path d="M64.2211 123.531H165.63C166.268 123.531 166.785 123.014 166.785 122.376C166.785 121.738 166.268 121.221 165.63 121.221H64.2211C63.583 121.221 63.0659 121.738 63.0659 122.376C63.0659 123.014 63.5834 123.531 64.2211 123.531Z" fill="#7191AA"/>
<path d="M75.477 115.332H111.483C112.329 115.332 113.016 114.646 113.016 113.8V90.226C113.016 89.3795 112.329 88.6934 111.483 88.6934H75.477C74.6305 88.6934 73.9443 89.3795 73.9443 90.226V113.8C73.9443 114.646 74.6305 115.332 75.477 115.332Z" fill="#36465B"/>
<path d="M89.8216 115.332H95.6943V102.013H89.8216V115.332Z" fill="#2D3C4C"/>
<path d="M86.5498 121.381H93.17L95.6939 102.013H89.4071L86.5498 121.381Z" fill="#25323F"/>
<path d="M80.6828 121.381H99.7468C99.9917 121.381 100.19 121.183 100.19 120.938C100.19 120.693 99.9917 120.494 99.7468 120.494H80.6828C80.4378 120.494 80.2393 120.693 80.2393 120.938C80.2389 121.183 80.4374 121.381 80.6828 121.381Z" fill="#25323F"/>
<path d="M79.2559 90.863C79.2559 92.8863 79.2559 94.9097 79.2559 96.9331C79.2559 97.1753 79.6321 97.1757 79.6321 96.9331C79.6321 94.9097 79.6321 92.8863 79.6321 90.863C79.6318 90.6207 79.2559 90.6204 79.2559 90.863Z" fill="#2D3C4C"/>
<path d="M80.8467 90.863C80.8467 92.8863 80.8467 94.9097 80.8467 96.9331C80.8467 97.1753 81.223 97.1757 81.223 96.9331C81.223 94.9097 81.223 92.8863 81.223 90.863C81.2226 90.6207 80.8467 90.6204 80.8467 90.863Z" fill="#2D3C4C"/>
<path d="M82.4365 90.863C82.4365 92.8863 82.4365 94.9097 82.4365 96.9331C82.4365 97.1753 82.8128 97.1757 82.8128 96.9331C82.8128 94.9097 82.8128 92.8863 82.8128 90.863C82.8128 90.6207 82.4365 90.6204 82.4365 90.863Z" fill="#2D3C4C"/>
<path d="M84.0269 90.863C84.0269 92.8863 84.0269 94.9097 84.0269 96.9331C84.0269 97.1753 84.4031 97.1757 84.4031 96.9331C84.4031 94.9097 84.4031 92.8863 84.4031 90.863C84.4031 90.6207 84.0269 90.6204 84.0269 90.863Z" fill="#2D3C4C"/>
<path d="M85.6177 90.863C85.6177 92.8863 85.6177 94.9097 85.6177 96.9331C85.6177 97.1753 85.994 97.1757 85.994 96.9331C85.994 94.9097 85.994 92.8863 85.994 90.863C85.994 90.6207 85.6177 90.6204 85.6177 90.863Z" fill="#2D3C4C"/>
<path d="M87.208 90.863C87.208 92.8863 87.208 94.9097 87.208 96.9331C87.208 97.1753 87.5843 97.1757 87.5843 96.9331C87.5843 94.9097 87.5843 92.8863 87.5843 90.863C87.5843 90.6207 87.208 90.6204 87.208 90.863Z" fill="#2D3C4C"/>
<path d="M88.7983 90.863C88.7983 92.8863 88.7983 94.9097 88.7983 96.9331C88.7983 97.1753 89.1746 97.1757 89.1746 96.9331C89.1746 94.9097 89.1746 92.8863 89.1746 90.863C89.1746 90.6207 88.7983 90.6204 88.7983 90.863Z" fill="#2D3C4C"/>
<path d="M90.3892 90.863C90.3892 92.8863 90.3892 94.9097 90.3892 96.9331C90.3892 97.1753 90.7654 97.1757 90.7654 96.9331C90.7654 94.9097 90.7654 92.8863 90.7654 90.863C90.7654 90.6207 90.3892 90.6204 90.3892 90.863Z" fill="#2D3C4C"/>
<path d="M91.9795 90.863C91.9795 92.8863 91.9795 94.9097 91.9795 96.9331C91.9795 97.1753 92.3558 97.1757 92.3558 96.9331C92.3558 94.9097 92.3558 92.8863 92.3558 90.863C92.3558 90.6207 91.9795 90.6204 91.9795 90.863Z" fill="#2D3C4C"/>
<path d="M93.5698 90.863C93.5698 92.8863 93.5698 94.9097 93.5698 96.9331C93.5698 97.1753 93.9461 97.1757 93.9461 96.9331C93.9461 94.9097 93.9461 92.8863 93.9461 90.863C93.9461 90.6207 93.5698 90.6204 93.5698 90.863Z" fill="#2D3C4C"/>
<path d="M95.1606 90.863C95.1606 92.8863 95.1606 94.9097 95.1606 96.9331C95.1606 97.1753 95.5369 97.1757 95.5369 96.9331C95.5369 94.9097 95.5369 92.8863 95.5369 90.863C95.5369 90.6207 95.1606 90.6204 95.1606 90.863Z" fill="#2D3C4C"/>
<path d="M96.751 90.863C96.751 92.8863 96.751 94.9097 96.751 96.9331C96.751 97.1753 97.1273 97.1757 97.1273 96.9331C97.1273 94.9097 97.1273 92.8863 97.1273 90.863C97.1273 90.6207 96.751 90.6204 96.751 90.863Z" fill="#2D3C4C"/>
<path d="M98.3413 90.863C98.3413 92.8863 98.3413 94.9097 98.3413 96.9331C98.3413 97.1753 98.7176 97.1757 98.7176 96.9331C98.7176 94.9097 98.7176 92.8863 98.7176 90.863C98.7176 90.6207 98.3413 90.6204 98.3413 90.863Z" fill="#2D3C4C"/>
<path d="M99.9316 90.863C99.9316 92.8863 99.9316 94.9097 99.9316 96.9331C99.9316 97.1753 100.308 97.1757 100.308 96.9331C100.308 94.9097 100.308 92.8863 100.308 90.863C100.308 90.6207 99.9316 90.6204 99.9316 90.863Z" fill="#2D3C4C"/>
<path d="M101.522 90.863C101.522 92.8863 101.522 94.9097 101.522 96.9331C101.522 97.1753 101.898 97.1757 101.898 96.9331C101.898 94.9097 101.898 92.8863 101.898 90.863C101.898 90.6207 101.522 90.6204 101.522 90.863Z" fill="#2D3C4C"/>
<path d="M103.113 90.863C103.113 92.8863 103.113 94.9097 103.113 96.9331C103.113 97.1753 103.489 97.1757 103.489 96.9331C103.489 94.9097 103.489 92.8863 103.489 90.863C103.489 90.6207 103.113 90.6204 103.113 90.863Z" fill="#2D3C4C"/>
<path d="M104.703 90.863C104.703 92.8863 104.703 94.9097 104.703 96.9331C104.703 97.1753 105.079 97.1757 105.079 96.9331C105.079 94.9097 105.079 92.8863 105.079 90.863C105.079 90.6207 104.703 90.6204 104.703 90.863Z" fill="#2D3C4C"/>
<path d="M106.293 90.863C106.293 92.8863 106.293 94.9097 106.293 96.9331C106.293 97.1753 106.67 97.1757 106.67 96.9331C106.67 94.9097 106.67 92.8863 106.67 90.863C106.669 90.6207 106.293 90.6204 106.293 90.863Z" fill="#2D3C4C"/>
<path d="M107.884 90.863C107.884 92.8863 107.884 94.9097 107.884 96.9331C107.884 97.1753 108.26 97.1757 108.26 96.9331C108.26 94.9097 108.26 92.8863 108.26 90.863C108.26 90.6207 107.884 90.6204 107.884 90.863Z" fill="#2D3C4C"/>
</svg>
