<svg width="178" height="124" viewBox="0 0 178 124" fill="none" xmlns="http://www.w3.org/2000/svg">
<path d="M85.2171 0C38.1539 0 0 38.1536 0 85.2171C0 99.0596 3.30128 112.133 9.15903 123.689H161.275C167.133 112.133 170.434 99.0596 170.434 85.2171C170.434 38.1536 132.281 0 85.2171 0Z" fill="white"/>
<path d="M140.495 106.882H39.6036C35.7701 106.882 32.6626 103.774 32.6626 99.9408V34.8873C32.6626 31.0538 35.7704 27.9463 39.6036 27.9463H140.495C144.328 27.9463 147.436 31.0541 147.436 34.8873V99.9408C147.436 103.774 144.328 106.882 140.495 106.882Z" fill="url(#paint0_linear_800_22430)"/>
<path d="M144.621 35.1897V93.7525C144.621 94.8277 143.75 95.6991 142.674 95.6991H37.4261C36.3508 95.6991 35.4795 94.8277 35.4795 93.7525V35.1897C35.4795 32.6192 37.5633 30.5354 40.1338 30.5354H139.967C142.537 30.5354 144.621 32.6192 144.621 35.1897Z" fill="white"/>
<path d="M100.998 123.724H79.0986L81.3983 110.378L82.0009 106.883H98.0956L98.6981 110.378L100.998 123.724Z" fill="url(#paint1_linear_800_22430)"/>
<path d="M98.6982 110.378H81.3984L82.001 106.883H98.0957L98.6982 110.378Z" fill="url(#paint2_linear_800_22430)"/>
<path d="M108.254 120.855H71.8433V123.724H108.254V120.855Z" fill="url(#paint3_linear_800_22430)"/>
<path d="M120.233 78.5278H59.8651C57.7782 78.5278 56.0864 76.836 56.0864 74.7491V52.4178C56.0864 50.331 57.7782 48.6392 59.8651 48.6392H120.233C122.32 48.6392 124.011 50.331 124.011 52.4178V74.7491C124.011 76.836 122.32 78.5278 120.233 78.5278Z" stroke="url(#paint4_linear_800_22430)" stroke-width="0.367586" stroke-miterlimit="10" stroke-linecap="round"/>
<path d="M37.5425 123.568H22.3875C21.3511 123.568 20.5112 122.728 20.5112 121.692V90.9026C20.5112 89.8663 21.3511 89.0264 22.3875 89.0264H37.5425C38.5789 89.0264 39.4188 89.8663 39.4188 90.9026V121.692C39.4188 122.728 38.5786 123.568 37.5425 123.568Z" fill="url(#paint5_linear_800_22430)"/>
<path d="M37.5527 119.014H22.3776C21.8366 119.014 21.3984 118.575 21.3984 118.035V92.1535C21.3984 91.6125 21.837 91.1743 22.3776 91.1743H37.5527C38.0937 91.1743 38.5318 91.6128 38.5318 92.1535V118.035C38.5318 118.576 38.0933 119.014 37.5527 119.014Z" fill="white"/>
<path d="M31.7814 121.33C31.7814 122.333 30.9683 123.146 29.9654 123.146C28.9625 123.146 28.1494 122.333 28.1494 121.33C28.1494 120.327 28.9625 119.514 29.9654 119.514C30.9683 119.514 31.7814 120.327 31.7814 121.33Z" fill="url(#paint6_linear_800_22430)"/>
<path d="M31.5303 121.33C31.5303 122.194 30.8297 122.895 29.9653 122.895C29.101 122.895 28.4004 122.194 28.4004 121.33C28.4004 120.465 29.101 119.765 29.9653 119.765C30.8293 119.765 31.5303 120.465 31.5303 121.33Z" fill="white"/>
<path d="M32.2802 90.5187H27.6496C27.4571 90.5187 27.3008 90.3627 27.3008 90.1698C27.3008 89.9774 27.4568 89.821 27.6496 89.821H32.2802C32.4726 89.821 32.629 89.977 32.629 90.1698C32.629 90.3627 32.4726 90.5187 32.2802 90.5187Z" fill="url(#paint7_linear_800_22430)"/>
<path d="M33.8451 90.1701C33.8451 90.3626 33.6891 90.5189 33.4963 90.5189C33.3038 90.5189 33.1475 90.3629 33.1475 90.1701C33.1475 89.9776 33.3035 89.8213 33.4963 89.8213C33.6891 89.8213 33.8451 89.9773 33.8451 90.1701Z" fill="url(#paint8_linear_800_22430)"/>
<path d="M29.9652 110.492C32.9463 110.492 35.363 108.075 35.363 105.094C35.363 102.113 32.9463 99.6963 29.9652 99.6963C26.9841 99.6963 24.5674 102.113 24.5674 105.094C24.5674 108.075 26.9841 110.492 29.9652 110.492Z" fill="url(#paint9_linear_800_22430)"/>
<path d="M29.571 106.915C29.4307 106.915 29.2947 106.864 29.1923 106.771L25.1673 103.124C24.9502 102.928 24.9434 102.602 25.1526 102.398C25.3617 102.193 25.7074 102.187 25.9247 102.384L29.4599 105.587L32.9879 100.161C33.1455 99.9187 33.4813 99.8427 33.7388 99.9904C33.996 100.138 34.0771 100.455 33.9196 100.697L30.0368 106.669C29.9506 106.802 29.8048 106.891 29.6404 106.911C29.6174 106.914 29.5942 106.915 29.571 106.915Z" fill="url(#paint10_linear_800_22430)"/>
<path d="M154.912 108.861C154.803 108.861 154.694 108.865 154.586 108.87C154.586 108.867 154.586 108.864 154.586 108.861C154.586 103.382 150.144 98.9395 144.664 98.9395C140.18 98.9395 136.392 101.915 135.164 105.999C134.736 105.86 134.281 105.783 133.807 105.783C131.824 105.783 130.15 107.1 129.607 108.906C129.342 108.877 129.074 108.861 128.801 108.861C124.743 108.861 121.454 112.151 121.454 116.209C121.454 120.267 124.743 123.556 128.801 123.556H154.912C158.97 123.556 162.259 120.267 162.259 116.209C162.259 112.151 158.97 108.861 154.912 108.861Z" fill="#61C5F8"/>
<path d="M52.5661 19.3936C52.457 19.3936 52.3485 19.397 52.2404 19.402C52.2404 19.3993 52.2407 19.3966 52.2407 19.3936C52.2407 13.9138 47.7986 9.47168 42.3188 9.47168C37.8345 9.47168 34.0465 12.4476 32.818 16.5315C32.3905 16.3926 31.9356 16.3153 31.4619 16.3153C29.4789 16.3153 27.8048 17.6318 27.2618 19.4381C26.9971 19.4093 26.7286 19.3933 26.4561 19.3933C22.398 19.3933 19.1084 22.6828 19.1084 26.741C19.1084 30.7991 22.398 34.0887 26.4561 34.0887H52.5664C56.6246 34.0887 59.9141 30.7991 59.9141 26.741C59.9138 22.6835 56.6242 19.3936 52.5661 19.3936Z" fill="white"/>
<path d="M52.5661 19.3936C52.457 19.3936 52.3485 19.397 52.2404 19.402C52.2404 19.3993 52.2407 19.3966 52.2407 19.3936C52.2407 13.9138 47.7986 9.47168 42.3188 9.47168C37.8345 9.47168 34.0465 12.4476 32.818 16.5315C32.3905 16.3926 31.9356 16.3153 31.4619 16.3153C29.4789 16.3153 27.8048 17.6318 27.2618 19.4381C26.9971 19.4093 26.7286 19.3933 26.4561 19.3933C22.398 19.3933 19.1084 22.6828 19.1084 26.741C19.1084 30.7991 22.398 34.0887 26.4561 34.0887H52.5664C56.6246 34.0887 59.9141 30.7991 59.9141 26.741C59.9138 22.6835 56.6242 19.3936 52.5661 19.3936Z" stroke="url(#paint11_linear_800_22430)" stroke-width="0.669496" stroke-miterlimit="10" stroke-linecap="round" stroke-linejoin="round"/>
<path d="M29.9648 86.7502V86.248" stroke="url(#paint12_linear_800_22430)" stroke-width="0.334748" stroke-miterlimit="10" stroke-linecap="round"/>
<path d="M29.9648 85.2346V68.6957C29.9648 66.3491 31.8672 64.4468 34.2138 64.4468H55.0776" stroke="url(#paint13_linear_800_22430)" stroke-width="0.334748" stroke-miterlimit="10" stroke-linecap="round" stroke-dasharray="1.01 1.01"/>
<path d="M55.584 64.4473H56.0861" stroke="url(#paint14_linear_800_22430)" stroke-width="0.334748" stroke-miterlimit="10" stroke-linecap="round"/>
<path d="M56.086 65.2484C56.5669 65.2484 56.9567 64.8586 56.9567 64.3778C56.9567 63.8969 56.5669 63.5071 56.086 63.5071C55.6051 63.5071 55.2153 63.8969 55.2153 64.3778C55.2153 64.8586 55.6051 65.2484 56.086 65.2484Z" fill="url(#paint15_linear_800_22430)"/>
<path d="M29.9646 88.0474C30.681 88.0474 31.2618 87.4667 31.2618 86.7503C31.2618 86.0339 30.681 85.4531 29.9646 85.4531C29.2482 85.4531 28.6675 86.0339 28.6675 86.7503C28.6675 87.4667 29.2482 88.0474 29.9646 88.0474Z" fill="url(#paint16_linear_800_22430)"/>
<path d="M62.4238 23.8794H62.9259" stroke="url(#paint17_linear_800_22430)" stroke-width="0.334748" stroke-miterlimit="10" stroke-linecap="round"/>
<path d="M63.917 23.8794H78.8601C81.2067 23.8794 83.1091 25.7818 83.1091 28.1283V47.6421" stroke="url(#paint18_linear_800_22430)" stroke-width="0.334748" stroke-miterlimit="10" stroke-linecap="round" stroke-dasharray="0.99 0.99"/>
<path d="M83.1089 48.1375V48.6396" stroke="url(#paint19_linear_800_22430)" stroke-width="0.334748" stroke-miterlimit="10" stroke-linecap="round"/>
<path d="M83.109 49.5104C83.5898 49.5104 83.9796 49.1206 83.9796 48.6397C83.9796 48.1589 83.5898 47.769 83.109 47.769C82.6281 47.769 82.2383 48.1589 82.2383 48.6397C82.2383 49.1206 82.6281 49.5104 83.109 49.5104Z" fill="url(#paint20_linear_800_22430)"/>
<path d="M62.4236 25.1763C63.14 25.1763 63.7208 24.5956 63.7208 23.8792C63.7208 23.1628 63.14 22.582 62.4236 22.582C61.7072 22.582 61.1265 23.1628 61.1265 23.8792C61.1265 24.5956 61.7072 25.1763 62.4236 25.1763Z" fill="url(#paint21_linear_800_22430)"/>
<path d="M64.1641 78.5283V79.0304" stroke="url(#paint22_linear_800_22430)" stroke-width="0.334748" stroke-miterlimit="10" stroke-linecap="round"/>
<path d="M64.1641 80.0425V105.857" stroke="url(#paint23_linear_800_22430)" stroke-width="0.334748" stroke-miterlimit="10" stroke-linecap="round" stroke-dasharray="1.01 1.01"/>
<path d="M64.1641 106.363V106.865" stroke="url(#paint24_linear_800_22430)" stroke-width="0.334748" stroke-miterlimit="10" stroke-linecap="round"/>
<path d="M64.2337 108.162C64.9501 108.162 65.5308 107.581 65.5308 106.865C65.5308 106.149 64.9501 105.568 64.2337 105.568C63.5173 105.568 62.9365 106.149 62.9365 106.865C62.9365 107.581 63.5173 108.162 64.2337 108.162Z" fill="url(#paint25_linear_800_22430)"/>
<path d="M64.1641 79.3988C63.6834 79.3988 63.2935 79.0089 63.2935 78.5282C63.2935 78.0475 63.6834 77.6575 64.1641 77.6575C64.6452 77.6575 65.0348 78.0475 65.0348 78.5282C65.0348 79.0089 64.6448 79.3988 64.1641 79.3988Z" fill="url(#paint26_linear_800_22430)"/>
<path d="M124.011 57.1196H124.513" stroke="url(#paint27_linear_800_22430)" stroke-width="0.334748" stroke-miterlimit="10" stroke-linecap="round"/>
<path d="M125.504 57.1196H129.122C129.916 57.1196 130.559 57.7633 130.559 58.5574V64.076" stroke="url(#paint28_linear_800_22430)" stroke-width="0.334748" stroke-miterlimit="10" stroke-linecap="round" stroke-dasharray="0.99 0.99"/>
<path d="M130.56 64.571V65.0732" stroke="url(#paint29_linear_800_22430)" stroke-width="0.334748" stroke-miterlimit="10" stroke-linecap="round"/>
<path d="M130.56 66.3704C131.276 66.3704 131.857 65.7897 131.857 65.0733C131.857 64.3569 131.276 63.7761 130.56 63.7761C129.843 63.7761 129.263 64.3569 129.263 65.0733C129.263 65.7897 129.843 66.3704 130.56 66.3704Z" fill="url(#paint30_linear_800_22430)"/>
<path d="M124.011 57.9899C124.492 57.9899 124.882 57.6001 124.882 57.1192C124.882 56.6384 124.492 56.2485 124.011 56.2485C123.53 56.2485 123.141 56.6384 123.141 57.1192C123.141 57.6001 123.53 57.9899 124.011 57.9899Z" fill="url(#paint31_linear_800_22430)"/>
<path d="M109.052 78.5283V79.0304" stroke="url(#paint32_linear_800_22430)" stroke-width="0.334748" stroke-miterlimit="10" stroke-linecap="round"/>
<path d="M109.052 80.0474V112.671C109.052 114.778 110.76 116.487 112.868 116.487H118.502" stroke="url(#paint33_linear_800_22430)" stroke-width="0.334748" stroke-miterlimit="10" stroke-linecap="round" stroke-dasharray="1.02 1.02"/>
<path d="M119.011 116.487H119.513" stroke="url(#paint34_linear_800_22430)" stroke-width="0.334748" stroke-miterlimit="10" stroke-linecap="round"/>
<path d="M109.052 79.3988C109.533 79.3988 109.923 79.009 109.923 78.5282C109.923 78.0473 109.533 77.6575 109.052 77.6575C108.571 77.6575 108.181 78.0473 108.181 78.5282C108.181 79.009 108.571 79.3988 109.052 79.3988Z" fill="url(#paint35_linear_800_22430)"/>
<path d="M119.513 117.784C120.229 117.784 120.81 117.203 120.81 116.487C120.81 115.771 120.229 115.19 119.513 115.19C118.797 115.19 118.216 115.771 118.216 116.487C118.216 117.203 118.797 117.784 119.513 117.784Z" fill="url(#paint36_linear_800_22430)"/>
<path d="M137.983 46.7152H121.422C120.05 46.7152 118.937 45.6021 118.937 44.2293V35.2065C118.937 33.8337 120.05 32.7207 121.422 32.7207H137.983C139.356 32.7207 140.469 33.8337 140.469 35.2065V44.2293C140.469 45.6025 139.356 46.7152 137.983 46.7152Z" stroke="url(#paint37_linear_800_22430)" stroke-width="0.334748" stroke-miterlimit="10" stroke-linecap="round" stroke-dasharray="1.67 1.67"/>
<path d="M128.313 45.3858C128.263 45.3858 128.212 45.3771 128.162 45.3584C127.939 45.275 127.826 45.027 127.909 44.8041L131.81 34.3696C131.893 34.1467 132.142 34.0332 132.364 34.1169C132.587 34.2003 132.7 34.4483 132.617 34.6712L128.716 45.1057C128.652 45.2787 128.487 45.3858 128.313 45.3858Z" fill="url(#paint38_linear_800_22430)"/>
<path d="M126.72 43.5828C126.591 43.5828 126.463 43.5336 126.364 43.4355L123.473 40.5447C123.035 40.1061 123.035 39.3928 123.473 38.9546L126.427 36.0011C126.623 35.8046 126.941 35.8046 127.138 36.0011C127.334 36.1973 127.334 36.5156 127.138 36.7121L124.184 39.6656C124.138 39.7121 124.138 39.7875 124.184 39.834L127.075 42.7249C127.272 42.921 127.272 43.2397 127.075 43.4359C126.977 43.5336 126.848 43.5828 126.72 43.5828Z" fill="url(#paint39_linear_800_22430)"/>
<path d="M133.744 43.5828C133.616 43.5828 133.487 43.5336 133.389 43.4355C133.192 43.2394 133.192 42.921 133.389 42.7245L136.342 39.7714C136.389 39.7249 136.389 39.6492 136.342 39.603L133.451 36.7121C133.255 36.516 133.255 36.1976 133.451 36.0011C133.648 35.8046 133.966 35.8046 134.162 36.0011L137.053 38.892C137.492 39.3305 137.492 40.0439 137.053 40.4821L134.1 43.4355C134.002 43.5336 133.873 43.5828 133.744 43.5828Z" fill="url(#paint40_linear_800_22430)"/>
<path d="M132.862 123.557H137.024H137.611H139.537C139.537 123.557 140.118 122.333 139.286 120.817C139.286 120.817 138.733 121.261 137.076 120.961C137.076 120.961 136.385 121.548 135.907 121.778C135.427 122.01 132.677 122.55 132.862 123.557Z" fill="#283770"/>
<path d="M151.678 120.574C151.678 120.574 150.755 121.049 149.454 120.75C149.454 120.75 149.328 120.922 149.157 121.391C149.019 121.766 148.195 122.516 148.037 123.325C148.014 123.445 148.109 123.556 148.231 123.556H152.21C152.302 123.556 152.382 123.493 152.401 123.402C152.484 122.995 152.604 121.834 151.678 120.574Z" fill="#283770"/>
<path d="M137.076 120.961L136.998 118.625L139.456 118.677L139.286 120.817C139.286 120.817 138.776 121.425 137.076 120.961Z" fill="#FFA49A"/>
<path d="M149.454 120.75L149.206 118.625H151.591L151.678 120.574C151.678 120.574 151.042 121.192 149.454 120.75Z" fill="#FFA49A"/>
<path d="M151.163 101.907C150.828 97.9081 150.58 93.174 150.644 92.148C150.858 88.8324 150.021 84.0224 148.704 82.4882C148.704 82.4882 142.556 82.7587 139.745 82.916C137.788 83.0268 137.703 82.501 137.709 82.3748C137.636 82.8337 136.468 90.3826 135.713 102.294C135.693 102.619 135.674 103.518 135.688 103.715C135.744 105.016 135.95 107.688 136.203 110.701C136.458 113.715 136.86 119.869 136.86 119.869C137.311 119.938 138.58 120.072 139.588 120.002C139.588 120.002 140.052 115.043 140.351 112.746C140.818 109.175 140.648 103.091 140.591 102.163C140.591 102.163 142.538 95.125 143.278 92.4487L143.871 92.6087C146.866 106.383 148.96 119.504 148.96 119.504C150.04 119.759 151.265 119.682 151.83 119.472C151.83 119.472 152.659 110.054 151.163 101.907Z" fill="url(#paint41_linear_800_22430)"/>
<path d="M137.189 64.3774C137.189 64.3774 136.38 65.2632 135.439 69.5731H138.535L137.189 64.3774Z" fill="url(#paint42_linear_800_22430)"/>
<path d="M137.525 82.8167C137.602 83.666 140.379 84.0221 142.19 84.0221C144.227 84.0221 147.689 83.1387 148.704 82.488C148.958 82.3253 148.488 80.8621 148.465 78.4128C148.433 75.1567 148.805 71.2498 148.963 70.7852C149.657 68.7396 150.299 66.9865 150.022 65.3529C149.706 64.8103 149.359 64.3641 149.018 64.0015C147.998 62.9109 145.39 61.8545 145.241 61.8076C145.231 61.8049 143.635 61.8257 142.586 61.7915C141.653 61.7634 141.474 61.737 140.805 61.8076C139.727 62.3342 137.928 63.2681 137.189 64.3775C136.544 65.3459 136.561 66.7632 137.088 70.2593C137.267 71.4396 137.592 76.1432 137.659 79.6051C137.696 81.4998 137.491 82.4478 137.525 82.8167Z" fill="url(#paint43_linear_800_22430)"/>
<path d="M144.665 62.293C144.504 61.9113 144.852 61.7463 144.772 61.2502C144.499 59.545 144.599 57.3367 144.599 57.3367L142.501 59.1005L141.513 59.9326C141.406 60.4284 141.231 61.0624 141.085 61.5763C140.931 62.1005 141.125 62.4971 141.125 62.4971L144.665 62.293Z" fill="#FFA49A"/>
<path d="M143.799 59.1015C143.799 59.1015 142.958 60.9594 141.084 61.5746C141.232 61.0615 141.405 60.4285 141.513 59.9324L142.502 59.0999L143.799 59.1015Z" fill="#FF8189"/>
<path d="M139.291 55.3586C139.291 55.3586 138.894 59.5132 140.251 60.269C140.996 60.6841 142.57 60.5245 143.59 59.5724C144.037 59.155 144.304 58.5806 144.513 58.0055C144.854 57.0712 145.375 55.3375 145.044 54.2278C144.607 52.763 140.379 51.5161 139.425 54.3232C139.35 54.5449 139.322 55.0888 139.291 55.3586Z" fill="#FFA49A"/>
<path d="M138.683 53.7232C138.144 54.317 138.657 54.8362 139.413 55.1037C139.699 55.2048 140.052 55.2811 140.481 55.3042C141.31 55.351 142.427 55.2051 142.832 55.0605C142.688 55.6557 142.777 56.0845 143.066 56.2987C143.401 56.5471 144.431 56.5494 144.447 56.7259C144.525 57.6076 144.542 58.3005 144.597 59.373L144.778 59.284C144.809 58.9231 146.731 54.7458 146.088 53.0684C145.745 52.1733 144.724 52.5204 144.724 52.5204C143.959 50.5494 139.685 50.0004 138.394 51.3123C137.596 52.1241 138.277 53.1725 138.683 53.7232Z" fill="#1D2D4E"/>
<path d="M143.706 57.9753C144.775 58.5584 145.441 56.1168 144.361 55.8433C143.654 55.6642 143.49 56.6621 143.49 56.6621C143.49 56.6621 143.166 57.6807 143.706 57.9753Z" fill="#FFA49A"/>
<path d="M153.402 74.7063L153.4 74.7046C153.398 72.571 151.896 68.8884 151.698 68.4552C151.202 67.3559 147.739 69.4159 147.985 70.2217C148.278 71.1841 149.715 74.4398 149.717 74.4452C148.205 74.8081 145.723 75.6613 144.227 76.1688C144.227 76.1688 143.242 76.4426 142.712 76.4286C142.183 76.4145 141.457 76.1507 141.136 76.0734C140.816 75.9961 139.649 76.7442 139.451 76.8607C139.239 76.9856 139.43 77.2199 139.825 77.1955C140.004 77.1844 140.304 77.1021 140.547 77.0271C140.348 77.1382 140.177 77.2347 140.111 77.2721C139.916 77.3836 139.528 78.3895 139.458 78.502C139.389 78.6142 139.832 78.6701 140.048 78.4538C140.165 78.3363 140.342 78.0936 140.48 77.8951C140.346 78.1837 140.229 78.4652 140.195 78.5197C140.125 78.6322 140.516 78.653 140.732 78.4367C140.879 78.2898 141.159 77.9313 141.325 77.7133C141.217 78.0364 141.059 78.5398 141.119 78.5743C141.208 78.6255 141.422 78.569 141.574 78.3597C141.638 78.2714 141.711 78.1418 141.774 78.0206C141.89 78.0913 142.018 78.1535 142.164 78.1991C143.145 78.506 143.918 77.8141 144.485 77.7348C145.558 77.703 147.213 77.6518 148.465 77.6059C150.537 77.5296 151.802 77.1155 152.644 76.7486C153.697 76.2903 153.402 74.7063 153.402 74.7063Z" fill="#FFA49A"/>
<path d="M142.165 76.586C142.215 76.5667 142.261 76.5471 142.307 76.5271C142.281 76.5391 142.256 76.5501 142.233 76.5571C142.207 76.5654 142.183 76.576 142.165 76.586Z" fill="#D99490"/>
<path d="M145.241 61.8081C145.241 61.8081 145.331 61.9444 145.105 61.5477C145.008 61.378 144.741 61.0459 144.741 61.0459C144.741 61.0459 144.44 61.9638 142.059 62.4431L142.446 63.8815C142.446 63.8815 144.312 63.2874 145.241 61.8081Z" fill="white"/>
<path d="M141.161 61.3035C141.161 61.3035 141.073 61.5997 141.47 62.0121C141.691 62.2404 142.059 62.4429 142.059 62.4429L141.374 63.6614C141.374 63.6614 140.806 63.0907 140.806 61.8079C140.806 61.8079 140.842 61.7119 140.951 61.5639C140.996 61.502 141.161 61.3035 141.161 61.3035Z" fill="white"/>
<path d="M143.391 79.225H137.712V78.5281L143.399 78.6881C143.544 78.6921 143.659 78.8109 143.659 78.9566C143.659 79.1048 143.539 79.225 143.391 79.225Z" fill="white"/>
<path d="M139.921 78.9323H127.226C126.755 78.9323 126.352 78.5979 126.264 78.1363L124.358 68.1096C124.289 67.7487 124.566 67.4143 124.933 67.4143H136.92C137.39 67.4143 137.794 67.7487 137.882 68.2103L139.921 78.9323Z" fill="white"/>
<path d="M139.003 79.2249H126.662C126.3 79.2249 125.989 78.9675 125.922 78.6116L123.949 68.2375C123.897 67.962 124.108 67.7065 124.389 67.7065H136.73C137.092 67.7065 137.403 67.964 137.47 68.3198L139.443 78.694C139.495 78.9695 139.284 79.2249 139.003 79.2249Z" fill="url(#paint44_linear_800_22430)"/>
<path d="M149.018 64.0021C149.018 64.0021 150.92 65.8439 151.695 67.9488C152.49 70.1073 152.741 70.7975 152.741 70.7975C152.741 70.7975 150.914 72.4391 148.487 72.5231C148.487 72.5231 146.535 69.027 146.325 67.4139C146.116 65.8007 147.163 62.9527 149.018 64.0021Z" fill="url(#paint45_linear_800_22430)"/>
<path d="M129.691 79.2251H129.015C129.015 79.2251 128.91 79.2987 128.963 79.4156C129.015 79.5324 129.378 79.6516 129.522 79.679C129.998 79.7697 130.459 79.6867 130.459 79.6867L129.691 79.2251Z" fill="#CE8684"/>
<path d="M132.581 79.0254C132.372 78.9906 132.072 78.9417 132.072 78.9417L131.657 78.4898C131.657 78.4898 131.616 78.3465 131.44 78.0078C131.231 77.6047 130.885 77.583 130.939 77.8906C130.949 77.9492 130.961 78.0211 130.974 78.0971C130.926 78.0034 130.874 77.9037 130.813 77.8019C130.552 77.3584 130.184 77.3205 130.245 77.6693C130.255 77.7242 130.265 77.7898 130.277 77.8591C130.256 77.8206 130.235 77.7821 130.211 77.7426C129.941 77.284 129.561 77.2449 129.624 77.6054C129.654 77.7811 129.696 78.0466 129.745 78.2876C129.726 78.2535 129.708 78.2193 129.687 78.1845C129.483 77.838 129.195 77.8083 129.243 78.0807C129.291 78.3532 129.373 78.9133 129.468 79.008C129.479 79.0187 129.499 79.0351 129.523 79.0538H129.522C129.522 79.0538 129.927 79.4679 130.042 79.5533C130.239 79.6976 130.493 79.7347 130.493 79.7347C130.493 79.7347 130.77 79.8988 130.946 79.888C131.121 79.8773 131.3 79.8171 131.3 79.8171C131.3 79.8171 131.414 79.868 131.623 79.8957C131.832 79.9235 132.111 79.7973 132.111 79.7973C132.111 79.7973 132.599 79.811 132.742 79.7207C133.045 79.5295 133.18 79.2252 133.18 79.2252C133.18 79.2252 132.79 79.0602 132.581 79.0254Z" fill="#FFA49A"/>
<path d="M47.3252 23.0225H30.5165C30.2119 23.0225 29.9648 22.7755 29.9648 22.4709C29.9648 22.1662 30.2119 21.9192 30.5165 21.9192H47.3252C47.6298 21.9192 47.8769 22.1662 47.8769 22.4709C47.8769 22.7755 47.6298 23.0225 47.3252 23.0225Z" fill="url(#paint46_linear_800_22430)"/>
<path d="M41.7182 25.1563H30.5165C30.2119 25.1563 29.9648 24.9093 29.9648 24.6046C29.9648 24.3 30.2119 24.053 30.5165 24.053H41.7182C42.0228 24.053 42.2698 24.3 42.2698 24.6046C42.2698 24.9093 42.0228 25.1563 41.7182 25.1563Z" fill="url(#paint47_linear_800_22430)"/>
<path d="M32.8474 27.2906H30.5165C30.2119 27.2906 29.9648 27.0435 29.9648 26.7389C29.9648 26.4343 30.2119 26.1873 30.5165 26.1873H32.8474C33.152 26.1873 33.399 26.4343 33.399 26.7389C33.399 27.0435 33.152 27.2906 32.8474 27.2906Z" fill="url(#paint48_linear_800_22430)"/>
<path d="M47.3252 27.2906H34.8559C34.5512 27.2906 34.3042 27.0435 34.3042 26.7389C34.3042 26.4343 34.5512 26.1873 34.8559 26.1873H47.3252C47.6298 26.1873 47.8769 26.4343 47.8769 26.7389C47.8769 27.0435 47.6298 27.2906 47.3252 27.2906Z" fill="url(#paint49_linear_800_22430)"/>
<path d="M47.3248 25.1563H43.6161C43.3115 25.1563 43.0645 24.9093 43.0645 24.6046C43.0645 24.3 43.3115 24.053 43.6161 24.053H47.3248C47.6294 24.053 47.8765 24.3 47.8765 24.6046C47.8765 24.9093 47.6294 25.1563 47.3248 25.1563Z" fill="url(#paint50_linear_800_22430)"/>
<path d="M49.5081 53.4431H29.9368C28.4806 53.4431 27.3003 52.2628 27.3003 50.8066V46.1369C27.3003 44.6807 28.4806 43.5007 29.9368 43.5007H49.5081C50.9643 43.5007 52.1446 44.6811 52.1446 46.1369V50.8066C52.1446 52.2628 50.9643 53.4431 49.5081 53.4431Z" fill="white"/>
<path d="M31.075 46.581C31.5027 46.581 31.8493 46.2344 31.8493 45.8067C31.8493 45.3791 31.5027 45.0325 31.075 45.0325C30.6474 45.0325 30.3008 45.3791 30.3008 45.8067C30.3008 46.2344 30.6474 46.581 31.075 46.581Z" fill="url(#paint51_linear_800_22430)"/>
<path d="M31.075 49.2465C31.5027 49.2465 31.8493 48.8999 31.8493 48.4723C31.8493 48.0447 31.5027 47.698 31.075 47.698C30.6474 47.698 30.3008 48.0447 30.3008 48.4723C30.3008 48.8999 30.6474 49.2465 31.075 49.2465Z" fill="url(#paint52_linear_800_22430)"/>
<path d="M31.075 51.9118C31.5027 51.9118 31.8493 51.5652 31.8493 51.1376C31.8493 50.7099 31.5027 50.3633 31.075 50.3633C30.6474 50.3633 30.3008 50.7099 30.3008 51.1376C30.3008 51.5652 30.6474 51.9118 31.075 51.9118Z" fill="url(#paint53_linear_800_22430)"/>
<path d="M48.5047 45.9744H33.2318C33.1394 45.9744 33.0645 45.8994 33.0645 45.807C33.0645 45.7146 33.1394 45.6396 33.2318 45.6396H48.5047C48.5971 45.6396 48.6721 45.7146 48.6721 45.807C48.6721 45.8994 48.5971 45.9744 48.5047 45.9744Z" fill="url(#paint54_linear_800_22430)"/>
<path d="M48.5047 48.6394H33.2318C33.1394 48.6394 33.0645 48.5645 33.0645 48.4721C33.0645 48.3797 33.1394 48.3047 33.2318 48.3047H48.5047C48.5971 48.3047 48.6721 48.3797 48.6721 48.4721C48.6721 48.5645 48.5971 48.6394 48.5047 48.6394Z" fill="url(#paint55_linear_800_22430)"/>
<path d="M39.7176 51.3047H33.2318C33.1394 51.3047 33.0645 51.2297 33.0645 51.1373C33.0645 51.045 33.1394 50.97 33.2318 50.97H39.7176C39.81 50.97 39.8849 51.045 39.8849 51.1373C39.8849 51.2297 39.81 51.3047 39.7176 51.3047Z" fill="url(#paint56_linear_800_22430)"/>
<path d="M67.9984 122.828H43.3951C42.8883 122.828 42.4775 122.417 42.4775 121.91V117.521C42.4775 117.014 42.8883 116.604 43.3951 116.604H67.9984C68.5052 116.604 68.9159 117.014 68.9159 117.521V121.91C68.9159 122.417 68.5052 122.828 67.9984 122.828Z" fill="url(#paint57_linear_800_22430)"/>
<path d="M46.0711 121.444H44.4455C44.2065 121.444 44.0127 121.25 44.0127 121.011V118.421C44.0127 118.182 44.2065 117.988 44.4455 117.988H46.0711C46.3101 117.988 46.5039 118.182 46.5039 118.421V121.011C46.5039 121.25 46.3101 121.444 46.0711 121.444Z" fill="url(#paint58_linear_800_22430)"/>
<path d="M49.2385 121.444H47.613C47.374 121.444 47.1802 121.25 47.1802 121.011V118.421C47.1802 118.182 47.374 117.988 47.613 117.988H49.2385C49.4776 117.988 49.6714 118.182 49.6714 118.421V121.011C49.6714 121.25 49.4776 121.444 49.2385 121.444Z" fill="url(#paint59_linear_800_22430)"/>
<path d="M59.1159 121.444H50.78C50.541 121.444 50.3472 121.25 50.3472 121.011V118.421C50.3472 118.182 50.541 117.988 50.78 117.988H59.1159C59.3549 117.988 59.5487 118.182 59.5487 118.421V121.011C59.5487 121.25 59.3549 121.444 59.1159 121.444Z" fill="white"/>
<path d="M62.2143 119.721C62.2143 120.212 61.8167 120.61 61.3259 120.61C60.8352 120.61 60.4375 120.212 60.4375 119.721C60.4375 119.23 60.8352 118.833 61.3259 118.833C61.8167 118.833 62.2143 119.23 62.2143 119.721Z" fill="url(#paint60_linear_800_22430)"/>
<path d="M64.6382 119.721C64.6382 120.212 64.2405 120.61 63.7498 120.61C63.259 120.61 62.8613 120.212 62.8613 119.721C62.8613 119.23 63.259 118.833 63.7498 118.833C64.2405 118.833 64.6382 119.23 64.6382 119.721Z" fill="white"/>
<path d="M67.094 120.102H65.4454C65.2874 120.102 65.1592 119.974 65.1592 119.816V119.616C65.1592 119.458 65.2874 119.33 65.4454 119.33H67.094C67.252 119.33 67.3802 119.458 67.3802 119.616V119.816C67.3802 119.974 67.2524 120.102 67.094 120.102Z" fill="url(#paint61_linear_800_22430)"/>
<path d="M47.48 122.828H45.2583V123.568H47.48V122.828Z" fill="url(#paint62_linear_800_22430)"/>
<path d="M66.2701 122.828H64.0483V123.568H66.2701V122.828Z" fill="url(#paint63_linear_800_22430)"/>
<path d="M67.9984 115.863H43.3951C42.8883 115.863 42.4775 115.452 42.4775 114.945V110.556C42.4775 110.049 42.8883 109.639 43.3951 109.639H67.9984C68.5052 109.639 68.9159 110.049 68.9159 110.556V114.945C68.9159 115.452 68.5052 115.863 67.9984 115.863Z" fill="url(#paint64_linear_800_22430)"/>
<path d="M46.0711 114.479H44.4455C44.2065 114.479 44.0127 114.285 44.0127 114.046V111.456C44.0127 111.217 44.2065 111.023 44.4455 111.023H46.0711C46.3101 111.023 46.5039 111.217 46.5039 111.456V114.046C46.5039 114.285 46.3101 114.479 46.0711 114.479Z" fill="url(#paint65_linear_800_22430)"/>
<path d="M49.2385 114.479H47.613C47.374 114.479 47.1802 114.285 47.1802 114.046V111.456C47.1802 111.217 47.374 111.023 47.613 111.023H49.2385C49.4776 111.023 49.6714 111.217 49.6714 111.456V114.046C49.6714 114.285 49.4776 114.479 49.2385 114.479Z" fill="white"/>
<path d="M59.1159 114.479H50.78C50.541 114.479 50.3472 114.285 50.3472 114.046V111.456C50.3472 111.217 50.541 111.023 50.78 111.023H59.1159C59.3549 111.023 59.5487 111.217 59.5487 111.456V114.046C59.5487 114.285 59.3549 114.479 59.1159 114.479Z" fill="white"/>
<path d="M62.2143 112.756C62.2143 113.247 61.8167 113.645 61.3259 113.645C60.8352 113.645 60.4375 113.247 60.4375 112.756C60.4375 112.266 60.8352 111.868 61.3259 111.868C61.8167 111.868 62.2143 112.266 62.2143 112.756Z" fill="url(#paint66_linear_800_22430)"/>
<path d="M64.6382 112.756C64.6382 113.247 64.2405 113.645 63.7498 113.645C63.259 113.645 62.8613 113.247 62.8613 112.756C62.8613 112.266 63.259 111.868 63.7498 111.868C64.2405 111.868 64.6382 112.266 64.6382 112.756Z" fill="url(#paint67_linear_800_22430)"/>
<path d="M67.094 113.137H65.4454C65.2874 113.137 65.1592 113.009 65.1592 112.851V112.651C65.1592 112.493 65.2874 112.365 65.4454 112.365H67.094C67.252 112.365 67.3802 112.493 67.3802 112.651V112.851C67.3802 113.009 67.2524 113.137 67.094 113.137Z" fill="white"/>
<path d="M47.48 115.863H45.2583V116.603H47.48V115.863Z" fill="url(#paint68_linear_800_22430)"/>
<path d="M66.2701 115.863H64.0483V116.603H66.2701V115.863Z" fill="url(#paint69_linear_800_22430)"/>
<path d="M3.09814 123.724H177" stroke="#232230" stroke-width="0.334748" stroke-miterlimit="10" stroke-linecap="round" stroke-linejoin="round"/>
<path d="M67.8867 69.1242C66.9271 69.1242 66.0009 69.0071 65.1083 68.7727C64.2268 68.5272 63.5071 68.2148 62.9491 67.8354L64.0371 65.3918C64.5615 65.7265 65.1641 66.0055 65.8447 66.2286C66.5365 66.4407 67.2228 66.5467 67.9034 66.5467C68.3609 66.5467 68.7291 66.5076 69.0081 66.4295C69.287 66.3402 69.4879 66.2286 69.6106 66.0947C69.7445 65.9497 69.8115 65.7823 69.8115 65.5926C69.8115 65.3248 69.6887 65.1128 69.4432 64.9566C69.1978 64.8004 68.8798 64.6721 68.4892 64.5716C68.0987 64.4712 67.6635 64.3708 67.1837 64.2704C66.7151 64.1699 66.2408 64.0416 65.761 63.8854C65.2924 63.7292 64.8628 63.5283 64.4722 63.2829C64.0817 63.0262 63.7637 62.6971 63.5182 62.2954C63.2727 61.8825 63.15 61.3636 63.15 60.7388C63.15 60.0358 63.3397 59.3998 63.7191 58.8307C64.1096 58.2617 64.6898 57.8042 65.4597 57.4583C66.2297 57.1123 67.1893 56.9394 68.3386 56.9394C69.1085 56.9394 69.8617 57.0287 70.5981 57.2072C71.3457 57.3746 72.0096 57.6256 72.5899 57.9604L71.5689 60.4208C71.011 60.1195 70.4587 59.8963 69.9119 59.7513C69.3651 59.5951 68.8351 59.517 68.3218 59.517C67.8644 59.517 67.4961 59.5672 67.2172 59.6676C66.9382 59.7569 66.7374 59.8796 66.6146 60.0358C66.4919 60.192 66.4305 60.3706 66.4305 60.5714C66.4305 60.828 66.5477 61.0345 66.782 61.1907C67.0275 61.3358 67.3455 61.4585 67.736 61.5589C68.1377 61.6482 68.5729 61.743 69.0416 61.8435C69.5214 61.9439 69.9956 62.0722 70.4642 62.2284C70.944 62.3735 71.3792 62.5743 71.7697 62.831C72.1603 63.0764 72.4727 63.4056 72.707 63.8185C72.9525 64.2202 73.0753 64.7279 73.0753 65.3416C73.0753 66.0222 72.88 66.6527 72.4895 67.2329C72.1101 67.802 71.5354 68.2595 70.7655 68.6054C70.0067 68.9513 69.0471 69.1242 67.8867 69.1242ZM79.2089 69.0405C78.1377 69.0405 77.2004 68.8397 76.397 68.438C75.6047 68.0251 74.9855 67.4672 74.5391 66.7642C74.104 66.0501 73.8864 65.2411 73.8864 64.3373C73.8864 63.4335 74.0984 62.6301 74.5224 61.9271C74.9576 61.213 75.5545 60.6607 76.3133 60.2701C77.0721 59.8684 77.9257 59.6676 78.8741 59.6676C79.7668 59.6676 80.5813 59.8517 81.3178 60.2199C82.0542 60.577 82.64 61.107 83.0752 61.81C83.5104 62.5129 83.728 63.3666 83.728 64.3708C83.728 64.4824 83.7224 64.6107 83.7112 64.7558C83.7001 64.9008 83.6889 65.0347 83.6777 65.1575H76.4974V63.4837H81.9873L80.7822 63.9524C80.7933 63.5395 80.7152 63.1824 80.5479 62.8812C80.3916 62.5799 80.1685 62.3456 79.8784 62.1782C79.5994 62.0108 79.2702 61.9271 78.8909 61.9271C78.5115 61.9271 78.1767 62.0108 77.8866 62.1782C77.6077 62.3456 77.3901 62.5855 77.2338 62.8979C77.0776 63.1992 76.9995 63.5562 76.9995 63.9691V64.4545C76.9995 64.9008 77.0888 65.2858 77.2673 65.6094C77.457 65.933 77.7248 66.184 78.0707 66.3625C78.4166 66.5299 78.8295 66.6136 79.3093 66.6136C79.7556 66.6136 80.135 66.5522 80.4474 66.4295C80.771 66.2956 81.089 66.0947 81.4015 65.827L83.0752 67.5676C82.64 68.0474 82.1044 68.4157 81.4684 68.6723C80.8324 68.9178 80.0792 69.0405 79.2089 69.0405ZM85.1942 68.8899V59.8182H88.2236V62.4627L87.7717 61.7096C88.0395 61.0289 88.4747 60.5212 89.0772 60.1864C89.6798 59.8405 90.4107 59.6676 91.2698 59.6676V62.5297C91.1248 62.5074 90.9965 62.4962 90.8849 62.4962C90.7845 62.4851 90.6729 62.4795 90.5501 62.4795C89.903 62.4795 89.3785 62.658 88.9768 63.0151C88.5751 63.361 88.3743 63.93 88.3743 64.7223V68.8899H85.1942ZM95.3874 68.8899L91.6549 59.8182H94.9187L97.898 67.4003H96.2577L99.3876 59.8182H102.417L98.6679 68.8899H95.3874ZM107.747 69.0405C106.676 69.0405 105.739 68.8397 104.936 68.438C104.143 68.0251 103.524 67.4672 103.078 66.7642C102.643 66.0501 102.425 65.2411 102.425 64.3373C102.425 63.4335 102.637 62.6301 103.061 61.9271C103.496 61.213 104.093 60.6607 104.852 60.2701C105.611 59.8684 106.464 59.6676 107.413 59.6676C108.305 59.6676 109.12 59.8517 109.856 60.2199C110.593 60.577 111.179 61.107 111.614 61.81C112.049 62.5129 112.267 63.3666 112.267 64.3708C112.267 64.4824 112.261 64.6107 112.25 64.7558C112.239 64.9008 112.227 65.0347 112.216 65.1575H105.036V63.4837H110.526L109.321 63.9524C109.332 63.5395 109.254 63.1824 109.086 62.8812C108.93 62.5799 108.707 62.3456 108.417 62.1782C108.138 62.0108 107.809 61.9271 107.429 61.9271C107.05 61.9271 106.715 62.0108 106.425 62.1782C106.146 62.3456 105.929 62.5855 105.772 62.8979C105.616 63.1992 105.538 63.5562 105.538 63.9691V64.4545C105.538 64.9008 105.627 65.2858 105.806 65.6094C105.996 65.933 106.263 66.184 106.609 66.3625C106.955 66.5299 107.368 66.6136 107.848 66.6136C108.294 66.6136 108.674 66.5522 108.986 66.4295C109.31 66.2956 109.628 66.0947 109.94 65.827L111.614 67.5676C111.179 68.0474 110.643 68.4157 110.007 68.6723C109.371 68.9178 108.618 69.0405 107.747 69.0405ZM113.733 68.8899V59.8182H116.762V62.4627L116.31 61.7096C116.578 61.0289 117.013 60.5212 117.616 60.1864C118.218 59.8405 118.949 59.6676 119.808 59.6676V62.5297C119.663 62.5074 119.535 62.4962 119.423 62.4962C119.323 62.4851 119.211 62.4795 119.089 62.4795C118.442 62.4795 117.917 62.658 117.515 63.0151C117.114 63.361 116.913 63.93 116.913 64.7223V68.8899H113.733Z" fill="#8FABD8"/>
<defs>
<linearGradient id="paint0_linear_800_22430" x1="90.0491" y1="24.3201" x2="90.0491" y2="104.662" gradientUnits="userSpaceOnUse">
<stop stop-color="#CBE1F2"/>
<stop offset="1" stop-color="#AED2ED"/>
</linearGradient>
<linearGradient id="paint1_linear_800_22430" x1="90.0482" y1="103.488" x2="90.0482" y2="122.067" gradientUnits="userSpaceOnUse">
<stop stop-color="#CBE1F2"/>
<stop offset="1" stop-color="#AED2ED"/>
</linearGradient>
<linearGradient id="paint2_linear_800_22430" x1="81.3984" y1="108.63" x2="98.6982" y2="108.63" gradientUnits="userSpaceOnUse">
<stop stop-color="#CBE1F2"/>
<stop offset="1" stop-color="#AED2ED"/>
</linearGradient>
<linearGradient id="paint3_linear_800_22430" x1="90.0485" y1="118.886" x2="90.0485" y2="124.586" gradientUnits="userSpaceOnUse">
<stop stop-color="#CBE1F2"/>
<stop offset="1" stop-color="#AED2ED"/>
</linearGradient>
<linearGradient id="paint4_linear_800_22430" x1="55.9026" y1="63.5832" x2="124.195" y2="63.5832" gradientUnits="userSpaceOnUse">
<stop stop-color="#71D2F9"/>
<stop offset="1" stop-color="#51B9F8"/>
</linearGradient>
<linearGradient id="paint5_linear_800_22430" x1="29.9649" y1="86.5958" x2="29.9649" y2="118.604" gradientUnits="userSpaceOnUse">
<stop stop-color="#71D2F9"/>
<stop offset="1" stop-color="#51B9F8"/>
</linearGradient>
<linearGradient id="paint6_linear_800_22430" x1="29.9652" y1="123.192" x2="29.9652" y2="119.254" gradientUnits="userSpaceOnUse">
<stop stop-color="#CBE1F2"/>
<stop offset="1" stop-color="#AED2ED"/>
</linearGradient>
<linearGradient id="paint7_linear_800_22430" x1="29.9648" y1="121.357" x2="29.9648" y2="81.1689" gradientUnits="userSpaceOnUse">
<stop stop-color="#DFEDF2"/>
<stop offset="1" stop-color="#E8F8FF"/>
</linearGradient>
<linearGradient id="paint8_linear_800_22430" x1="33.4964" y1="121.357" x2="33.4964" y2="81.1689" gradientUnits="userSpaceOnUse">
<stop stop-color="#DFEDF2"/>
<stop offset="1" stop-color="#E8F8FF"/>
</linearGradient>
<linearGradient id="paint9_linear_800_22430" x1="29.9653" y1="112.626" x2="29.9653" y2="95.6208" gradientUnits="userSpaceOnUse">
<stop stop-color="#DFEDF2"/>
<stop offset="1" stop-color="#E8F8FF"/>
</linearGradient>
<linearGradient id="paint10_linear_800_22430" x1="29.5" y1="110.296" x2="29.5" y2="91.8515" gradientUnits="userSpaceOnUse">
<stop stop-color="#283770"/>
<stop offset="1" stop-color="#141A5A"/>
</linearGradient>
<linearGradient id="paint11_linear_800_22430" x1="18.7734" y1="21.7804" x2="60.2486" y2="21.7804" gradientUnits="userSpaceOnUse">
<stop stop-color="#71D2F9"/>
<stop offset="1" stop-color="#51B9F8"/>
</linearGradient>
<linearGradient id="paint12_linear_800_22430" x1="nan" y1="nan" x2="nan" y2="nan" gradientUnits="userSpaceOnUse">
<stop stop-color="#71D2F9"/>
<stop offset="1" stop-color="#51B9F8"/>
</linearGradient>
<linearGradient id="paint13_linear_800_22430" x1="29.7976" y1="74.8409" x2="56.2535" y2="74.8409" gradientUnits="userSpaceOnUse">
<stop stop-color="#71D2F9"/>
<stop offset="1" stop-color="#51B9F8"/>
</linearGradient>
<linearGradient id="paint14_linear_800_22430" x1="nan" y1="nan" x2="nan" y2="nan" gradientUnits="userSpaceOnUse">
<stop stop-color="#71D2F9"/>
<stop offset="1" stop-color="#51B9F8"/>
</linearGradient>
<linearGradient id="paint15_linear_800_22430" x1="55.2152" y1="64.3779" x2="56.9567" y2="64.3779" gradientUnits="userSpaceOnUse">
<stop stop-color="#71D2F9"/>
<stop offset="1" stop-color="#51B9F8"/>
</linearGradient>
<linearGradient id="paint16_linear_800_22430" x1="28.6676" y1="86.7503" x2="31.2619" y2="86.7503" gradientUnits="userSpaceOnUse">
<stop stop-color="#71D2F9"/>
<stop offset="1" stop-color="#51B9F8"/>
</linearGradient>
<linearGradient id="paint17_linear_800_22430" x1="nan" y1="nan" x2="nan" y2="nan" gradientUnits="userSpaceOnUse">
<stop stop-color="#71D2F9"/>
<stop offset="1" stop-color="#51B9F8"/>
</linearGradient>
<linearGradient id="paint18_linear_800_22430" x1="73.513" y1="23.7119" x2="73.513" y2="48.8069" gradientUnits="userSpaceOnUse">
<stop stop-color="#71D2F9"/>
<stop offset="1" stop-color="#51B9F8"/>
</linearGradient>
<linearGradient id="paint19_linear_800_22430" x1="nan" y1="nan" x2="nan" y2="nan" gradientUnits="userSpaceOnUse">
<stop stop-color="#71D2F9"/>
<stop offset="1" stop-color="#51B9F8"/>
</linearGradient>
<linearGradient id="paint20_linear_800_22430" x1="83.1089" y1="47.7689" x2="83.1089" y2="49.5103" gradientUnits="userSpaceOnUse">
<stop stop-color="#71D2F9"/>
<stop offset="1" stop-color="#51B9F8"/>
</linearGradient>
<linearGradient id="paint21_linear_800_22430" x1="62.4235" y1="22.5819" x2="62.4235" y2="25.1762" gradientUnits="userSpaceOnUse">
<stop stop-color="#71D2F9"/>
<stop offset="1" stop-color="#51B9F8"/>
</linearGradient>
<linearGradient id="paint22_linear_800_22430" x1="nan" y1="nan" x2="nan" y2="nan" gradientUnits="userSpaceOnUse">
<stop stop-color="#71D2F9"/>
<stop offset="1" stop-color="#51B9F8"/>
</linearGradient>
<linearGradient id="paint23_linear_800_22430" x1="nan" y1="nan" x2="nan" y2="nan" gradientUnits="userSpaceOnUse">
<stop stop-color="#71D2F9"/>
<stop offset="1" stop-color="#51B9F8"/>
</linearGradient>
<linearGradient id="paint24_linear_800_22430" x1="nan" y1="nan" x2="nan" y2="nan" gradientUnits="userSpaceOnUse">
<stop stop-color="#71D2F9"/>
<stop offset="1" stop-color="#51B9F8"/>
</linearGradient>
<linearGradient id="paint25_linear_800_22430" x1="64.2336" y1="105.568" x2="64.2336" y2="108.162" gradientUnits="userSpaceOnUse">
<stop stop-color="#71D2F9"/>
<stop offset="1" stop-color="#51B9F8"/>
</linearGradient>
<linearGradient id="paint26_linear_800_22430" x1="64.164" y1="77.6573" x2="64.164" y2="79.3988" gradientUnits="userSpaceOnUse">
<stop stop-color="#71D2F9"/>
<stop offset="1" stop-color="#51B9F8"/>
</linearGradient>
<linearGradient id="paint27_linear_800_22430" x1="nan" y1="nan" x2="nan" y2="nan" gradientUnits="userSpaceOnUse">
<stop stop-color="#71D2F9"/>
<stop offset="1" stop-color="#51B9F8"/>
</linearGradient>
<linearGradient id="paint28_linear_800_22430" x1="128.032" y1="56.9523" x2="128.032" y2="65.2408" gradientUnits="userSpaceOnUse">
<stop stop-color="#71D2F9"/>
<stop offset="1" stop-color="#51B9F8"/>
</linearGradient>
<linearGradient id="paint29_linear_800_22430" x1="nan" y1="nan" x2="nan" y2="nan" gradientUnits="userSpaceOnUse">
<stop stop-color="#71D2F9"/>
<stop offset="1" stop-color="#51B9F8"/>
</linearGradient>
<linearGradient id="paint30_linear_800_22430" x1="130.56" y1="63.7763" x2="130.56" y2="66.3706" gradientUnits="userSpaceOnUse">
<stop stop-color="#71D2F9"/>
<stop offset="1" stop-color="#51B9F8"/>
</linearGradient>
<linearGradient id="paint31_linear_800_22430" x1="124.011" y1="56.2485" x2="124.011" y2="57.99" gradientUnits="userSpaceOnUse">
<stop stop-color="#71D2F9"/>
<stop offset="1" stop-color="#51B9F8"/>
</linearGradient>
<linearGradient id="paint32_linear_800_22430" x1="nan" y1="nan" x2="nan" y2="nan" gradientUnits="userSpaceOnUse">
<stop stop-color="#71D2F9"/>
<stop offset="1" stop-color="#51B9F8"/>
</linearGradient>
<linearGradient id="paint33_linear_800_22430" x1="113.777" y1="78.3608" x2="113.777" y2="116.655" gradientUnits="userSpaceOnUse">
<stop stop-color="#71D2F9"/>
<stop offset="1" stop-color="#51B9F8"/>
</linearGradient>
<linearGradient id="paint34_linear_800_22430" x1="nan" y1="nan" x2="nan" y2="nan" gradientUnits="userSpaceOnUse">
<stop stop-color="#71D2F9"/>
<stop offset="1" stop-color="#51B9F8"/>
</linearGradient>
<linearGradient id="paint35_linear_800_22430" x1="109.052" y1="77.6573" x2="109.052" y2="79.3988" gradientUnits="userSpaceOnUse">
<stop stop-color="#71D2F9"/>
<stop offset="1" stop-color="#51B9F8"/>
</linearGradient>
<linearGradient id="paint36_linear_800_22430" x1="119.513" y1="115.19" x2="119.513" y2="117.784" gradientUnits="userSpaceOnUse">
<stop stop-color="#71D2F9"/>
<stop offset="1" stop-color="#51B9F8"/>
</linearGradient>
<linearGradient id="paint37_linear_800_22430" x1="118.769" y1="39.7181" x2="140.636" y2="39.7181" gradientUnits="userSpaceOnUse">
<stop stop-color="#71D2F9"/>
<stop offset="1" stop-color="#51B9F8"/>
</linearGradient>
<linearGradient id="paint38_linear_800_22430" x1="130.263" y1="34.1376" x2="130.263" y2="44.1484" gradientUnits="userSpaceOnUse">
<stop stop-color="#71D2F9"/>
<stop offset="1" stop-color="#51B9F8"/>
</linearGradient>
<linearGradient id="paint39_linear_800_22430" x1="125.215" y1="34.1376" x2="125.215" y2="44.1483" gradientUnits="userSpaceOnUse">
<stop stop-color="#71D2F9"/>
<stop offset="1" stop-color="#51B9F8"/>
</linearGradient>
<linearGradient id="paint40_linear_800_22430" x1="135.312" y1="34.1376" x2="135.312" y2="44.1483" gradientUnits="userSpaceOnUse">
<stop stop-color="#71D2F9"/>
<stop offset="1" stop-color="#51B9F8"/>
</linearGradient>
<linearGradient id="paint41_linear_800_22430" x1="143.871" y1="83.7376" x2="143.871" y2="121.343" gradientUnits="userSpaceOnUse">
<stop stop-color="#283770"/>
<stop offset="1" stop-color="#141A5A"/>
</linearGradient>
<linearGradient id="paint42_linear_800_22430" x1="136.987" y1="60.8215" x2="136.987" y2="69.4688" gradientUnits="userSpaceOnUse">
<stop stop-color="#49A5F7"/>
<stop offset="1" stop-color="#1C6CEB"/>
</linearGradient>
<linearGradient id="paint43_linear_800_22430" x1="143.393" y1="60.8071" x2="143.393" y2="82.4614" gradientUnits="userSpaceOnUse">
<stop stop-color="#49A5F7"/>
<stop offset="1" stop-color="#1C6CEB"/>
</linearGradient>
<linearGradient id="paint44_linear_800_22430" x1="131.696" y1="64.9449" x2="131.696" y2="81.7124" gradientUnits="userSpaceOnUse">
<stop stop-color="#71D2F9"/>
<stop offset="1" stop-color="#51B9F8"/>
</linearGradient>
<linearGradient id="paint45_linear_800_22430" x1="149.52" y1="60.8074" x2="149.52" y2="82.4616" gradientUnits="userSpaceOnUse">
<stop stop-color="#49A5F7"/>
<stop offset="1" stop-color="#1C6CEB"/>
</linearGradient>
<linearGradient id="paint46_linear_800_22430" x1="27.7667" y1="18.5107" x2="53.4585" y2="27.6326" gradientUnits="userSpaceOnUse">
<stop stop-color="#71D2F9"/>
<stop offset="1" stop-color="#51B9F8"/>
</linearGradient>
<linearGradient id="paint47_linear_800_22430" x1="26.78" y1="21.2895" x2="52.4719" y2="30.4114" gradientUnits="userSpaceOnUse">
<stop stop-color="#71D2F9"/>
<stop offset="1" stop-color="#51B9F8"/>
</linearGradient>
<linearGradient id="paint48_linear_800_22430" x1="25.6106" y1="24.5834" x2="51.3024" y2="33.7053" gradientUnits="userSpaceOnUse">
<stop stop-color="#71D2F9"/>
<stop offset="1" stop-color="#51B9F8"/>
</linearGradient>
<linearGradient id="paint49_linear_800_22430" x1="26.6639" y1="21.6169" x2="52.3558" y2="30.7388" gradientUnits="userSpaceOnUse">
<stop stop-color="#71D2F9"/>
<stop offset="1" stop-color="#51B9F8"/>
</linearGradient>
<linearGradient id="paint50_linear_800_22430" x1="27.8266" y1="18.3404" x2="53.5185" y2="27.4623" gradientUnits="userSpaceOnUse">
<stop stop-color="#71D2F9"/>
<stop offset="1" stop-color="#51B9F8"/>
</linearGradient>
<linearGradient id="paint51_linear_800_22430" x1="31.0751" y1="52.7178" x2="31.0751" y2="45.0901" gradientUnits="userSpaceOnUse">
<stop stop-color="#CBE1F2"/>
<stop offset="1" stop-color="#AED2ED"/>
</linearGradient>
<linearGradient id="paint52_linear_800_22430" x1="31.0751" y1="52.7181" x2="31.0751" y2="45.0903" gradientUnits="userSpaceOnUse">
<stop stop-color="#CBE1F2"/>
<stop offset="1" stop-color="#AED2ED"/>
</linearGradient>
<linearGradient id="paint53_linear_800_22430" x1="31.0751" y1="52.7181" x2="31.0751" y2="45.0904" gradientUnits="userSpaceOnUse">
<stop stop-color="#CBE1F2"/>
<stop offset="1" stop-color="#AED2ED"/>
</linearGradient>
<linearGradient id="paint54_linear_800_22430" x1="49.6498" y1="50.3246" x2="35.172" y2="42.8765" gradientUnits="userSpaceOnUse">
<stop stop-color="#CBE1F2"/>
<stop offset="1" stop-color="#AED2ED"/>
</linearGradient>
<linearGradient id="paint55_linear_800_22430" x1="48.5656" y1="52.4319" x2="34.0877" y2="44.9837" gradientUnits="userSpaceOnUse">
<stop stop-color="#CBE1F2"/>
<stop offset="1" stop-color="#AED2ED"/>
</linearGradient>
<linearGradient id="paint56_linear_800_22430" x1="46.5619" y1="56.3267" x2="32.0841" y2="48.8786" gradientUnits="userSpaceOnUse">
<stop stop-color="#CBE1F2"/>
<stop offset="1" stop-color="#AED2ED"/>
</linearGradient>
<linearGradient id="paint57_linear_800_22430" x1="42.9953" y1="119.716" x2="73.928" y2="119.716" gradientUnits="userSpaceOnUse">
<stop stop-color="#3949B2"/>
<stop offset="1" stop-color="#5CA5F7"/>
</linearGradient>
<linearGradient id="paint58_linear_800_22430" x1="45.2583" y1="117.882" x2="45.2583" y2="121.104" gradientUnits="userSpaceOnUse">
<stop stop-color="#71D2F9"/>
<stop offset="1" stop-color="#51B9F8"/>
</linearGradient>
<linearGradient id="paint59_linear_800_22430" x1="48.4256" y1="117.882" x2="48.4256" y2="121.104" gradientUnits="userSpaceOnUse">
<stop stop-color="#71D2F9"/>
<stop offset="1" stop-color="#51B9F8"/>
</linearGradient>
<linearGradient id="paint60_linear_800_22430" x1="67.9065" y1="119.721" x2="44.7746" y2="119.721" gradientUnits="userSpaceOnUse">
<stop stop-color="#CBE1F2"/>
<stop offset="1" stop-color="#AED2ED"/>
</linearGradient>
<linearGradient id="paint61_linear_800_22430" x1="67.9065" y1="119.716" x2="44.7751" y2="119.716" gradientUnits="userSpaceOnUse">
<stop stop-color="#CBE1F2"/>
<stop offset="1" stop-color="#AED2ED"/>
</linearGradient>
<linearGradient id="paint62_linear_800_22430" x1="48.0239" y1="122.189" x2="45.3906" y2="123.795" gradientUnits="userSpaceOnUse">
<stop stop-color="#0B1B6A"/>
<stop offset="1" stop-color="#3949B2"/>
</linearGradient>
<linearGradient id="paint63_linear_800_22430" x1="66.8139" y1="122.189" x2="64.1806" y2="123.795" gradientUnits="userSpaceOnUse">
<stop stop-color="#0B1B6A"/>
<stop offset="1" stop-color="#3949B2"/>
</linearGradient>
<linearGradient id="paint64_linear_800_22430" x1="42.9953" y1="112.751" x2="73.928" y2="112.751" gradientUnits="userSpaceOnUse">
<stop stop-color="#3949B2"/>
<stop offset="1" stop-color="#5CA5F7"/>
</linearGradient>
<linearGradient id="paint65_linear_800_22430" x1="43.7763" y1="112.751" x2="51.6158" y2="112.751" gradientUnits="userSpaceOnUse">
<stop stop-color="#CBE1F2"/>
<stop offset="1" stop-color="#AED2ED"/>
</linearGradient>
<linearGradient id="paint66_linear_800_22430" x1="61.3259" y1="111.271" x2="61.3259" y2="113.783" gradientUnits="userSpaceOnUse">
<stop stop-color="#71D2F9"/>
<stop offset="1" stop-color="#51B9F8"/>
</linearGradient>
<linearGradient id="paint67_linear_800_22430" x1="63.7498" y1="111.271" x2="63.7498" y2="113.783" gradientUnits="userSpaceOnUse">
<stop stop-color="#71D2F9"/>
<stop offset="1" stop-color="#51B9F8"/>
</linearGradient>
<linearGradient id="paint68_linear_800_22430" x1="48.0239" y1="115.224" x2="45.3906" y2="116.83" gradientUnits="userSpaceOnUse">
<stop stop-color="#0B1B6A"/>
<stop offset="1" stop-color="#3949B2"/>
</linearGradient>
<linearGradient id="paint69_linear_800_22430" x1="66.8139" y1="115.224" x2="64.1806" y2="116.83" gradientUnits="userSpaceOnUse">
<stop stop-color="#0B1B6A"/>
<stop offset="1" stop-color="#3949B2"/>
</linearGradient>
</defs>
</svg>
