<svg width="184" height="141" viewBox="0 0 184 141" fill="none" xmlns="http://www.w3.org/2000/svg">
<path d="M31.8765 139.41C31.8765 139.41 -10.9395 108.758 10.2283 86.8539C31.3961 64.9502 82.0927 79.0925 95.3134 71.0897C108.534 63.0865 137.958 33.6482 162.331 50.099C184.568 65.1095 156.451 89.2276 164.169 104.111C172.574 120.32 172.935 127.096 168.864 139.41H31.8765Z" fill="white"/>
<path d="M26.3606 139.639H121.966" stroke="#657380" stroke-width="0.733091" stroke-miterlimit="10" stroke-linecap="round" stroke-linejoin="round"/>
<path d="M161.185 139.639H182.949" stroke="#657380" stroke-width="0.733091" stroke-miterlimit="10" stroke-linecap="round" stroke-linejoin="round"/>
<path d="M0.366455 139.639H11.1917" stroke="#657380" stroke-width="0.733091" stroke-miterlimit="10" stroke-linecap="round" stroke-linejoin="round"/>
<path d="M121.713 87.1002C121.477 88.2577 120.348 89.0053 119.19 88.7694C118.033 88.5336 117.285 87.4044 117.521 86.2469C117.757 85.0894 118.886 84.3418 120.044 84.5776C121.201 84.8131 121.949 85.9423 121.713 87.1002Z" fill="#EAAB73"/>
<path d="M122.845 88.4212L120.665 87.9773C120.095 87.8611 119.724 87.3006 119.84 86.731C119.956 86.1614 120.517 85.7907 121.086 85.9064L123.266 86.3503C123.836 86.466 124.207 87.0269 124.091 87.5965C123.975 88.1657 123.414 88.5369 122.845 88.4212Z" fill="#EAAB73"/>
<path d="M133.585 91.2791C133.533 91.2738 133.481 91.2664 133.43 91.2569L121.455 89.0698L122.17 85.1557L132.897 87.1151C135.149 83.9311 138.337 80.48 138.337 80.48L142.332 80.748C142.47 81.7123 141.635 81.6919 135.408 90.4523C134.991 91.0389 134.293 91.3513 133.585 91.2791Z" fill="#233241"/>
<path d="M92.9185 139.49C84.9879 139.49 78.5586 133.06 78.5586 125.13V113.934H107.278V125.13C107.278 133.06 100.85 139.49 92.9185 139.49Z" fill="#5062E5"/>
<path d="M105.974 70.6729C107.465 69.4853 106.27 67.3488 106.27 67.3488H106.273C105.879 66.4571 105.656 65.4733 105.656 64.4354C105.656 60.4517 108.885 57.2224 112.869 57.2224C116.853 57.2224 120.082 60.4517 120.082 64.4354C120.082 65.4728 119.859 66.4571 119.464 67.3488H119.467C119.467 67.3488 118.273 69.4853 119.764 70.6729H131.218C128.87 82.5172 120.436 89.4639 113.881 96.643C106.628 104.587 107.118 112.562 107.193 113.085C107.754 117 92.7454 116.329 92.7454 116.329V70.6729H105.974Z" fill="#5062E5"/>
<path d="M87.0036 37.9124C88.041 37.9124 89.0253 38.1356 89.9169 38.5298V38.5268C89.9169 38.5268 91.5426 39.4349 92.7463 38.6773V24.9736C94.1457 24.9736 95.5447 25.0911 96.9289 25.3261C115.085 28.4078 128.205 38.0011 131.289 57.2726C132.107 62.3869 131.988 66.7919 131.219 70.6734H119.765C118.273 69.4859 119.468 67.3493 119.468 67.3493H119.465C119.86 66.4577 120.083 65.4738 120.083 64.436C120.083 60.4522 116.854 57.2229 112.87 57.2229C108.886 57.2229 105.657 60.4522 105.657 64.436C105.657 65.4734 105.88 66.4577 106.274 67.3493H106.271C106.271 67.3493 107.466 69.4859 105.975 70.6734H92.7467V51.5738C91.5431 50.8158 89.9174 51.724 89.9174 51.724V51.7209C89.0257 52.1152 88.0419 52.3384 87.004 52.3384C83.0203 52.3384 79.791 49.1092 79.791 45.1254C79.7901 41.142 83.0198 37.9124 87.0036 37.9124Z" fill="#77D0FA"/>
<path d="M54.2732 70.6729H65.0705C66.5618 69.4853 65.3673 67.3488 65.3673 67.3488H65.3704C64.9761 66.4571 64.7524 65.4733 64.7524 64.4354C64.7524 60.4517 67.9817 57.2224 71.9655 57.2224C75.9493 57.2224 79.1785 60.4517 79.1785 64.4354C79.1785 65.4728 78.9553 66.4571 78.561 67.3488H78.5641C78.5641 67.3488 77.3696 69.4853 78.8604 70.6729H92.7451V85.3792C93.9026 85.8474 95.2794 85.0802 95.2794 85.0802V85.0832C96.1711 84.689 97.1549 84.4658 98.1928 84.4658C102.177 84.4658 105.406 87.695 105.406 91.6788C105.406 95.6626 102.177 98.8918 98.1928 98.8918C97.1554 98.8918 96.1711 98.6686 95.2794 98.2744V98.2774C95.2794 98.2774 93.9026 97.5102 92.7451 97.978V116.329C92.7451 116.329 78.3017 117 78.2973 113.085C78.2969 112.557 78.8622 104.587 71.6091 96.643C65.0544 89.4639 56.6213 82.5172 54.2732 70.6729Z" fill="#6BADF8"/>
<path d="M107.086 118.738H77.8601C76.2579 118.738 74.959 117.439 74.959 115.836C74.959 114.234 76.2579 112.935 77.8601 112.935H107.086C108.688 112.935 109.987 114.234 109.987 115.836C109.986 117.439 108.688 118.738 107.086 118.738Z" fill="#F1D34D"/>
<path d="M107.086 128.903H77.8601C76.2579 128.903 74.959 127.604 74.959 126.002C74.959 124.4 76.2579 123.101 77.8601 123.101H107.086C108.688 123.101 109.987 124.4 109.987 126.002C109.986 127.604 108.688 128.903 107.086 128.903Z" fill="#F1D34D"/>
<path d="M138.715 98.2737L137.451 102.647L150.752 103.834L150.497 98.288L138.715 98.2737Z" fill="#4F65E9"/>
<path d="M144.537 101.356L139.732 114.746L139.076 135.429L134.342 135.361L134.188 113.801L137.797 101.468L144.537 101.356Z" fill="#5062E5"/>
<path opacity="0.66" d="M143.863 103.236L140.408 102.783L142.267 107.684L143.863 103.236Z" fill="#C6C6C6"/>
<path d="M150.754 102.933L151.214 115.253L154.238 135.665L149.35 135.603L145.285 115.597L143.778 101.354L150.754 102.933Z" fill="#5062E5"/>
<path d="M135.029 135.329L138.259 135.422L138.179 140.052L128.996 139.787C129.087 139.062 129.596 138.507 130.311 138.359L134.898 137.408L135.029 135.329Z" fill="#2B3C50"/>
<path d="M138.19 140.048L129.006 139.783L128.985 140.498L138.169 140.763L138.19 140.048Z" fill="#C4C9E7"/>
<path d="M150.354 136.044L153.418 135.748L153.893 140.134L145.208 140.26C145.208 139.565 145.623 138.979 146.281 138.754L150.477 138.025L150.354 136.044Z" fill="#2B3C50"/>
<path d="M153.892 140.134L145.207 140.26L145.273 140.938L153.958 140.812L153.892 140.134Z" fill="#C4C9E7"/>
<path d="M145.329 79.4617L145.718 79.54C147.427 79.8833 148.766 81.2144 149.12 82.9211L151.317 98.704C145.349 101.688 138.051 98.2684 138.051 98.2684L137.146 83.5886C137.004 81.969 137.901 80.4368 139.384 79.7693L145.329 79.4617Z" fill="#2B3C50"/>
<path d="M139.886 79.741L144.938 79.479C144.938 79.479 144.8 81.7065 141.763 81.5634C139.286 81.4467 139.886 79.741 139.886 79.741Z" fill="#E59924"/>
<path d="M129.581 92.6245C129.458 93.7994 128.406 94.6519 127.231 94.5287C126.056 94.4056 125.204 93.3534 125.327 92.1785C125.45 91.0036 126.502 90.1511 127.677 90.2743C128.852 90.3974 129.704 91.4496 129.581 92.6245Z" fill="#E59924"/>
<path d="M130.835 93.8307L128.622 93.5987C128.044 93.5382 127.621 93.0156 127.682 92.4378C127.742 91.8599 128.265 91.4365 128.843 91.497L131.055 91.7289C131.633 91.7894 132.057 92.312 131.996 92.8899C131.936 93.4677 131.413 93.8912 130.835 93.8307Z" fill="#E59924"/>
<path d="M129.595 94.5881L129.741 90.6121L140.699 91.0168L144.783 82.2142C145.274 81.2316 146.469 80.833 147.452 81.3239C148.435 81.8151 148.833 83.0096 148.342 83.9926L143.685 93.9414C143.337 94.6394 142.612 95.0689 141.832 95.0402L129.595 94.5881Z" fill="#2B3C50"/>
<path d="M133.804 133.262L133.73 135.331L139.662 135.541L139.735 133.472L133.804 133.262Z" fill="#7286F2"/>
<path d="M148.511 134.054L154.551 133.696L154.877 135.741L148.837 136.098L148.511 134.054Z" fill="#7286F2"/>
<path d="M137.843 94.8925L141.38 95.0239C142.375 94.9952 143.276 94.4252 143.728 93.5383L147.977 84.7744C146.269 89.914 144.076 95.1314 144.076 95.1314C143.807 95.7972 143.139 96.2136 142.423 96.1627L137.9 95.8202L137.843 94.8925Z" fill="#233241"/>
<path d="M144.126 80.8698L140.498 80.563L141.068 72.8992L144.696 73.206L144.126 80.8698Z" fill="#E59924"/>
<path d="M140.609 79.0747C140.609 79.0747 143.94 79.7261 144.343 74.2036L140.686 78.0408L140.609 79.0747Z" fill="#CC8420"/>
<path d="M139.893 78.0594C137.599 77.8953 135.873 75.9028 136.037 73.6091L136.276 70.2737C136.348 69.2646 137.224 68.5053 138.233 68.5775L144.713 69.0409L144.343 74.2031C144.179 76.4972 142.187 78.2235 139.893 78.0594Z" fill="#E59924"/>
<path d="M144.68 73.5766L143.237 73.483L143.242 71.4082C143.242 71.4082 143.154 70.0183 144.102 69.9613L136.362 69.5706C136.362 69.5706 134.021 69.2181 134.631 66.8483C134.98 65.4941 136.198 64.9441 136.755 64.9932C137.18 65.0307 137.453 65.7208 137.452 66.1473V66.1481C137.452 66.1481 145.09 64.6839 145.368 67.8322C145.591 70.3469 144.907 70.9082 144.907 70.9082L144.68 73.5766Z" fill="#222C38"/>
<path d="M144.816 67.9507C144.816 67.9507 146.624 67.8568 146.77 69.4555C147.023 72.2291 144.68 73.5768 144.68 73.5768L144.713 69.0417L144.816 67.9507Z" fill="#222C38"/>
<path d="M146.325 73.4326C146.122 74.1262 145.396 74.524 144.702 74.3212C144.008 74.1184 143.611 73.3917 143.813 72.6981C144.016 72.0045 144.743 71.6067 145.437 71.81C146.13 72.0123 146.528 72.739 146.325 73.4326Z" fill="#E59924"/>
<path d="M137.101 66.5808C137.101 66.5808 137.761 65.2823 138.354 65.1822C138.946 65.0821 138.088 66.7979 138.088 66.7979L137.101 66.5808Z" fill="#222C38"/>
<path d="M144.814 68.6675C144.778 68.6675 144.743 68.6514 144.718 68.6213C144.675 68.5683 144.684 68.4912 144.736 68.4482C145.648 67.7097 145.624 66.7258 145.624 66.7158C145.622 66.6475 145.675 66.5905 145.742 66.5879C145.744 66.5879 145.746 66.5879 145.747 66.5879C145.813 66.5879 145.867 66.6397 145.87 66.7058C145.872 66.7506 145.903 67.8211 144.891 68.6396C144.869 68.6583 144.841 68.6675 144.814 68.6675Z" fill="#222C38"/>
<path d="M145.161 68.78C145.157 68.78 145.151 68.7792 145.146 68.7787C145.079 68.7709 145.03 68.7087 145.039 68.6412C145.159 67.6682 146.595 67.5151 146.656 67.509C146.66 67.509 146.664 67.5085 146.668 67.5085C146.731 67.5085 146.784 67.5564 146.791 67.6199C146.798 67.6874 146.748 67.7483 146.68 67.7553C146.667 67.7566 145.38 67.895 145.284 68.6726C145.277 68.7339 145.223 68.78 145.161 68.78Z" fill="#222C38"/>
<path d="M15.4736 28.4435C15.4736 28.4435 16.5267 27.2321 17.1725 26.6768C18.3352 25.6769 19.6685 23.9097 23.9321 25.2121C24.2636 25.3135 24.5843 25.4475 24.9037 25.5829C25.2797 25.7421 26.4442 25.746 27.6365 24.7992C29.5316 23.2944 30.2726 22.1595 32.8683 22.1239C35.8891 22.083 36.3638 25.8483 38.7119 26.8122C40.2058 27.4257 44.1478 28.0354 44.9628 28.3069L15.4736 28.4435Z" fill="white"/>
<path d="M112.135 10.6683C112.135 10.6683 113.913 8.62309 115.002 7.68621C116.965 5.99827 119.215 3.01532 126.413 5.2137C126.972 5.38471 127.514 5.61142 128.053 5.83944C128.687 6.10836 130.653 6.11533 132.666 4.51702C135.865 1.97706 137.116 0.0606642 141.498 0.00104876C146.597 -0.0681399 147.399 6.28851 151.362 7.91553C153.884 8.95075 160.538 9.98032 161.914 10.439L112.135 10.6683Z" fill="white"/>
<path d="M49.3837 52.8495C45.4717 33.7291 54.3649 20.125 70.267 10.8367C71.4793 10.1287 72.7469 9.5252 74.0562 9.03174L78.8899 21.8547C78.0309 22.9883 76.1893 22.7119 76.1893 22.7119L76.1902 22.715C75.2168 22.6602 74.2172 22.7985 73.2464 23.1645C69.5189 24.5696 67.636 28.7305 69.0411 32.4584C70.4462 36.1859 74.6071 38.0688 78.3351 36.6637C79.3059 36.2977 80.1479 35.7416 80.8433 35.058L80.8446 35.061C80.8446 35.061 82.0456 33.6377 83.4389 33.9227L90.1759 51.7947L77.1837 56.6919C75.3695 56.1066 75.7337 53.6858 75.7337 53.6858L75.7307 53.6871C75.7855 52.7137 75.6471 51.7142 75.2812 50.7434C73.8761 47.0159 69.7152 45.133 65.9873 46.5381C62.2598 47.9432 60.3769 52.1041 61.782 55.832C62.148 56.8028 62.7041 57.6448 63.3877 58.3402L63.3846 58.3415C63.3846 58.3415 65.2562 59.9194 64.2797 61.5564L54.176 65.3648C52.0869 62.0042 50.422 57.9242 49.3837 52.8495Z" fill="#ECBE2D"/>
<path d="M16.4132 139.972C16.7452 139.972 17.0433 139.772 17.1159 139.478L39.9582 47.1804C40.0422 46.8418 39.7942 46.5085 39.406 46.4363C39.0209 46.3579 38.6345 46.5781 38.5505 46.9167L15.7082 139.214C15.6243 139.553 15.8723 139.886 16.2604 139.958C16.3118 139.968 16.3631 139.972 16.4132 139.972Z" fill="#5374F4"/>
<path d="M33.1476 139.972C33.4796 139.972 33.7777 139.772 33.8504 139.478L56.7788 47.1804C56.8628 46.8427 56.6161 46.5094 56.2266 46.4363C55.8385 46.3579 55.4551 46.5781 55.3711 46.9167L32.4427 139.214C32.3587 139.552 32.6054 139.885 32.9949 139.958C33.0462 139.968 33.0976 139.972 33.1476 139.972Z" fill="#5374F4"/>
<path d="M38.0341 52.6039H54.8505C55.2482 52.6039 55.5706 52.3232 55.5706 51.9777C55.5706 51.6322 55.2478 51.3516 54.8505 51.3516H38.0341C37.6364 51.3516 37.314 51.6322 37.314 51.9777C37.314 52.3232 37.6368 52.6039 38.0341 52.6039Z" fill="#5374F4"/>
<path d="M36.2026 59.9848H53.0189C53.4166 59.9848 53.7391 59.7041 53.7391 59.3586C53.7391 59.0131 53.4162 58.7324 53.0189 58.7324H36.2026C35.8049 58.7324 35.4824 59.0131 35.4824 59.3586C35.4824 59.7041 35.8053 59.9848 36.2026 59.9848Z" fill="#5374F4"/>
<path d="M34.371 67.3651H51.1874C51.5851 67.3651 51.9075 67.0845 51.9075 66.739C51.9075 66.3935 51.5847 66.1128 51.1874 66.1128H34.371C33.9733 66.1128 33.6509 66.3935 33.6509 66.739C33.6509 67.0849 33.9733 67.3651 34.371 67.3651Z" fill="#5374F4"/>
<path d="M32.5395 74.7475H49.3545C49.7523 74.7475 50.0747 74.4668 50.0747 74.1213C50.0747 73.7758 49.7518 73.4951 49.3545 73.4951H32.5395C32.1418 73.4951 31.8193 73.7758 31.8193 74.1213C31.8193 74.4668 32.1418 74.7475 32.5395 74.7475Z" fill="#5374F4"/>
<path d="M30.7077 82.1283H47.524C47.9218 82.1283 48.2442 81.8477 48.2442 81.5022C48.2442 81.1566 47.9213 80.876 47.524 80.876H30.7077C30.31 80.876 29.9875 81.1566 29.9875 81.5022C29.9871 81.8477 30.31 82.1283 30.7077 82.1283Z" fill="#5374F4"/>
<path d="M28.8757 89.5094H45.692C46.0897 89.5094 46.4122 89.2288 46.4122 88.8833C46.4122 88.5378 46.0893 88.2571 45.692 88.2571H28.8757C28.478 88.2571 28.1555 88.5378 28.1555 88.8833C28.1555 89.2288 28.4784 89.5094 28.8757 89.5094Z" fill="#5374F4"/>
<path d="M27.0446 96.8913H43.861C44.2587 96.8913 44.5811 96.6106 44.5811 96.2651C44.5811 95.9196 44.2583 95.6389 43.861 95.6389H27.0446C26.6469 95.6389 26.3245 95.9196 26.3245 96.2651C26.3245 96.6106 26.6473 96.8913 27.0446 96.8913Z" fill="#5374F4"/>
<path d="M25.2126 104.272H42.0284C42.4262 104.272 42.7486 103.991 42.7486 103.646C42.7486 103.3 42.4257 103.02 42.0284 103.02H25.2126C24.8148 103.02 24.4919 103.3 24.4919 103.646C24.4919 103.991 24.8148 104.272 25.2126 104.272Z" fill="#5374F4"/>
<path d="M23.3811 111.653H40.1961C40.5938 111.653 40.9163 111.372 40.9163 111.026C40.9163 110.681 40.5934 110.4 40.1961 110.4H23.3811C22.9833 110.4 22.6609 110.681 22.6609 111.026C22.6605 111.372 22.9833 111.653 23.3811 111.653Z" fill="#5374F4"/>
<path d="M21.5493 119.035H38.3656C38.7633 119.035 39.0858 118.754 39.0858 118.409C39.0858 118.063 38.7629 117.782 38.3656 117.782H21.5493C21.1515 117.782 20.8291 118.063 20.8291 118.409C20.8291 118.754 21.152 119.035 21.5493 119.035Z" fill="#5374F4"/>
<path d="M19.7172 126.416H36.5336C36.9313 126.416 37.2537 126.135 37.2537 125.79C37.2537 125.444 36.9309 125.163 36.5336 125.163H19.7172C19.3195 125.163 18.9971 125.444 18.9971 125.79C18.9971 126.135 19.3195 126.416 19.7172 126.416Z" fill="#5374F4"/>
<path d="M32.6458 58.9227L36.4707 59.0724L36.8593 51.3594L33.0343 51.2097L32.6458 58.9227Z" fill="#E59924"/>
<path d="M33.2942 52.925C33.2942 52.925 33.064 57.1791 36.5334 57.8279L36.6661 55.8062L33.2942 52.925Z" fill="#CC8420"/>
<path d="M33.5334 47.4148C33.5334 47.4148 28.4295 48.0971 32.7801 51.7384L33.5334 47.4148Z" fill="#222C38"/>
<path d="M37.4128 56.897C39.8275 57.0245 41.8883 55.1699 42.0154 52.7553L42.3017 47.3207L33.5574 46.8599L33.2711 52.2944C33.1436 54.7091 34.9982 56.7695 37.4128 56.897Z" fill="#E59924"/>
<path d="M41.2402 47.8867C41.2402 47.8867 42.2436 48.5233 42.1553 50.1964C42.1553 50.1964 43.9407 48.1116 42.8715 46.8776C42.6018 46.5664 42.1875 46.418 41.7758 46.4285C41.1531 46.4442 40.0731 46.6452 38.7563 47.6077C36.6559 49.1438 41.2402 47.8867 41.2402 47.8867Z" fill="#222C38"/>
<path d="M41.5265 47.0678C41.5265 47.0678 41.6291 43.1867 36.4104 43.7167C31.0246 44.2637 31.6729 49.2549 33.5563 51.1821L34.6145 50.4772L41.5265 47.0678Z" fill="#222C38"/>
<path d="M31.813 51.561C31.7729 52.3199 32.3556 52.9674 33.1145 53.0074C33.8734 53.0475 34.5209 52.4648 34.5609 51.7059C34.601 50.947 34.0183 50.2995 33.2594 50.2595C32.5005 50.2199 31.853 50.8025 31.813 51.561Z" fill="#E59924"/>
<path d="M34.2257 50.0853L34.338 52.2258L35.4763 52.2755L35.5707 50.101C40.0254 50.5531 41.7516 47.2908 41.7516 47.2908C41.2007 47.2617 35.8523 45.7443 34.2218 46.2256C32.5913 46.7064 33.2601 50.2598 33.2601 50.2598L34.1652 49.3704L34.2257 50.0853Z" fill="#222C38"/>
<path d="M42.9174 97.7849L40.0907 97.2705L38.834 101.907L46.8812 102.408L46.9948 101.782C47.0492 101.135 46.7084 100.558 46.114 100.298L42.2999 99.6177L42.9174 97.7849Z" fill="#2B3C50"/>
<path d="M26.2613 105.887L23.4159 105.489L21.9973 110.379L30.0584 110.547L30.1463 109.917C30.1738 109.269 29.81 108.706 29.2051 108.47L25.5908 107.979L26.2613 105.887Z" fill="#2B3C50"/>
<path d="M29.605 77.7344L27.2591 89.7201L21.835 106.481L26.9619 106.778L32.9443 90.1927L36.5208 77.7344H29.605Z" fill="#DDBB3D"/>
<path opacity="0.21" d="M29.39 78.8311L35.7031 80.5812L34.9786 83.1051L29.2246 79.6752L29.39 78.8311Z" fill="#C6C6C6"/>
<path d="M38.7844 75.6672L46.906 78.1859C48.3394 78.4239 49.2376 79.8669 48.8181 81.258L43.7325 98.4203L38.4202 98.3803L43.2303 82.2184L31.2759 79.6184C29.5179 79.4609 28.1711 77.9879 28.1711 76.2229V75.6677H38.7844V75.6672Z" fill="#F1D34D"/>
<path d="M35.576 58.3184C37.898 58.3275 39.6825 61.6338 39.6825 64.2355L38.7844 75.6677L27.179 76.1638L29.0362 62.5554C29.3125 60.0672 30.8725 58.3188 32.7393 58.3266L35.576 58.3184Z" fill="#5062E5"/>
<path d="M56.7288 61.7524C57.7131 62.6645 59.2505 62.6053 60.1626 61.621C61.0747 60.6367 61.0155 59.0993 60.0312 58.1873C59.0469 57.2752 57.5095 57.3344 56.5974 58.3187C55.6854 59.3034 55.7445 60.8408 56.7288 61.7524Z" fill="#E59924"/>
<path d="M45.949 68.6367C45.704 68.6367 45.4599 68.5862 45.2327 68.487L33.9419 63.5472L35.3748 60.2719L46.0795 64.9554L58.2384 58.5513L59.2088 61.0804L46.4346 68.5693C46.2753 68.6145 46.1117 68.6367 45.949 68.6367Z" fill="#E59924"/>
<path d="M41.4246 62.3994L39.1022 67.2974L34.1298 64.5307C32.7934 63.7875 32.3383 62.0852 33.1255 60.7741C33.7878 59.671 35.135 59.1867 36.3482 59.6162L41.4246 62.3994Z" fill="#5062E5"/>
<path opacity="0.66" d="M39.5096 66.4394L39.2925 69.2052L33.7039 64.2354L39.1027 67.2975L39.5096 66.4394Z" fill="#C6C6C6"/>
</svg>
